<svg width="106" height="92" viewBox="0 0 106 92" fill="none" xmlns="http://www.w3.org/2000/svg">
<path d="M93.5127 32.7549H32.6982V91.4179H93.5127V32.7549Z" fill="white"/>
<path d="M93.5108 91.6651H32.6963C32.5596 91.6651 32.4492 91.5546 32.4492 91.4179V32.7549C32.4492 32.6181 32.5596 32.5077 32.6963 32.5077H93.5108C93.6474 32.5077 93.7579 32.6181 93.7579 32.7549V91.4179C93.7579 91.5546 93.6474 91.6651 93.5108 91.6651ZM32.9434 91.1708H93.2637V33.002H32.9434V91.1708Z" fill="#283F56"/>
<path d="M93.5108 38.6706H32.6963C32.5596 38.6706 32.4492 38.5602 32.4492 38.4234C32.4492 38.2867 32.5596 38.1763 32.6963 38.1763H93.5108C93.6474 38.1763 93.7579 38.2867 93.7579 38.4234C93.7579 38.5602 93.6474 38.6706 93.5108 38.6706Z" fill="#283F56"/>
<path d="M36.8131 35.3946C36.8131 35.9336 36.3767 36.3726 35.8353 36.3726C35.2938 36.3726 34.8574 35.9362 34.8574 35.3946C34.8574 34.853 35.2938 34.4165 35.8353 34.4165C36.3767 34.4165 36.8131 34.853 36.8131 35.3946Z" fill="#283F56"/>
<path d="M44.0338 35.3946C44.0338 35.9336 43.5974 36.3726 43.0559 36.3726C42.5145 36.3726 42.0781 35.9362 42.0781 35.3946C42.0781 34.853 42.5145 34.4165 43.0559 34.4165C43.5974 34.4165 44.0338 34.853 44.0338 35.3946Z" fill="#67DDB9"/>
<path d="M40.4224 35.3946C40.4224 35.9336 39.9861 36.3726 39.4446 36.3726C38.9031 36.3726 38.4668 35.9362 38.4668 35.3946C38.4668 34.853 38.9031 34.4165 39.4446 34.4165C39.9861 34.4165 40.4224 34.853 40.4224 35.3946Z" fill="#D75338"/>
<path d="M35.869 51.1751C33.5375 53.5545 30.6145 57.175 28.1516 56.0234C26.493 55.2478 25.573 48.0437 25.4915 45.2752C25.4152 42.7274 25.757 38.7941 24.8448 35.0948C23.9327 31.3955 17.7924 30.7119 17.7924 30.7119C17.7924 30.7119 15.9787 25.0302 13.1898 25.3378C10.4009 25.6454 12.1042 29.8233 12.1042 29.8233C12.1042 29.8233 7.94318 23.918 5.90604 24.2572C4.64696 24.4675 4.3841 25.5929 4.36833 26.4237C3.47462 26.0004 2.33908 25.7296 1.6504 26.5604C0.386059 28.0932 2.85691 30.0336 2.85691 30.0336C2.85691 30.0336 1.26925 29.2738 0.438626 30.8776C-0.392001 32.4814 1.74765 34.4165 1.74765 34.4165C1.4848 34.7346 1.74765 36.3227 3.22491 36.6829C4.92822 37.0983 11.15 38.5549 11.15 38.5549C11.15 38.5549 10.9634 52.8604 11.0896 58.2477C11.568 78.9186 30.4884 82.1289 44.8193 69.1589L35.869 51.1725V51.1751Z" fill="white"/>
<path d="M27.1794 77.1491C24.8768 77.1491 22.6661 76.7232 20.629 75.845C14.5176 73.2158 11.0426 66.9714 10.8402 58.2556C10.7246 53.2706 10.877 40.5005 10.8981 38.7521C9.83348 38.5023 4.67886 37.2955 3.16481 36.9248C2.04241 36.6513 1.64025 35.7732 1.51934 35.4103C1.40105 35.0554 1.38002 34.7162 1.45099 34.4743C0.972591 33.9985 -0.567745 32.2895 0.220824 30.7671C0.691337 29.8574 1.41682 29.5945 2.04767 29.6077C1.62184 29.1397 1.13556 28.4613 1.05671 27.7357C1.00413 27.2466 1.14082 26.7997 1.46413 26.4105C2.04241 25.7085 2.96767 25.5902 4.1479 26.0635C4.27144 24.9066 4.87338 24.1862 5.86961 24.0206C7.48617 23.7498 10.12 26.8128 11.479 28.5665C11.3081 27.7409 11.2398 26.7103 11.6735 25.982C11.9784 25.4719 12.4804 25.1748 13.1665 25.0986C15.8897 24.7988 17.6587 29.5577 17.9794 30.4937C18.9835 30.6304 24.217 31.5138 25.087 35.0423C25.7836 37.8687 25.7573 40.8213 25.7337 43.1928C25.7258 43.9448 25.7205 44.6547 25.7389 45.2725C25.8388 48.6169 26.8692 55.1531 28.2571 55.8025C30.2495 56.7359 32.6599 54.1935 34.7864 51.9507C35.0966 51.6247 35.3989 51.3039 35.6933 51.0042C35.7485 50.9464 35.8273 50.9201 35.9088 50.9332C35.9877 50.9464 36.056 50.9963 36.0928 51.0673L45.0431 69.0538C45.093 69.1537 45.0694 69.272 44.9879 69.3482C39.3733 74.4305 32.9911 77.1518 27.1846 77.1518L27.1794 77.1491ZM2.01088 30.1046C1.57191 30.1046 1.02779 30.2781 0.657167 30.9959C-0.0788312 32.413 1.89259 34.2193 1.91362 34.2377C2.01088 34.3271 2.02402 34.477 1.93728 34.5795C1.89785 34.6347 1.86367 34.9345 2.0135 35.3315C2.13967 35.6627 2.47087 36.2517 3.2831 36.4489C4.96538 36.859 11.1425 38.3051 11.2056 38.3209C11.3186 38.3472 11.3975 38.4497 11.3975 38.5654C11.3975 38.7074 11.2135 52.9288 11.337 58.2503C11.5342 66.7611 14.904 72.8504 20.8261 75.3954C27.6788 78.3428 36.9603 75.874 44.5147 69.109L35.8037 51.6037C35.5881 51.8272 35.37 52.0585 35.1465 52.2925C32.9044 54.6562 30.3626 57.3354 28.0494 56.2521C26.1385 55.3582 25.3105 47.4469 25.2474 45.2883C25.229 44.6625 25.2369 43.9474 25.2421 43.1902C25.2632 40.8449 25.2921 37.9291 24.6086 35.1606C23.7491 31.6716 17.8269 30.9696 17.7691 30.9643C17.6719 30.9538 17.5904 30.8855 17.5615 30.7934C17.5431 30.7382 15.7688 25.3063 13.2243 25.5902C12.6907 25.6481 12.3254 25.861 12.1019 26.2344C11.4054 27.4044 12.3332 29.7128 12.3438 29.7339C12.3911 29.8495 12.3438 29.9836 12.2334 30.0441C12.123 30.1046 11.9863 30.073 11.9127 29.9705C10.7798 28.364 7.5072 24.2493 5.95634 24.507C5.0968 24.6516 4.64733 25.2984 4.62367 26.4342C4.62367 26.5183 4.57898 26.5946 4.50538 26.6393C4.43441 26.684 4.34504 26.6892 4.26881 26.6524C3.14116 26.1187 2.3263 26.145 1.84791 26.7234C1.61134 27.01 1.51408 27.3229 1.55088 27.6804C1.66653 28.7716 3.00185 29.8338 3.01499 29.8443C3.11487 29.9232 3.13853 30.0625 3.07282 30.1703C3.0071 30.2781 2.87041 30.3176 2.75739 30.2623C2.7311 30.2492 2.41567 30.1072 2.01613 30.1072L2.01088 30.1046Z" fill="#283F56"/>
<path d="M104.929 30.8776C105.211 29.7155 106.441 26.0267 104.872 25.4772C103.439 24.975 102.661 26.9259 102.506 27.4096C102.264 28.1747 101.817 29.4499 101.544 30.4306C103.213 24.4675 104.354 20.5395 102.28 19.9637C100.842 19.5641 99.9062 20.9128 99.5408 21.9961C99.9088 20.3554 100.513 18.2205 98.5288 17.8892C96.2183 17.5054 95.3745 22.1275 95.18 23.4632C95.5323 20.5395 95.3351 18.2258 93.7501 18.1732C92.102 18.118 91.5526 20.103 91.3108 21.1836C91.069 22.2642 89.7652 30.8749 89.7652 30.8749C89.7652 30.8749 86.3901 24.1073 83.8352 25.8768C81.2802 27.6463 84.9076 32.0081 85.9512 33.9432C86.9605 35.8152 88.3484 38.66 88.698 40.3717C88.9398 41.5574 88.606 55.65 85.8302 56.9489C83.3699 58.1005 80.4443 54.48 78.1128 52.1006L66.8047 67.8601C81.1356 80.83 102.414 79.8441 102.892 59.1732C103.163 47.5126 102.724 43.0456 102.766 42.1779C102.766 42.1779 104.651 32.0318 104.932 30.8697L104.929 30.8776Z" fill="white"/>
<path d="M86.7792 76.6601C80.1921 76.6601 72.7742 73.6023 66.6392 68.0494C66.5472 67.9653 66.5314 67.8233 66.605 67.7208L77.9131 51.9613C77.9551 51.9008 78.0235 51.864 78.0945 51.8587C78.1654 51.8535 78.239 51.8798 78.289 51.9323C78.5834 52.2321 78.8857 52.5502 79.1958 52.8789C81.325 55.1216 83.7327 57.6614 85.7252 56.7307C88.2749 55.537 88.7612 41.9177 88.4563 40.4269C88.0567 38.4681 86.2719 35.0633 85.7331 34.0668C85.5438 33.7145 85.2678 33.2833 84.9498 32.7838C83.5435 30.5831 81.4196 27.2572 83.6959 25.6796C84.1664 25.3536 84.6922 25.2616 85.2547 25.4062C87.0789 25.8742 88.8873 28.7742 89.6312 30.1072C89.9545 27.9881 90.8666 22.0382 91.069 21.1337C91.2504 20.3239 91.8103 17.863 93.7581 17.9287C94.2181 17.9445 94.5966 18.1233 94.8884 18.4624C95.2748 18.9147 95.4982 19.6482 95.5586 20.6815C95.9109 19.5983 96.4287 18.5334 97.1673 17.9918C97.5958 17.6789 98.0663 17.5632 98.5683 17.6447C99.1493 17.742 99.5777 17.9918 99.8432 18.3862C100.214 18.9409 100.219 19.6955 100.103 20.479C100.65 19.8507 101.407 19.4615 102.346 19.7218C102.779 19.8428 103.111 20.0978 103.326 20.479C103.889 21.4781 103.644 23.3501 103.021 25.9084C103.218 25.6638 103.457 25.4456 103.739 25.3036C104.122 25.1117 104.533 25.0881 104.953 25.2379C106.549 25.7979 105.742 28.8005 105.305 30.4122C105.25 30.6147 105.203 30.7908 105.169 30.9302C104.893 32.0712 103.026 42.1227 103.005 42.2253C103 42.3936 103.019 42.8379 103.047 43.5083C103.142 45.7353 103.339 50.368 103.137 59.1785C102.955 67.0635 99.6618 72.782 93.8632 75.2745C91.7025 76.2026 89.3027 76.6522 86.7792 76.6522V76.6601ZM67.1333 67.8312C75.4554 75.2745 86.0958 78.0851 93.6661 74.8302C99.2754 72.4166 102.464 66.8584 102.643 59.1758C102.845 50.3811 102.648 45.7589 102.553 43.5373C102.522 42.8274 102.503 42.3988 102.516 42.1753C102.598 41.7284 104.409 31.9766 104.688 30.8224C104.722 30.6804 104.769 30.499 104.827 30.2913C105.163 29.0424 105.949 26.1213 104.788 25.7112C104.49 25.6086 104.22 25.6218 103.957 25.7532C103.329 26.0687 102.898 26.989 102.74 27.4859C102.661 27.7383 102.559 28.0459 102.448 28.3772C102.219 29.0661 101.962 29.8443 101.778 30.499C101.741 30.6304 101.604 30.7067 101.473 30.6699C101.341 30.6331 101.265 30.4963 101.302 30.3649L101.389 30.0599C102.643 25.5823 103.634 22.0434 102.892 20.7288C102.74 20.4606 102.519 20.2897 102.212 20.203C100.603 19.7586 99.8537 21.8383 99.7722 22.075C99.7302 22.1985 99.5987 22.2695 99.4699 22.2327C99.3438 22.1985 99.2676 22.0697 99.2965 21.9409L99.3569 21.6674C99.604 20.579 99.8879 19.3458 99.4279 18.6622C99.2386 18.3809 98.9285 18.2074 98.4842 18.1311C98.1136 18.0707 97.7772 18.1548 97.4565 18.3888C96.1159 19.3669 95.5586 22.5456 95.4219 23.4974C95.4035 23.6315 95.2826 23.7261 95.1433 23.7077C95.0093 23.6893 94.9146 23.5684 94.9304 23.4343C95.2222 21.0128 95.0802 19.4484 94.5098 18.7832C94.3101 18.5492 94.0577 18.4309 93.7397 18.4204C93.7213 18.4204 93.7002 18.4204 93.6818 18.4204C92.3386 18.4204 91.8208 20.0242 91.5474 21.2389C91.3082 22.2985 90.0176 30.8276 90.0045 30.9118C89.9887 31.0196 89.9046 31.1011 89.7995 31.1195C89.6943 31.1352 89.5866 31.0827 89.5392 30.9854C89.5156 30.9407 87.2419 26.4211 85.1259 25.8794C84.7027 25.7716 84.3242 25.8348 83.9719 26.0793C82.0872 27.3834 83.9798 30.3465 85.3624 32.5103C85.6858 33.0178 85.967 33.4568 86.1642 33.8249C86.8634 35.1211 88.5351 38.3524 88.9347 40.3217C89.1581 41.4181 88.9347 55.7684 85.9276 57.1724C83.6144 58.2556 81.0726 55.5764 78.8305 53.2128C78.5939 52.963 78.3626 52.7185 78.1365 52.4845L67.1307 67.8259L67.1333 67.8312Z" fill="#283F56"/>
<path d="M92.1762 11.4188C92.1446 10.2409 91.9212 9.04984 91.4822 7.87459C90.0207 3.96231 86.3854 1.40935 82.4268 0.457572C79.312 -0.289125 75.9816 -0.112965 72.9535 0.920316C70.9663 1.59865 69.0369 2.56884 67.5781 4.10167C65.9799 5.78174 64.9101 7.94032 64.1215 10.0989C63.262 12.4468 62.7336 14.8972 62.25 17.345C61.7979 19.6351 61.3168 22.2012 59.4164 23.7682C56.4303 26.2291 52.0327 23.3843 49.1545 29.1108C48.3711 30.6699 48.5578 32.8811 48.3869 33.8065C47.6325 37.8818 49.8142 41.3603 53.8885 42.1122C55.2816 42.3699 57.9654 41.8204 58.0232 41.8362C62.2027 42.9904 66.1849 42.1911 69.1631 38.8809C71.1135 36.7118 72.178 33.938 73.1191 31.2299C73.6027 29.8391 74.0233 28.2799 75.1378 27.2414C76.3233 26.1397 77.9793 25.4956 79.4749 24.9487C82.256 23.9312 85.0238 22.8848 87.3869 21.0548C90.4545 18.6807 92.2734 15.1233 92.1735 11.4109L92.1762 11.4188Z" fill="#283F56"/>
<path d="M39.9306 91.665C39.9096 91.665 39.8912 91.6651 39.8701 91.6572C39.7387 91.623 39.6572 91.4889 39.6914 91.3574L41.2291 85.2971C41.258 85.1867 41.3553 85.1104 41.4683 85.1104H71.5969C71.6705 85.1104 71.7415 85.1446 71.7888 85.1998C71.823 85.2419 72.6536 86.3014 73.2713 91.3863C73.2871 91.5231 73.1924 91.644 73.0558 91.6624C72.9243 91.6782 72.7982 91.5835 72.7798 91.4468C72.2803 87.3479 71.6495 85.9491 71.4602 85.6047H41.6602L40.1698 91.4784C40.1409 91.5914 40.041 91.665 39.9306 91.665Z" fill="#283F56"/>
<path d="M71.4783 84.1455C71.4284 84.1455 71.3784 84.1297 71.3338 84.0982L65.7375 80.0676C65.6271 79.9887 65.6009 79.8336 65.6823 79.7232C65.7612 79.6127 65.9163 79.5864 66.0267 79.6679L71.6229 83.6985C71.7333 83.7774 71.7596 83.9325 71.6781 84.043C71.6308 84.1113 71.5546 84.1455 71.4783 84.1455Z" fill="#283F56"/>
<path d="M81.9586 53.8228C75.8604 47.1472 66.0059 45.8247 60.1889 45.5276L51.83 45.5355C48.5943 45.4408 38.1168 46.2164 32.0186 52.8946L39.4784 60.6219C39.1078 61.4317 38.9001 62.3309 38.9001 63.28C38.9001 65.4491 39.9805 67.3632 41.6312 68.5174L41.4709 85.3576L71.8492 85.4995C71.8492 85.4995 71.7388 73.5866 71.5338 63.3694L81.9613 53.8201L81.9586 53.8228Z" fill="#283F56"/>
<path d="M53.5122 25.9399C53.3991 25.9399 53.2966 25.861 53.2703 25.7453C53.2414 25.6113 53.3255 25.4798 53.4596 25.4509C58.2909 24.3966 60.6829 22.401 61.2086 13.9191C61.4452 10.091 64.0369 5.78435 67.6565 3.20246C70.2141 1.37778 74.4329 -0.473189 80.0081 1.07016C80.1395 1.10697 80.2157 1.24369 80.1789 1.37515C80.1421 1.50661 80.0081 1.58549 79.874 1.54868C74.4881 0.0579141 70.4112 1.84578 67.943 3.60736C64.4391 6.10774 61.9288 10.2645 61.7001 13.9507C61.1587 22.7007 58.5353 24.8514 53.5647 25.9346C53.5463 25.9373 53.5306 25.9399 53.5122 25.9399Z" fill="#283F56"/>
<path d="M60.1885 45.5276H60.1359L59.5498 41.6705C56.2299 40.5847 57.9174 36.0072 57.9174 36.0072C54.3189 36.0388 54.9025 32.9152 55.0234 31.1852C55.0471 30.8329 54.6712 30.5963 54.3663 30.7751C52.132 32.1028 48.8857 30.9644 48.6491 32.5104C47.8211 37.9739 46.1546 43.3585 52.0295 43.8396V45.5329H51.8271C50.3603 45.4908 47.4084 45.6249 44.0518 46.4084C44.4198 46.9211 49.1354 53.2996 57.0947 53.2207C63.398 53.1576 67.099 48.7458 68.5132 46.6319C65.4272 45.9246 62.4885 45.6433 60.1859 45.525L60.1885 45.5276Z" fill="white"/>
<path d="M71.8463 85.7467L41.4679 85.6047C41.4022 85.6047 41.3391 85.5784 41.2918 85.5311C41.2445 85.4838 41.2209 85.4207 41.2209 85.3549L41.3812 68.6437C39.67 67.3948 38.6528 65.3992 38.6528 63.2801C38.6528 62.3756 38.8315 61.4974 39.1864 60.6719L31.8421 53.0655C31.7528 52.9709 31.7501 52.8237 31.8369 52.7264C38.8946 44.9991 51.3119 45.2726 51.8376 45.2883C51.9743 45.2936 52.0821 45.4066 52.0768 45.5434C52.0716 45.6801 51.9506 45.78 51.8218 45.7826C51.3119 45.7669 39.2889 45.5039 32.3573 52.8894L39.6542 60.4484C39.7252 60.522 39.7436 60.6298 39.7015 60.7245C39.3335 61.529 39.1443 62.3887 39.1443 63.2801C39.1443 65.2835 40.1247 67.166 41.7702 68.315C41.8359 68.3623 41.8754 68.4386 41.8754 68.5201L41.715 85.1131L71.5939 85.2524C71.5781 83.4803 71.4677 72.6637 71.2811 63.3773C71.2811 63.3063 71.31 63.238 71.3626 63.1907L81.6087 53.8096C77.0771 48.9745 69.8696 46.2717 60.1781 45.7747C60.0414 45.7669 59.9362 45.6512 59.9441 45.5144C59.952 45.3777 60.0729 45.2726 60.2043 45.2804C70.1508 45.7879 77.5318 48.6064 82.145 53.6571C82.237 53.757 82.2291 53.9148 82.1292 54.0068L71.7832 63.4799C71.9856 73.5577 72.096 85.3812 72.096 85.4995C72.096 85.5653 72.0697 85.6284 72.025 85.6757C71.9777 85.723 71.9146 85.7493 71.8489 85.7493L71.8463 85.7467Z" fill="#283F56"/>
<path d="M39.4228 60.99C39.3886 60.99 39.357 60.9821 39.3255 60.9689C39.1993 60.9137 39.1415 60.7691 39.1967 60.6429C39.8775 59.0707 41.1734 57.7955 42.7558 57.1434C42.8819 57.0909 43.0265 57.1513 43.0791 57.2775C43.1317 57.4037 43.0712 57.5483 42.945 57.6009C41.4809 58.2056 40.2797 59.3862 39.6514 60.8401C39.612 60.9321 39.52 60.99 39.4254 60.99H39.4228Z" fill="white"/>
<path d="M42.8477 57.622C42.711 57.622 42.6006 57.5116 42.6006 57.3748V54.4275C42.6006 54.2908 42.711 54.1803 42.8477 54.1803C42.9844 54.1803 43.0948 54.2908 43.0948 54.4275V57.3748C43.0948 57.5116 42.9844 57.622 42.8477 57.622Z" fill="white"/>
<path d="M71.6123 63.6455C71.4756 63.6455 71.3652 63.5351 71.3652 63.3984V54.4091C71.3652 54.2724 71.4756 54.1619 71.6123 54.1619C71.749 54.1619 71.8594 54.2724 71.8594 54.4091V63.3984C71.8594 63.5351 71.749 63.6455 71.6123 63.6455Z" fill="white"/>
<path d="M52.0328 46.6239C51.8961 46.6239 51.7857 46.5135 51.7857 46.3768V44.0657C50.2401 43.9027 49.1466 43.3848 48.4527 42.4882C47.0359 40.6635 47.5563 37.5768 48.1109 34.3061C48.1793 33.9064 48.2476 33.5015 48.3133 33.0966C48.3843 32.6549 48.4789 32.2053 48.5946 31.761L48.8391 30.8145C48.8732 30.683 49.0073 30.6015 49.1413 30.6383C49.2728 30.6725 49.3516 30.8066 49.3175 30.9407L49.073 31.8872C48.9626 32.3158 48.8706 32.7496 48.8022 33.1781C48.7365 33.5857 48.6682 33.9906 48.5999 34.3902C48.0663 37.5505 47.5616 40.5347 48.8443 42.1858C49.4831 43.0088 50.5345 43.4689 52.0564 43.5951C52.1852 43.6056 52.2825 43.7134 52.2825 43.8422V46.3768C52.2825 46.5135 52.1721 46.6239 52.0354 46.6239H52.0328Z" fill="#283F56"/>
<path d="M60.1889 46.1218C60.0679 46.1218 59.9628 46.035 59.9444 45.9115L59.3057 41.7073C59.2846 41.5732 59.3793 41.447 59.5133 41.426C59.6474 41.4076 59.7735 41.497 59.7946 41.6337L60.4333 45.8378C60.4543 45.9719 60.3597 46.0981 60.2257 46.1192C60.2125 46.1192 60.1994 46.1218 60.1889 46.1218Z" fill="#283F56"/>
<path d="M59.7364 36.6487C59.7364 37.8792 58.7375 38.8783 57.5073 38.8783C56.2772 38.8783 55.2783 37.8792 55.2783 36.6487C55.2783 35.4183 56.2772 34.4192 57.5073 34.4192C58.7375 34.4192 59.7364 35.4183 59.7364 36.6487Z" fill="white"/>
<path d="M57.0969 37.2955C57.0469 37.2955 56.997 37.2797 56.9549 37.2482C56.8445 37.1693 56.8182 37.0142 56.8971 36.9037L57.712 35.76C57.7908 35.6496 57.9459 35.6233 58.0563 35.7022C58.1667 35.7811 58.193 35.9362 58.1141 36.0466L57.2993 37.1903C57.252 37.2587 57.1757 37.2929 57.0969 37.2929V37.2955Z" fill="#283F56"/>
<path d="M59.3794 39.1649C59.3794 39.9747 58.7249 40.6294 57.9153 40.6294C57.1057 40.6294 56.4512 39.9747 56.4512 39.1649C56.4512 38.3551 57.1057 37.7004 57.9153 37.7004C58.7249 37.7004 59.3794 38.3551 59.3794 39.1649Z" fill="#D75338"/>
<path d="M52.0322 44.0868C51.8956 44.0868 51.7852 43.9763 51.7852 43.8396C51.7852 43.7029 51.8956 43.5925 52.0322 43.5925C53.6409 43.5925 54.8921 43.1324 54.9053 43.1271C55.0314 43.0798 55.176 43.1429 55.2233 43.2717C55.2706 43.4005 55.2075 43.5425 55.0787 43.5898C55.0235 43.6109 53.7329 44.0868 52.0322 44.0868Z" fill="#283F56"/>
<path d="M49.9349 38.1237C49.9113 38.1237 49.885 38.1211 49.8613 38.1132C49.7299 38.0711 49.6589 37.9344 49.6984 37.8029L50.6998 34.59C50.7419 34.4586 50.876 34.3876 51.01 34.427C51.1414 34.4691 51.2124 34.6058 51.173 34.7373L50.1715 37.9502C50.1373 38.0554 50.0401 38.1237 49.9349 38.1237Z" fill="#283F56"/>
<path d="M53.2992 36.0046C53.575 36.0046 53.7987 35.7809 53.7987 35.505C53.7987 35.2291 53.575 35.0055 53.2992 35.0055C53.0234 35.0055 52.7998 35.2291 52.7998 35.505C52.7998 35.7809 53.0234 36.0046 53.2992 36.0046Z" fill="#283F56"/>
<path d="M49.6795 35.2421C49.6795 35.5181 49.4561 35.7416 49.1801 35.7416C48.9041 35.7416 48.6807 35.5181 48.6807 35.2421C48.6807 34.966 48.9041 34.7425 49.1801 34.7425C49.4561 34.7425 49.6795 34.966 49.6795 35.2421Z" fill="#283F56"/>
<path d="M50.634 39.809C50.0925 39.809 49.5957 39.4515 49.4433 38.9046C49.4249 38.8415 49.4327 38.7731 49.4669 38.7179C49.4985 38.6601 49.5537 38.618 49.6167 38.6022L51.5225 38.0685C51.5855 38.0501 51.6539 38.058 51.7117 38.0922C51.7695 38.1237 51.8116 38.1789 51.8274 38.242C52.0114 38.8993 51.6276 39.5829 50.9704 39.767C50.86 39.7985 50.747 39.8117 50.6366 39.8117L50.634 39.809ZM50.0242 38.9992C50.2003 39.249 50.521 39.3752 50.8311 39.2885C51.1413 39.2017 51.3516 38.9283 51.3726 38.6233L50.0242 39.0019V38.9992Z" fill="#283F56"/>
<path d="M52.0322 45.943C52.0322 45.943 53.0127 46.7975 54.0063 46.1034C54.9972 45.4119 55.2286 43.2428 55.2286 43.2428L52.0322 43.8396V45.943Z" fill="#283F56"/>
<path d="M97.685 38.2105C97.543 38.2105 97.4352 38.0948 97.4379 37.9581C97.472 35.994 96.899 34.4139 95.7319 33.2596C93.495 31.0458 89.8019 31.1247 89.7677 31.1247C89.6284 31.1247 89.518 31.0196 89.5127 30.8855C89.5101 30.7487 89.6153 30.6357 89.752 30.6304C89.9097 30.6252 93.6948 30.5489 96.0789 32.9073C97.3432 34.1588 97.9662 35.8599 97.9294 37.9633C97.9294 38.0974 97.8164 38.2052 97.6823 38.2052L97.685 38.2105Z" fill="#283F56"/>
<path d="M97.6871 31.1274C97.6713 31.1274 97.6529 31.1274 97.6371 31.1221C97.5031 31.0932 97.4189 30.9644 97.4452 30.8303L99.2984 21.9488C99.3273 21.8147 99.4561 21.7279 99.5901 21.7568C99.7242 21.7858 99.8083 21.9146 99.782 22.0487L97.9289 30.9302C97.9052 31.0459 97.8027 31.1274 97.6871 31.1274Z" fill="#283F56"/>
<path d="M94.2858 30.4596C94.2858 30.4596 94.2648 30.4596 94.2543 30.4596C94.1176 30.4411 94.0229 30.3176 94.0413 30.1808L94.9351 23.4369C94.9535 23.3028 95.0796 23.2055 95.2137 23.2239C95.3504 23.2424 95.445 23.3659 95.4266 23.5026L94.5329 30.2466C94.5171 30.3702 94.4093 30.4622 94.2884 30.4622L94.2858 30.4596Z" fill="#283F56"/>
<path d="M13.0431 33.9327C13.0168 33.9327 12.9879 33.9275 12.9616 33.9196L2.1004 30.0599C1.9716 30.0152 1.90326 29.8732 1.95057 29.7444C1.99526 29.6156 2.13721 29.5472 2.26601 29.5945L13.1272 33.4542C13.256 33.4989 13.3244 33.6409 13.2771 33.7697C13.2403 33.8723 13.1456 33.9354 13.0431 33.9354V33.9327Z" fill="#283F56"/>
<path d="M12.9852 32.3394C12.9379 32.3394 12.8906 32.3263 12.8485 32.3L4.23471 26.634C4.12168 26.5578 4.09014 26.4053 4.16374 26.2922C4.23734 26.1792 4.3898 26.145 4.50545 26.2212L13.1193 31.8872C13.2323 31.9635 13.2638 32.1159 13.1902 32.229C13.1429 32.3 13.0641 32.3394 12.9826 32.3394H12.9852Z" fill="#283F56"/>
<path d="M22.7975 38.0553C22.6844 38.0553 22.5819 37.9765 22.5556 37.8608C22.5451 37.8187 21.5726 33.5357 17.7217 32.86C13.8866 32.1869 12.3568 34.7714 12.2937 34.8819C12.2385 34.9792 12.1255 35.0265 12.0177 34.9976C11.9599 34.9818 6.30586 33.5199 4.40015 33.2228C2.55753 32.9363 2.00553 34.4349 1.9845 34.498C1.93982 34.6268 1.79787 34.6952 1.66907 34.6505C1.54027 34.6058 1.47193 34.4665 1.51662 34.3376C1.52187 34.3192 2.21582 32.3841 4.47638 32.7338C6.24278 33.0072 10.9926 34.2219 11.973 34.4743C12.4068 33.8591 14.1994 31.7373 17.8111 32.371C21.9905 33.1045 23.0314 37.7083 23.0419 37.7556C23.0708 37.8897 22.9867 38.0212 22.8527 38.0501C22.8343 38.0527 22.8185 38.0553 22.8001 38.0553H22.7975Z" fill="#283F56"/>
<path d="M31.0356 18.7254H5.90918V35.0975H31.0356V18.7254Z" fill="#D75338"/>
<path d="M31.0356 35.3446H5.9092C5.77251 35.3446 5.66211 35.2342 5.66211 35.0975V18.7254C5.66211 18.5886 5.77251 18.4782 5.9092 18.4782H31.0356C31.1723 18.4782 31.2827 18.5886 31.2827 18.7254V35.0975C31.2827 35.2342 31.1723 35.3446 31.0356 35.3446ZM6.15628 34.8503H30.7885V18.9725H6.15628V34.8503Z" fill="#283F56"/>
<path d="M31.0356 22.9637H5.9092C5.77251 22.9637 5.66211 22.8532 5.66211 22.7165V18.728C5.66211 18.5913 5.77251 18.4808 5.9092 18.4808H31.0356C31.1723 18.4808 31.2827 18.5913 31.2827 18.728V22.7165C31.2827 22.8532 31.1723 22.9637 31.0356 22.9637ZM6.15628 22.4694H30.7885V18.9751H6.15628V22.4694Z" fill="#283F56"/>
<path d="M18.4707 35.3446C18.334 35.3446 18.2236 35.2342 18.2236 35.0975V18.912C18.2236 18.7753 18.334 18.6649 18.4707 18.6649C18.6074 18.6649 18.7178 18.7753 18.7178 18.912V35.0975C18.7178 35.2342 18.6074 35.3446 18.4707 35.3446Z" fill="#283F56"/>
<path d="M18.4714 18.933C18.4399 18.933 18.4083 18.9278 18.3794 18.9146C18.085 18.7963 11.1588 15.9541 10.7802 13.1277C10.683 12.3916 11.0142 11.729 11.7633 11.1558C12.5414 10.5616 13.3326 10.3986 14.1133 10.6747C16.9679 11.679 18.6423 18.3441 18.7106 18.6281C18.7317 18.7174 18.7027 18.8147 18.6318 18.8752C18.5871 18.9146 18.5293 18.9357 18.4688 18.9357L18.4714 18.933ZM13.3746 11.0375C12.9436 11.0375 12.5125 11.2058 12.0656 11.5476C11.4584 12.0129 11.1982 12.5072 11.2718 13.0594C11.5609 15.2127 16.5394 17.5658 18.1008 18.2547C17.6592 16.6982 16.1373 11.9078 13.9503 11.1374C13.7584 11.0691 13.5665 11.0349 13.3746 11.0349V11.0375Z" fill="#283F56"/>
<path d="M19.2466 18.9725C19.1835 18.9725 19.1205 18.9488 19.0731 18.9015C18.9759 18.8042 18.9759 18.6491 19.0731 18.5518C20.6661 16.9506 24.6825 12.3626 24.1384 10.3907C24.0201 9.95954 23.681 9.67821 23.1027 9.53098C22.4482 9.36271 21.8778 9.47313 21.3574 9.86489C18.9654 11.6659 18.7235 18.6228 18.7209 18.6938C18.7157 18.8305 18.6184 18.9357 18.4659 18.933C18.3293 18.9278 18.2215 18.8147 18.2267 18.678C18.2346 18.3835 18.4791 11.4135 21.0603 9.4705C21.6991 8.98936 22.4272 8.85001 23.2263 9.05246C23.9807 9.24439 24.4486 9.65192 24.6168 10.2593C25.3475 12.9095 19.6698 18.657 19.4254 18.8989C19.3781 18.9462 19.315 18.9725 19.2493 18.9725H19.2466Z" fill="#283F56"/>
</svg>
