<svg width="162" height="160" viewBox="0 0 162 160" fill="none" xmlns="http://www.w3.org/2000/svg">
<g clip-path="url(#clip0_306_5236)">
<path d="M149.521 123.93C156.413 123.93 162 118.362 162 111.493C162 104.625 156.413 99.0564 149.521 99.0564C142.629 99.0564 137.042 104.625 137.042 111.493C137.042 118.362 142.629 123.93 149.521 123.93Z" fill="#FFB743"/>
<path d="M141.032 89.7589C153.198 54.326 134.239 15.773 98.6858 3.64853C63.1331 -8.47597 24.4499 10.4193 12.2844 45.8522C0.118907 81.2852 19.078 119.838 54.6307 131.963C90.1834 144.087 128.867 125.192 141.032 89.7589Z" fill="#FFB743"/>
<path d="M77.5661 31.8247C58.1128 31.8247 42.3291 47.5445 42.3291 66.943C42.3291 86.3415 58.1021 102.061 77.5661 102.061C97.0301 102.061 112.803 86.3415 112.803 66.943H77.5661V31.8247Z" fill="#FD5F2F"/>
<path d="M77.5665 102.521C57.8772 102.521 41.8574 86.5551 41.8574 66.9321C41.8574 47.309 57.8772 31.3433 77.5665 31.3433C77.824 31.3433 78.0386 31.5571 78.0386 31.8138V66.4616H112.804C113.061 66.4616 113.276 66.6754 113.276 66.9321C113.276 86.5551 97.2559 102.521 77.5665 102.521ZM77.0944 32.295C58.1454 32.5517 42.8017 47.9934 42.8017 66.9321C42.8017 85.8707 58.3922 101.58 77.5665 101.58C96.7409 101.58 112.074 86.2878 112.321 67.4026H77.5665C77.309 67.4026 77.0944 67.1887 77.0944 66.9321V32.295Z" fill="#0C133D"/>
<path d="M86.5693 23.323V58.4413H121.806C121.806 39.0535 106.033 23.323 86.5693 23.323Z" fill="white"/>
<path d="M121.806 58.9012H86.5688C86.3113 58.9012 86.0967 58.6873 86.0967 58.4307V23.3231C86.0967 23.0664 86.3113 22.8525 86.5688 22.8525C106.258 22.8525 122.278 38.8183 122.278 58.4414C122.278 58.698 122.063 58.9119 121.806 58.9119V58.9012ZM87.0409 57.9708H121.323C121.076 39.2461 105.829 24.0502 87.0409 23.8043V57.9708Z" fill="#0C133D"/>
<path d="M130.261 95.2706C119.026 84.0742 97.3306 91.1963 97.3306 91.1963C97.3306 91.1963 86.7294 88.7153 76.2678 87.293C65.3448 85.8066 62.1794 93.6344 62.1794 93.6344C62.1794 93.6344 38.0479 66.5151 27.3287 67.8518C22.4359 68.4613 20.9659 72.3646 20.9659 72.3646C10.8047 66.2584 2.38171 78.3424 9.61366 85.5072C13.6052 89.4532 16.9207 92.8966 16.9207 92.8966C6.70586 91.2925 2.6285 106.2 10.5364 110.274C17.0924 113.642 50.5482 131.127 61.8468 137.04C64.3147 138.334 67.0186 139.104 69.7977 139.329L92.9206 141.168C96.2039 141.425 99.1654 143.264 100.85 146.087C109.316 160.224 128.243 163.882 141.388 153.904C153.459 144.751 155.873 127.63 146.838 115.492C141.066 107.729 134.832 99.8261 130.25 95.2706H130.261Z" fill="white"/>
<path d="M146.849 115.492C145.154 113.215 143.416 110.926 141.699 108.713C145.465 120.433 141.677 133.715 131.312 141.575C121.806 148.782 109.498 149.413 99.6592 144.462C100.11 144.954 100.518 145.488 100.861 146.077C109.327 160.214 128.254 163.871 141.398 153.894C153.47 144.74 155.884 127.619 146.849 115.482V115.492Z" fill="#0C133D"/>
<path d="M124.617 160C122.835 160 121.054 159.829 119.273 159.487C111.408 157.968 104.552 153.167 100.442 146.312C98.8327 143.628 96.0107 141.874 92.8776 141.628L69.7547 139.789C66.9005 139.564 64.1644 138.773 61.6322 137.447C48.3271 130.485 16.6953 113.953 10.3218 110.68C5.86887 108.392 5.21435 103.163 6.50193 99.2701C7.62857 95.8374 10.7081 92.1373 15.6975 92.3084C14.4421 91.0252 12.0171 88.5442 9.28098 85.8387C5.24654 81.8499 5.9869 76.7383 8.37967 73.6799C10.8046 70.5787 15.5365 68.8249 20.7512 71.7015C21.3414 70.568 23.1655 67.8946 27.2643 67.3813C37.3933 66.1087 58.5741 88.9506 62.0613 92.811C63.1451 90.9075 67.0507 85.5714 76.3214 86.8225C86.0856 88.1485 96.0751 90.4156 97.3091 90.7044C99.1331 90.1376 119.735 84.117 130.593 94.9284C134.542 98.8637 140.143 105.686 147.225 115.204C156.366 127.491 153.877 145.007 141.677 154.268C136.741 158.011 130.733 160 124.617 160ZM15.397 93.2495C11.0514 93.2495 8.3904 96.5218 7.39252 99.5695C6.23369 103.098 6.79164 107.825 10.751 109.857C17.1245 113.129 48.7563 129.662 62.0613 136.623C64.4863 137.896 67.0937 138.644 69.8298 138.858L92.9527 140.698C96.3863 140.976 99.4872 142.89 101.247 145.841C105.217 152.471 111.848 157.113 119.445 158.578C127.042 160.043 134.939 158.203 141.098 153.53C152.89 144.58 155.293 127.651 146.463 115.771C139.413 106.296 133.844 99.5053 129.917 95.6021C119.016 84.7372 97.6846 91.5705 97.47 91.6454C97.3842 91.6775 97.2983 91.6775 97.2125 91.6561C97.1052 91.6347 86.5148 89.1645 76.1926 87.7636C65.7739 86.352 62.7266 93.5061 62.5978 93.8162C62.5335 93.966 62.4047 94.0729 62.2438 94.105C62.0828 94.137 61.9219 94.0729 61.8146 93.9553C61.5785 93.6879 37.7367 67.0498 27.3716 68.3223C22.8328 68.8891 21.4487 72.3859 21.395 72.5357C21.3414 72.664 21.2448 72.7709 21.1053 72.8137C20.9766 72.8565 20.8263 72.8458 20.7083 72.7709C15.4721 69.627 11.1909 71.6053 9.12003 74.2574C6.97405 77.0057 6.31953 81.5826 9.9355 85.1757C13.8841 89.0789 17.2211 92.533 17.2533 92.5758C17.3928 92.7255 17.425 92.9394 17.3284 93.1211C17.2318 93.3029 17.0387 93.3992 16.8348 93.3671C16.3305 93.2922 15.8477 93.2495 15.3863 93.2495H15.397Z" fill="#0C133D"/>
<path d="M99.1545 113.557C99.1545 113.557 99.058 113.557 99.015 113.536C98.8434 113.482 81.5468 108.071 76.3428 106.649L75.6239 106.456C71.4177 105.323 64.3897 103.43 62.0505 99.0883C61.1492 97.4201 61.0419 95.5273 61.7286 93.4955C61.8145 93.2495 62.0827 93.1212 62.3295 93.1961C62.5763 93.2816 62.7051 93.5489 62.6299 93.7949C62.0183 95.6022 62.1042 97.1955 62.8875 98.6499C65.0334 102.639 71.8255 104.467 75.8814 105.558L76.6003 105.751C81.815 107.173 99.1331 112.595 99.3047 112.648C99.5515 112.723 99.691 112.99 99.6159 113.236C99.5515 113.439 99.3691 113.568 99.1653 113.568L99.1545 113.557Z" fill="#0C133D"/>
<path d="M50.0975 131.362C49.9688 131.362 49.84 131.309 49.7435 131.202L16.5666 93.2068C16.3949 93.0143 16.4164 92.7149 16.6095 92.5438C16.8027 92.3727 17.1031 92.394 17.2748 92.5865L50.4516 130.581C50.6233 130.774 50.6018 131.073 50.4087 131.244C50.3229 131.319 50.2048 131.362 50.0975 131.362Z" fill="#0C133D"/>
<path d="M57.7586 127.598C57.6192 127.598 57.4904 127.544 57.3938 127.427C57.0827 127.053 26.1913 89.8918 21.513 83.8498C16.6202 77.5405 20.5366 72.1401 20.5688 72.0867C20.719 71.8835 21.0195 71.83 21.2233 71.9904C21.4379 72.1401 21.4809 72.4396 21.3199 72.6427C21.1697 72.8352 17.8112 77.5405 22.2534 83.2723C26.9209 89.3036 57.8016 126.454 58.1127 126.828C58.2737 127.031 58.2522 127.32 58.0483 127.491C57.9625 127.566 57.8552 127.598 57.7479 127.598H57.7586Z" fill="#0C133D"/>
<path d="M147.997 55.4149C147.997 58.8797 150.819 61.6922 154.296 61.6922C157.772 61.6922 160.594 58.8797 160.594 55.4149C160.594 51.9502 157.772 49.1377 154.296 49.1377C150.819 49.1377 147.997 51.9502 147.997 55.4149Z" fill="white"/>
<path d="M134.52 72.8778C134.392 72.8778 134.252 72.8244 134.166 72.7174C133.995 72.5249 134.016 72.2255 134.22 72.0544L149.231 59.1577C149.424 58.9866 149.725 59.008 149.896 59.2112C150.068 59.4037 150.046 59.7031 149.843 59.8742L134.831 72.7709C134.746 72.8458 134.628 72.8885 134.52 72.8885V72.8778Z" fill="#0C133D"/>
<path d="M154.285 62.1521C150.551 62.1521 147.525 59.1258 147.525 55.415C147.525 51.7043 150.562 48.678 154.285 48.678C158.008 48.678 161.045 51.7043 161.045 55.415C161.045 59.1258 158.008 62.1521 154.285 62.1521ZM154.285 49.6083C151.077 49.6083 148.459 52.2069 148.459 55.415C148.459 58.6232 151.066 61.2218 154.285 61.2218C157.504 61.2218 160.112 58.6232 160.112 55.415C160.112 52.2069 157.504 49.6083 154.285 49.6083Z" fill="#0C133D"/>
<path d="M31.4702 26.1569L6.2657 24.6277C6.00818 24.617 5.80431 24.3924 5.82577 24.125C5.8365 23.8684 6.07256 23.6652 6.33008 23.6866L31.5024 25.2158C31.7599 25.2265 31.9638 25.4511 31.9423 25.7184C31.9316 25.9644 31.717 26.1569 31.4702 26.1569Z" fill="#0C133D"/>
<path d="M37.7371 32.8192C36.6426 32.8192 35.5696 32.5519 34.5825 32.0279C31.2884 30.2848 30.0223 26.1998 31.7713 22.9168C33.5202 19.6338 37.6191 18.372 40.9131 20.115C42.5119 20.9598 43.6814 22.3714 44.2072 24.0931C44.733 25.8148 44.5613 27.6434 43.7136 29.2261C42.866 30.8195 41.4496 31.9851 39.7221 32.5091C39.0676 32.7123 38.3916 32.8085 37.7263 32.8085L37.7371 32.8192ZM32.6082 23.3552C31.106 26.1784 32.1897 29.6966 35.0224 31.2045C36.3958 31.9316 37.9731 32.0814 39.4539 31.6215C40.9453 31.1617 42.1578 30.1565 42.8874 28.7877C43.6171 27.4189 43.7673 25.8469 43.3059 24.3712C42.8445 22.8847 41.8359 21.6763 40.4625 20.9492C37.619 19.452 34.0996 20.5321 32.5867 23.3552H32.6082Z" fill="#0C133D"/>
<path d="M0.729205 21.2271C-0.90174 24.2855 0.267819 28.0818 3.3473 29.7073C6.41605 31.3327 10.2252 30.1671 11.8561 27.098C13.4871 24.0396 12.3175 20.2433 9.23801 18.6178C6.15853 16.9924 2.36015 18.158 0.729205 21.2271Z" fill="#FD5F2F"/>
<path d="M49.411 38.5082C49.293 38.5082 49.1643 38.4654 49.0677 38.3692L41.6641 30.7659C41.4817 30.5841 41.4924 30.2847 41.6641 30.1029C41.8465 29.9211 42.1469 29.9211 42.3293 30.1029L49.7329 37.7062C49.9154 37.888 49.9046 38.1874 49.7329 38.3692C49.6364 38.4547 49.5183 38.4975 49.4003 38.4975L49.411 38.5082Z" fill="#0C133D"/>
</g>
<defs>
<clipPath id="clip0_306_5236">
<rect width="162" height="160" fill="white"/>
</clipPath>
</defs>
</svg>
