<svg width="162" height="160" viewBox="0 0 162 160" fill="none" xmlns="http://www.w3.org/2000/svg">
<g clip-path="url(#clip0_4204_277)">
<path d="M149.521 123.93C156.413 123.93 162 118.362 162 111.493C162 104.624 156.413 99.0563 149.521 99.0563C142.629 99.0563 137.042 104.624 137.042 111.493C137.042 118.362 142.629 123.93 149.521 123.93Z" fill="#8FC1E8"/>
<path d="M141.032 89.759C153.198 54.326 134.239 15.7731 98.6858 3.64859C63.1331 -8.47591 24.4499 10.4193 12.2844 45.8523C0.118907 81.2852 19.078 119.838 54.6307 131.963C90.1834 144.087 128.867 125.192 141.032 89.759Z" fill="#8FC1E8"/>
<path d="M77.5661 31.8246C58.1128 31.8246 42.3291 47.5444 42.3291 66.9429C42.3291 86.3414 58.1021 102.061 77.5661 102.061C97.0301 102.061 112.803 86.3414 112.803 66.9429H77.5661V31.8246Z" fill="#FD5F2F"/>
<path d="M77.5665 102.521C57.8772 102.521 41.8574 86.5553 41.8574 66.9322C41.8574 47.3092 57.8772 31.3434 77.5665 31.3434C77.824 31.3434 78.0386 31.5573 78.0386 31.8139V66.4617H112.804C113.061 66.4617 113.276 66.6756 113.276 66.9322C113.276 86.5553 97.2559 102.521 77.5665 102.521ZM77.0944 32.2951C58.1454 32.5518 42.8017 47.9936 42.8017 66.9322C42.8017 85.8708 58.3922 101.58 77.5665 101.58C96.7409 101.58 112.074 86.2879 112.321 67.4027H77.5665C77.309 67.4027 77.0944 67.1889 77.0944 66.9322V32.2951Z" fill="#0C133D"/>
<path d="M86.5693 23.3231V58.4414H121.806C121.806 39.0536 106.033 23.3231 86.5693 23.3231Z" fill="white"/>
<path d="M121.806 58.9012H86.5688C86.3113 58.9012 86.0967 58.6873 86.0967 58.4307V23.3231C86.0967 23.0664 86.3113 22.8525 86.5688 22.8525C106.258 22.8525 122.278 38.8183 122.278 58.4414C122.278 58.698 122.063 58.9119 121.806 58.9119V58.9012ZM87.0409 57.9708H121.323C121.076 39.2461 105.829 24.0502 87.0409 23.8043V57.9708Z" fill="#0C133D"/>
<path d="M130.261 95.2707C119.026 84.0743 97.3306 91.1964 97.3306 91.1964C97.3306 91.1964 86.7294 88.7154 76.2678 87.2932C65.3448 85.8067 62.1794 93.6346 62.1794 93.6346C62.1794 93.6346 38.0479 66.5152 27.3287 67.8519C22.4359 68.4615 20.9659 72.3647 20.9659 72.3647C10.8047 66.2585 2.38171 78.3425 9.61366 85.5073C13.6052 89.4533 16.9207 92.8967 16.9207 92.8967C6.70586 91.2926 2.6285 106.2 10.5364 110.274C17.0924 113.643 50.5482 131.127 61.8468 137.041C64.3147 138.334 67.0186 139.104 69.7977 139.329L92.9206 141.168C96.2039 141.425 99.1654 143.264 100.85 146.087C109.316 160.225 128.243 163.882 141.388 153.905C153.459 144.751 155.873 127.63 146.838 115.493C141.066 107.729 134.832 99.8263 130.25 95.2707H130.261Z" fill="white"/>
<path d="M146.849 115.493C145.154 113.215 143.416 110.926 141.699 108.713C145.465 120.433 141.677 133.715 131.312 141.575C121.806 148.782 109.498 149.413 99.6592 144.462C100.11 144.954 100.518 145.489 100.861 146.077C109.327 160.214 128.254 163.871 141.398 153.894C153.47 144.74 155.884 127.619 146.849 115.482V115.493Z" fill="#0C133D"/>
<path d="M124.617 160C122.835 160 121.054 159.829 119.273 159.487C111.408 157.968 104.552 153.167 100.442 146.312C98.8327 143.628 96.0107 141.874 92.8776 141.628L69.7547 139.789C66.9005 139.564 64.1644 138.773 61.6322 137.447C48.3271 130.485 16.6953 113.953 10.3218 110.68C5.86887 108.392 5.21435 103.163 6.50193 99.2702C7.62857 95.8375 10.7081 92.1374 15.6975 92.3085C14.4421 91.0253 12.0171 88.5443 9.28098 85.8388C5.24654 81.85 5.9869 76.7384 8.37967 73.68C10.8046 70.5788 15.5365 68.825 20.7512 71.7017C21.3414 70.5681 23.1655 67.8947 27.2643 67.3814C37.3933 66.1088 58.5741 88.9507 62.0613 92.8111C63.1451 90.9077 67.0507 85.5715 76.3214 86.8226C86.0856 88.1487 96.0751 90.4157 97.3091 90.7045C99.1331 90.1377 119.735 84.1171 130.593 94.9285C134.542 98.8638 140.143 105.686 147.225 115.204C156.366 127.491 153.877 145.007 141.677 154.268C136.741 158.011 130.733 160 124.617 160ZM15.397 93.2496C11.0514 93.2496 8.3904 96.5219 7.39252 99.5696C6.23369 103.099 6.79164 107.825 10.751 109.857C17.1245 113.129 48.7563 129.662 62.0613 136.623C64.4863 137.896 67.0937 138.645 69.8298 138.858L92.9527 140.698C96.3863 140.976 99.4872 142.89 101.247 145.841C105.217 152.472 111.848 157.113 119.445 158.578C127.042 160.043 134.939 158.203 141.098 153.53C152.89 144.58 155.293 127.651 146.463 115.771C139.413 106.296 133.844 99.5054 129.917 95.6022C119.016 84.7374 97.6846 91.5707 97.47 91.6455C97.3842 91.6776 97.2983 91.6776 97.2125 91.6562C97.1052 91.6348 86.5148 89.1646 76.1926 87.7637C65.7739 86.3521 62.7266 93.5062 62.5978 93.8164C62.5335 93.9661 62.4047 94.073 62.2438 94.1051C62.0828 94.1372 61.9219 94.073 61.8146 93.9554C61.5785 93.688 37.7367 67.0499 27.3716 68.3224C22.8328 68.8892 21.4487 72.3861 21.395 72.5358C21.3414 72.6641 21.2448 72.771 21.1053 72.8138C20.9766 72.8566 20.8263 72.8459 20.7083 72.771C15.4721 69.6271 11.1909 71.6054 9.12003 74.2575C6.97405 77.0058 6.31953 81.5827 9.9355 85.1758C13.8841 89.079 17.2211 92.5331 17.2533 92.5759C17.3928 92.7256 17.425 92.9395 17.3284 93.1213C17.2318 93.3031 17.0387 93.3993 16.8348 93.3672C16.3305 93.2924 15.8477 93.2496 15.3863 93.2496H15.397Z" fill="#0C133D"/>
<path d="M99.1545 113.557C99.1545 113.557 99.058 113.557 99.015 113.536C98.8434 113.482 81.5468 108.071 76.3428 106.649L75.6239 106.456C71.4177 105.323 64.3897 103.43 62.0505 99.0884C61.1492 97.4202 61.0419 95.5274 61.7286 93.4955C61.8145 93.2496 62.0827 93.1213 62.3295 93.1961C62.5763 93.2817 62.7051 93.549 62.6299 93.795C62.0183 95.6022 62.1042 97.1956 62.8875 98.6499C65.0334 102.639 71.8255 104.467 75.8814 105.558L76.6003 105.751C81.815 107.173 99.1331 112.595 99.3047 112.648C99.5515 112.723 99.691 112.99 99.6159 113.236C99.5515 113.439 99.3691 113.568 99.1653 113.568L99.1545 113.557Z" fill="#0C133D"/>
<path d="M50.0975 131.362C49.9688 131.362 49.84 131.309 49.7435 131.202L16.5666 93.2068C16.3949 93.0143 16.4164 92.7149 16.6095 92.5438C16.8027 92.3727 17.1031 92.394 17.2748 92.5865L50.4516 130.581C50.6233 130.774 50.6018 131.073 50.4087 131.244C50.3229 131.319 50.2048 131.362 50.0975 131.362Z" fill="#0C133D"/>
<path d="M57.7586 127.598C57.6192 127.598 57.4904 127.544 57.3938 127.427C57.0827 127.053 26.1913 89.8917 21.513 83.8497C16.6202 77.5404 20.5366 72.1401 20.5688 72.0866C20.719 71.8834 21.0195 71.83 21.2233 71.9904C21.4379 72.1401 21.4809 72.4395 21.3199 72.6427C21.1697 72.8352 17.8112 77.5404 22.2534 83.2723C26.9209 89.3036 57.8016 126.454 58.1127 126.828C58.2737 127.031 58.2522 127.32 58.0483 127.491C57.9625 127.566 57.8552 127.598 57.7479 127.598H57.7586Z" fill="#0C133D"/>
<path d="M147.997 55.4151C147.997 58.8798 150.819 61.6923 154.296 61.6923C157.772 61.6923 160.594 58.8798 160.594 55.4151C160.594 51.9503 157.772 49.1378 154.296 49.1378C150.819 49.1378 147.997 51.9503 147.997 55.4151Z" fill="white"/>
<path d="M134.52 72.878C134.392 72.878 134.252 72.8245 134.166 72.7176C133.995 72.5251 134.016 72.2256 134.22 72.0545L149.231 59.1579C149.424 58.9868 149.725 59.0082 149.896 59.2113C150.068 59.4038 150.046 59.7033 149.843 59.8744L134.831 72.771C134.746 72.8459 134.628 72.8887 134.52 72.8887V72.878Z" fill="#0C133D"/>
<path d="M154.285 62.1521C150.551 62.1521 147.525 59.1258 147.525 55.415C147.525 51.7043 150.562 48.678 154.285 48.678C158.008 48.678 161.045 51.7043 161.045 55.415C161.045 59.1258 158.008 62.1521 154.285 62.1521ZM154.285 49.6083C151.077 49.6083 148.459 52.2069 148.459 55.415C148.459 58.6232 151.066 61.2218 154.285 61.2218C157.504 61.2218 160.112 58.6232 160.112 55.415C160.112 52.2069 157.504 49.6083 154.285 49.6083Z" fill="#0C133D"/>
<path d="M31.4702 26.1569L6.2657 24.6277C6.00818 24.617 5.80431 24.3925 5.82577 24.1251C5.8365 23.8685 6.07256 23.6653 6.33008 23.6867L31.5024 25.2159C31.7599 25.2266 31.9638 25.4511 31.9423 25.7185C31.9316 25.9644 31.717 26.1569 31.4702 26.1569Z" fill="#0C133D"/>
<path d="M37.7371 32.8192C36.6426 32.8192 35.5696 32.5518 34.5825 32.0278C31.2884 30.2847 30.0223 26.1997 31.7713 22.9167C33.5202 19.6338 37.6191 18.3719 40.9131 20.115C42.5119 20.9598 43.6814 22.3714 44.2072 24.0931C44.733 25.8148 44.5613 27.6434 43.7136 29.2261C42.866 30.8194 41.4496 31.9851 39.7221 32.509C39.0676 32.7122 38.3916 32.8085 37.7263 32.8085L37.7371 32.8192ZM32.6082 23.3552C31.106 26.1783 32.1897 29.6966 35.0224 31.2044C36.3958 31.9316 37.9731 32.0813 39.4539 31.6215C40.9453 31.1616 42.1578 30.1564 42.8874 28.7876C43.6171 27.4188 43.7673 25.8468 43.3059 24.3711C42.8445 22.8847 41.8359 21.6763 40.4625 20.9491C37.619 19.452 34.0996 20.532 32.5867 23.3552H32.6082Z" fill="#0C133D"/>
<path d="M0.729205 21.2271C-0.90174 24.2855 0.267819 28.0818 3.3473 29.7073C6.41605 31.3327 10.2252 30.1671 11.8561 27.098C13.4871 24.0396 12.3175 20.2433 9.23801 18.6178C6.15853 16.9924 2.36015 18.158 0.729205 21.2271Z" fill="#FD5F2F"/>
<path d="M49.411 38.5083C49.293 38.5083 49.1643 38.4655 49.0677 38.3692L41.6641 30.766C41.4817 30.5842 41.4924 30.2848 41.6641 30.103C41.8465 29.9212 42.1469 29.9212 42.3293 30.103L49.7329 37.7062C49.9154 37.888 49.9046 38.1874 49.7329 38.3692C49.6364 38.4548 49.5183 38.4976 49.4003 38.4976L49.411 38.5083Z" fill="#0C133D"/>
</g>
<defs>
<clipPath id="clip0_4204_277">
<rect width="162" height="160" fill="white"/>
</clipPath>
</defs>
</svg>
