<svg width="215" height="169" viewBox="0 0 215 169" fill="none" xmlns="http://www.w3.org/2000/svg">
<g clip-path="url(#clip0_4204_187)">
<path d="M114.17 163.45C155.121 163.45 188.32 130.252 188.32 89.3C188.32 48.3481 155.121 15.15 114.17 15.15C73.2176 15.15 40.0195 48.3481 40.0195 89.3C40.0195 130.252 73.2176 163.45 114.17 163.45Z" fill="#8FC1E8"/>
<path d="M116.97 85.13C117.85 84.79 118.77 84.3 119.72 83.64C129.37 76.88 122.62 65.39 113.38 56.18C105.97 48.79 87.0099 42.21 69.6599 52.6C69.6599 52.6 68.4299 41.74 67.6899 31.17C66.4799 13.69 63.9499 8.14001 55.6299 8.75001C46.6399 9.41001 45.4799 18.47 49.8499 49.16C48.8299 42.02 46.4199 38.81 43.1699 27.35C40.7999 19.02 35.0799 13.34 30.2899 14.67C23.7899 16.47 20.1699 21.58 22.5899 33.54C24.6799 43.88 27.4699 53.5 27.4699 53.5C21.1599 44.6 13.8999 35.03 5.57993 39.06C-3.63007 43.53 0.119926 52.94 11.7599 72.19C16.5899 80.18 18.0199 82.48 29.0799 107.84L27.5399 127.71C25.8299 149.67 43.1899 168.43 65.2099 168.43C87.2299 168.43 103.24 151.24 103 130.2L102.89 120.6C102.89 120.6 112.22 112.97 117.36 107.99C127.09 98.57 126.81 88.44 116.96 85.17L116.97 85.13ZM90.1799 98.49C85.3999 99.53 76.9699 81.39 82.7299 76.21C88.4899 71.03 93.8799 70.99 98.9199 75.13C102.13 77.76 105.76 83.21 110.46 85.1C99.5299 86.81 94.4499 97.57 90.1799 98.5V98.49Z" fill="white"/>
<path d="M65.2199 168.82C54.6099 168.82 44.3799 164.35 37.1799 156.56C29.9699 148.77 26.3099 138.23 27.1299 127.65L28.6699 107.89C17.7399 82.84 16.2999 80.46 11.5299 72.57L11.4199 72.39C2.94987 58.38 -1.32013 49.72 0.359872 44.03C1.03987 41.74 2.68987 39.98 5.39987 38.67C13.6799 34.66 20.9099 43.61 26.4199 51.29C25.4699 47.81 23.6399 40.85 22.1799 33.61C19.9699 22.69 22.5899 16.36 30.1799 14.26C35.2199 12.86 41.1099 18.56 43.5699 27.23C44.9799 32.2 46.2599 35.68 47.2799 38.47C47.6899 39.59 48.0699 40.62 48.4099 41.62C46.1199 23.3 46.5399 15.03 49.6999 11.1C51.0499 9.43003 52.9699 8.52003 55.5999 8.33003C58.6399 8.11003 60.8499 8.69003 62.5599 10.17C65.6999 12.89 67.2499 18.77 68.1099 31.14C68.7299 40.13 69.7299 49.42 69.9999 51.91C87.1499 42.02 106.14 48.37 113.67 55.88C119.08 61.28 125.41 69.18 124.8 76.2C124.53 79.31 122.9 81.93 119.96 83.99C119.34 84.42 118.72 84.8 118.09 85.1C121.68 86.55 123.95 88.99 124.68 92.21C125.78 97.03 123.22 102.88 117.66 108.26C112.93 112.84 104.56 119.74 103.32 120.77L103.43 130.17C103.55 140.46 99.6299 150.16 92.3999 157.47C85.1699 164.79 75.5199 168.82 65.2299 168.82H65.2199ZM9.55987 38.51C8.31987 38.51 7.05987 38.8 5.76987 39.42C3.27987 40.63 1.76987 42.21 1.15987 44.27C-0.430128 49.64 3.97987 58.49 12.1299 71.95L12.2399 72.13C17.0399 80.06 18.4899 82.45 29.4699 107.64C29.4999 107.7 29.5099 107.77 29.4999 107.84L27.9599 127.71C27.1399 138.21 30.6299 148.25 37.7899 155.99C44.9399 163.72 54.6799 167.98 65.2199 167.98C75.7599 167.98 84.7199 164.04 91.7999 156.88C98.8699 149.72 102.71 140.24 102.59 130.18L102.48 120.58C102.48 120.45 102.54 120.33 102.63 120.25C102.72 120.17 112 112.57 117.08 107.66C122.43 102.49 124.9 96.92 123.87 92.4C123.14 89.2 120.71 86.82 116.84 85.54C116.67 85.48 116.56 85.33 116.55 85.15C116.55 84.97 116.65 84.81 116.82 84.75C117.7 84.41 118.6 83.92 119.48 83.3C122.21 81.39 123.72 78.98 123.97 76.13C124.42 70.91 120.56 63.93 113.09 56.48C105.66 49.07 86.7899 42.83 69.8799 52.96C69.7599 53.03 69.6099 53.04 69.4799 52.98C69.3499 52.92 69.2699 52.79 69.2499 52.65C69.2399 52.54 68.0099 41.66 67.2799 31.2C66.4399 19.08 64.9599 13.36 62.0199 10.81C60.4899 9.49003 58.4699 8.96003 55.6699 9.17003C53.2599 9.35003 51.5699 10.13 50.3699 11.63C47.0099 15.8 46.9799 25.96 50.2799 49.1C50.3099 49.33 50.1499 49.54 49.9199 49.57C49.6899 49.6 49.4799 49.44 49.4499 49.21C48.8799 45.22 47.8899 42.5 46.5099 38.75C45.4799 35.94 44.1999 32.45 42.7799 27.45C40.4799 19.36 34.9399 13.8 30.4199 15.06C23.2399 17.05 20.8899 22.89 23.0199 33.44C25.0799 43.64 27.8699 53.27 27.8899 53.36C27.9499 53.56 27.8499 53.77 27.6699 53.85C27.4899 53.94 27.2599 53.88 27.1499 53.71C21.4399 45.65 15.7599 38.5 9.56987 38.5L9.55987 38.51ZM89.7699 98.96C87.4699 98.96 84.9599 95.7 83.3099 92.48C80.2899 86.58 79.0199 78.99 82.4599 75.9C88.1799 70.76 93.8099 70.39 99.1999 74.8C100.3 75.7 101.43 76.91 102.63 78.19C104.95 80.67 107.59 83.48 110.63 84.7C110.81 84.77 110.91 84.95 110.89 85.14C110.87 85.33 110.72 85.48 110.54 85.51C103.85 86.56 99.4499 91 95.9199 94.58C93.7399 96.79 92.0099 98.53 90.2899 98.91C90.1199 98.95 89.9599 98.96 89.7899 98.96H89.7699ZM91.5799 72.57C88.7899 72.57 85.9499 73.89 83.0199 76.52C79.8999 79.33 81.1799 86.48 84.0599 92.09C86.0699 96.02 88.4999 98.43 90.0999 98.08C91.5799 97.76 93.3099 96.01 95.3199 93.98C98.5399 90.73 102.87 86.35 109.13 84.92C106.43 83.47 104.1 80.98 102.02 78.76C100.84 77.5 99.7199 76.31 98.6699 75.45C96.3199 73.53 93.9699 72.57 91.5899 72.57H91.5799Z" fill="#0C133D"/>
<path d="M69.4602 147.5C51.5002 147.5 36.0102 137.59 27.9002 123.1L27.5402 127.67C25.8302 149.63 43.1902 168.39 65.2102 168.39C85.0302 168.39 101.25 153.14 102.86 133.78C94.2702 142.25 82.4802 147.49 69.4402 147.49L69.4602 147.5Z" fill="#0C133D"/>
<path d="M72.7798 89.72C72.5498 89.72 72.3598 89.53 72.3598 89.3C72.3598 80.95 69.7198 74.44 64.5198 69.96C53.4198 60.4 34.1298 63.16 33.9398 63.19C33.7798 63.21 33.6198 63.14 33.5298 63.01L27.1398 53.71C27.0098 53.52 27.0598 53.26 27.2498 53.13C27.4398 53 27.6998 53.05 27.8298 53.24L34.0798 62.33C36.4598 62.03 54.3898 60.13 65.0698 69.33C70.4698 73.98 73.2098 80.7 73.2098 89.31C73.2098 89.54 73.0198 89.73 72.7898 89.73L72.7798 89.72Z" fill="#0C133D"/>
<path d="M51.9298 61.17C51.7298 61.17 51.5498 61.03 51.5198 60.82L49.4098 48.92C49.3698 48.69 49.5198 48.47 49.7498 48.43C49.9798 48.39 50.1998 48.54 50.2398 48.77L52.3498 60.67C52.3898 60.9 52.2398 61.12 52.0098 61.16C51.9898 61.16 51.9598 61.16 51.9398 61.16L51.9298 61.17Z" fill="#0C133D"/>
<path d="M70.1997 58.01C69.9897 58.01 69.8097 57.85 69.7797 57.64L69.2497 52.64C69.2297 52.41 69.3897 52.2 69.6197 52.18C69.8497 52.15 70.0597 52.32 70.0797 52.55L70.6097 57.55C70.6297 57.78 70.4697 57.99 70.2397 58.01C70.2197 58.01 70.2097 58.01 70.1897 58.01H70.1997Z" fill="#0C133D"/>
<path d="M116.97 85.55L110.46 85.51C110.23 85.51 110.04 85.32 110.04 85.09C110.04 84.86 110.25 84.68 110.46 84.67L116.97 84.71C117.2 84.71 117.39 84.9 117.39 85.13C117.39 85.36 117.2 85.55 116.97 85.55Z" fill="#0C133D"/>
<path d="M110.176 99.9562C118.956 91.9216 119.561 78.2903 111.526 69.5098C103.492 60.7293 89.8606 60.1247 81.0801 68.1592C72.2996 76.1938 71.6949 89.8251 79.7295 98.6056C87.7641 107.386 101.395 107.991 110.176 99.9562Z" fill="#FD5F2F"/>
<path d="M95.6301 106.03C83.5202 106.03 73.6602 96.18 73.6602 84.06C73.6602 71.94 83.5101 62.09 95.6301 62.09C107.75 62.09 117.6 71.94 117.6 84.06C117.6 96.18 107.75 106.03 95.6301 106.03ZM95.6301 62.93C83.9802 62.93 74.5002 72.41 74.5002 84.06C74.5002 95.71 83.9802 105.19 95.6301 105.19C107.28 105.19 116.76 95.71 116.76 84.06C116.76 72.41 107.28 62.93 95.6301 62.93Z" fill="#0C133D"/>
<path d="M91.7407 90.45C91.6307 90.45 91.5307 90.41 91.4507 90.33L84.4107 83.49C84.2407 83.33 84.2407 83.06 84.4107 82.9C84.5707 82.73 84.8407 82.73 85.0007 82.9L91.7507 89.46L106.141 75.75C106.311 75.59 106.571 75.6 106.731 75.76C106.891 75.93 106.881 76.19 106.721 76.35L92.0407 90.34C91.9607 90.42 91.8507 90.46 91.7507 90.46L91.7407 90.45Z" fill="white"/>
<path d="M144.127 5.5367L108.216 56.2371L124.504 67.7739L160.415 17.0736L144.127 5.5367Z" fill="#FD5F2F"/>
<path d="M124.51 68.2C124.42 68.2 124.34 68.17 124.27 68.12L107.98 56.58C107.89 56.52 107.83 56.42 107.81 56.31C107.79 56.2 107.81 56.09 107.88 56L143.79 5.29997C143.85 5.20997 143.95 5.14997 144.06 5.12997C144.17 5.10997 144.28 5.12997 144.37 5.19997L160.66 16.74C160.85 16.87 160.89 17.14 160.76 17.32L124.85 68.02C124.79 68.11 124.69 68.17 124.58 68.19C124.56 68.19 124.53 68.19 124.51 68.19V68.2ZM108.81 56.14L124.41 67.19L159.84 17.18L144.24 6.12997L108.81 56.14Z" fill="#0C133D"/>
<path d="M124.51 67.78L106.42 76.04L108.22 56.24L124.51 67.78Z" fill="white"/>
<path d="M106.42 76.46C106.33 76.46 106.25 76.43 106.18 76.38C106.06 76.29 105.99 76.15 106 76L107.8 56.2C107.81 56.05 107.91 55.92 108.04 55.86C108.17 55.8 108.34 55.81 108.46 55.9L124.75 67.44C124.87 67.53 124.94 67.67 124.93 67.82C124.92 67.97 124.82 68.1 124.69 68.16L106.6 76.43C106.54 76.46 106.49 76.47 106.43 76.47L106.42 76.46ZM108.57 57L106.9 75.36L123.67 67.7L108.57 57Z" fill="#0C133D"/>
<path d="M106.42 76.04L107.35 65.87L115.72 71.8L106.42 76.04Z" fill="#0C133D"/>
<path d="M120.19 65.14C120.11 65.14 120.02 65.11 119.95 65.06C119.76 64.93 119.72 64.66 119.85 64.48L152.63 18.21C152.76 18.02 153.03 17.98 153.21 18.11C153.4 18.24 153.44 18.51 153.31 18.69L120.53 64.96C120.45 65.08 120.32 65.14 120.19 65.14Z" fill="#0C133D"/>
<path d="M112.54 59.72C112.46 59.72 112.37 59.69 112.3 59.64C112.11 59.51 112.07 59.24 112.2 59.06L144.98 12.79C145.11 12.6 145.38 12.56 145.56 12.69C145.75 12.82 145.79 13.09 145.66 13.27L112.88 59.54C112.8 59.66 112.67 59.72 112.54 59.72Z" fill="#0C133D"/>
<path d="M157.29 21.51L161.08 16.17C164.27 11.67 163.2 5.43999 158.71 2.25999C154.21 -0.930013 147.98 0.139987 144.8 4.62999L141.01 9.96999L157.3 21.51H157.29Z" fill="#8FC1E8"/>
<path d="M157.28 21.93C157.2 21.93 157.11 21.9 157.04 21.85L140.75 10.31C140.66 10.25 140.6 10.15 140.58 10.04C140.56 9.92999 140.58 9.81999 140.65 9.72999L144.44 4.38999C147.75 -0.290009 154.26 -1.40001 158.94 1.91999C161.21 3.52999 162.71 5.91999 163.18 8.65999C163.65 11.4 163.02 14.15 161.42 16.42L157.63 21.76C157.55 21.88 157.42 21.94 157.29 21.94L157.28 21.93ZM141.58 9.86999L157.18 20.92L160.72 15.92C162.2 13.84 162.77 11.3 162.34 8.78999C161.91 6.26999 160.53 4.06999 158.44 2.59999C154.14 -0.450009 148.16 0.56999 145.11 4.86999L141.57 9.86999H141.58Z" fill="#0C133D"/>
<path d="M139.081 12.6637L155.369 24.2006L160.409 17.0848L144.121 5.5479L139.081 12.6637Z" fill="white"/>
<path d="M155.38 24.62C155.29 24.62 155.21 24.59 155.14 24.54L138.85 13C138.66 12.87 138.62 12.6 138.75 12.42L143.79 5.29997C143.85 5.20997 143.95 5.14997 144.06 5.12997C144.17 5.10997 144.28 5.12997 144.37 5.19997L160.66 16.74C160.85 16.87 160.89 17.14 160.76 17.32L155.72 24.44C155.66 24.53 155.56 24.59 155.45 24.61C155.43 24.61 155.4 24.61 155.38 24.61V24.62ZM139.68 12.56L155.28 23.61L159.84 17.18L144.24 6.12997L139.68 12.56Z" fill="#0C133D"/>
<path d="M169.85 94.31L171.39 98.64L167.57 100L166.03 95.67L161.7 97.21L163.24 101.54L159.43 102.89L157.89 98.57L153.56 100.11L155.1 104.44L151.29 105.79L149.75 101.47L145.42 103.01L146.96 107.34L143.14 108.69L141.6 104.37L137.28 105.91L138.82 110.23L135 111.59L133.46 107.27L129.13 108.81L130.68 113.13L147.62 160.72L192.66 144.68L175.71 97.1L174.17 92.77L169.85 94.31Z" fill="white"/>
<path d="M147.62 161.14C147.56 161.14 147.5 161.13 147.44 161.1C147.34 161.05 147.26 160.97 147.22 160.86L128.73 108.94C128.69 108.84 128.7 108.72 128.75 108.62C128.8 108.52 128.88 108.44 128.99 108.4L133.32 106.86C133.54 106.78 133.78 106.9 133.86 107.11L135.26 111.04L138.29 109.96L136.89 106.03C136.85 105.93 136.86 105.81 136.91 105.71C136.96 105.61 137.04 105.53 137.15 105.49L141.48 103.95C141.7 103.87 141.94 103.99 142.02 104.2L143.42 108.13L146.45 107.05L145.05 103.12C145.01 103.02 145.02 102.9 145.07 102.8C145.12 102.7 145.2 102.62 145.31 102.58L149.64 101.04C149.86 100.96 150.1 101.08 150.18 101.29L151.58 105.22L154.61 104.14L153.21 100.21C153.17 100.11 153.18 99.99 153.23 99.89C153.28 99.79 153.36 99.71 153.47 99.67L157.8 98.13C158.02 98.05 158.26 98.17 158.34 98.38L159.74 102.31L162.77 101.23L161.37 97.3C161.33 97.2 161.34 97.08 161.39 96.98C161.44 96.88 161.52 96.8 161.63 96.76L165.96 95.22C166.18 95.14 166.42 95.26 166.5 95.47L167.9 99.4L170.93 98.32L169.53 94.39C169.45 94.17 169.57 93.93 169.78 93.85L174.11 92.31C174.21 92.27 174.33 92.28 174.43 92.33C174.53 92.38 174.61 92.46 174.65 92.57L193.14 144.49C193.18 144.59 193.17 144.71 193.12 144.81C193.07 144.91 192.99 144.99 192.88 145.03L147.84 161.07C147.84 161.07 147.75 161.09 147.7 161.09L147.62 161.14ZM129.67 109.06L147.88 160.19L192.13 144.43L173.92 93.3L170.38 94.56L171.78 98.49C171.86 98.71 171.74 98.95 171.53 99.03L167.71 100.39C167.61 100.43 167.49 100.42 167.39 100.37C167.29 100.32 167.21 100.24 167.17 100.13L165.77 96.2L162.23 97.46L163.63 101.39C163.71 101.61 163.59 101.85 163.38 101.93L159.56 103.29C159.46 103.33 159.34 103.32 159.24 103.27C159.14 103.22 159.06 103.14 159.02 103.03L157.62 99.1L154.08 100.36L155.48 104.29C155.56 104.51 155.44 104.75 155.23 104.83L151.41 106.19C151.31 106.23 151.19 106.22 151.09 106.17C150.99 106.12 150.91 106.04 150.87 105.93L149.47 102L145.93 103.26L147.33 107.19C147.41 107.41 147.29 107.65 147.08 107.73L143.26 109.09C143.16 109.13 143.04 109.12 142.94 109.07C142.84 109.02 142.76 108.94 142.72 108.83L141.32 104.9L137.78 106.16L139.18 110.09C139.22 110.19 139.21 110.31 139.16 110.41C139.11 110.51 139.03 110.59 138.92 110.63L135.1 111.99C134.88 112.07 134.64 111.95 134.56 111.74L133.16 107.81L129.62 109.07L129.67 109.06Z" fill="#0C133D"/>
<path d="M157.654 39.4771L147.789 75.6873L183.999 85.5526L193.864 49.3424L157.654 39.4771Z" fill="#FD5F2F"/>
<path d="M188.069 70.54L188.099 70.3C186.799 69.19 185.069 68.72 183.349 68.64C180.929 68.53 178.499 69.55 176.109 69.19C173.479 68.79 172.049 66.33 170.979 64.1C169.859 61.77 168.779 59.58 166.729 57.95C165.019 56.59 162.949 55.72 160.779 55.5C157.779 55.2 154.779 56.26 152.529 58.23L147.779 75.67L183.989 85.53L188.079 70.53L188.069 70.54Z" fill="#0C133D"/>
<path d="M183.98 85.96C183.98 85.96 183.91 85.96 183.87 85.95L147.66 76.09C147.44 76.03 147.3 75.8 147.37 75.58L157.23 39.37C157.26 39.26 157.33 39.17 157.43 39.12C157.53 39.06 157.64 39.05 157.75 39.08L193.96 48.94C194.18 49 194.32 49.23 194.25 49.45L184.39 85.66C184.36 85.77 184.29 85.86 184.19 85.91C184.13 85.95 184.05 85.97 183.98 85.97V85.96ZM148.29 75.39L183.69 85.03L193.33 49.63L157.93 39.99L148.29 75.39Z" fill="#0C133D"/>
<path d="M187.319 58.5C186.509 61.48 183.429 63.24 180.449 62.43C177.469 61.62 175.709 58.54 176.519 55.56C177.329 52.58 180.409 50.82 183.389 51.63C186.369 52.44 188.129 55.52 187.319 58.5Z" fill="white"/>
<path d="M146.52 129.12C145.68 129.12 144.86 128.86 144.23 128.24C144.07 128.08 144.06 127.81 144.23 127.65C144.39 127.49 144.66 127.49 144.82 127.65C145.81 128.63 147.57 128.36 148.72 127.6C149.44 127.12 150.04 126.48 150.48 125.74C149.12 124.95 148.28 123.57 148.33 122.2C148.35 121.74 148.46 121.36 148.68 121.07C148.95 120.7 149.37 120.49 149.87 120.47C150.45 120.44 151.06 120.69 151.44 121.12C152.13 121.9 152.16 122.97 152.06 123.74C151.99 124.3 151.84 124.84 151.62 125.36C152.46 125.68 153.48 125.81 154.72 125.76C156.78 125.68 158.66 125.17 160.15 124.29C161.4 123.55 162.4 122.52 163.03 121.35C161.9 120.7 161.03 119.62 160.97 118.27C160.95 117.65 161.18 117 161.58 116.58C161.88 116.27 162.25 116.1 162.65 116.09C163.54 116.09 164.12 116.84 164.36 117.48C164.66 118.28 164.66 119.24 164.36 120.27C164.3 120.5 164.22 120.72 164.13 120.94C164.46 121.06 164.8 121.13 165.13 121.15C166.86 121.29 168.6 120.49 170.07 119.7C170.95 119.22 171.82 118.71 172.66 118.17C172.85 118.04 173.11 118.1 173.24 118.3C173.36 118.49 173.31 118.75 173.11 118.88C172.25 119.43 171.36 119.96 170.46 120.45C168.89 121.3 167.01 122.15 165.06 122C164.63 121.97 164.19 121.87 163.77 121.71C163.06 123.03 161.94 124.19 160.56 125.01C158.95 125.97 156.93 126.52 154.73 126.6C153.34 126.65 152.19 126.49 151.23 126.12C150.73 127 150.02 127.76 149.17 128.32C148.4 128.83 147.44 129.15 146.51 129.15L146.52 129.12ZM149.95 121.29C149.95 121.29 149.92 121.29 149.9 121.29C149.73 121.29 149.5 121.35 149.35 121.55C149.24 121.7 149.18 121.92 149.17 122.21C149.14 123.24 149.81 124.33 150.86 124.97C151.04 124.53 151.16 124.07 151.22 123.6C151.28 123.11 151.31 122.22 150.81 121.65C150.61 121.42 150.28 121.28 149.96 121.28L149.95 121.29ZM162.66 116.91C162.48 116.91 162.32 116.99 162.18 117.14C161.94 117.39 161.79 117.83 161.8 118.22C161.84 119.23 162.5 120.06 163.37 120.57C163.44 120.39 163.5 120.21 163.55 120.03C163.72 119.43 163.86 118.55 163.57 117.76C163.42 117.35 163.07 116.91 162.65 116.91H162.66Z" fill="#0C133D"/>
<path d="M152.85 144.22C152.39 144.22 151.93 144.17 151.48 144.05C151.26 143.99 151.12 143.77 151.17 143.54C151.23 143.32 151.45 143.18 151.68 143.23C154.07 143.83 156.76 142.52 157.93 140.38C157.25 140.14 156.62 139.79 156.06 139.32C155.22 138.62 154.43 137.39 154.96 136.23C155.21 135.69 155.72 135.31 156.37 135.2C157.15 135.07 157.98 135.32 158.5 135.85C159.3 136.67 159.56 138.01 159.2 139.43C159.17 139.57 159.12 139.7 159.08 139.83C160.69 140.14 162.43 139.79 163.72 138.77C163.97 138.58 164.2 138.36 164.43 138.15C164.9 137.71 165.39 137.26 166.01 136.96C167.3 136.33 168.69 136.56 170.04 136.77C170.91 136.91 171.8 137.05 172.64 136.96C174.29 136.77 175.84 135.65 177.51 133.46C177.65 133.28 177.91 133.24 178.1 133.38C178.28 133.52 178.32 133.78 178.18 133.97C177.04 135.47 175.23 137.5 172.74 137.8C171.79 137.91 170.84 137.76 169.91 137.61C168.63 137.41 167.43 137.21 166.38 137.72C165.88 137.96 165.45 138.36 165.01 138.77C164.76 139 164.51 139.23 164.25 139.44C162.72 140.65 160.64 141.04 158.75 140.62C157.65 142.76 155.25 144.21 152.84 144.21L152.85 144.22ZM156.8 136.02C156.71 136.02 156.62 136.02 156.53 136.04C156.31 136.08 155.91 136.2 155.73 136.59C155.42 137.27 155.94 138.14 156.6 138.69C157.1 139.1 157.67 139.42 158.27 139.63C158.32 139.5 158.35 139.37 158.39 139.24C158.68 138.11 158.5 137.07 157.91 136.46C157.64 136.19 157.22 136.03 156.8 136.03V136.02Z" fill="#0C133D"/>
<path d="M106.02 9.84L105.7 12.15L103.67 11.87L103.98 9.57L101.68 9.25L101.36 11.56L99.33 11.28L99.64 8.97001L97.34 8.66L97.02 10.96L94.99 10.68L95.31 8.38L93 8.06001L92.69 10.37L90.65 10.09L90.97 7.79L88.66 7.47L88.35 9.78L86.31 9.5L86.63 7.19L84.32 6.88L84.01 9.18001L80.54 34.54L104.54 37.82L108.01 12.46L108.32 10.16L106.02 9.84Z" fill="white"/>
<path d="M81.7315 25.8914L80.5469 34.5507L89.2062 35.7354L90.3909 27.076L81.7315 25.8914Z" fill="#FD5F2F"/>
<path d="M104.54 38.24C104.54 38.24 104.5 38.24 104.48 38.24L80.4798 34.96C80.2498 34.93 80.0898 34.72 80.1198 34.49L83.8998 6.82998C83.9298 6.59998 84.1398 6.43998 84.3698 6.46998L86.6798 6.78998C86.9098 6.81998 87.0698 7.02998 87.0398 7.25998L86.7798 9.14998L87.9798 9.30998L88.2398 7.41998C88.2698 7.18998 88.4798 7.02998 88.7098 7.05998L91.0198 7.37998C91.2498 7.40998 91.4098 7.61998 91.3798 7.84998L91.1198 9.73998L92.3198 9.89998L92.5798 8.00998C92.6098 7.77998 92.8198 7.61998 93.0498 7.64998L95.3598 7.96998C95.5898 7.99998 95.7498 8.20998 95.7198 8.43998L95.4598 10.33L96.6598 10.49L96.9198 8.59998C96.9398 8.48998 96.9898 8.38998 97.0798 8.31998C97.1698 8.24998 97.2798 8.21998 97.3898 8.23998L99.6998 8.55998C99.9298 8.58998 100.09 8.79998 100.06 9.02998L99.7998 10.92L101 11.08L101.26 9.18998C101.28 9.07998 101.33 8.97998 101.42 8.90998C101.51 8.83998 101.62 8.80998 101.73 8.82998L104.04 9.14998C104.27 9.17998 104.43 9.38998 104.4 9.61998L104.14 11.51L105.34 11.67L105.6 9.77998C105.61 9.66998 105.67 9.56998 105.76 9.49998C105.85 9.42998 105.96 9.39998 106.07 9.41998L108.38 9.73998C108.49 9.75998 108.59 9.80998 108.66 9.89998C108.73 9.98998 108.76 10.1 108.74 10.21L104.96 37.87C104.95 37.98 104.89 38.08 104.8 38.15C104.73 38.21 104.64 38.24 104.55 38.24H104.54ZM81.0098 34.18L104.18 37.35L107.85 10.52L106.38 10.32L106.12 12.21C106.11 12.32 106.05 12.42 105.96 12.49C105.87 12.56 105.76 12.59 105.65 12.57L103.62 12.29C103.39 12.26 103.23 12.05 103.26 11.82L103.52 9.92998L102.05 9.72998L101.79 11.62C101.77 11.73 101.72 11.83 101.63 11.9C101.54 11.97 101.43 12 101.32 11.98L99.2898 11.7C99.0598 11.67 98.8998 11.46 98.9298 11.23L99.1898 9.33998L97.7198 9.13998L97.4598 11.03C97.4398 11.14 97.3898 11.24 97.2998 11.31C97.2098 11.38 97.0998 11.41 96.9898 11.39L94.9598 11.11C94.7298 11.08 94.5698 10.87 94.5998 10.64L94.8598 8.74998L93.3898 8.54998L93.1298 10.44C93.0998 10.67 92.8898 10.83 92.6598 10.8L90.6298 10.52C90.3998 10.49 90.2398 10.28 90.2698 10.05L90.5298 8.15998L89.0598 7.95998L88.7998 9.84998C88.7698 10.08 88.5598 10.24 88.3298 10.21L86.2998 9.92998C86.1898 9.91998 86.0898 9.85998 86.0198 9.76998C85.9498 9.67998 85.9198 9.56998 85.9398 9.45998L86.1998 7.56998L84.7298 7.36998L81.0598 34.2L81.0098 34.18Z" fill="#0C133D"/>
<path d="M203.76 116.71C209.891 116.71 214.86 111.74 214.86 105.61C214.86 99.4796 209.891 94.51 203.76 94.51C197.63 94.51 192.66 99.4796 192.66 105.61C192.66 111.74 197.63 116.71 203.76 116.71Z" fill="#8FC1E8"/>
<path d="M142.4 90.11C142.29 90.11 142.19 90.07 142.1 89.99L136.28 84.17C136.12 84.01 136.12 83.74 136.28 83.58C136.44 83.42 136.71 83.42 136.87 83.58L142.69 89.4C142.85 89.56 142.85 89.83 142.69 89.99C142.61 90.07 142.5 90.11 142.39 90.11H142.4Z" fill="#0C133D"/>
<path d="M136.58 90.11C136.47 90.11 136.37 90.07 136.28 89.99C136.12 89.83 136.12 89.56 136.28 89.4L142.1 83.58C142.26 83.42 142.53 83.42 142.69 83.58C142.85 83.74 142.85 84.01 142.69 84.17L136.87 89.99C136.79 90.07 136.68 90.11 136.57 90.11H136.58Z" fill="#0C133D"/>
<path d="M120.19 146.17C117.08 146.17 114.55 143.64 114.55 140.53C114.55 137.42 117.08 134.89 120.19 134.89C123.3 134.89 125.83 137.42 125.83 140.53C125.83 143.64 123.3 146.17 120.19 146.17ZM120.19 135.73C117.54 135.73 115.39 137.88 115.39 140.53C115.39 143.18 117.54 145.33 120.19 145.33C122.84 145.33 124.99 143.18 124.99 140.53C124.99 137.88 122.84 135.73 120.19 135.73Z" fill="#0C133D"/>
</g>
<defs>
<clipPath id="clip0_4204_187">
<rect width="214.85" height="168.82" fill="white"/>
</clipPath>
</defs>
</svg>
