<svg width="106" height="112" viewBox="0 0 106 112" fill="none" xmlns="http://www.w3.org/2000/svg">
<path d="M10.7811 111.43L103.407 111.43L103.407 43.2967L10.7811 43.2967L10.7811 111.43Z" fill="white"/>
<path d="M103.411 111.43C103.411 111.43 96.1218 96.5481 86.1863 82.3338C80.2731 73.8761 68.5826 70.8492 58.6881 70.8808L47.8008 70.8429C11.3916 70.8302 28.1638 31.4958 28.1638 31.4958L13.719 25.5115C-23.0285 90.5037 27.3163 98.4016 33.628 99.0753L33.8683 110.857L89.7975 111.42L79.0651 111.433H103.407L103.411 111.43Z" fill="#283F56"/>
<path d="M103.411 111.825H79.0684C78.9546 111.825 78.8534 111.778 78.7807 111.702L33.8653 111.249C33.6534 111.249 33.4795 111.076 33.4732 110.864L33.2392 99.4296C28.8849 98.9172 11.085 95.9345 3.43892 81.0686C-3.38503 67.8001 -0.0426248 49.0438 13.3713 25.3185C13.4693 25.1446 13.6812 25.0718 13.8677 25.1477L28.3125 31.132C28.4105 31.1731 28.4864 31.249 28.5275 31.3471C28.5686 31.4451 28.5655 31.5558 28.5275 31.6507C28.4453 31.8437 20.4514 50.9384 27.8793 62.1827C31.4968 67.6577 38.2006 70.4348 47.8073 70.4348C47.842 70.4348 47.8768 70.438 47.9084 70.4475L58.6914 70.4854C71.0017 70.438 81.3989 74.7902 86.5121 82.1061C96.3528 96.1844 103.695 111.107 103.768 111.256C103.828 111.379 103.822 111.521 103.749 111.639C103.676 111.756 103.55 111.825 103.414 111.825H103.411ZM89.902 111.034H102.772C101.333 108.172 94.582 95.0331 85.8607 82.5584C80.9183 75.486 70.8278 71.273 58.8495 71.273C58.7958 71.273 58.742 71.273 58.6851 71.273L47.7946 71.235C47.7598 71.235 47.7282 71.2319 47.6966 71.2224C37.8654 71.2002 30.9719 68.3061 27.2121 62.6128C20.0403 51.7544 26.5069 34.5259 27.6421 31.7077L13.8867 26.008C0.757403 49.3443 -2.52176 67.7463 4.14408 80.7049C11.9894 95.9598 31.4747 98.449 33.6692 98.6799C33.8684 98.7021 34.0202 98.8666 34.0234 99.0658L34.2574 110.462L89.804 111.019C89.8387 111.019 89.8704 111.025 89.902 111.031V111.034Z" fill="#283F56"/>
<path d="M41.7235 61.4584C43.1876 66.6108 48.5475 69.5998 53.6986 68.1353C58.8498 66.6709 61.8381 61.3097 60.374 56.1573C58.9099 51.0048 53.55 48.0158 48.3989 49.4803C43.2477 50.9447 40.2594 56.3059 41.7235 61.4584Z" fill="#283F56"/>
<path d="M46.9668 67.3414C49.3005 65.7884 49.3194 63.9919 49.2372 61.6513L50.0436 61.5121C50.2491 61.4773 50.3977 61.2971 50.3914 61.0915C50.3503 59.8453 49.2878 57.6312 48.7091 56.1446C48.5321 55.686 48.9621 55.221 49.4301 55.376C50.6254 55.7714 52.5449 56.1003 54.3821 55.6385C55.6944 55.3096 56.3015 54.7592 56.8486 54.4335C57.6644 53.9495 58.7174 54.3449 59.0241 55.2432C59.1822 55.705 60.2858 57.4383 60.9025 60.5443C61.7942 65.0167 62.7808 67.6862 58.145 69.0052L58.4107 70.1343C58.4107 70.1343 60.1277 75.1413 56.8075 76.7354C53.4872 78.3295 48.3202 72.9652 48.3202 72.9652L46.9668 67.3383V67.3414Z" fill="white"/>
<path d="M55.4436 77.4281C52.1107 77.4281 48.2244 73.4396 48.0346 73.2435C47.9872 73.1929 47.9524 73.1296 47.9366 73.0632L46.5832 67.4363C46.5326 67.2244 46.6623 67.0093 46.8741 66.9587C47.086 66.9081 47.301 67.0378 47.3516 67.2497L48.6797 72.769C49.3122 73.3985 53.8151 77.738 56.6357 76.3811C59.5987 74.9578 58.0524 70.3114 58.0366 70.264L57.7615 69.0969C57.714 68.8913 57.8342 68.6825 58.0397 68.6256C61.945 67.5154 61.5402 65.5638 60.7339 61.6766C60.6643 61.3381 60.5916 60.9871 60.5189 60.6233C59.9117 57.5806 58.8145 54.386 58.805 54.3544C58.7322 54.1488 58.8429 53.9242 59.0485 53.8515C59.254 53.7787 59.4785 53.8894 59.5512 54.095C59.5639 54.1266 60.677 57.3687 61.2936 60.4652C61.3663 60.8258 61.4391 61.1737 61.5086 61.5121C62.277 65.2191 62.8399 67.9234 58.6184 69.274L58.7987 70.0426C58.8619 70.2229 60.5789 75.3627 56.9836 77.0896C56.4998 77.3237 55.9812 77.4249 55.4499 77.4249L55.4436 77.4281Z" fill="#283F56"/>
<path d="M58.2172 62.4041C58.0622 62.4041 57.9168 62.3124 57.8503 62.1606L56.2819 58.3903C56.1965 58.1879 56.2946 57.957 56.4938 57.8748C56.6962 57.7925 56.927 57.8874 57.0092 58.0867L58.5776 61.8569C58.663 62.0594 58.565 62.2902 58.3658 62.3725C58.3152 62.3946 58.2646 62.4041 58.214 62.4041H58.2172Z" fill="#283F56"/>
<path d="M53.2304 60.1362C53.3221 60.4525 53.651 60.6391 53.9672 60.5474C54.2834 60.4557 54.47 60.1267 54.3783 59.8104C54.2866 59.4942 53.9577 59.3075 53.6415 59.3993C53.3253 59.491 53.1387 59.8199 53.2304 60.1362Z" fill="#283F56"/>
<path d="M57.8759 58.8141C57.9676 59.1304 58.2965 59.3171 58.6127 59.2253C58.9289 59.1336 59.1155 58.8047 59.0238 58.4884C58.9321 58.1721 58.6032 57.9855 58.287 58.0772C57.9708 58.1689 57.7842 58.4979 57.8759 58.8141Z" fill="#283F56"/>
<path d="M33.8685 98.1454C33.6566 98.1454 33.4827 97.9778 33.4732 97.7658L32.9262 84.2474C32.9167 84.0292 33.0874 83.8457 33.3056 83.8362C33.5333 83.8362 33.7072 84.0039 33.7167 84.2158L34.2638 97.7342C34.2732 97.9525 34.1025 98.1359 33.8843 98.1454C33.878 98.1454 33.8716 98.1454 33.8685 98.1454Z" fill="white"/>
<path d="M77.4236 97.8165C77.3951 97.8165 77.3666 97.8165 77.3382 97.807C77.1263 97.7595 76.9903 97.5476 77.0378 97.3357C77.0536 97.2629 78.6189 89.8964 75.814 80.61C75.7508 80.4013 75.8678 80.1799 76.0796 80.1166C76.2915 80.0533 76.5097 80.1704 76.5729 80.3823C79.4378 89.8775 77.8251 97.4337 77.8093 97.5065C77.7682 97.6899 77.6038 97.8165 77.4236 97.8165Z" fill="white"/>
<path d="M61.7278 52.5167C61.7278 54.9142 59.7862 56.8563 57.3893 56.8563C54.9924 56.8563 53.0508 54.9142 53.0508 52.5167C53.0508 50.1192 54.9924 48.1771 57.3893 48.1771C59.7862 48.1771 61.7278 50.1192 61.7278 52.5167Z" fill="#283F56"/>
<path d="M57.097 56.4166C54.4851 56.4166 52.3633 54.2911 52.3633 51.6817C52.3633 49.0722 54.4883 46.9467 57.097 46.9467C59.7058 46.9467 61.8308 49.0722 61.8308 51.6817C61.8308 54.2911 59.7058 56.4166 57.097 56.4166ZM57.097 47.7375C54.9215 47.7375 53.1538 49.5056 53.1538 51.6817C53.1538 53.8578 54.9215 55.6259 57.097 55.6259C59.2726 55.6259 61.0403 53.8578 61.0403 51.6817C61.0403 49.5056 59.2726 47.7375 57.097 47.7375Z" fill="#283F56"/>
<path d="M52.1487 57.4256C52.1487 59.1621 50.7415 60.5696 49.0055 60.5696C47.2695 60.5696 45.8623 59.1621 45.8623 57.4256C45.8623 55.6892 47.2695 54.2816 49.0055 54.2816C50.7415 54.2816 52.1487 55.6892 52.1487 57.4256Z" fill="#283F56"/>
<path d="M46.3967 63.2612C46.7857 64.6245 48.2055 65.4184 49.5684 65.0293C50.9313 64.6403 51.725 63.2201 51.336 61.8569C50.9471 60.4937 49.5272 59.6998 48.1644 60.0888C46.8015 60.4779 46.0078 61.898 46.3967 63.2612Z" fill="white"/>
<path d="M49.4488 63.2676C49.3634 63.2676 49.2749 63.2391 49.2022 63.1822L47.9373 62.1732C47.7665 62.0372 47.7381 61.7873 47.874 61.6165C48.0132 61.4457 48.2598 61.4172 48.4306 61.5532L49.6955 62.5622C49.8662 62.6982 49.8947 62.9481 49.7587 63.1189C49.6796 63.2169 49.5658 63.2676 49.4488 63.2676Z" fill="#283F56"/>
<path d="M58.9858 71.4375C58.9858 71.4375 58.1289 72.7754 56.728 72.3073C55.3272 71.8391 54.4766 69.7389 54.4766 69.7389L58.2617 68.9735L58.9858 71.4375Z" fill="#283F56"/>
<path d="M54.4795 70.283C54.3024 70.283 54.1411 70.1628 54.0969 69.9794C54.0463 69.7674 54.1759 69.5524 54.3878 69.5018L58.1729 68.5845C58.3816 68.5339 58.5966 68.6636 58.6504 68.8755C58.701 69.0874 58.5713 69.3025 58.3595 69.3531L54.5744 70.2703C54.5427 70.2767 54.5111 70.283 54.4795 70.283Z" fill="#283F56"/>
<path d="M10.7821 111.43L103.408 111.43V98.0347L10.7821 98.0347V111.43Z" fill="white"/>
<path d="M103.411 98.4333H10.7849C10.5667 98.4333 10.3896 98.2561 10.3896 98.0379C10.3896 97.8196 10.5667 97.6425 10.7849 97.6425H103.411C103.629 97.6425 103.806 97.8196 103.806 98.0379C103.806 98.2561 103.629 98.4333 103.411 98.4333Z" fill="#283F56"/>
<path d="M65.9902 104.032C65.9902 105.854 67.467 107.331 69.2884 107.331C71.1098 107.331 72.5865 105.854 72.5865 104.032C72.5865 102.21 71.1098 100.733 69.2884 100.733C67.467 100.733 65.9902 102.21 65.9902 104.032Z" fill="#67DDB9"/>
<path d="M41.6064 104.032C41.6064 105.854 43.0832 107.331 44.9046 107.331C46.726 107.331 48.2027 105.854 48.2027 104.032C48.2027 102.21 46.726 100.733 44.9046 100.733C43.0832 100.733 41.6064 102.21 41.6064 104.032Z" fill="#283F56"/>
<path d="M53.7998 104.032C53.7998 105.854 55.2765 107.331 57.0979 107.331C58.9193 107.331 60.3961 105.854 60.3961 104.032C60.3961 102.21 58.9193 100.733 57.0979 100.733C55.2765 100.733 53.7998 102.21 53.7998 104.032Z" fill="#D75338"/>
<path d="M103.411 111.825H10.7849C10.5667 111.825 10.3896 111.648 10.3896 111.43V43.2967C10.3896 43.0785 10.5667 42.9014 10.7849 42.9014H103.411C103.629 42.9014 103.806 43.0785 103.806 43.2967V111.43C103.806 111.648 103.629 111.825 103.411 111.825ZM11.1802 111.034H103.016V43.6921H11.1802V111.034Z" fill="#283F56"/>
<path d="M57.8533 64.9914C56.7655 64.9914 55.8801 64.1089 55.877 63.0209C55.877 62.8026 56.0509 62.6255 56.2691 62.6223L59.4344 62.6065C59.6241 62.597 59.8297 62.7805 59.8297 62.9987C59.8297 63.5269 59.6304 64.0235 59.2573 64.3999C58.8842 64.7763 58.3909 64.9819 57.8628 64.9851H57.8533V64.9914ZM56.7371 63.4131C56.9015 63.8717 57.3632 64.207 57.8596 64.2007C58.1758 64.2007 58.4731 64.0741 58.6976 63.8496C58.8241 63.7199 58.919 63.5681 58.9759 63.4036L56.7371 63.4131Z" fill="#283F56"/>
<path d="M79.2168 98.0379C79.2168 98.0379 83.5901 89.7731 87.4036 92.0124C87.4036 92.0124 89.7626 89.7383 92.4188 91.6171C92.4188 91.6171 95.1921 89.7794 97.4562 91.8163C97.4562 91.8163 99.1131 90.1969 101.127 91.4494C103.142 92.702 104.41 96.6651 105.014 98.6578C105.618 100.65 105.302 103.488 103.407 103.545C101.513 103.598 100.821 102.226 100.821 102.226C100.821 102.226 100.704 104.237 98.6135 104.648C96.5233 105.06 95.6411 103.026 95.6411 103.026C95.6411 103.026 96.4126 105.151 93.7659 105.566C91.1192 105.98 90.0978 102.817 90.0978 102.817C90.0978 102.817 90.2243 105.189 87.5871 105.012C84.9688 104.835 83.3308 97.9651 83.3308 97.9651L79.2168 98.0347V98.0379Z" fill="white"/>
<path d="M93.3051 105.999C91.8568 105.999 90.8386 105.015 90.2409 104.044C90.1334 104.282 89.9816 104.519 89.7666 104.731C89.248 105.243 88.5049 105.468 87.5594 105.408C84.9759 105.234 83.4075 99.8534 83.0217 98.3668L79.2208 98.4301C79.0659 98.4364 78.9489 98.3605 78.8761 98.2403C78.8034 98.1201 78.7971 97.9714 78.8635 97.8481C78.9836 97.6203 81.8391 92.2813 85.0771 91.364C85.8803 91.1363 86.6424 91.1932 87.3507 91.5348C88.0243 91.013 90.1176 89.6782 92.4292 91.149C93.1565 90.7568 95.4459 89.7541 97.4475 91.2976C98.2286 90.7093 99.7401 90.1242 101.331 91.111C103.298 92.3351 104.531 95.7226 105.388 98.5408C105.802 99.9008 105.862 101.897 105.021 103.067C104.626 103.617 104.069 103.918 103.415 103.937C102.229 103.968 101.476 103.519 101.018 103.095C100.717 103.877 100.031 104.769 98.6871 105.034C97.5329 105.259 96.657 104.829 96.0657 104.275C96.0214 104.446 95.955 104.62 95.8538 104.791C95.487 105.411 94.8071 105.803 93.8268 105.955C93.6466 105.983 93.4727 105.996 93.3051 105.996V105.999ZM90.0987 102.425C90.2663 102.425 90.4212 102.532 90.4749 102.697C90.5129 102.814 91.4299 105.534 93.7067 105.177C94.4371 105.063 94.9336 104.8 95.1739 104.395C95.506 103.842 95.272 103.165 95.272 103.159C95.2024 102.959 95.3036 102.735 95.4996 102.659C95.6988 102.583 95.9234 102.675 96.0056 102.868C96.0372 102.937 96.793 104.601 98.5416 104.259C100.312 103.911 100.429 102.219 100.429 102.2C100.439 102.023 100.569 101.871 100.742 101.837C100.916 101.799 101.097 101.887 101.176 102.045C101.198 102.09 101.814 103.193 103.396 103.146C103.807 103.133 104.132 102.956 104.385 102.605C104.961 101.802 105.068 100.189 104.638 98.7685C104.161 97.1934 102.89 93.0056 100.923 91.7815C99.2025 90.7125 97.7922 92.0409 97.7321 92.0947C97.5835 92.237 97.3463 92.2433 97.1914 92.1042C95.1803 90.2918 92.6632 91.9239 92.6379 91.9397C92.5019 92.0283 92.3248 92.0283 92.192 91.9334C89.8457 90.2728 87.7681 92.2085 87.6796 92.2908C87.5531 92.4141 87.357 92.4363 87.2053 92.3477C86.6139 91.9998 85.9878 91.927 85.2985 92.1231C82.9743 92.781 80.7355 96.2255 79.9038 97.6235L83.3253 97.5666C83.5182 97.5666 83.6731 97.6899 83.7174 97.8702C84.1538 99.7016 85.7096 104.487 87.6164 104.614C88.3247 104.664 88.8622 104.509 89.2132 104.164C89.735 103.652 89.7065 102.842 89.7065 102.836C89.6971 102.637 89.833 102.463 90.0291 102.428C90.0544 102.425 90.0765 102.422 90.1018 102.422L90.0987 102.425Z" fill="#283F56"/>
<path d="M100.822 102.621C100.654 102.621 100.499 102.513 100.445 102.346L97.0775 91.9365C97.0111 91.7278 97.1249 91.5064 97.3336 91.4399C97.5424 91.3735 97.7637 91.4874 97.8301 91.693L101.198 102.102C101.264 102.311 101.15 102.532 100.942 102.599C100.901 102.611 100.859 102.618 100.822 102.618V102.621Z" fill="#283F56"/>
<path d="M95.6856 103.573C95.5117 103.573 95.3536 103.459 95.3062 103.285L92.0396 91.7214C91.9796 91.5127 92.1029 91.2913 92.3116 91.2343C92.5203 91.1742 92.7385 91.2976 92.7986 91.5064L96.0651 103.07C96.1252 103.279 96.0018 103.497 95.7931 103.557C95.7583 103.567 95.7204 103.573 95.6856 103.573Z" fill="#283F56"/>
<path d="M90.2244 103.421C90.0473 103.421 89.8861 103.301 89.8418 103.124L87.0211 92.1105C86.9674 91.8986 87.0939 91.6835 87.3057 91.6297C87.5144 91.576 87.7326 91.7025 87.7864 91.9144L90.607 102.928C90.6608 103.14 90.5343 103.355 90.3225 103.409C90.2908 103.418 90.256 103.421 90.2244 103.421Z" fill="#283F56"/>
<path d="M38.8968 16.4148C36.7433 16.6014 33.6665 18.6289 33.6665 18.6289C33.6665 18.6289 35.1433 15.5513 35.8706 13.9066C36.5979 12.2619 39.9308 6.05615 38.0335 4.88269C36.1362 3.70924 34.3749 6.90698 34.3749 6.90698C34.3749 6.90698 35.8484 1.62169 33.325 0.786671C31.3866 0.144593 30.4917 3.10511 30.0617 4.50946C30.8364 1.44773 29.7613 0.679131 28.8221 0.435584C27.8134 0.173059 26.6276 1.31488 26.2291 2.63067C25.8339 3.94646 22.9816 12.692 22.9816 12.692C24.2117 5.66394 23.6836 4.78464 22.2796 4.74036C20.8756 4.69608 20.2273 7.28021 20.0091 7.91912C19.791 8.55804 18.0107 14.226 17.9664 14.3589C17.9411 14.4348 15.677 20.3748 13.7196 25.5114C12.1638 29.5885 14.2224 34.1495 18.3016 35.6867C22.0614 37.1005 26.2829 35.4558 28.098 31.869L28.7051 30.6671C31.4435 29.753 35.1591 24.8504 36.1805 23.5188C37.2018 22.1872 41.8218 21.523 42.5143 19.6853C43.21 17.8508 41.0502 16.2282 38.8968 16.4148Z" fill="white"/>
<path d="M21.0773 36.5881C20.1065 36.5881 19.1199 36.4173 18.1618 36.0536C16.0874 35.2723 14.4431 33.7319 13.5356 31.7108C12.6249 29.6897 12.5584 27.4377 13.349 25.3691C14.4905 22.377 17.5199 14.4285 17.5926 14.2292L17.7254 13.8085C18.1523 12.4548 19.4488 8.33663 19.6354 7.7926C19.6575 7.72934 19.6828 7.65027 19.7113 7.55222C20.0117 6.58752 20.7137 4.34499 22.241 4.34499C22.2568 4.34499 22.2726 4.34499 22.2884 4.34499C22.6932 4.35764 23.2055 4.43039 23.5723 4.88269C23.9707 5.37295 24.1794 6.19531 24.0023 8.26072C24.7865 5.84739 25.6435 3.19051 25.8459 2.5168C26.2854 1.05552 27.6198 -0.285569 28.9163 0.0528663C29.8808 0.305902 30.4595 0.92584 30.6492 1.90635C30.9844 1.30856 31.405 0.789832 31.9394 0.511493C32.4074 0.267946 32.9133 0.236319 33.4446 0.410281C35.3039 1.02389 35.3197 3.55109 35.0889 5.29704C35.5126 4.86055 36.0438 4.45569 36.6383 4.3007C37.198 4.15521 37.7324 4.23745 38.2352 4.55058C40.0345 5.66394 38.3491 9.60497 36.6289 13.2139C36.4613 13.5618 36.3221 13.856 36.2273 14.0711C35.7909 15.0579 35.0794 16.5698 34.5829 17.6199C35.7055 16.9936 37.4479 16.1459 38.8582 16.0258C40.2812 15.9024 41.7547 16.5002 42.5168 17.5123C43.048 18.2177 43.1777 19.04 42.8773 19.8308C42.4219 21.0295 40.7207 21.7159 39.0764 22.3801C37.9886 22.8166 36.866 23.2721 36.4866 23.7655L36.4233 23.8477C35.2596 25.3691 31.756 29.9427 28.9764 30.996L28.442 32.0556C26.9969 34.9149 24.1067 36.5976 21.071 36.5976L21.0773 36.5881ZM22.241 5.13572C21.2923 5.13572 20.6915 7.0588 20.4639 7.78944C20.4322 7.89381 20.4038 7.98238 20.3816 8.0488C20.1982 8.58334 18.9049 12.6952 18.478 14.0489L18.342 14.4822C18.3262 14.5297 17.9847 15.4311 14.0889 25.6569C13.3743 27.5294 13.4344 29.5663 14.2565 31.3914C15.0787 33.2195 16.5649 34.6144 18.4401 35.3197C22.0196 36.6672 26.0166 35.1078 27.7432 31.695L28.3503 30.4931C28.3977 30.4014 28.48 30.3286 28.578 30.297C30.2824 29.7277 32.7141 27.3934 35.8035 23.3638L35.8668 23.2816C36.3759 22.6173 37.549 22.1429 38.7886 21.6463C40.2084 21.0738 41.8148 20.4254 42.1468 19.5524C42.403 18.8756 42.15 18.3315 41.8939 17.9931C41.2962 17.2024 40.0756 16.7184 38.9341 16.8165C36.904 16.9905 33.9157 18.9452 33.8873 18.9673C33.7386 19.0654 33.5457 19.0527 33.4098 18.9357C33.277 18.8186 33.2358 18.6257 33.3149 18.4676C33.3307 18.4359 34.798 15.3774 35.5126 13.7579C35.6106 13.5397 35.7529 13.2392 35.9237 12.8818C36.8123 11.0156 39.1744 6.06247 37.8305 5.23061C37.5143 5.03451 37.1917 4.9839 36.8502 5.07246C35.696 5.37611 34.7347 7.09043 34.7252 7.10624C34.6272 7.28021 34.4153 7.35611 34.2288 7.2802C34.0422 7.20429 33.9442 7.00186 33.9979 6.80893C34.3774 5.43937 34.9782 1.75453 33.2042 1.16939C32.8785 1.06185 32.5876 1.07766 32.3093 1.22316C31.3354 1.72607 30.7599 3.59853 30.4531 4.60119C30.3899 4.80678 30.1685 4.93962 29.963 4.88269C29.7575 4.82576 29.6278 4.62965 29.6816 4.4209C30.4753 1.28325 29.2041 0.951143 28.7234 0.827788C27.9835 0.638011 26.9653 1.57424 26.6079 2.75402C26.2158 4.06032 23.4742 12.4674 23.3572 12.8249C23.294 13.021 23.0885 13.138 22.8861 13.0874C22.6837 13.0368 22.5572 12.8407 22.592 12.6351C23.3604 8.25439 23.4742 6.02135 22.962 5.39193C22.8292 5.22745 22.6268 5.15786 22.2663 5.14521C22.26 5.14521 22.2505 5.14521 22.2442 5.14521L22.241 5.13572Z" fill="#283F56"/>
<path d="M22.272 21.3301C22.2055 21.3301 22.136 21.3142 22.0727 21.2763C21.883 21.1656 21.8198 20.9252 21.9304 20.7354C23.1795 18.5815 24.827 17.2562 26.8223 16.7976C30.3829 15.9784 33.7411 18.2051 33.8834 18.3C34.0637 18.4233 34.1111 18.6669 33.9909 18.8471C33.8708 19.0274 33.6241 19.078 33.4439 18.9547C33.4123 18.9325 30.2216 16.8229 26.9962 17.5662C25.2223 17.9742 23.7518 19.1729 22.6166 21.1308C22.5439 21.2573 22.4111 21.3269 22.2751 21.3269L22.272 21.3301Z" fill="#283F56"/>
<path d="M27.1826 13.7295C27.1415 13.7295 27.1004 13.7232 27.0593 13.7105C26.8506 13.6441 26.7399 13.4195 26.8063 13.2108L29.6839 4.38617C29.7503 4.17741 29.9717 4.06671 30.1835 4.13313C30.3922 4.19955 30.5029 4.42412 30.4365 4.63288L27.5589 13.4575C27.5052 13.6251 27.3502 13.7295 27.1826 13.7295Z" fill="#283F56"/>
<path d="M30.9971 15.2888C30.9465 15.2888 30.8927 15.2794 30.8421 15.2572C30.6398 15.1718 30.5481 14.9409 30.6334 14.7385L34.0106 6.75205C34.096 6.54962 34.33 6.4579 34.5292 6.5433C34.7316 6.62869 34.8233 6.85959 34.7379 7.06202L31.3607 15.0485C31.2975 15.2003 31.152 15.2888 30.9971 15.2888Z" fill="#283F56"/>
</svg>
