<svg width="109" height="70" viewBox="0 0 109 70" fill="none" xmlns="http://www.w3.org/2000/svg">
<path d="M22.6018 69.0287L108.036 69.0287L108.036 6.18731L22.6018 6.18731L22.6018 69.0287Z" fill="white"/>
<path d="M22.602 69.0287H108.036L107.897 45.0256C102.739 37.3305 96.044 29.7439 83.7262 29.4649C71.8857 29.1951 66.3653 31.1794 66.3653 31.1794C56.2637 32.5435 53.4338 34.9866 49.6522 40.3782C47.4949 43.4506 44.9068 48.0113 41.9621 47.1835C38.4689 46.2007 34.1697 27.9488 34.1697 27.9488L19.3072 31.6692C18.8887 28.5534 19.8589 42.1051 22.6051 56.6768V69.0318L22.602 69.0287Z" fill="#283F56"/>
<path d="M76.1351 36.1927C82.9387 34.7666 85.5827 31.8088 86.6086 29.6789C85.6819 29.5641 84.721 29.4897 83.7229 29.4649C71.8824 29.1952 67.2113 30.9252 67.2113 30.9252C64.3163 31.3158 61.1702 32.0506 59.2764 32.6614C59.2888 32.6738 64.837 38.5614 76.1351 36.1927Z" fill="white"/>
<path d="M76.0427 13.0299C75.8877 12.8284 75.7235 12.6361 75.553 12.4501C75.5437 12.4408 75.5375 12.4315 75.5375 12.4315C73.6715 10.4225 70.8664 9.35594 67.9621 9.8365C64.3479 10.4318 61.6482 13.2407 61.019 16.648C61.019 16.648 59.1964 25.4531 61.2173 27.1149C65.315 30.485 80.4194 28.4325 82.1055 23.4037C82.7936 21.3544 77.6948 15.0141 76.0427 13.033V13.0299Z" fill="#283F56"/>
<path d="M108.037 69.3946H22.6023C22.4009 69.3946 22.2366 69.2303 22.2366 69.0287V56.7079C20.9286 49.7599 20.0669 43.3081 19.5771 39.1164C18.6535 31.2135 18.8704 31.0337 18.9851 30.9376C19.0874 30.8539 19.23 30.8291 19.354 30.8787C19.4996 30.9345 19.5585 31.0244 19.6019 31.2197L34.0771 27.5954C34.1701 27.5706 34.2723 27.5861 34.356 27.6388C34.4397 27.6884 34.4986 27.7721 34.5203 27.8651C35.7044 32.8846 39.3619 46.0736 42.0554 46.8301C44.377 47.4843 46.5778 44.2444 48.515 41.3858C48.8002 40.9642 49.0791 40.5549 49.3519 40.1674C53.1272 34.7852 56.7506 31.9762 67.125 30.5687C67.6333 30.3919 72.3943 28.8417 83.7327 29.0991C96.1993 29.3812 103.096 37.2065 108.201 44.8242C108.241 44.8831 108.263 44.9544 108.263 45.0257L108.402 69.0287C108.402 69.1248 108.365 69.2179 108.297 69.2892C108.229 69.3574 108.136 69.3977 108.04 69.3977L108.037 69.3946ZM22.9681 68.6629H107.671L107.535 45.1373C102.293 37.3337 95.7715 30.1005 83.7172 29.8277C72.1154 29.5641 67.3854 31.2476 67.3389 31.2662C67.3141 31.2755 67.2862 31.2817 67.2614 31.2848C57.1288 32.6521 53.6045 35.3742 49.9501 40.5828C49.6805 40.9673 49.4046 41.3734 49.1225 41.792C47.0458 44.8552 44.6932 48.3245 41.8633 47.5277C38.4382 46.5635 34.635 31.4368 33.9004 28.386L19.605 31.9669C19.791 34.7945 20.8728 45.5279 22.9619 56.6056C22.965 56.6273 22.9681 56.649 22.9681 56.6738V68.6629Z" fill="#283F56"/>
<path d="M76.9443 31.2042L75.7665 27.5799C69.4154 28.7363 71.9292 21.5063 71.9292 21.5063C68.4235 15.3427 66.9078 19.9716 61.7687 15.5939L61.2139 17.0603C61.2945 23.2859 60.4297 29.5765 67.0473 29.034L67.6579 32.7327L76.9443 31.2011V31.2042Z" fill="white"/>
<path d="M76.4881 30.1687C76.3332 30.1687 76.1906 30.0695 76.141 29.9176L75.301 27.3319C75.239 27.1396 75.3444 26.935 75.5335 26.873C75.7256 26.811 75.9302 26.9164 75.9922 27.1086L76.8322 29.6943C76.8942 29.8866 76.7888 30.0912 76.5997 30.1532C76.5625 30.1656 76.5253 30.1718 76.4881 30.1718V30.1687Z" fill="#283F56"/>
<path d="M67.5123 32.218C67.3356 32.218 67.1837 32.0909 67.1527 31.9142L66.7436 29.4215C65.0109 29.5083 63.7029 29.1238 62.7606 28.2526C60.8233 26.4575 60.8388 22.9107 60.8543 19.1531C60.8543 18.4617 60.8605 17.7641 60.8543 17.0634C60.8605 16.9766 60.9752 16.0062 61.4711 14.9428C61.5579 14.7598 61.7749 14.6823 61.9547 14.766C62.1376 14.8497 62.215 15.0699 62.1314 15.2497C61.6881 16.1984 61.5827 17.0882 61.5796 17.0975C61.592 17.7548 61.5889 18.4586 61.5858 19.1531C61.5703 22.7433 61.5548 26.1351 63.2596 27.7132C64.1027 28.4945 65.3364 28.8045 67.0225 28.6681C67.2116 28.6526 67.3821 28.7859 67.4131 28.9719L67.878 31.7902C67.9121 31.9886 67.7757 32.1777 67.5774 32.2087C67.5588 32.2118 67.5371 32.2149 67.5185 32.2149L67.5123 32.218Z" fill="#283F56"/>
<path d="M67.0503 29.3998C66.8736 29.3998 66.7218 29.2727 66.6908 29.0929C66.6567 28.8945 66.7931 28.7053 66.9914 28.6743C68.7706 28.3798 70.06 27.6481 70.0724 27.6419C70.246 27.5396 70.4692 27.6016 70.5715 27.7752C70.6707 27.9488 70.6118 28.1721 70.4382 28.2744C70.3824 28.3085 69.0186 29.0805 67.1123 29.3967C67.0937 29.3998 67.072 29.4029 67.0534 29.4029L67.0503 29.3998Z" fill="#283F56"/>
<path d="M67.4343 31.3747C67.4343 31.3747 68.6804 32.1436 69.6568 31.1918C70.6331 30.24 70.4905 27.7876 70.4905 27.7876L67.0469 29.037L67.4312 31.3747H67.4343Z" fill="#283F56"/>
<path d="M63.356 23.7664C63.1484 23.7664 62.9872 23.599 62.9903 23.3975L63.0461 19.6057C63.0461 19.4073 63.2103 19.2461 63.4118 19.2461C63.6195 19.2461 63.7807 19.4135 63.7776 19.615L63.7218 23.4068C63.7187 23.6052 63.5575 23.7664 63.356 23.7664Z" fill="#283F56"/>
<path d="M60.0056 58.7417C59.9529 58.7417 59.9002 58.7293 59.8475 58.7045C57.6189 57.6379 56.0505 55.5452 55.6506 53.1114C55.1516 50.0793 56.5154 47.0719 59.1253 45.4535C59.2988 45.3481 59.522 45.4008 59.6274 45.5713C59.7328 45.7418 59.6801 45.9682 59.5096 46.0736C57.1508 47.537 55.9172 50.2529 56.3697 52.9936C56.7324 55.1918 58.1489 57.083 60.1636 58.0472C60.3465 58.134 60.4209 58.351 60.3341 58.534C60.2721 58.6642 60.1419 58.7417 60.0056 58.7417Z" fill="white"/>
<path d="M59.3172 46.1325C59.1405 46.1325 58.9886 46.0054 58.9576 45.8256L58.4183 42.5485C58.3842 42.3501 58.5206 42.1609 58.719 42.1299C58.9204 42.0989 59.1064 42.2322 59.1374 42.4307L59.6768 45.7078C59.7108 45.9062 59.5745 46.0953 59.3761 46.1263C59.3544 46.1294 59.3358 46.1325 59.3172 46.1325Z" fill="white"/>
<path d="M60.0302 69.3946C59.8287 69.3946 59.6676 69.2334 59.6645 69.0318L59.6396 58.379C59.6396 58.1774 59.8008 58.0131 60.0023 58.0131C60.2038 58.0131 60.368 58.1743 60.368 58.3759L60.3928 69.0287C60.3928 69.2303 60.2317 69.3946 60.0302 69.3946Z" fill="white"/>
<path d="M102.232 69.0908C102.117 69.0908 102.006 69.0381 101.934 68.9389L89.2816 51.1799C89.1639 51.0156 89.201 50.7893 89.3653 50.6715C89.5296 50.5537 89.7559 50.594 89.8737 50.7583L102.526 68.5172C102.644 68.6815 102.607 68.9079 102.443 69.0257C102.377 69.0722 102.303 69.0939 102.232 69.0939V69.0908Z" fill="white"/>
<path d="M61.6201 20.3963C61.6201 20.7002 61.8681 20.9482 62.1718 20.9482C62.4756 20.9482 62.7236 20.7002 62.7236 20.3963C62.7236 20.0925 62.4756 19.8445 62.1718 19.8445C61.8681 19.8445 61.6201 20.0925 61.6201 20.3963Z" fill="#283F56"/>
<path d="M65.8076 19.8444C65.8076 20.1483 66.0556 20.3963 66.3594 20.3963C66.6631 20.3963 66.9111 20.1483 66.9111 19.8444C66.9111 19.5406 66.6631 19.2926 66.3594 19.2926C66.0556 19.2926 65.8076 19.5406 65.8076 19.8444Z" fill="#283F56"/>
<path d="M64.279 25.0903C64.124 25.0903 63.9814 24.9911 63.9318 24.836C63.8698 24.6438 63.9752 24.4392 64.1674 24.3772C64.4681 24.2811 64.7718 23.7168 64.871 23.4595C64.9423 23.2704 65.1562 23.1773 65.3421 23.2518C65.5312 23.3231 65.6242 23.5339 65.5529 23.723C65.5095 23.8377 65.1035 24.8453 64.3937 25.0748C64.3565 25.0872 64.3193 25.0934 64.2821 25.0934L64.279 25.0903Z" fill="#283F56"/>
<path d="M70.3424 18.0959C69.3071 18.8927 69.1119 20.3808 69.9116 21.4195C70.7113 22.455 72.196 22.6503 73.2343 21.8504C74.2696 21.0505 74.4649 19.5654 73.6652 18.5268C72.8686 17.4913 71.3808 17.296 70.3424 18.0959Z" fill="white"/>
<path d="M71.7155 20.942C71.6814 20.942 71.6442 20.9358 71.6101 20.9265C71.4179 20.8676 71.3094 20.663 71.3652 20.4708L71.7992 19.0415C71.858 18.8493 72.0595 18.7408 72.2548 18.7997C72.447 18.8586 72.5555 19.0632 72.4997 19.2554L72.0657 20.6847C72.0192 20.8428 71.8736 20.9451 71.7155 20.9451V20.942Z" fill="#283F56"/>
<path d="M22.6018 69.0287L108.036 69.0287V56.6737L22.6018 56.6737V69.0287Z" fill="white"/>
<path d="M108.036 57.0396H22.6021C22.4006 57.0396 22.2363 56.8753 22.2363 56.6737C22.2363 56.4722 22.4006 56.3079 22.6021 56.3079H108.036C108.238 56.3079 108.402 56.4722 108.402 56.6737C108.402 56.8753 108.238 57.0396 108.036 57.0396Z" fill="#283F56"/>
<path d="M108.036 69.3946H22.6021C22.4006 69.3946 22.2363 69.2303 22.2363 69.0288V6.18738C22.2363 5.98585 22.4006 5.82153 22.6021 5.82153H108.036C108.238 5.82153 108.402 5.98585 108.402 6.18738V69.0288C108.402 69.2303 108.238 69.3946 108.036 69.3946ZM22.9678 68.6629H107.674V6.55322H22.9678V68.666V68.6629Z" fill="#283F56"/>
<path d="M0.365471 23.9171L37.1484 23.9363L37.1608 0.39214L0.377796 0.372876L0.365471 23.9171Z" fill="white"/>
<path d="M37.1487 24.2966L0.365751 24.2749C0.164277 24.2749 0 24.1106 0 23.9091L0.0124011 0.364879C0.0124011 0.268768 0.0495951 0.175757 0.117786 0.107549C0.185978 0.0393407 0.278961 0.00213623 0.375049 0.00213623L37.158 0.0238388C37.3595 0.0238388 37.5238 0.188158 37.5238 0.389682L37.5114 23.9339C37.5114 24.03 37.4742 24.123 37.406 24.1912C37.3378 24.2594 37.2448 24.2966 37.1487 24.2966ZM0.731501 23.5463L36.783 23.568L36.7954 0.752425L0.743902 0.730723L0.731501 23.5463Z" fill="#283F56"/>
<path d="M18.762 15.9597C18.6783 15.9597 18.5977 15.9318 18.5295 15.876L0.148858 0.64695C-0.00612178 0.519835 -0.0278201 0.287307 0.0992635 0.132289C0.229447 -0.0227296 0.458818 -0.0444322 0.613798 0.0826829L18.7651 15.1195L36.9318 0.107486C37.0868 -0.0196293 37.3162 -0.00102704 37.4464 0.157092C37.5734 0.31211 37.5517 0.541538 37.3968 0.671753L18.9975 15.8791C18.9293 15.9349 18.8487 15.9628 18.7651 15.9628L18.762 15.9597Z" fill="#283F56"/>
<path d="M0.368347 24.2749C0.26606 24.2749 0.166872 24.2315 0.0955808 24.1509C-0.037702 23.999 -0.0222086 23.7695 0.129672 23.6362L13.7772 11.6471C13.9291 11.5138 14.1585 11.5293 14.2917 11.6812C14.425 11.8331 14.4095 12.0625 14.2577 12.1959L0.607013 24.185C0.538822 24.247 0.452033 24.2749 0.365245 24.2749H0.368347Z" fill="#283F56"/>
<path d="M37.1484 24.2966C37.0616 24.2966 36.9779 24.2656 36.9067 24.2067L23.3335 12.2548C23.1816 12.1215 23.1692 11.8921 23.2994 11.7401C23.4327 11.5882 23.6621 11.5758 23.8139 11.706L37.3871 23.658C37.539 23.7913 37.5514 24.0207 37.4212 24.1726C37.3499 24.2532 37.2476 24.2966 37.1484 24.2966Z" fill="#283F56"/>
<path d="M28.2277 38.8373C32.2603 38.1521 35.0252 34.3945 34.4858 30.3392L34.1666 27.9457C33.8039 25.6855 33.2491 23.168 27.4125 23.909C27.4125 23.909 26.0983 21.8225 24.781 19.2926C22.602 15.1009 17.4287 15.0358 19.8433 19.9592L18.7647 17.5316C17.2521 13.5197 15.1319 14.3475 14.0161 14.9056C12.2896 15.7706 13.5883 18.7345 13.5883 18.7345C13.5883 18.7345 12.1129 14.2049 8.86144 15.907C7.12566 16.8154 8.95133 19.2182 11.1086 23.9276L7.82617 23.9059C7.82617 23.9059 11.5519 27.0559 12.364 27.7814C13.173 28.5069 18.7647 28.4914 18.7647 28.4914L19.4652 32.6118C20.1688 36.7508 24.0929 39.5349 28.2277 38.8311V38.8373Z" fill="white"/>
<path d="M26.938 39.3116C25.3014 39.3116 23.7113 38.8063 22.3475 37.8421C20.6117 36.6112 19.4617 34.7789 19.1053 32.6799L18.4575 28.8634C17.0472 28.8572 12.9216 28.7766 12.1219 28.0604C11.3253 27.3473 7.63057 24.2221 7.59337 24.1911C7.47559 24.0919 7.4322 23.9307 7.48799 23.785C7.54068 23.6393 7.65846 23.537 7.83204 23.5463L10.5411 23.5649C10.1474 22.7216 9.76619 21.9589 9.42214 21.2706C7.93123 18.2725 7.03234 16.4619 8.69373 15.5907C9.60811 15.1102 10.4884 15.0357 11.3067 15.3706C11.8925 15.6093 12.373 16.031 12.7573 16.4929C12.7821 15.7333 13.0487 14.9861 13.8546 14.5862C14.5954 14.2172 15.5779 13.8421 16.6225 14.2513C17.5555 14.6172 18.3428 15.5535 18.9596 17.0417C19.158 16.4371 19.5733 16.1581 19.7841 16.0496C21.1789 15.3458 23.7082 16.4371 25.1061 19.1282C26.1693 21.1745 27.2448 22.9479 27.6013 23.5215C33.7137 22.8208 34.2034 25.8653 34.5289 27.8899L34.8513 30.2927C35.4216 34.5619 32.5421 38.4745 28.2925 39.1969C27.84 39.2744 27.3905 39.3116 26.9411 39.3116H26.938ZM18.7643 28.1317C18.941 28.1317 19.0929 28.2588 19.1239 28.4355L19.8244 32.5559C20.1468 34.4627 21.1944 36.1276 22.769 37.2437C24.3436 38.3629 26.2592 38.8001 28.1654 38.4745C32.0244 37.8172 34.6405 34.2642 34.1229 30.3857L33.8036 27.9922C33.4688 25.918 33.0907 23.5525 27.4587 24.2717C27.3161 24.2903 27.1797 24.2252 27.1054 24.1043C27.093 24.0826 25.7694 21.9775 24.4614 19.4631C23.2154 17.0634 21.0518 16.2232 20.1158 16.6975C19.4772 17.02 19.4091 17.9408 19.9112 19.2088L20.1778 19.8103C20.2583 19.9932 20.1778 20.2041 19.998 20.2878C19.8213 20.3715 19.6043 20.2971 19.5175 20.1172C19.4091 19.894 19.3161 19.6832 19.2355 19.4817L18.4327 17.6773C17.8593 16.1581 17.1649 15.2404 16.3559 14.9241C15.5841 14.6234 14.8216 14.9086 14.18 15.2311C13.0859 15.7798 13.5415 17.5129 13.7957 18.2508C13.8825 18.4616 13.929 18.5981 13.9352 18.6229C13.994 18.8089 13.9011 19.0073 13.7182 19.0755C13.5353 19.1437 13.3307 19.06 13.2532 18.8802C13.2408 18.8554 13.1851 18.7221 13.1107 18.5144C12.841 17.8726 12.1498 16.4929 11.0246 16.0372C10.4078 15.786 9.75379 15.848 9.02539 16.2294C8.03661 16.7471 8.63174 18.0462 10.0669 20.9388C10.4791 21.7728 10.9502 22.7154 11.4369 23.7757C11.4896 23.8904 11.4803 24.0206 11.4121 24.126C11.3439 24.2314 11.223 24.2965 11.1021 24.2934L8.82392 24.2779C9.96147 25.2422 12.0165 26.9877 12.6023 27.5116C13.0456 27.9085 16.0553 28.1379 18.7581 28.1286L18.7643 28.1317Z" fill="#283F56"/>
<path d="M73.5225 62.2048C73.5225 63.8852 74.8832 65.2463 76.5632 65.2463C78.2432 65.2463 79.6039 63.8852 79.6039 62.2048C79.6039 60.5244 78.2432 59.1633 76.5632 59.1633C74.8832 59.1633 73.5225 60.5244 73.5225 62.2048Z" fill="#67DDB9"/>
<path d="M51.0322 62.2048C51.0322 63.8852 52.393 65.2463 54.0729 65.2463C55.7529 65.2463 57.1136 63.8852 57.1136 62.2048C57.1136 60.5244 55.7529 59.1633 54.0729 59.1633C52.393 59.1633 51.0322 60.5244 51.0322 62.2048Z" fill="#283F56"/>
<path d="M62.2773 62.2048C62.2773 63.8852 63.6381 65.2463 65.3181 65.2463C66.998 65.2463 68.3588 63.8852 68.3588 62.2048C68.3588 60.5244 66.998 59.1633 65.3181 59.1633C63.6381 59.1633 62.2773 60.5244 62.2773 62.2048Z" fill="#D75338"/>
<path d="M23.8702 28.8634H18.7652C18.5637 28.8634 18.3994 28.6991 18.3994 28.4976C18.3994 28.2961 18.5637 28.1317 18.7652 28.1317H23.8702C24.0717 28.1317 24.236 28.2961 24.236 28.4976C24.236 28.6991 24.0717 28.8634 23.8702 28.8634Z" fill="#283F56"/>
<path d="M21.8277 24.9291C21.6882 24.9291 21.5519 24.8454 21.493 24.709L17.5224 15.5009C17.4418 15.3148 17.5286 15.1009 17.7114 15.0203C17.8974 14.9397 18.1113 15.0265 18.1919 15.2094L22.1625 24.4175C22.2431 24.6035 22.1563 24.8175 21.9734 24.8981C21.9269 24.9198 21.8773 24.9291 21.8277 24.9291Z" fill="#283F56"/>
<path d="M16.7696 26.4761C16.6301 26.4761 16.4937 26.3924 16.4348 26.256L13.2577 18.8833C13.1771 18.6973 13.2639 18.4834 13.4468 18.4028C13.6328 18.3222 13.8466 18.409 13.9272 18.5919L17.1043 25.9646C17.1849 26.1506 17.0981 26.3645 16.9153 26.4451C16.8688 26.4668 16.8192 26.4761 16.7696 26.4761Z" fill="#283F56"/>
<path d="M22.602 69.0287H108.036L107.897 45.0256C102.739 37.3305 96.044 29.7439 83.7262 29.4649C71.8857 29.1951 66.3653 31.1794 66.3653 31.1794C56.2637 32.5435 53.4338 34.9866 49.6522 40.3782C47.4949 43.4506 44.9068 48.0113 41.9621 47.1835C38.4689 46.2007 34.1697 27.9488 34.1697 27.9488L19.3072 31.6692C18.8887 28.5534 19.8589 42.1051 22.6051 56.6768V69.0318L22.602 69.0287Z" fill="#283F56"/>
<path d="M76.1351 36.1927C82.9387 34.7666 85.5827 31.8088 86.6086 29.6789C85.6819 29.5641 84.721 29.4897 83.7229 29.4649C71.8824 29.1952 67.2113 30.9252 67.2113 30.9252C64.3163 31.3158 61.1702 32.0506 59.2764 32.6614C59.2888 32.6738 64.837 38.5614 76.1351 36.1927Z" fill="white"/>
<path d="M76.0427 13.0299C75.8877 12.8284 75.7235 12.6361 75.553 12.4501C75.5437 12.4408 75.5375 12.4315 75.5375 12.4315C73.6715 10.4225 70.8664 9.35594 67.9621 9.8365C64.3479 10.4318 61.6482 13.2407 61.019 16.648C61.019 16.648 59.1964 25.4531 61.2173 27.1149C65.315 30.485 80.4194 28.4325 82.1055 23.4037C82.7936 21.3544 77.6948 15.0141 76.0427 13.033V13.0299Z" fill="#283F56"/>
<path d="M108.037 69.3946H22.6023C22.4009 69.3946 22.2366 69.2303 22.2366 69.0287V56.7079C20.9286 49.7599 20.0669 43.3081 19.5771 39.1164C18.6535 31.2135 18.8704 31.0337 18.9851 30.9376C19.0874 30.8539 19.23 30.8291 19.354 30.8787C19.4996 30.9345 19.5585 31.0244 19.6019 31.2197L34.0771 27.5954C34.1701 27.5706 34.2723 27.5861 34.356 27.6388C34.4397 27.6884 34.4986 27.7721 34.5203 27.8651C35.7044 32.8846 39.3619 46.0736 42.0554 46.8301C44.377 47.4843 46.5778 44.2444 48.515 41.3858C48.8002 40.9642 49.0791 40.5549 49.3519 40.1674C53.1272 34.7852 56.7506 31.9762 67.125 30.5687C67.6333 30.3919 72.3943 28.8417 83.7327 29.0991C96.1993 29.3812 103.096 37.2065 108.201 44.8242C108.241 44.8831 108.263 44.9544 108.263 45.0257L108.402 69.0287C108.402 69.1248 108.365 69.2179 108.297 69.2892C108.229 69.3574 108.136 69.3977 108.04 69.3977L108.037 69.3946ZM22.9681 68.6629H107.671L107.535 45.1373C102.293 37.3337 95.7715 30.1005 83.7172 29.8277C72.1154 29.5641 67.3854 31.2476 67.3389 31.2662C67.3141 31.2755 67.2862 31.2817 67.2614 31.2848C57.1288 32.6521 53.6045 35.3742 49.9501 40.5828C49.6805 40.9673 49.4046 41.3734 49.1225 41.792C47.0458 44.8552 44.6932 48.3245 41.8633 47.5277C38.4382 46.5635 34.635 31.4368 33.9004 28.386L19.605 31.9669C19.791 34.7945 20.8728 45.5279 22.9619 56.6056C22.965 56.6273 22.9681 56.649 22.9681 56.6738V68.6629Z" fill="#283F56"/>
<path d="M76.9443 31.2042L75.7665 27.5799C69.4154 28.7363 71.9292 21.5063 71.9292 21.5063C68.4235 15.3427 66.9078 19.9716 61.7687 15.5939L61.2139 17.0603C61.2945 23.2859 60.4297 29.5765 67.0473 29.034L67.6579 32.7327L76.9443 31.2011V31.2042Z" fill="white"/>
<path d="M76.4881 30.1687C76.3332 30.1687 76.1906 30.0695 76.141 29.9176L75.301 27.3319C75.239 27.1396 75.3444 26.935 75.5335 26.873C75.7256 26.811 75.9302 26.9164 75.9922 27.1086L76.8322 29.6943C76.8942 29.8866 76.7888 30.0912 76.5997 30.1532C76.5625 30.1656 76.5253 30.1718 76.4881 30.1718V30.1687Z" fill="#283F56"/>
<path d="M67.5123 32.218C67.3356 32.218 67.1837 32.0909 67.1527 31.9142L66.7436 29.4215C65.0109 29.5083 63.7029 29.1238 62.7606 28.2526C60.8233 26.4575 60.8388 22.9107 60.8543 19.1531C60.8543 18.4617 60.8605 17.7641 60.8543 17.0634C60.8605 16.9766 60.9752 16.0062 61.4711 14.9428C61.5579 14.7598 61.7749 14.6823 61.9547 14.766C62.1376 14.8497 62.215 15.0699 62.1314 15.2497C61.6881 16.1984 61.5827 17.0882 61.5796 17.0975C61.592 17.7548 61.5889 18.4586 61.5858 19.1531C61.5703 22.7433 61.5548 26.1351 63.2596 27.7132C64.1027 28.4945 65.3364 28.8045 67.0225 28.6681C67.2116 28.6526 67.3821 28.7859 67.4131 28.9719L67.878 31.7902C67.9121 31.9886 67.7757 32.1777 67.5774 32.2087C67.5588 32.2118 67.5371 32.2149 67.5185 32.2149L67.5123 32.218Z" fill="#283F56"/>
<path d="M67.0503 29.3998C66.8736 29.3998 66.7218 29.2727 66.6908 29.0929C66.6567 28.8945 66.7931 28.7053 66.9914 28.6743C68.7706 28.3798 70.06 27.6481 70.0724 27.6419C70.246 27.5396 70.4692 27.6016 70.5715 27.7752C70.6707 27.9488 70.6118 28.1721 70.4382 28.2744C70.3824 28.3085 69.0186 29.0805 67.1123 29.3967C67.0937 29.3998 67.072 29.4029 67.0534 29.4029L67.0503 29.3998Z" fill="#283F56"/>
<path d="M67.4343 31.3747C67.4343 31.3747 68.6804 32.1436 69.6568 31.1918C70.6331 30.24 70.4905 27.7876 70.4905 27.7876L67.0469 29.037L67.4312 31.3747H67.4343Z" fill="#283F56"/>
<path d="M63.356 23.7664C63.1484 23.7664 62.9872 23.599 62.9903 23.3975L63.0461 19.6057C63.0461 19.4073 63.2103 19.2461 63.4118 19.2461C63.6195 19.2461 63.7807 19.4135 63.7776 19.615L63.7218 23.4068C63.7187 23.6052 63.5575 23.7664 63.356 23.7664Z" fill="#283F56"/>
<path d="M60.0056 58.7417C59.9529 58.7417 59.9002 58.7293 59.8475 58.7045C57.6189 57.6379 56.0505 55.5452 55.6506 53.1114C55.1516 50.0793 56.5154 47.0719 59.1253 45.4535C59.2988 45.3481 59.522 45.4008 59.6274 45.5713C59.7328 45.7418 59.6801 45.9682 59.5096 46.0736C57.1508 47.537 55.9172 50.2529 56.3697 52.9936C56.7324 55.1918 58.1489 57.083 60.1636 58.0472C60.3465 58.134 60.4209 58.351 60.3341 58.534C60.2721 58.6642 60.1419 58.7417 60.0056 58.7417Z" fill="white"/>
<path d="M59.3172 46.1325C59.1405 46.1325 58.9886 46.0054 58.9576 45.8256L58.4183 42.5485C58.3842 42.3501 58.5206 42.1609 58.719 42.1299C58.9204 42.0989 59.1064 42.2322 59.1374 42.4307L59.6768 45.7078C59.7108 45.9062 59.5745 46.0953 59.3761 46.1263C59.3544 46.1294 59.3358 46.1325 59.3172 46.1325Z" fill="white"/>
<path d="M60.0302 69.3946C59.8287 69.3946 59.6676 69.2334 59.6645 69.0318L59.6396 58.379C59.6396 58.1774 59.8008 58.0131 60.0023 58.0131C60.2038 58.0131 60.368 58.1743 60.368 58.3759L60.3928 69.0287C60.3928 69.2303 60.2317 69.3946 60.0302 69.3946Z" fill="white"/>
<path d="M102.232 69.0908C102.117 69.0908 102.006 69.0381 101.934 68.9389L89.2816 51.1799C89.1639 51.0156 89.201 50.7893 89.3653 50.6715C89.5296 50.5537 89.7559 50.594 89.8737 50.7583L102.526 68.5172C102.644 68.6815 102.607 68.9079 102.443 69.0257C102.377 69.0722 102.303 69.0939 102.232 69.0939V69.0908Z" fill="white"/>
<path d="M61.6201 20.3963C61.6201 20.7002 61.8681 20.9482 62.1718 20.9482C62.4756 20.9482 62.7236 20.7002 62.7236 20.3963C62.7236 20.0925 62.4756 19.8445 62.1718 19.8445C61.8681 19.8445 61.6201 20.0925 61.6201 20.3963Z" fill="#283F56"/>
<path d="M65.8076 19.8444C65.8076 20.1483 66.0556 20.3963 66.3594 20.3963C66.6631 20.3963 66.9111 20.1483 66.9111 19.8444C66.9111 19.5406 66.6631 19.2926 66.3594 19.2926C66.0556 19.2926 65.8076 19.5406 65.8076 19.8444Z" fill="#283F56"/>
<path d="M64.279 25.0903C64.124 25.0903 63.9814 24.9911 63.9318 24.836C63.8698 24.6438 63.9752 24.4392 64.1674 24.3772C64.4681 24.2811 64.7718 23.7168 64.871 23.4595C64.9423 23.2704 65.1562 23.1773 65.3421 23.2518C65.5312 23.3231 65.6242 23.5339 65.5529 23.723C65.5095 23.8377 65.1035 24.8453 64.3937 25.0748C64.3565 25.0872 64.3193 25.0934 64.2821 25.0934L64.279 25.0903Z" fill="#283F56"/>
<path d="M70.3424 18.0959C69.3071 18.8927 69.1119 20.3808 69.9116 21.4195C70.7113 22.455 72.196 22.6503 73.2343 21.8504C74.2696 21.0505 74.4649 19.5654 73.6652 18.5268C72.8686 17.4913 71.3808 17.296 70.3424 18.0959Z" fill="white"/>
<path d="M71.7155 20.942C71.6814 20.942 71.6442 20.9358 71.6101 20.9265C71.4179 20.8676 71.3094 20.663 71.3652 20.4708L71.7992 19.0415C71.858 18.8493 72.0595 18.7408 72.2548 18.7997C72.447 18.8586 72.5555 19.0632 72.4997 19.2554L72.0657 20.6847C72.0192 20.8428 71.8736 20.9451 71.7155 20.9451V20.942Z" fill="#283F56"/>
<path d="M22.6018 69.0287L108.036 69.0287V56.6737L22.6018 56.6737V69.0287Z" fill="white"/>
<path d="M108.036 57.0396H22.6021C22.4006 57.0396 22.2363 56.8753 22.2363 56.6737C22.2363 56.4722 22.4006 56.3079 22.6021 56.3079H108.036C108.238 56.3079 108.402 56.4722 108.402 56.6737C108.402 56.8753 108.238 57.0396 108.036 57.0396Z" fill="#283F56"/>
<path d="M108.036 69.3946H22.6021C22.4006 69.3946 22.2363 69.2303 22.2363 69.0288V6.18738C22.2363 5.98585 22.4006 5.82153 22.6021 5.82153H108.036C108.238 5.82153 108.402 5.98585 108.402 6.18738V69.0288C108.402 69.2303 108.238 69.3946 108.036 69.3946ZM22.9678 68.6629H107.674V6.55322H22.9678V68.666V68.6629Z" fill="#283F56"/>
<path d="M0.365471 23.9171L37.1484 23.9363L37.1608 0.39214L0.377796 0.372876L0.365471 23.9171Z" fill="white"/>
<path d="M37.1487 24.2966L0.365751 24.2749C0.164277 24.2749 0 24.1106 0 23.9091L0.0124011 0.364879C0.0124011 0.268768 0.0495951 0.175757 0.117786 0.107549C0.185978 0.0393407 0.278961 0.00213623 0.375049 0.00213623L37.158 0.0238388C37.3595 0.0238388 37.5238 0.188158 37.5238 0.389682L37.5114 23.9339C37.5114 24.03 37.4742 24.123 37.406 24.1912C37.3378 24.2594 37.2448 24.2966 37.1487 24.2966ZM0.731501 23.5463L36.783 23.568L36.7954 0.752425L0.743902 0.730723L0.731501 23.5463Z" fill="#283F56"/>
<path d="M18.762 15.9597C18.6783 15.9597 18.5977 15.9318 18.5295 15.876L0.148858 0.64695C-0.00612178 0.519835 -0.0278201 0.287307 0.0992635 0.132289C0.229447 -0.0227296 0.458818 -0.0444322 0.613798 0.0826829L18.7651 15.1195L36.9318 0.107486C37.0868 -0.0196293 37.3162 -0.00102704 37.4464 0.157092C37.5734 0.31211 37.5517 0.541538 37.3968 0.671753L18.9975 15.8791C18.9293 15.9349 18.8487 15.9628 18.7651 15.9628L18.762 15.9597Z" fill="#283F56"/>
<path d="M0.368347 24.2749C0.26606 24.2749 0.166872 24.2315 0.0955808 24.1509C-0.037702 23.999 -0.0222086 23.7695 0.129672 23.6362L13.7772 11.6471C13.9291 11.5138 14.1585 11.5293 14.2917 11.6812C14.425 11.8331 14.4095 12.0625 14.2577 12.1959L0.607013 24.185C0.538822 24.247 0.452033 24.2749 0.365245 24.2749H0.368347Z" fill="#283F56"/>
<path d="M37.1484 24.2966C37.0616 24.2966 36.9779 24.2656 36.9067 24.2067L23.3335 12.2548C23.1816 12.1215 23.1692 11.8921 23.2994 11.7401C23.4327 11.5882 23.6621 11.5758 23.8139 11.706L37.3871 23.658C37.539 23.7913 37.5514 24.0207 37.4212 24.1726C37.3499 24.2532 37.2476 24.2966 37.1484 24.2966Z" fill="#283F56"/>
<path d="M28.2277 38.8373C32.2603 38.1521 35.0252 34.3945 34.4858 30.3392L34.1666 27.9457C33.8039 25.6855 33.2491 23.168 27.4125 23.909C27.4125 23.909 26.0983 21.8225 24.781 19.2926C22.602 15.1009 17.4287 15.0358 19.8433 19.9592L18.7647 17.5316C17.2521 13.5197 15.1319 14.3475 14.0161 14.9056C12.2896 15.7706 13.5883 18.7345 13.5883 18.7345C13.5883 18.7345 12.1129 14.2049 8.86144 15.907C7.12566 16.8154 8.95133 19.2182 11.1086 23.9276L7.82617 23.9059C7.82617 23.9059 11.5519 27.0559 12.364 27.7814C13.173 28.5069 18.7647 28.4914 18.7647 28.4914L19.4652 32.6118C20.1688 36.7508 24.0929 39.5349 28.2277 38.8311V38.8373Z" fill="white"/>
<path d="M73.5225 62.2048C73.5225 63.8852 74.8832 65.2463 76.5632 65.2463C78.2432 65.2463 79.6039 63.8852 79.6039 62.2048C79.6039 60.5244 78.2432 59.1633 76.5632 59.1633C74.8832 59.1633 73.5225 60.5244 73.5225 62.2048Z" fill="#67DDB9"/>
<path d="M51.0322 62.2048C51.0322 63.8852 52.393 65.2463 54.0729 65.2463C55.7529 65.2463 57.1136 63.8852 57.1136 62.2048C57.1136 60.5244 55.7529 59.1633 54.0729 59.1633C52.393 59.1633 51.0322 60.5244 51.0322 62.2048Z" fill="#283F56"/>
<path d="M62.2773 62.2048C62.2773 63.8852 63.6381 65.2463 65.3181 65.2463C66.998 65.2463 68.3588 63.8852 68.3588 62.2048C68.3588 60.5244 66.998 59.1633 65.3181 59.1633C63.6381 59.1633 62.2773 60.5244 62.2773 62.2048Z" fill="#D75338"/>
</svg>
