<svg width="177" height="196" viewBox="0 0 177 196" fill="none" xmlns="http://www.w3.org/2000/svg">
<g clip-path="url(#clip0_4204_233)">
<path d="M28.3699 50.23C28.3699 44.1 23.3999 39.13 17.2699 39.13C11.1399 39.13 6.16992 44.1 6.16992 50.23C6.16992 56.36 11.1399 61.33 17.2699 61.33C23.3999 61.33 28.3699 56.36 28.3699 50.23Z" fill="#8FC1E8"/>
<path d="M167 164.89C167 158.76 162.03 153.79 155.9 153.79C149.77 153.79 144.8 158.76 144.8 164.89C144.8 171.02 149.77 175.99 155.9 175.99C162.03 175.99 167 171.02 167 164.89Z" fill="#8FC1E8"/>
<path d="M133.729 167.611C163.284 138.056 163.284 90.1378 133.729 60.583C104.174 31.0281 56.2562 31.0281 26.7013 60.583C-2.85354 90.1378 -2.85354 138.056 26.7013 167.611C56.2562 197.166 104.174 197.166 133.729 167.611Z" fill="#8FC1E8"/>
<path d="M52.9946 69.2114C54.8415 58.338 47.524 48.0262 36.6507 46.1793C25.7773 44.3324 15.4654 51.6498 13.6185 62.5232C11.7716 73.3966 19.089 83.7084 29.9624 85.5553C40.8358 87.4022 51.1476 80.0848 52.9946 69.2114Z" fill="white"/>
<path d="M33.3002 86.25C22.0602 86.25 12.9102 77.1 12.9102 65.86C12.9102 54.62 22.0602 45.47 33.3002 45.47C44.5402 45.47 53.6902 54.62 53.6902 65.86C53.6902 77.1 44.5402 86.25 33.3002 86.25ZM33.3002 46.3C22.5202 46.3 13.7402 55.07 13.7402 65.85C13.7402 76.63 22.5102 85.4 33.3002 85.4C44.0902 85.4 52.8602 76.63 52.8602 65.85C52.8602 55.07 44.0902 46.3 33.3002 46.3Z" fill="#0C133D"/>
<path d="M33.2998 52.47L28.9898 61.22L19.3398 62.62L26.3198 69.42L24.6698 79.03L33.2998 74.5L41.9398 79.03L40.2898 69.42L47.2698 62.62L37.6198 61.22L33.2998 52.47Z" fill="#FD5F2F"/>
<path d="M62.0401 19.39C63.5601 26.64 58.9101 33.76 51.6601 35.27C44.4101 36.79 37.2901 32.14 35.7801 24.89C34.2601 17.64 38.9101 10.52 46.1601 9.01001C53.4101 7.49001 60.5301 12.14 62.0401 19.39Z" fill="white"/>
<path d="M48.8998 35.98C42.4898 35.98 36.7198 31.49 35.3598 24.98C34.5998 21.36 35.2998 17.67 37.3198 14.57C39.3398 11.48 42.4498 9.35997 46.0698 8.59997C53.5398 7.03997 60.8898 11.84 62.4498 19.31C64.0098 26.78 59.2098 34.13 51.7398 35.69C50.7898 35.89 49.8398 35.99 48.8998 35.99V35.98ZM48.9098 9.13997C48.0298 9.13997 47.1398 9.22997 46.2398 9.41997C42.8398 10.13 39.9198 12.12 38.0198 15.03C36.1198 17.94 35.4698 21.41 36.1798 24.81C37.6498 31.83 44.5498 36.34 51.5698 34.87C58.5898 33.4 63.0998 26.5 61.6298 19.48C60.3498 13.36 54.9298 9.13997 48.9098 9.13997Z" fill="#0C133D"/>
<path d="M39.8101 20.38C40.5701 22.64 42.7401 24.43 44.5601 25.96C45.3001 26.58 48.3901 28.89 49.8901 30C50.3101 30.31 50.9501 30.18 51.2101 29.72C52.1301 28.09 54.0101 24.73 54.4401 23.86C55.4801 21.72 56.7401 19.2 56.5101 16.83C56.3101 14.76 54.7001 13.13 52.3901 13.12C50.5901 13.12 48.8601 14.32 48.1501 16.81C48.0701 17.11 47.6501 17.19 47.4601 16.95C45.8401 14.96 43.7101 14.58 42.0701 15.31C39.9601 16.26 39.1501 18.4 39.8101 20.38Z" fill="#8FC1E8"/>
<path d="M14.1079 92.082L0.00878906 100.262L8.18833 114.361L22.2874 106.181L14.1079 92.082Z" fill="#0C133D"/>
<path d="M11.3605 106.74C11.3605 106.74 11.2905 106.74 11.2605 106.73L6.08054 105.43C5.86054 105.37 5.72054 105.15 5.78054 104.92C5.84054 104.69 6.07054 104.56 6.29054 104.62L11.0805 105.82L14.0605 95.62C14.1305 95.4 14.3605 95.27 14.5805 95.34C14.8005 95.4 14.9305 95.64 14.8705 95.86L11.7805 106.45C11.7305 106.63 11.5605 106.75 11.3805 106.75L11.3605 106.74Z" fill="white"/>
<path d="M111.491 93.59H117.271C117.781 93.59 118.191 94 118.191 94.51V101.21H110.561V94.51C110.561 94 110.971 93.59 111.481 93.59H111.491Z" fill="white" stroke="#0C133D" stroke-width="0.86" stroke-miterlimit="10"/>
<path d="M55.5799 95.58H59.8099C60.7499 95.58 61.5099 96.34 61.5099 97.28V103.21H53.8799V97.28C53.8799 96.34 54.6399 95.58 55.5799 95.58Z" fill="white" stroke="#0C133D" stroke-width="0.86" stroke-miterlimit="10"/>
<path d="M64.1404 95.58H68.3704C69.3104 95.58 70.0704 96.34 70.0704 97.28V103.21H62.4404V97.28C62.4404 96.34 63.2004 95.58 64.1404 95.58Z" fill="white" stroke="#0C133D" stroke-width="0.86" stroke-miterlimit="10"/>
<path d="M120.63 98.04H47.8503C37.0421 98.04 28.2803 106.802 28.2803 117.61V152.06C28.2803 162.868 37.0421 171.63 47.8503 171.63H120.63C131.438 171.63 140.2 162.868 140.2 152.06V117.61C140.2 106.802 131.438 98.04 120.63 98.04Z" fill="white" stroke="#0C133D" stroke-width="0.86" stroke-miterlimit="10"/>
<path d="M93.1803 134.83C93.1803 139.76 89.1803 143.76 84.2503 143.76C79.3203 143.76 75.3203 139.76 75.3203 134.83C75.3203 129.9 79.3203 125.9 84.2503 125.9C89.1803 125.9 93.1803 129.9 93.1803 134.83Z" fill="#FD5F2F"/>
<path d="M96.6404 134.83C96.6404 141.67 91.0904 147.22 84.2504 147.22C77.4104 147.22 71.8604 141.67 71.8604 134.83C71.8604 127.99 77.4104 122.44 84.2504 122.44C91.0904 122.44 96.6404 127.99 96.6404 134.83Z" stroke="#0C133D" stroke-width="0.99" stroke-miterlimit="10"/>
<path d="M137.193 182.543C140.064 173.089 134.727 163.098 125.272 160.227C115.818 157.357 105.827 162.694 102.956 172.148C100.086 181.602 105.423 191.593 114.877 194.464C124.331 197.335 134.322 191.997 137.193 182.543Z" fill="#FD5F2F"/>
<path d="M120.07 195.67C117.79 195.67 115.51 195.24 113.32 194.37C108.77 192.57 105.2 189.1 103.25 184.62C101.31 180.13 101.23 175.15 103.03 170.6C104.83 166.05 108.3 162.48 112.78 160.53C117.27 158.59 122.25 158.51 126.8 160.31C131.35 162.11 134.92 165.58 136.87 170.07C138.81 174.56 138.89 179.54 137.09 184.09C135.29 188.64 131.82 192.21 127.34 194.16C125.01 195.17 122.54 195.68 120.07 195.68V195.67ZM120.06 159.86C117.7 159.86 115.35 160.34 113.12 161.31C108.84 163.16 105.53 166.57 103.81 170.91C102.09 175.25 102.17 180 104.02 184.28C105.87 188.56 109.28 191.87 113.63 193.59C117.97 195.31 122.72 195.23 127 193.38C131.28 191.53 134.59 188.12 136.31 183.78C138.03 179.44 137.95 174.69 136.1 170.41C134.25 166.13 130.84 162.82 126.5 161.1C124.42 160.27 122.24 159.86 120.06 159.86Z" fill="#0C133D"/>
<path d="M111.24 168.71C110.42 171.79 111.52 175.37 112.42 178.42C112.79 179.66 114.53 184.5 115.38 186.83C115.62 187.49 116.43 187.81 117.06 187.49C119.27 186.35 123.84 184 124.96 183.34C127.7 181.72 130.94 179.84 132.43 177.03C133.73 174.58 133.13 171.58 130.56 169.87C128.56 168.54 125.76 168.61 123.13 170.86C122.82 171.13 122.3 170.92 122.25 170.51C121.91 167.1 119.82 165.11 117.46 164.73C114.42 164.23 111.94 166.03 111.22 168.71H111.24Z" fill="white"/>
<path d="M107.14 40.51L91.4103 18.84C91.4103 18.84 90.3003 37.93 90.0203 43.25C89.5403 52.25 104.17 57.59 107.14 40.51Z" fill="white"/>
<path d="M97.4301 52.09C97.2901 52.09 97.1501 52.07 97.0101 52.05C92.6901 51.56 89.3701 47.6 89.6001 43.22C89.8801 37.96 90.9801 18.99 90.9901 18.8C91.0001 18.62 91.1201 18.47 91.2901 18.42C91.4601 18.37 91.6401 18.43 91.7501 18.58L107.48 40.25C107.55 40.34 107.57 40.46 107.55 40.57C106.01 49.42 101.39 52.31 97.4301 52.08V52.09ZM91.7601 20.03C91.5101 24.27 90.6801 38.77 90.4401 43.27C90.2301 47.21 93.2201 50.78 97.1101 51.22C100.77 51.63 105.18 49.06 106.7 40.61L91.7701 20.03H91.7601Z" fill="#0C133D"/>
<path d="M176.26 65.43C176.79 49.58 164.58 36.2 148.74 35.3L138.1 34.69C138.1 34.69 132.37 18.49 125.07 9.29004C118.75 1.33004 109.95 -1.84996 106.06 2.13004C100.51 0.570036 93.6104 1.50004 91.5904 14.33C88.4204 14.79 85.1404 15.42 82.5504 16.23C75.1004 18.57 64.5204 22.57 67.8804 32.16C71.2404 41.75 92.7604 37.13 97.5404 36.67C103.43 36.1 106.19 41.15 105.98 49.58C105.76 58.01 99.9504 63.03 95.8504 63.05C91.7504 63.07 81.2304 54.55 74.9704 53.93C68.7204 53.32 60.0204 60.92 68.8604 71.03C77.7104 81.14 97.4804 90.27 106.01 91.18C110.42 91.65 128.81 92.69 145.53 93.59C161.86 94.46 175.71 81.76 176.26 65.42V65.43Z" fill="white"/>
<path d="M162.301 62.84C161.811 77.26 152.171 89.18 139.181 93.26C141.301 93.38 143.431 93.49 145.541 93.6C161.861 94.47 175.721 81.77 176.271 65.43C176.801 49.72 164.791 36.43 149.161 35.33C157.471 41.6 162.681 51.67 162.311 62.84H162.301Z" fill="#0C133D"/>
<path d="M127.861 93.05C117.761 92.47 108.841 91.92 105.961 91.61C97.4306 90.69 77.5106 81.57 68.5406 71.31C63.3906 65.43 64.5006 60.91 65.6106 58.75C67.3306 55.41 71.3706 53.17 75.0006 53.52C78.3906 53.85 83.0006 56.45 87.0606 58.73C90.6306 60.74 94.0206 62.64 95.8306 62.63C99.7506 62.61 105.331 57.63 105.541 49.57C105.671 44.33 104.641 40.53 102.551 38.58C101.271 37.39 99.6006 36.89 97.5706 37.08C96.9606 37.14 96.0706 37.27 94.9406 37.43C87.0106 38.57 70.5006 40.95 67.4706 32.29C66.5206 29.57 66.6006 27.08 67.7006 24.89C70.0206 20.25 76.4406 17.71 82.4206 15.83C84.6606 15.13 87.6206 14.5 91.2206 13.96C92.1506 8.32002 94.1406 4.49002 97.1306 2.57002C99.5106 1.04002 102.471 0.740021 105.931 1.66002C107.201 0.470021 108.951 -0.0999794 111.031 0.0100206C111.051 0.0100206 111.061 0.0100206 111.081 0.0100206C115.711 0.270021 121.191 3.72002 125.401 9.03002C132.151 17.54 137.631 32.15 138.411 34.29L148.771 34.88C156.541 35.32 163.701 38.73 168.951 44.48C174.201 50.22 176.941 57.67 176.681 65.45C176.411 73.47 173.011 80.87 167.091 86.28C161.181 91.7 153.511 94.45 145.501 94.02C139.841 93.72 133.651 93.38 127.851 93.05H127.861ZM74.6406 54.34C71.4006 54.16 67.8806 56.18 66.3606 59.14C64.6006 62.56 65.6006 66.69 69.1706 70.77C78.0206 80.88 97.6406 89.88 106.051 90.78C109.621 91.16 123.281 92 145.551 93.19C153.331 93.61 160.781 90.94 166.531 85.67C172.281 80.4 175.581 73.21 175.851 65.43C176.371 49.94 164.211 36.62 148.731 35.73L138.091 35.12C137.921 35.12 137.781 35 137.721 34.84C137.661 34.68 131.931 18.6 124.751 9.56002C120.751 4.52002 115.371 1.11002 111.041 0.860021C111.021 0.860021 111.011 0.860021 111.001 0.860021C109.081 0.760021 107.471 1.30002 106.371 2.43002C106.261 2.54002 106.101 2.58002 105.961 2.54002C102.631 1.61002 99.8206 1.86002 97.6006 3.28002C94.7706 5.10002 92.8906 8.84002 92.0206 14.4C91.9906 14.58 91.8506 14.72 91.6706 14.75C87.9706 15.29 84.9506 15.93 82.6906 16.64C76.8806 18.47 70.6506 20.92 68.4706 25.28C67.4706 27.26 67.4106 29.54 68.2906 32.03C71.0906 40.04 87.7406 37.64 94.8506 36.62C95.9906 36.46 96.8906 36.33 97.5206 36.27C99.8006 36.05 101.701 36.63 103.161 37.99C105.431 40.11 106.561 44.13 106.421 49.61C106.191 58.52 100.041 63.47 95.8706 63.49C93.8106 63.49 90.5106 61.64 86.6806 59.48C82.6906 57.23 78.1606 54.69 74.9506 54.37C74.8506 54.37 74.7606 54.35 74.6606 54.35L74.6406 54.34Z" fill="#0C133D"/>
<path d="M91.931 14.76C91.751 14.75 91.591 14.63 91.551 14.45C91.491 14.23 91.631 14 91.851 13.94C100.241 11.78 112.161 13.14 112.281 13.16C112.511 13.19 112.671 13.4 112.651 13.63C112.621 13.86 112.391 14.02 112.191 14C112.071 13.99 100.311 12.64 92.071 14.76C92.031 14.77 91.981 14.78 91.941 14.77L91.931 14.76Z" fill="#0C133D"/>
<path d="M114.511 4.82004C114.511 4.82004 114.421 4.81004 114.371 4.79004C114.331 4.77004 110.331 3.08004 106.011 2.55004C105.781 2.52004 105.621 2.31004 105.651 2.08004C105.681 1.85004 105.901 1.69004 106.121 1.72004C110.561 2.27004 114.541 3.95004 114.701 4.02004C114.911 4.11004 115.011 4.36004 114.921 4.57004C114.851 4.74004 114.681 4.83004 114.511 4.82004Z" fill="#0C133D"/>
<path d="M66.3374 33.3136L60.0996 48.3729L75.1588 54.6106L81.3966 39.5514L66.3374 33.3136Z" fill="white"/>
<path d="M75.1299 55.03C75.1299 55.03 75.0399 55.02 74.9899 55L59.9299 48.76C59.8299 48.72 59.7499 48.64 59.6999 48.53C59.6599 48.43 59.6599 48.31 59.6999 48.21L65.9399 33.15C66.0299 32.94 66.2699 32.83 66.4899 32.92L81.5499 39.16C81.6499 39.2 81.7299 39.28 81.7799 39.39C81.8199 39.49 81.8199 39.61 81.7799 39.71L75.5399 54.77C75.4699 54.94 75.2999 55.04 75.1299 55.03ZM60.6499 48.15L74.9299 54.07L80.8499 39.79L66.5699 33.87L60.6499 48.15Z" fill="#0C133D"/>
<path d="M68.4003 46.43C68.2503 46.43 68.1003 46.33 68.0403 46.18L65.9203 41.27C65.8303 41.06 65.9203 40.81 66.1403 40.72C66.3503 40.63 66.6003 40.72 66.6903 40.94L68.6503 45.48L78.5703 41.65C78.7803 41.57 79.0303 41.67 79.1103 41.89C79.1903 42.11 79.0903 42.35 78.8703 42.43L68.5803 46.4C68.5203 46.42 68.4603 46.43 68.4103 46.43H68.4003Z" fill="#0C133D"/>
<path d="M140.21 117.6H28.2803" stroke="#0C133D" stroke-width="0.86" stroke-miterlimit="10"/>
<path d="M140.21 155.96H28.2803" stroke="#0C133D" stroke-width="0.86" stroke-miterlimit="10"/>
</g>
<defs>
<clipPath id="clip0_4204_233">
<rect width="176.7" height="195.67" fill="white"/>
</clipPath>
</defs>
</svg>
