<svg width="215" height="169" viewBox="0 0 215 169" fill="none" xmlns="http://www.w3.org/2000/svg">
<g clip-path="url(#clip0_306_5146)">
<path d="M114.17 163.45C155.121 163.45 188.32 130.252 188.32 89.2999C188.32 48.348 155.121 15.1499 114.17 15.1499C73.2176 15.1499 40.0195 48.348 40.0195 89.2999C40.0195 130.252 73.2176 163.45 114.17 163.45Z" fill="#FFB743"/>
<path d="M116.97 85.1299C117.85 84.7899 118.77 84.2999 119.72 83.6399C129.37 76.8799 122.62 65.3899 113.38 56.18C105.97 48.79 87.0099 42.2099 69.6599 52.5999C69.6599 52.5999 68.4299 41.74 67.6899 31.17C66.4799 13.69 63.9499 8.13995 55.6299 8.74995C46.6399 9.40995 45.4799 18.4699 49.8499 49.16C48.8299 42.02 46.4199 38.81 43.1699 27.35C40.7999 19.02 35.0799 13.3399 30.2899 14.6699C23.7899 16.4699 20.1699 21.58 22.5899 33.54C24.6799 43.88 27.4699 53.5 27.4699 53.5C21.1599 44.6 13.8999 35.03 5.57993 39.06C-3.63007 43.53 0.119926 52.94 11.7599 72.19C16.5899 80.18 18.0199 82.4799 29.0799 107.84L27.5399 127.71C25.8299 149.67 43.1899 168.43 65.2099 168.43C87.2299 168.43 103.24 151.24 103 130.2L102.89 120.6C102.89 120.6 112.22 112.97 117.36 107.99C127.09 98.5699 126.81 88.4399 116.96 85.1699L116.97 85.1299ZM90.1799 98.4899C85.3999 99.5299 76.9699 81.3899 82.7299 76.2099C88.4899 71.0299 93.8799 70.9899 98.9199 75.1299C102.13 77.7599 105.76 83.2099 110.46 85.0999C99.5299 86.8099 94.4499 97.5699 90.1799 98.4999V98.4899Z" fill="white"/>
<path d="M65.2199 168.82C54.6099 168.82 44.3799 164.35 37.1799 156.56C29.9699 148.77 26.3099 138.23 27.1299 127.65L28.6699 107.89C17.7399 82.84 16.2999 80.46 11.5299 72.57L11.4199 72.39C2.94987 58.38 -1.32013 49.72 0.359872 44.03C1.03987 41.74 2.68987 39.98 5.39987 38.67C13.6799 34.66 20.9099 43.61 26.4199 51.29C25.4699 47.81 23.6399 40.85 22.1799 33.61C19.9699 22.69 22.5899 16.36 30.1799 14.26C35.2199 12.86 41.1099 18.56 43.5699 27.23C44.9799 32.2 46.2599 35.68 47.2799 38.47C47.6899 39.59 48.0699 40.62 48.4099 41.62C46.1199 23.3 46.5399 15.03 49.6999 11.1C51.0499 9.43003 52.9699 8.52003 55.5999 8.33003C58.6399 8.11003 60.8499 8.69003 62.5599 10.17C65.6999 12.89 67.2499 18.77 68.1099 31.14C68.7299 40.13 69.7299 49.42 69.9999 51.91C87.1499 42.02 106.14 48.37 113.67 55.88C119.08 61.28 125.41 69.18 124.8 76.2C124.53 79.31 122.9 81.93 119.96 83.99C119.34 84.42 118.72 84.8 118.09 85.1C121.68 86.55 123.95 88.99 124.68 92.21C125.78 97.03 123.22 102.88 117.66 108.26C112.93 112.84 104.56 119.74 103.32 120.77L103.43 130.17C103.55 140.46 99.6299 150.16 92.3999 157.47C85.1699 164.79 75.5199 168.82 65.2299 168.82H65.2199ZM9.55987 38.51C8.31987 38.51 7.05987 38.8 5.76987 39.42C3.27987 40.63 1.76987 42.21 1.15987 44.27C-0.430128 49.64 3.97987 58.49 12.1299 71.95L12.2399 72.13C17.0399 80.06 18.4899 82.45 29.4699 107.64C29.4999 107.7 29.5099 107.77 29.4999 107.84L27.9599 127.71C27.1399 138.21 30.6299 148.25 37.7899 155.99C44.9399 163.72 54.6799 167.98 65.2199 167.98C75.7599 167.98 84.7199 164.04 91.7999 156.88C98.8699 149.72 102.71 140.24 102.59 130.18L102.48 120.58C102.48 120.45 102.54 120.33 102.63 120.25C102.72 120.17 112 112.57 117.08 107.66C122.43 102.49 124.9 96.92 123.87 92.4C123.14 89.2 120.71 86.82 116.84 85.54C116.67 85.48 116.56 85.33 116.55 85.15C116.55 84.97 116.65 84.81 116.82 84.75C117.7 84.41 118.6 83.92 119.48 83.3C122.21 81.39 123.72 78.98 123.97 76.13C124.42 70.91 120.56 63.93 113.09 56.48C105.66 49.07 86.7899 42.83 69.8799 52.96C69.7599 53.03 69.6099 53.04 69.4799 52.98C69.3499 52.92 69.2699 52.79 69.2499 52.65C69.2399 52.54 68.0099 41.66 67.2799 31.2C66.4399 19.08 64.9599 13.36 62.0199 10.81C60.4899 9.49003 58.4699 8.96003 55.6699 9.17003C53.2599 9.35003 51.5699 10.13 50.3699 11.63C47.0099 15.8 46.9799 25.96 50.2799 49.1C50.3099 49.33 50.1499 49.54 49.9199 49.57C49.6899 49.6 49.4799 49.44 49.4499 49.21C48.8799 45.22 47.8899 42.5 46.5099 38.75C45.4799 35.94 44.1999 32.45 42.7799 27.45C40.4799 19.36 34.9399 13.8 30.4199 15.06C23.2399 17.05 20.8899 22.89 23.0199 33.44C25.0799 43.64 27.8699 53.27 27.8899 53.36C27.9499 53.56 27.8499 53.77 27.6699 53.85C27.4899 53.94 27.2599 53.88 27.1499 53.71C21.4399 45.65 15.7599 38.5 9.56987 38.5L9.55987 38.51ZM89.7699 98.96C87.4699 98.96 84.9599 95.7 83.3099 92.48C80.2899 86.58 79.0199 78.99 82.4599 75.9C88.1799 70.76 93.8099 70.39 99.1999 74.8C100.3 75.7 101.43 76.91 102.63 78.19C104.95 80.67 107.59 83.48 110.63 84.7C110.81 84.77 110.91 84.95 110.89 85.14C110.87 85.33 110.72 85.48 110.54 85.51C103.85 86.56 99.4499 91 95.9199 94.58C93.7399 96.79 92.0099 98.53 90.2899 98.91C90.1199 98.95 89.9599 98.96 89.7899 98.96H89.7699ZM91.5799 72.57C88.7899 72.57 85.9499 73.89 83.0199 76.52C79.8999 79.33 81.1799 86.48 84.0599 92.09C86.0699 96.02 88.4999 98.43 90.0999 98.08C91.5799 97.76 93.3099 96.01 95.3199 93.98C98.5399 90.73 102.87 86.35 109.13 84.92C106.43 83.47 104.1 80.98 102.02 78.76C100.84 77.5 99.7199 76.31 98.6699 75.45C96.3199 73.53 93.9699 72.57 91.5899 72.57H91.5799Z" fill="#0C133D"/>
<path d="M69.4602 147.5C51.5002 147.5 36.0102 137.59 27.9002 123.1L27.5402 127.67C25.8302 149.63 43.1902 168.39 65.2102 168.39C85.0302 168.39 101.25 153.14 102.86 133.78C94.2702 142.25 82.4802 147.49 69.4402 147.49L69.4602 147.5Z" fill="#0C133D"/>
<path d="M72.7798 89.72C72.5498 89.72 72.3598 89.53 72.3598 89.3C72.3598 80.95 69.7198 74.44 64.5198 69.96C53.4198 60.4 34.1298 63.16 33.9398 63.19C33.7798 63.21 33.6198 63.14 33.5298 63.01L27.1398 53.71C27.0098 53.52 27.0598 53.26 27.2498 53.13C27.4398 53 27.6998 53.05 27.8298 53.24L34.0798 62.33C36.4598 62.03 54.3898 60.13 65.0698 69.33C70.4698 73.98 73.2098 80.7 73.2098 89.31C73.2098 89.54 73.0198 89.73 72.7898 89.73L72.7798 89.72Z" fill="#0C133D"/>
<path d="M51.9298 61.17C51.7298 61.17 51.5498 61.03 51.5198 60.82L49.4098 48.92C49.3698 48.69 49.5198 48.47 49.7498 48.43C49.9798 48.39 50.1998 48.54 50.2398 48.77L52.3498 60.67C52.3898 60.9 52.2398 61.12 52.0098 61.16C51.9898 61.16 51.9598 61.16 51.9398 61.16L51.9298 61.17Z" fill="#0C133D"/>
<path d="M70.1997 58.0099C69.9897 58.0099 69.8097 57.8499 69.7797 57.6399L69.2497 52.6399C69.2297 52.4099 69.3897 52.2 69.6197 52.18C69.8497 52.15 70.0597 52.3199 70.0797 52.5499L70.6097 57.5499C70.6297 57.7799 70.4697 57.9899 70.2397 58.0099C70.2197 58.0099 70.2097 58.0099 70.1897 58.0099H70.1997Z" fill="#0C133D"/>
<path d="M116.97 85.5499L110.46 85.5099C110.23 85.5099 110.04 85.3199 110.04 85.0899C110.04 84.8599 110.25 84.6799 110.46 84.6699L116.97 84.7099C117.2 84.7099 117.39 84.8999 117.39 85.1299C117.39 85.3599 117.2 85.5499 116.97 85.5499Z" fill="#0C133D"/>
<path d="M110.176 99.9561C118.956 91.9216 119.561 78.2903 111.526 69.5098C103.492 60.7293 89.8606 60.1246 81.0801 68.1592C72.2996 76.1937 71.6949 89.825 79.7295 98.6055C87.7641 107.386 101.395 107.991 110.176 99.9561Z" fill="#FD5F2F"/>
<path d="M95.6301 106.03C83.5202 106.03 73.6602 96.1801 73.6602 84.0601C73.6602 71.9401 83.5101 62.0901 95.6301 62.0901C107.75 62.0901 117.6 71.9401 117.6 84.0601C117.6 96.1801 107.75 106.03 95.6301 106.03ZM95.6301 62.9301C83.9802 62.9301 74.5002 72.4101 74.5002 84.0601C74.5002 95.7101 83.9802 105.19 95.6301 105.19C107.28 105.19 116.76 95.7101 116.76 84.0601C116.76 72.4101 107.28 62.9301 95.6301 62.9301Z" fill="#0C133D"/>
<path d="M91.7407 90.4499C91.6307 90.4499 91.5307 90.4099 91.4507 90.3299L84.4107 83.4899C84.2407 83.3299 84.2407 83.0599 84.4107 82.8999C84.5707 82.7299 84.8407 82.7299 85.0007 82.8999L91.7507 89.4599L106.141 75.7499C106.311 75.5899 106.571 75.5999 106.731 75.7599C106.891 75.9299 106.881 76.1899 106.721 76.3499L92.0407 90.3399C91.9607 90.4199 91.8507 90.4599 91.7507 90.4599L91.7407 90.4499Z" fill="white"/>
<path d="M144.127 5.53695L108.216 56.2373L124.504 67.7742L160.415 17.0738L144.127 5.53695Z" fill="#FD5F2F"/>
<path d="M124.51 68.2001C124.42 68.2001 124.34 68.1702 124.27 68.1202L107.98 56.5802C107.89 56.5202 107.83 56.4202 107.81 56.3102C107.79 56.2002 107.81 56.0902 107.88 56.0002L143.79 5.30015C143.85 5.21015 143.95 5.15015 144.06 5.13015C144.17 5.11015 144.28 5.13015 144.37 5.20015L160.66 16.7402C160.85 16.8702 160.89 17.1402 160.76 17.3202L124.85 68.0201C124.79 68.1101 124.69 68.1702 124.58 68.1902C124.56 68.1902 124.53 68.1902 124.51 68.1902V68.2001ZM108.81 56.1402L124.41 67.1902L159.84 17.1802L144.24 6.13015L108.81 56.1402Z" fill="#0C133D"/>
<path d="M124.51 67.7802L106.42 76.0402L108.22 56.2402L124.51 67.7802Z" fill="white"/>
<path d="M106.42 76.4601C106.33 76.4601 106.25 76.4301 106.18 76.3801C106.06 76.2901 105.99 76.1501 106 76.0001L107.8 56.2001C107.81 56.0501 107.91 55.9201 108.04 55.8601C108.17 55.8001 108.34 55.8101 108.46 55.9001L124.75 67.4401C124.87 67.5301 124.94 67.6701 124.93 67.8201C124.92 67.9701 124.82 68.1001 124.69 68.1601L106.6 76.4301C106.54 76.4601 106.49 76.4701 106.43 76.4701L106.42 76.4601ZM108.57 57.0001L106.9 75.3601L123.67 67.7001L108.57 57.0001Z" fill="#0C133D"/>
<path d="M106.42 76.0401L107.35 65.8701L115.72 71.8001L106.42 76.0401Z" fill="#0C133D"/>
<path d="M120.19 65.1401C120.11 65.1401 120.02 65.1101 119.95 65.0601C119.76 64.9301 119.72 64.6601 119.85 64.4801L152.63 18.2101C152.76 18.0201 153.03 17.9801 153.21 18.1101C153.4 18.2401 153.44 18.5101 153.31 18.6901L120.53 64.9601C120.45 65.0801 120.32 65.1401 120.19 65.1401Z" fill="#0C133D"/>
<path d="M112.54 59.7202C112.46 59.7202 112.37 59.6902 112.3 59.6402C112.11 59.5102 112.07 59.2402 112.2 59.0602L144.98 12.7902C145.11 12.6002 145.38 12.5602 145.56 12.6902C145.75 12.8202 145.79 13.0902 145.66 13.2702L112.88 59.5402C112.8 59.6602 112.67 59.7202 112.54 59.7202Z" fill="#0C133D"/>
<path d="M157.29 21.5102L161.08 16.1702C164.27 11.6702 163.2 5.44017 158.71 2.26017C154.21 -0.92983 147.98 0.14017 144.8 4.63017L141.01 9.97017L157.3 21.5102H157.29Z" fill="#FFB743"/>
<path d="M157.28 21.9301C157.2 21.9301 157.11 21.9001 157.04 21.8501L140.75 10.3101C140.66 10.2501 140.6 10.1501 140.58 10.0401C140.56 9.93011 140.58 9.82011 140.65 9.73011L144.44 4.39011C147.75 -0.289887 154.26 -1.39989 158.94 1.92011C161.21 3.53011 162.71 5.92011 163.18 8.66011C163.65 11.4001 163.02 14.1501 161.42 16.4201L157.63 21.7601C157.55 21.8801 157.42 21.9401 157.29 21.9401L157.28 21.9301ZM141.58 9.87011L157.18 20.9201L160.72 15.9201C162.2 13.8401 162.77 11.3001 162.34 8.79011C161.91 6.27011 160.53 4.07011 158.44 2.60011C154.14 -0.449887 148.16 0.570112 145.11 4.87011L141.57 9.87011H141.58Z" fill="#0C133D"/>
<path d="M139.081 12.6638L155.369 24.2007L160.409 17.0848L144.121 5.54796L139.081 12.6638Z" fill="white"/>
<path d="M155.38 24.6202C155.29 24.6202 155.21 24.5902 155.14 24.5402L138.85 13.0002C138.66 12.8702 138.62 12.6002 138.75 12.4202L143.79 5.30015C143.85 5.21015 143.95 5.15015 144.06 5.13015C144.17 5.11015 144.28 5.13015 144.37 5.20015L160.66 16.7402C160.85 16.8702 160.89 17.1402 160.76 17.3202L155.72 24.4402C155.66 24.5302 155.56 24.5902 155.45 24.6102C155.43 24.6102 155.4 24.6102 155.38 24.6102V24.6202ZM139.68 12.5602L155.28 23.6102L159.84 17.1802L144.24 6.13015L139.68 12.5602Z" fill="#0C133D"/>
<path d="M169.85 94.31L171.39 98.64L167.57 100L166.03 95.67L161.7 97.21L163.24 101.54L159.43 102.89L157.89 98.57L153.56 100.11L155.1 104.44L151.29 105.79L149.75 101.47L145.42 103.01L146.96 107.34L143.14 108.69L141.6 104.37L137.28 105.91L138.82 110.23L135 111.59L133.46 107.27L129.13 108.81L130.68 113.13L147.62 160.72L192.66 144.68L175.71 97.1L174.17 92.77L169.85 94.31Z" fill="white"/>
<path d="M147.62 161.14C147.56 161.14 147.5 161.13 147.44 161.1C147.34 161.05 147.26 160.97 147.22 160.86L128.73 108.94C128.69 108.84 128.7 108.72 128.75 108.62C128.8 108.52 128.88 108.44 128.99 108.4L133.32 106.86C133.54 106.78 133.78 106.9 133.86 107.11L135.26 111.04L138.29 109.96L136.89 106.03C136.85 105.93 136.86 105.81 136.91 105.71C136.96 105.61 137.04 105.53 137.15 105.49L141.48 103.95C141.7 103.87 141.94 103.99 142.02 104.2L143.42 108.13L146.45 107.05L145.05 103.12C145.01 103.02 145.02 102.9 145.07 102.8C145.12 102.7 145.2 102.62 145.31 102.58L149.64 101.04C149.86 100.96 150.1 101.08 150.18 101.29L151.58 105.22L154.61 104.14L153.21 100.21C153.17 100.11 153.18 99.9901 153.23 99.8901C153.28 99.7901 153.36 99.7101 153.47 99.6701L157.8 98.1301C158.02 98.0501 158.26 98.1701 158.34 98.3801L159.74 102.31L162.77 101.23L161.37 97.3001C161.33 97.2001 161.34 97.0801 161.39 96.9801C161.44 96.8801 161.52 96.8001 161.63 96.7601L165.96 95.2201C166.18 95.1401 166.42 95.2601 166.5 95.4701L167.9 99.4001L170.93 98.3201L169.53 94.3901C169.45 94.1701 169.57 93.9301 169.78 93.8501L174.11 92.3101C174.21 92.2701 174.33 92.2801 174.43 92.3301C174.53 92.3801 174.61 92.4601 174.65 92.5701L193.14 144.49C193.18 144.59 193.17 144.71 193.12 144.81C193.07 144.91 192.99 144.99 192.88 145.03L147.84 161.07C147.84 161.07 147.75 161.09 147.7 161.09L147.62 161.14ZM129.67 109.06L147.88 160.19L192.13 144.43L173.92 93.3001L170.38 94.5601L171.78 98.4901C171.86 98.7101 171.74 98.9501 171.53 99.0301L167.71 100.39C167.61 100.43 167.49 100.42 167.39 100.37C167.29 100.32 167.21 100.24 167.17 100.13L165.77 96.2001L162.23 97.4601L163.63 101.39C163.71 101.61 163.59 101.85 163.38 101.93L159.56 103.29C159.46 103.33 159.34 103.32 159.24 103.27C159.14 103.22 159.06 103.14 159.02 103.03L157.62 99.1001L154.08 100.36L155.48 104.29C155.56 104.51 155.44 104.75 155.23 104.83L151.41 106.19C151.31 106.23 151.19 106.22 151.09 106.17C150.99 106.12 150.91 106.04 150.87 105.93L149.47 102L145.93 103.26L147.33 107.19C147.41 107.41 147.29 107.65 147.08 107.73L143.26 109.09C143.16 109.13 143.04 109.12 142.94 109.07C142.84 109.02 142.76 108.94 142.72 108.83L141.32 104.9L137.78 106.16L139.18 110.09C139.22 110.19 139.21 110.31 139.16 110.41C139.11 110.51 139.03 110.59 138.92 110.63L135.1 111.99C134.88 112.07 134.64 111.95 134.56 111.74L133.16 107.81L129.62 109.07L129.67 109.06Z" fill="#0C133D"/>
<path d="M157.654 39.4773L147.789 75.6875L183.999 85.5527L193.864 49.3426L157.654 39.4773Z" fill="#FD5F2F"/>
<path d="M188.069 70.5402L188.099 70.3002C186.799 69.1902 185.069 68.7202 183.349 68.6402C180.929 68.5302 178.499 69.5502 176.109 69.1902C173.479 68.7902 172.049 66.3302 170.979 64.1002C169.859 61.7702 168.779 59.5802 166.729 57.9502C165.019 56.5902 162.949 55.7202 160.779 55.5002C157.779 55.2002 154.779 56.2602 152.529 58.2302L147.779 75.6702L183.989 85.5302L188.079 70.5302L188.069 70.5402Z" fill="#0C133D"/>
<path d="M183.98 85.9601C183.98 85.9601 183.91 85.9601 183.87 85.9501L147.66 76.0901C147.44 76.0301 147.3 75.8001 147.37 75.5801L157.23 39.3701C157.26 39.2601 157.33 39.1701 157.43 39.1201C157.53 39.0601 157.64 39.0501 157.75 39.0801L193.96 48.9401C194.18 49.0001 194.32 49.2301 194.25 49.4501L184.39 85.6601C184.36 85.7701 184.29 85.8601 184.19 85.9101C184.13 85.9501 184.05 85.9701 183.98 85.9701V85.9601ZM148.29 75.3901L183.69 85.0301L193.33 49.6301L157.93 39.9901L148.29 75.3901Z" fill="#0C133D"/>
<path d="M187.319 58.5002C186.509 61.4802 183.429 63.2402 180.449 62.4302C177.469 61.6202 175.709 58.5402 176.519 55.5602C177.329 52.5802 180.409 50.8202 183.389 51.6302C186.369 52.4402 188.129 55.5202 187.319 58.5002Z" fill="white"/>
<path d="M146.52 129.12C145.68 129.12 144.86 128.86 144.23 128.24C144.07 128.08 144.06 127.81 144.23 127.65C144.39 127.49 144.66 127.49 144.82 127.65C145.81 128.63 147.57 128.36 148.72 127.6C149.44 127.12 150.04 126.48 150.48 125.74C149.12 124.95 148.28 123.57 148.33 122.2C148.35 121.74 148.46 121.36 148.68 121.07C148.95 120.7 149.37 120.49 149.87 120.47C150.45 120.44 151.06 120.69 151.44 121.12C152.13 121.9 152.16 122.97 152.06 123.74C151.99 124.3 151.84 124.84 151.62 125.36C152.46 125.68 153.48 125.81 154.72 125.76C156.78 125.68 158.66 125.17 160.15 124.29C161.4 123.55 162.4 122.52 163.03 121.35C161.9 120.7 161.03 119.62 160.97 118.27C160.95 117.65 161.18 117 161.58 116.58C161.88 116.27 162.25 116.1 162.65 116.09C163.54 116.09 164.12 116.84 164.36 117.48C164.66 118.28 164.66 119.24 164.36 120.27C164.3 120.5 164.22 120.72 164.13 120.94C164.46 121.06 164.8 121.13 165.13 121.15C166.86 121.29 168.6 120.49 170.07 119.7C170.95 119.22 171.82 118.71 172.66 118.17C172.85 118.04 173.11 118.1 173.24 118.3C173.36 118.49 173.31 118.75 173.11 118.88C172.25 119.43 171.36 119.96 170.46 120.45C168.89 121.3 167.01 122.15 165.06 122C164.63 121.97 164.19 121.87 163.77 121.71C163.06 123.03 161.94 124.19 160.56 125.01C158.95 125.97 156.93 126.52 154.73 126.6C153.34 126.65 152.19 126.49 151.23 126.12C150.73 127 150.02 127.76 149.17 128.32C148.4 128.83 147.44 129.15 146.51 129.15L146.52 129.12ZM149.95 121.29C149.95 121.29 149.92 121.29 149.9 121.29C149.73 121.29 149.5 121.35 149.35 121.55C149.24 121.7 149.18 121.92 149.17 122.21C149.14 123.24 149.81 124.33 150.86 124.97C151.04 124.53 151.16 124.07 151.22 123.6C151.28 123.11 151.31 122.22 150.81 121.65C150.61 121.42 150.28 121.28 149.96 121.28L149.95 121.29ZM162.66 116.91C162.48 116.91 162.32 116.99 162.18 117.14C161.94 117.39 161.79 117.83 161.8 118.22C161.84 119.23 162.5 120.06 163.37 120.57C163.44 120.39 163.5 120.21 163.55 120.03C163.72 119.43 163.86 118.55 163.57 117.76C163.42 117.35 163.07 116.91 162.65 116.91H162.66Z" fill="#0C133D"/>
<path d="M152.85 144.22C152.39 144.22 151.93 144.17 151.48 144.05C151.26 143.99 151.12 143.77 151.17 143.54C151.23 143.32 151.45 143.18 151.68 143.23C154.07 143.83 156.76 142.52 157.93 140.38C157.25 140.14 156.62 139.79 156.06 139.32C155.22 138.62 154.43 137.39 154.96 136.23C155.21 135.69 155.72 135.31 156.37 135.2C157.15 135.07 157.98 135.32 158.5 135.85C159.3 136.67 159.56 138.01 159.2 139.43C159.17 139.57 159.12 139.7 159.08 139.83C160.69 140.14 162.43 139.79 163.72 138.77C163.97 138.58 164.2 138.36 164.43 138.15C164.9 137.71 165.39 137.26 166.01 136.96C167.3 136.33 168.69 136.56 170.04 136.77C170.91 136.91 171.8 137.05 172.64 136.96C174.29 136.77 175.84 135.65 177.51 133.46C177.65 133.28 177.91 133.24 178.1 133.38C178.28 133.52 178.32 133.78 178.18 133.97C177.04 135.47 175.23 137.5 172.74 137.8C171.79 137.91 170.84 137.76 169.91 137.61C168.63 137.41 167.43 137.21 166.38 137.72C165.88 137.96 165.45 138.36 165.01 138.77C164.76 139 164.51 139.23 164.25 139.44C162.72 140.65 160.64 141.04 158.75 140.62C157.65 142.76 155.25 144.21 152.84 144.21L152.85 144.22ZM156.8 136.02C156.71 136.02 156.62 136.02 156.53 136.04C156.31 136.08 155.91 136.2 155.73 136.59C155.42 137.27 155.94 138.14 156.6 138.69C157.1 139.1 157.67 139.42 158.27 139.63C158.32 139.5 158.35 139.37 158.39 139.24C158.68 138.11 158.5 137.07 157.91 136.46C157.64 136.19 157.22 136.03 156.8 136.03V136.02Z" fill="#0C133D"/>
<path d="M106.02 9.83988L105.7 12.1499L103.67 11.8699L103.98 9.56988L101.68 9.24988L101.36 11.5599L99.33 11.2799L99.64 8.96988L97.34 8.65988L97.02 10.9599L94.99 10.6799L95.31 8.37988L93 8.05988L92.69 10.3699L90.65 10.0899L90.97 7.78988L88.66 7.46988L88.35 9.77988L86.31 9.49988L86.63 7.18988L84.32 6.87988L84.01 9.17988L80.54 34.5399L104.54 37.8199L108.01 12.4599L108.32 10.1599L106.02 9.83988Z" fill="white"/>
<path d="M81.7315 25.8914L80.5469 34.5508L89.2062 35.7354L90.3909 27.0761L81.7315 25.8914Z" fill="#FD5F2F"/>
<path d="M104.54 38.2399C104.54 38.2399 104.5 38.2399 104.48 38.2399L80.4798 34.9599C80.2498 34.9299 80.0898 34.7199 80.1198 34.4899L83.8998 6.82992C83.9298 6.59992 84.1398 6.43992 84.3698 6.46992L86.6798 6.78992C86.9098 6.81992 87.0698 7.02992 87.0398 7.25992L86.7798 9.14992L87.9798 9.30992L88.2398 7.41992C88.2698 7.18992 88.4798 7.02992 88.7098 7.05992L91.0198 7.37992C91.2498 7.40992 91.4098 7.61992 91.3798 7.84992L91.1198 9.73992L92.3198 9.89992L92.5798 8.00992C92.6098 7.77992 92.8198 7.61992 93.0498 7.64992L95.3598 7.96992C95.5898 7.99992 95.7498 8.20992 95.7198 8.43992L95.4598 10.3299L96.6598 10.4899L96.9198 8.59992C96.9398 8.48992 96.9898 8.38992 97.0798 8.31992C97.1698 8.24992 97.2798 8.21992 97.3898 8.23992L99.6998 8.55992C99.9298 8.58992 100.09 8.79992 100.06 9.02992L99.7998 10.9199L101 11.0799L101.26 9.18992C101.28 9.07992 101.33 8.97992 101.42 8.90992C101.51 8.83992 101.62 8.80992 101.73 8.82992L104.04 9.14992C104.27 9.17992 104.43 9.38992 104.4 9.61992L104.14 11.5099L105.34 11.6699L105.6 9.77992C105.61 9.66992 105.67 9.56992 105.76 9.49992C105.85 9.42992 105.96 9.39992 106.07 9.41992L108.38 9.73992C108.49 9.75992 108.59 9.80992 108.66 9.89992C108.73 9.98992 108.76 10.0999 108.74 10.2099L104.96 37.8699C104.95 37.9799 104.89 38.0799 104.8 38.1499C104.73 38.2099 104.64 38.2399 104.55 38.2399H104.54ZM81.0098 34.1799L104.18 37.3499L107.85 10.5199L106.38 10.3199L106.12 12.2099C106.11 12.3199 106.05 12.4199 105.96 12.4899C105.87 12.5599 105.76 12.5899 105.65 12.5699L103.62 12.2899C103.39 12.2599 103.23 12.0499 103.26 11.8199L103.52 9.92992L102.05 9.72992L101.79 11.6199C101.77 11.7299 101.72 11.8299 101.63 11.8999C101.54 11.9699 101.43 11.9999 101.32 11.9799L99.2898 11.6999C99.0598 11.6699 98.8998 11.4599 98.9298 11.2299L99.1898 9.33992L97.7198 9.13992L97.4598 11.0299C97.4398 11.1399 97.3898 11.2399 97.2998 11.3099C97.2098 11.3799 97.0998 11.4099 96.9898 11.3899L94.9598 11.1099C94.7298 11.0799 94.5698 10.8699 94.5998 10.6399L94.8598 8.74992L93.3898 8.54992L93.1298 10.4399C93.0998 10.6699 92.8898 10.8299 92.6598 10.7999L90.6298 10.5199C90.3998 10.4899 90.2398 10.2799 90.2698 10.0499L90.5298 8.15992L89.0598 7.95992L88.7998 9.84992C88.7698 10.0799 88.5598 10.2399 88.3298 10.2099L86.2998 9.92992C86.1898 9.91992 86.0898 9.85992 86.0198 9.76992C85.9498 9.67992 85.9198 9.56992 85.9398 9.45992L86.1998 7.56992L84.7298 7.36992L81.0598 34.1999L81.0098 34.1799Z" fill="#0C133D"/>
<path d="M203.76 116.71C209.891 116.71 214.86 111.74 214.86 105.61C214.86 99.4796 209.891 94.51 203.76 94.51C197.63 94.51 192.66 99.4796 192.66 105.61C192.66 111.74 197.63 116.71 203.76 116.71Z" fill="#FFB743"/>
<path d="M142.4 90.11C142.29 90.11 142.19 90.07 142.1 89.99L136.28 84.17C136.12 84.01 136.12 83.74 136.28 83.58C136.44 83.42 136.71 83.42 136.87 83.58L142.69 89.4C142.85 89.56 142.85 89.83 142.69 89.99C142.61 90.07 142.5 90.11 142.39 90.11H142.4Z" fill="#0C133D"/>
<path d="M136.58 90.11C136.47 90.11 136.37 90.07 136.28 89.99C136.12 89.83 136.12 89.56 136.28 89.4L142.1 83.58C142.26 83.42 142.53 83.42 142.69 83.58C142.85 83.74 142.85 84.01 142.69 84.17L136.87 89.99C136.79 90.07 136.68 90.11 136.57 90.11H136.58Z" fill="#0C133D"/>
<path d="M120.19 146.17C117.08 146.17 114.55 143.64 114.55 140.53C114.55 137.42 117.08 134.89 120.19 134.89C123.3 134.89 125.83 137.42 125.83 140.53C125.83 143.64 123.3 146.17 120.19 146.17ZM120.19 135.73C117.54 135.73 115.39 137.88 115.39 140.53C115.39 143.18 117.54 145.33 120.19 145.33C122.84 145.33 124.99 143.18 124.99 140.53C124.99 137.88 122.84 135.73 120.19 135.73Z" fill="#0C133D"/>
</g>
<defs>
<clipPath id="clip0_306_5146">
<rect width="214.85" height="168.82" fill="white"/>
</clipPath>
</defs>
</svg>
