<svg width="199" height="170" viewBox="0 0 199 170" fill="none" xmlns="http://www.w3.org/2000/svg">
<g clip-path="url(#clip0_306_5088)">
<path d="M35.3797 85.7499C35.3797 79.6199 30.4097 74.6499 24.2797 74.6499C18.1497 74.6499 13.1797 79.6199 13.1797 85.7499C13.1797 91.8799 18.1497 96.8499 24.2797 96.8499C30.4097 96.8499 35.3797 91.8799 35.3797 85.7499Z" fill="#FFB743"/>
<path d="M111.12 125.26C110.07 125.36 109.03 125.47 107.99 125.58C87.3501 127.93 67.3101 126.28 52.7001 109.75C44.5601 100.54 40.4701 88.7401 39.7701 76.5801C39.0001 63.2201 46.6701 49.5401 56.8101 40.3101C63.8901 33.8701 73.7501 32.5401 82.6101 30.0201C92.2801 27.2801 99.5201 20.6901 107.32 14.6701C132.13 -4.4899 168.88 7.2501 184.56 32.4801C203.44 62.8501 183.79 105.01 152.63 117.68C147.27 119.86 141.67 121.43 135.99 122.57C127.92 124.18 119.41 124.47 111.12 125.25V125.26Z" fill="#FFB743"/>
<path d="M181.94 0.419922H112.54V53.3299H181.94V0.419922Z" fill="white"/>
<path d="M181.94 0.419922H112.54V8.17992H181.94V0.419922Z" fill="#FD5F2F"/>
<path d="M181.94 53.75H112.54C112.31 53.75 112.12 53.56 112.12 53.33V0.42C112.12 0.19 112.31 0 112.54 0H181.94C182.17 0 182.36 0.19 182.36 0.42V53.33C182.36 53.56 182.17 53.75 181.94 53.75ZM112.96 52.91H181.52V0.84H112.96V52.91Z" fill="#0C133D"/>
<path d="M181.94 8.60001H112.54C112.31 8.60001 112.12 8.41001 112.12 8.18001C112.12 7.95001 112.31 7.76001 112.54 7.76001H181.94C182.17 7.76001 182.36 7.95001 182.36 8.18001C182.36 8.41001 182.17 8.60001 181.94 8.60001Z" fill="#0C133D"/>
<path d="M119.1 4.29005C119.1 5.12005 118.43 5.78005 117.61 5.78005C116.79 5.78005 116.12 5.11005 116.12 4.29005C116.12 3.47005 116.79 2.80005 117.61 2.80005C118.43 2.80005 119.1 3.47005 119.1 4.29005Z" fill="#0C133D"/>
<path d="M130.15 4.29005C130.15 5.12005 129.48 5.78005 128.66 5.78005C127.84 5.78005 127.17 5.11005 127.17 4.29005C127.17 3.47005 127.84 2.80005 128.66 2.80005C129.48 2.80005 130.15 3.47005 130.15 4.29005Z" fill="white"/>
<path d="M124.62 4.29005C124.62 5.12005 123.95 5.78005 123.13 5.78005C122.31 5.78005 121.64 5.11005 121.64 4.29005C121.64 3.47005 122.31 2.80005 123.13 2.80005C123.95 2.80005 124.62 3.47005 124.62 4.29005Z" fill="#FFB743"/>
<path d="M151.97 32.3701H33.4004V128.35H151.97V32.3701Z" fill="#FD5F2F"/>
<path d="M151.97 32.3701H33.4004V40.0801H151.97V32.3701Z" fill="white"/>
<path d="M151.97 109.82H33.4004V118.84H151.97V109.82Z" fill="#0C133D"/>
<path d="M61.6908 110.44H57.5508V118.21H61.6908V110.44Z" fill="#FFB743"/>
<path d="M151.98 128.83H33.4005C33.1705 128.83 32.9805 128.64 32.9805 128.41V32.43C32.9805 32.2 33.1705 32.01 33.4005 32.01H151.97C152.2 32.01 152.39 32.2 152.39 32.43V128.4C152.39 128.63 152.2 128.82 151.97 128.82L151.98 128.83ZM33.8205 127.99H151.55V32.85H33.8205V127.99Z" fill="#0C133D"/>
<path d="M149.01 38.65C148.9 38.65 148.8 38.61 148.71 38.53L145.16 34.98C145 34.82 145 34.55 145.16 34.39C145.32 34.23 145.59 34.23 145.75 34.39L149.3 37.94C149.46 38.1 149.46 38.37 149.3 38.53C149.22 38.61 149.11 38.65 149 38.65H149.01Z" fill="#0C133D"/>
<path d="M145.47 38.65C145.36 38.65 145.26 38.61 145.17 38.53C145.01 38.37 145.01 38.1 145.17 37.94L148.72 34.39C148.88 34.23 149.15 34.23 149.31 34.39C149.47 34.55 149.47 34.82 149.31 34.98L145.76 38.53C145.68 38.61 145.57 38.65 145.46 38.65H145.47Z" fill="#0C133D"/>
<path d="M118.24 92.7199H64.7496C56.1096 92.7199 49.0996 85.7099 49.0996 77.0699C49.0996 68.4299 56.1096 61.4199 64.7496 61.4199H118.24C126.88 61.4199 133.89 68.4299 133.89 77.0699C133.89 85.7099 126.88 92.7199 118.24 92.7199Z" fill="white"/>
<path d="M118.24 93.14H64.7497C55.8897 93.14 48.6797 85.93 48.6797 77.07C48.6797 68.21 55.8897 61 64.7497 61H118.24C127.1 61 134.31 68.21 134.31 77.07C134.31 85.93 127.1 93.14 118.24 93.14ZM64.7397 61.84C56.3397 61.84 49.5097 68.67 49.5097 77.07C49.5097 85.47 56.3397 92.3 64.7397 92.3H118.23C126.63 92.3 133.46 85.47 133.46 77.07C133.46 68.67 126.63 61.84 118.23 61.84H64.7397Z" fill="#0C133D"/>
<path d="M66.79 70.85C66.79 70.35 66.97 69.92 67.33 69.56C67.69 69.2 68.12 69.02 68.62 69.02H72.76C73.53 69.02 74.26 69.17 74.94 69.46C75.63 69.75 76.22 70.16 76.73 70.67C77.24 71.18 77.64 71.78 77.94 72.47C78.23 73.16 78.38 73.89 78.38 74.67C78.38 75.45 78.23 76.19 77.94 76.86C77.65 77.54 77.24 78.13 76.73 78.64C76.22 79.15 75.62 79.55 74.94 79.85C74.25 80.14 73.53 80.29 72.76 80.29H70.47V82.91C70.47 83.43 70.29 83.87 69.93 84.22C69.57 84.58 69.14 84.76 68.62 84.76C68.1 84.76 67.69 84.58 67.33 84.22C66.97 83.86 66.79 83.43 66.79 82.91V70.84V70.85ZM70.46 72.42V76.89H72.48C72.79 76.89 73.08 76.83 73.35 76.71C73.62 76.59 73.86 76.43 74.05 76.23C74.25 76.03 74.4 75.79 74.52 75.53C74.64 75.26 74.7 74.98 74.7 74.67C74.7 74.36 74.64 74.07 74.52 73.8C74.4 73.53 74.24 73.29 74.05 73.09C73.85 72.89 73.62 72.73 73.35 72.61C73.08 72.49 72.79 72.43 72.48 72.43H70.46V72.42Z" fill="#FFB743"/>
<path d="M83.4398 81.37H88.1398C88.5998 81.37 88.9998 81.53 89.3398 81.86C89.6798 82.19 89.8398 82.59 89.8398 83.07C89.8398 83.55 89.6698 83.95 89.3398 84.28C88.9998 84.61 88.6098 84.77 88.1398 84.77H81.5898C81.0898 84.77 80.6598 84.59 80.2998 84.23C79.9398 83.87 79.7598 83.44 79.7598 82.94V70.85C79.7598 70.35 79.9398 69.92 80.2998 69.56C80.6598 69.2 81.0898 69.02 81.5898 69.02C82.0898 69.02 82.5498 69.2 82.8998 69.56C83.2598 69.92 83.4398 70.35 83.4398 70.85V81.37Z" fill="#FFB743"/>
<path d="M101.01 81.91H94.5601L93.8001 83.69C93.6601 84.03 93.4401 84.29 93.1301 84.48C92.8201 84.67 92.4901 84.76 92.1401 84.76C91.9701 84.76 91.7801 84.73 91.5701 84.67C91.3601 84.61 91.1601 84.5 90.9801 84.35C90.8001 84.2 90.6401 84.01 90.5201 83.78C90.3901 83.55 90.3301 83.27 90.3301 82.93C90.3301 82.69 90.3901 82.45 90.5001 82.2L96.0801 69.88C96.4301 69.12 97.0101 68.75 97.8201 68.75C98.6301 68.75 99.2401 69.13 99.5601 69.88L105.04 82.2C105.14 82.44 105.19 82.68 105.19 82.93C105.19 83.45 105.01 83.88 104.67 84.23C104.32 84.58 103.89 84.75 103.39 84.75C103.04 84.75 102.71 84.66 102.4 84.47C102.09 84.28 101.87 84.02 101.73 83.68L101 81.9L101.01 81.91ZM95.9101 78.76H99.7301L97.8401 74.16L95.9101 78.76Z" fill="#FFB743"/>
<path d="M111.49 78.26V82.92C111.49 83.44 111.31 83.88 110.94 84.23C110.58 84.59 110.14 84.77 109.64 84.77C109.14 84.77 108.71 84.59 108.35 84.23C107.99 83.87 107.81 83.44 107.81 82.92V78.26L103.4 71.9C103.19 71.59 103.08 71.25 103.08 70.87C103.08 70.58 103.14 70.31 103.25 70.08C103.36 69.85 103.51 69.65 103.68 69.49C103.85 69.33 104.05 69.21 104.27 69.13C104.49 69.05 104.7 69.01 104.91 69.01C105.2 69.01 105.48 69.08 105.75 69.21C106.02 69.34 106.24 69.54 106.42 69.81L109.63 74.43L112.84 69.81C113.02 69.54 113.25 69.35 113.51 69.21C113.78 69.08 114.06 69.01 114.35 69.01C114.56 69.01 114.77 69.05 114.99 69.13C115.21 69.21 115.4 69.33 115.58 69.49C115.76 69.65 115.9 69.85 116.01 70.08C116.12 70.31 116.18 70.57 116.18 70.87C116.18 71.25 116.08 71.59 115.87 71.9L111.48 78.26H111.49Z" fill="#FFB743"/>
<path d="M180.09 117.13C176.72 105.18 171.28 95.31 165.64 91.35C160 87.39 149.88 89.26 149.88 89.26C149.88 89.26 141.11 83.51 130.69 74.38C120.27 65.25 115.42 67.43 112.68 70.12C109.95 72.81 108.37 78.66 112.65 82.86C116.01 86.15 123.4 92.23 126.44 94.7C124 94.77 121.49 95.65 119.72 98.04C118.1 100.24 118.09 102.41 118.41 103.9C116.59 104.24 114.87 105.18 113.48 107.1C111.87 109.32 112.08 111.91 113.01 114.33C113.01 114.33 109.27 113.81 107.26 117.66C104.83 122.3 107.8 126.18 113.37 130.89C116.61 133.63 139.68 152.13 157.39 164.48C168.18 172 182.89 170.31 191.68 160.52C202.44 148.55 199.89 129.79 186.33 121.12L180.07 117.12L180.09 117.13Z" fill="white"/>
<path d="M172.29 169.58C167.03 169.58 161.75 168.03 157.17 164.83C139.37 152.42 116 133.66 113.12 131.21C107.55 126.49 104.36 122.35 106.91 117.47C108.52 114.4 111.2 113.94 112.43 113.9C111.52 111.15 111.76 108.79 113.16 106.86C114.4 105.15 116.01 104.05 117.94 103.59C117.7 102.07 117.82 99.9501 119.4 97.8001C120.83 95.8501 122.88 94.6801 125.38 94.3701C121.99 91.6001 115.48 86.2101 112.38 83.1701C110.57 81.3901 109.61 79.1601 109.6 76.7201C109.6 74.1801 110.67 71.5401 112.4 69.8401C115.18 67.1101 120.12 64.5701 130.98 74.0801C140.55 82.4701 148.83 88.0601 149.98 88.8301C151.38 88.5901 160.51 87.2401 165.89 91.0201C171.55 95.0001 176.99 104.66 180.46 116.88L186.59 120.8C193.16 125 197.53 131.83 198.57 139.56C199.62 147.28 197.23 155.04 192.02 160.83C186.83 166.6 179.6 169.6 172.3 169.6L172.29 169.58ZM112.55 114.72C111.57 114.72 109.13 115.02 107.65 117.85C105.34 122.26 108.24 125.98 113.66 130.57C116.55 133.01 139.87 151.74 157.65 164.14C168.25 171.53 182.75 169.85 191.39 160.25C196.44 154.64 198.75 147.13 197.73 139.65C196.71 132.17 192.49 125.55 186.13 121.49L179.87 117.49C179.78 117.43 179.72 117.35 179.69 117.25C176.33 105.32 170.85 95.5201 165.41 91.7001C159.98 87.8901 150.07 89.6601 149.97 89.6801C149.86 89.7001 149.75 89.6801 149.66 89.6201C149.57 89.5601 140.75 83.7501 130.43 74.7101C120.1 65.6601 115.53 67.9401 112.99 70.4301C111.41 71.9801 110.44 74.3901 110.44 76.7101C110.44 78.9201 111.32 80.9401 112.97 82.5601C116.31 85.8401 123.7 91.9101 126.73 94.3701C126.87 94.4801 126.92 94.6601 126.86 94.8301C126.8 95.0001 126.65 95.1101 126.47 95.1101C124.58 95.1601 121.94 95.7601 120.08 98.2801C118.53 100.38 118.55 102.45 118.84 103.81C118.86 103.92 118.84 104.04 118.78 104.13C118.72 104.22 118.62 104.29 118.51 104.31C116.59 104.67 115.06 105.66 113.84 107.34C112.52 109.16 112.38 111.46 113.42 114.18C113.47 114.32 113.45 114.47 113.36 114.59C113.27 114.71 113.12 114.77 112.98 114.75C112.95 114.75 112.8 114.73 112.56 114.73L112.55 114.72Z" fill="#0C133D"/>
<path d="M186.67 121.34C189.43 131.19 187.33 142.27 179.85 150.6C172.57 158.69 161.91 162.15 151.76 160.54C153.69 161.89 155.58 163.21 157.41 164.48C168.2 172 182.91 170.31 191.7 160.52C202.37 148.65 199.95 130.09 186.67 121.33V121.34Z" fill="#0C133D"/>
<path d="M160.01 96.4901C159.93 96.4901 159.85 96.4701 159.78 96.4201L149.66 89.6101C149.47 89.4801 149.42 89.2201 149.55 89.0301C149.68 88.8401 149.94 88.7901 150.13 88.9201L160.25 95.7301C160.44 95.8601 160.49 96.1201 160.36 96.3101C160.28 96.4301 160.15 96.5001 160.01 96.5001V96.4901Z" fill="#0C133D"/>
<path d="M123.22 121.76C123.14 121.76 123.06 121.74 122.98 121.69L112.78 114.68C112.59 114.55 112.54 114.29 112.67 114.1C112.8 113.91 113.06 113.86 113.25 113.99L123.45 121C123.64 121.13 123.69 121.39 123.56 121.58C123.48 121.7 123.35 121.76 123.21 121.76H123.22Z" fill="#0C133D"/>
<path d="M128.54 110.9C128.46 110.9 128.38 110.88 128.31 110.83L118.2 104.25C118.01 104.12 117.95 103.86 118.08 103.67C118.21 103.48 118.47 103.42 118.66 103.55L128.77 110.13C128.96 110.26 129.02 110.52 128.89 110.71C128.81 110.83 128.68 110.9 128.54 110.9Z" fill="#0C133D"/>
<path d="M136.25 101.68C136.17 101.68 136.09 101.66 136.02 101.61L126.23 95.05C126.04 94.92 125.99 94.66 126.12 94.47C126.25 94.28 126.51 94.23 126.7 94.36L136.49 100.92C136.68 101.05 136.73 101.31 136.61 101.5C136.53 101.62 136.4 101.69 136.26 101.69L136.25 101.68Z" fill="#0C133D"/>
<path d="M166.19 24.9799H154.22C153.99 24.9799 153.8 24.7899 153.8 24.5599V12.5899C153.8 12.3599 153.99 12.1699 154.22 12.1699H166.19C166.42 12.1699 166.61 12.3599 166.61 12.5899V24.5599C166.61 24.7899 166.42 24.9799 166.19 24.9799ZM154.64 24.1399H165.78V12.9999H154.64V24.1399Z" fill="#0C133D"/>
<path d="M175.52 22.1101H163.55V34.0801H175.52V22.1101Z" fill="#FFB743"/>
<path d="M63.3899 5.84985H0.419922V53.8499H63.3899V5.84985Z" fill="white"/>
<path d="M63.39 54.2699H0.42C0.19 54.2699 0 54.0799 0 53.8499V5.84993C0 5.61993 0.19 5.42993 0.42 5.42993H63.39C63.62 5.42993 63.81 5.61993 63.81 5.84993V53.8499C63.81 54.0799 63.62 54.2699 63.39 54.2699ZM0.84 53.4299H62.97V6.26993H0.84V53.4399V53.4299Z" fill="#0C133D"/>
<path d="M63.39 13.31H0.42C0.19 13.31 0 13.12 0 12.89C0 12.66 0.19 12.47 0.42 12.47H63.39C63.62 12.47 63.81 12.66 63.81 12.89C63.81 13.12 63.62 13.31 63.39 13.31Z" fill="#0C133D"/>
<path d="M44.89 20.5H25.86C24.2583 20.5 22.96 21.7984 22.96 23.4V42.43C22.96 44.0316 24.2583 45.33 25.86 45.33H44.89C46.4916 45.33 47.79 44.0316 47.79 42.43V23.4C47.79 21.7984 46.4916 20.5 44.89 20.5Z" fill="#FD5F2F"/>
<path d="M17.9498 26.86L12.4198 22.6C11.4698 21.87 10.0898 22.55 10.0898 23.75V42.07C10.0898 43.27 11.4698 43.95 12.4198 43.22L17.9498 38.96V26.86Z" fill="#0C133D"/>
<path d="M40.1395 31.47C40.9395 34.1 39.4495 36.88 36.8195 37.67C34.1895 38.47 31.4095 36.98 30.6195 34.35C29.8195 31.72 31.3095 28.94 33.9395 28.15C36.5695 27.35 39.3495 28.84 40.1395 31.47Z" fill="white"/>
<path d="M60.8495 11.0598C60.7395 11.0598 60.6395 11.0198 60.5495 10.9398L57.6395 8.02982C57.4795 7.86982 57.4795 7.59982 57.6395 7.43982C57.7995 7.27982 58.0695 7.27982 58.2295 7.43982L61.1395 10.3498C61.2995 10.5098 61.2995 10.7798 61.1395 10.9398C61.0595 11.0198 60.9495 11.0598 60.8395 11.0598H60.8495Z" fill="#0C133D"/>
<path d="M57.9395 11.0598C57.8295 11.0598 57.7295 11.0198 57.6395 10.9398C57.4795 10.7798 57.4795 10.5098 57.6395 10.3498L60.5495 7.43982C60.7095 7.27982 60.9795 7.27982 61.1395 7.43982C61.2995 7.59982 61.2995 7.86982 61.1395 8.02982L58.2295 10.9398C58.1495 11.0198 58.0395 11.0598 57.9295 11.0598H57.9395Z" fill="#0C133D"/>
<path d="M92.66 13.4701C92.66 7.34012 87.69 2.37012 81.56 2.37012C75.43 2.37012 70.46 7.34012 70.46 13.4701C70.46 19.6001 75.43 24.5701 81.56 24.5701C87.69 24.5701 92.66 19.6001 92.66 13.4701Z" fill="#FFB743"/>
<path d="M172.01 74.4701C171.9 74.4701 171.8 74.4301 171.71 74.3501L165.89 68.5301C165.73 68.3701 165.73 68.1001 165.89 67.9401C166.05 67.7801 166.32 67.7801 166.48 67.9401L172.3 73.7601C172.46 73.9201 172.46 74.1901 172.3 74.3501C172.22 74.4301 172.11 74.4701 172 74.4701H172.01Z" fill="#0C133D"/>
<path d="M166.19 74.4701C166.08 74.4701 165.98 74.4301 165.89 74.3501C165.73 74.1901 165.73 73.9201 165.89 73.7601L171.71 67.9401C171.87 67.7801 172.14 67.7801 172.3 67.9401C172.46 68.1001 172.46 68.3701 172.3 68.5301L166.48 74.3501C166.4 74.4301 166.29 74.4701 166.18 74.4701H166.19Z" fill="#0C133D"/>
</g>
<defs>
<clipPath id="clip0_306_5088">
<rect width="198.81" height="169.58" fill="white"/>
</clipPath>
</defs>
</svg>
