<svg width="401" height="266" viewBox="0 0 401 266" fill="none" xmlns="http://www.w3.org/2000/svg">
<path d="M213.917 178.823C252.899 139.841 252.899 76.6387 213.917 37.6565C174.935 -1.32559 111.733 -1.32558 72.7504 37.6566C33.7683 76.6387 33.7683 139.841 72.7504 178.823C111.733 217.805 174.935 217.805 213.917 178.823Z" fill="#FFB743"/>
<path d="M102.37 181.04H23.3702C12.2702 181.04 4.90015 192.53 9.52015 202.62L38.2302 265.23H150.75L116.22 189.92C113.74 184.51 108.33 181.04 102.37 181.04Z" fill="#FD5F2F"/>
<path d="M106.84 166.2C107.15 164.88 107.19 163.47 106.92 162.05C105.88 156.61 100.62 153.04 95.1796 154.08C91.4896 154.79 88.6696 157.43 87.5496 160.75C86.0696 159.8 84.2396 159.39 82.3696 159.74C78.5096 160.48 75.9696 164.21 76.7096 168.07C76.8396 168.77 77.0796 169.43 77.3996 170.04C71.4896 172.84 67.9796 179.37 69.2596 186.09C70.7896 194.07 78.4896 199.3 86.4696 197.77C90.3596 197.03 93.5896 194.81 95.7096 191.82C97.0496 191.94 98.4396 191.89 99.8296 191.62C107.81 190.09 113.04 182.39 111.51 174.41C110.88 171.1 109.18 168.26 106.84 166.19V166.2Z" fill="#0C133D"/>
<path d="M145.04 172.82C143.9 166.89 138.17 162.99 132.24 164.13C126.31 165.27 122.41 171 123.55 176.93C124.69 182.86 130.42 186.76 136.35 185.62C142.28 184.48 146.18 178.75 145.04 172.82Z" fill="#0C133D"/>
<path d="M82.0097 174.53C77.6797 174.53 73.8097 171.45 72.9597 167.05C72.0097 162.06 75.2897 157.22 80.2797 156.27C85.2797 155.31 90.1097 158.6 91.0597 163.59C92.0097 168.58 88.7297 173.42 83.7397 174.37C83.1597 174.48 82.5797 174.54 81.9997 174.54L82.0097 174.53ZM82.0097 157.34C81.5097 157.34 81.0097 157.39 80.5097 157.48C76.1897 158.31 73.3497 162.49 74.1797 166.81C75.0097 171.13 79.1897 173.97 83.5097 173.14C87.8297 172.31 90.6697 168.13 89.8397 163.81C89.1097 160 85.7597 157.33 82.0097 157.33V157.34Z" fill="#0C133D"/>
<path d="M223.82 265.38C227.34 258.72 231.21 253.05 231.16 242.78C231.05 221.92 220.36 209.68 211.51 187.84L173.53 194.77C163.25 182.24 152.6 176.55 127.84 177.27L104.95 178.2C59.7405 179.57 55.0005 198.82 32.1505 235.46C25.0705 246.81 21.6705 256.96 21.2305 265.38H223.81H223.82Z" fill="#0C133D"/>
<path d="M87.5 266C87.34 266 87.19 265.94 87.07 265.83C86.82 265.59 86.82 265.2 87.05 264.95C92.38 259.41 94.72 252.73 94.74 252.67C94.85 252.35 95.21 252.17 95.53 252.28C95.85 252.39 96.03 252.74 95.92 253.07C95.82 253.35 93.48 260.07 87.95 265.81C87.83 265.94 87.67 266 87.5 266Z" fill="white"/>
<path d="M127.841 177.26L104.951 178.19C97.8206 178.41 91.7006 179.07 86.3506 180.17C91.2006 183.45 106.901 193.01 124.511 192.48C138.141 192.07 146.511 184.57 150.751 179.25C144.651 177.64 137.271 176.98 127.841 177.26Z" fill="white"/>
<path d="M316.83 15.96C316.83 6.87999 309.47 -0.480011 300.39 -0.480011C291.31 -0.480011 283.95 6.87999 283.95 15.96C283.95 25.04 291.31 32.4 300.39 32.4C309.47 32.4 316.83 25.04 316.83 15.96Z" fill="#FFB743"/>
<path d="M32.88 145.17C32.88 136.09 25.52 128.73 16.44 128.73C7.36 128.73 0 136.09 0 145.17C0 154.25 7.36 161.61 16.44 161.61C25.52 161.61 32.88 154.25 32.88 145.17Z" fill="#FFB743"/>
<path d="M223.82 266H21.2402C21.0702 266 20.9102 265.93 20.7902 265.81C20.6702 265.69 20.6102 265.52 20.6202 265.35C21.0902 256.38 24.8902 245.93 31.6302 235.13C34.6402 230.31 37.2802 225.87 39.8402 221.57C56.2802 193.98 65.3402 178.77 104.93 177.57L127.81 176.64C153.6 175.89 163.93 182.18 173.77 194.08L211.39 187.22C211.69 187.16 211.97 187.33 212.08 187.6C214.8 194.31 217.65 200.02 220.4 205.54C226.46 217.69 231.7 228.19 231.77 242.77C231.82 251.96 228.82 257.46 225.65 263.28C225.22 264.07 224.79 264.86 224.36 265.66C224.25 265.86 224.04 265.99 223.81 265.99L223.82 266ZM21.9002 264.76H223.45C223.82 264.06 224.2 263.38 224.57 262.69C227.66 257.01 230.59 251.64 230.54 242.78C230.46 228.49 225.29 218.11 219.3 206.09C216.6 200.68 213.81 195.08 211.13 188.53L173.65 195.37C173.42 195.41 173.2 195.33 173.06 195.15C163.4 183.38 153.34 177.14 127.87 177.88L104.99 178.81C66.0702 179.99 57.6602 194.1 40.9202 222.2C38.3602 226.5 35.7102 230.95 32.7002 235.78C26.2402 246.14 22.5202 256.14 21.9202 264.75L21.9002 264.76Z" fill="#0C133D"/>
<path d="M95.7305 152.13C97.9705 163.84 109.28 171.51 120.98 169.27C132.69 167.03 140.36 155.72 138.12 144.02C135.88 132.31 124.57 124.64 112.87 126.88C101.16 129.12 93.4905 140.43 95.7305 152.13Z" fill="#0C133D"/>
<path d="M370.11 20.31H198.51V147.18H370.11V20.31Z" fill="white"/>
<path d="M369.81 147.8H198.21C197.87 147.8 197.59 147.52 197.59 147.18V20.31C197.59 19.97 197.87 19.69 198.21 19.69H369.81C370.15 19.69 370.43 19.97 370.43 20.31V147.18C370.43 147.52 370.15 147.8 369.81 147.8ZM198.83 146.56H369.19V20.93H198.83V146.56Z" fill="#0C133D"/>
<path d="M369.81 33.82H198.21C197.87 33.82 197.59 33.54 197.59 33.2C197.59 32.86 197.87 32.58 198.21 32.58H369.81C370.15 32.58 370.43 32.86 370.43 33.2C370.43 33.54 370.15 33.82 369.81 33.82Z" fill="#0C133D"/>
<path d="M207.57 26.31C207.57 27.54 206.58 28.53 205.35 28.53C204.12 28.53 203.13 27.54 203.13 26.31C203.13 25.08 204.12 24.09 205.35 24.09C206.58 24.09 207.57 25.08 207.57 26.31Z" fill="#0C133D"/>
<path d="M224 26.31C224 27.54 223.01 28.53 221.78 28.53C220.55 28.53 219.56 27.54 219.56 26.31C219.56 25.08 220.55 24.09 221.78 24.09C223.01 24.09 224 25.08 224 26.31Z" fill="#FFB743"/>
<path d="M215.79 26.31C215.79 27.54 214.8 28.53 213.57 28.53C212.34 28.53 211.35 27.54 211.35 26.31C211.35 25.08 212.34 24.09 213.57 24.09C214.8 24.09 215.79 25.08 215.79 26.31Z" fill="#FD5F2F"/>
<path d="M328.549 63.31C330.599 75.05 322.749 86.23 310.999 88.28C299.259 90.33 288.079 82.48 286.029 70.73C283.979 58.99 291.829 47.81 303.579 45.76C315.319 43.71 326.499 51.56 328.549 63.31Z" fill="#0C133D"/>
<path d="M284.18 76.67C285.17 82.32 281.39 87.69 275.74 88.68C270.09 89.67 264.71 85.89 263.73 80.24C262.74 74.59 266.52 69.22 272.17 68.23C277.82 67.24 283.19 71.02 284.18 76.67Z" fill="#0C133D"/>
<path d="M351.709 101.626C363.154 95.0822 367.127 80.5 360.583 69.0556C354.039 57.6113 339.457 53.6385 328.013 60.1821C316.568 66.7258 312.596 81.3079 319.139 92.7523C325.683 104.197 340.265 108.169 351.709 101.626Z" fill="#0C133D"/>
<path d="M341.75 102.56C336.76 102.56 331.89 101.03 327.72 98.1C322.37 94.34 318.8 88.72 317.67 82.27C316.54 75.83 318 69.33 321.76 63.98C325.52 58.63 331.14 55.06 337.59 53.93C344.03 52.8 350.53 54.26 355.88 58.02C361.23 61.78 364.8 67.4 365.93 73.85C367.05 80.29 365.6 86.79 361.84 92.14C358.08 97.49 352.46 101.06 346.01 102.19C344.59 102.44 343.16 102.56 341.74 102.56H341.75ZM341.85 54.81C340.51 54.81 339.15 54.93 337.8 55.16C331.68 56.23 326.35 59.62 322.78 64.7C319.21 69.78 317.83 75.95 318.9 82.07C319.97 88.19 323.35 93.52 328.44 97.09C333.52 100.66 339.69 102.04 345.81 100.97C351.93 99.9 357.26 96.51 360.83 91.43C364.4 86.35 365.78 80.18 364.71 74.06C363.64 67.94 360.26 62.61 355.17 59.04C351.21 56.26 346.59 54.81 341.85 54.81Z" fill="#0C133D"/>
<path d="M318.53 73.35L260.58 82.65C240.47 85.88 225.45 102.88 224.73 123.23L224.1 147.18H369.8L369.1 109.51L360.51 93.88C352.25 78.86 335.45 70.64 318.52 73.36L318.53 73.35Z" fill="#0C133D"/>
<path d="M313.97 74.09L262.99 82.27C262.99 82.27 273.91 98.13 288.48 95.56C300.05 93.52 311.11 81.66 313.97 74.09Z" fill="white"/>
<path d="M369.81 147.8H224.11C223.94 147.8 223.78 147.73 223.67 147.61C223.55 147.49 223.49 147.33 223.49 147.16L224.12 123.21C224.85 102.61 240.15 85.3 260.49 82.04L299.58 75.77C299.91 75.72 300.24 75.95 300.29 76.28C300.34 76.62 300.11 76.94 299.78 76.99L260.69 83.26C240.93 86.43 226.07 103.25 225.36 123.25L224.75 146.56H369.18L368.5 109.67L359.99 94.18C359.79 93.81 359.58 93.45 359.37 93.09C359.2 92.79 359.29 92.41 359.59 92.24C359.89 92.06 360.27 92.16 360.44 92.46C360.66 92.83 360.87 93.21 361.08 93.58L369.67 109.21C369.72 109.3 369.74 109.4 369.75 109.5L370.45 147.17C370.45 147.34 370.39 147.5 370.27 147.62C370.15 147.74 369.99 147.81 369.83 147.81L369.81 147.8Z" fill="#0C133D"/>
<path d="M359.89 93.39C359.68 93.39 359.47 93.28 359.35 93.08C350.94 78.85 334.95 71.34 318.62 73.96L299.76 76.99C299.42 77.04 299.1 76.81 299.05 76.47C299 76.13 299.23 75.81 299.56 75.76L318.42 72.73C335.26 70.03 351.74 77.77 360.41 92.44C360.58 92.74 360.49 93.12 360.19 93.29C360.09 93.35 359.98 93.38 359.87 93.38L359.89 93.39Z" fill="white"/>
<path d="M334.46 147.09C334.18 147.09 333.93 146.9 333.86 146.62L321.98 100.57C321.89 100.24 322.09 99.9 322.43 99.81C322.76 99.73 323.1 99.92 323.19 100.26L335.07 146.31C335.16 146.64 334.96 146.98 334.62 147.07C334.57 147.08 334.52 147.09 334.46 147.09Z" fill="white"/>
<path d="M249.38 138.97C249.07 138.97 248.76 138.96 248.45 138.93C242.08 138.43 237.31 132.83 237.82 126.46C238.25 121.02 242.32 116.68 247.71 115.91C248.04 115.86 248.36 116.1 248.41 116.44C248.46 116.78 248.22 117.09 247.88 117.14C243.14 117.82 239.43 121.78 239.05 126.56C238.6 132.25 242.86 137.24 248.54 137.69C249.66 137.78 250.77 137.69 251.85 137.42C252.18 137.34 252.52 137.54 252.6 137.87C252.68 138.2 252.48 138.54 252.15 138.62C251.24 138.85 250.31 138.96 249.37 138.96L249.38 138.97Z" fill="white"/>
<path d="M253.81 147.8C253.52 147.8 253.26 147.59 253.2 147.3L251.4 138.15C251.33 137.81 251.55 137.49 251.89 137.42C252.23 137.35 252.55 137.57 252.62 137.91L254.42 147.06C254.49 147.4 254.27 147.72 253.93 147.79C253.89 147.79 253.85 147.8 253.81 147.8Z" fill="white"/>
<path d="M247.789 117.15C247.499 117.15 247.239 116.94 247.179 116.65L245.539 108.35C245.469 108.01 245.689 107.69 246.029 107.62C246.369 107.55 246.689 107.77 246.759 108.11L248.399 116.41C248.469 116.75 248.249 117.07 247.909 117.14C247.869 117.14 247.829 117.15 247.789 117.15Z" fill="white"/>
<path d="M299.41 44.18C301.46 55.92 293.61 67.1 281.86 69.15C270.12 71.2 258.94 63.35 256.89 51.6C254.84 39.86 262.69 28.68 274.44 26.63C286.18 24.58 297.36 32.43 299.41 44.18Z" fill="#0C133D"/>
<path d="M300.389 78.3L287.479 55.26L282.839 47.73C272.279 34.24 258.559 42.04 258.329 42.93C257.869 44.67 257.449 47.54 258.219 51.17C261.379 66.15 261.749 78.46 276.029 75.68L278.469 84.41L300.399 78.29L300.389 78.3Z" fill="white"/>
<path d="M277.689 82.28C277.419 82.28 277.169 82.1 277.089 81.83L275.569 76.39C271.639 77.06 268.569 76.61 266.209 75.01C261.609 71.9 260.229 64.77 258.639 56.51C258.319 54.82 257.979 53.08 257.599 51.29C256.809 47.56 257.229 44.6 257.719 42.76C257.949 41.91 260.929 40.33 264.299 39.64C268.479 38.78 276.519 38.65 283.319 47.34L287.999 54.93L299.449 75.37C299.619 75.67 299.509 76.05 299.209 76.22C298.909 76.39 298.529 76.28 298.359 75.98L286.919 55.56L282.289 48.05C278.389 43.08 273.619 40.52 268.149 40.5C268.129 40.5 268.109 40.5 268.089 40.5C263.099 40.5 259.379 42.69 258.879 43.18C258.439 44.89 258.079 47.61 258.799 51.04C259.179 52.83 259.519 54.59 259.839 56.28C261.379 64.27 262.709 71.17 266.889 73.99C269.079 75.47 272.019 75.82 275.889 75.07C276.209 75.01 276.519 75.2 276.609 75.51L278.279 81.49C278.369 81.82 278.179 82.16 277.849 82.26C277.789 82.28 277.739 82.28 277.679 82.28H277.689Z" fill="#0C133D"/>
<path d="M276.57 78.29C276.57 78.29 277.98 81.39 280.98 80.8C283.97 80.21 284.34 72.65 284.34 72.65L276.03 75.84L276.58 78.29H276.57Z" fill="#0C133D"/>
<path d="M290.22 51.23C290.75 54.25 288.73 57.13 285.7 57.66C282.67 58.19 279.8 56.17 279.27 53.14C278.74 50.12 280.76 47.24 283.79 46.71C286.81 46.18 289.69 48.2 290.22 51.23Z" fill="white"/>
<path d="M283.92 53.96C283.83 53.96 283.74 53.94 283.65 53.9C283.34 53.75 283.21 53.38 283.36 53.07L284.87 49.91C285.02 49.6 285.39 49.47 285.7 49.62C286.01 49.77 286.14 50.14 285.99 50.45L284.48 53.61C284.37 53.83 284.15 53.96 283.92 53.96Z" fill="#0C133D"/>
<path d="M261.059 56.77C261.259 57.48 261.989 57.89 262.689 57.69C263.399 57.49 263.809 56.76 263.609 56.06C263.409 55.35 262.679 54.94 261.979 55.14C261.269 55.34 260.859 56.07 261.059 56.77Z" fill="#0C133D"/>
<path d="M266.03 62.77C265.73 62.77 265.47 62.55 265.42 62.25L263.95 53.44C263.89 53.1 264.12 52.78 264.46 52.73C264.8 52.67 265.12 52.9 265.18 53.24L266.65 62.05C266.71 62.39 266.48 62.71 266.14 62.76C266.11 62.76 266.07 62.76 266.04 62.76L266.03 62.77Z" fill="#0C133D"/>
<path d="M276.02 76.3C275.75 76.3 275.5 76.12 275.42 75.85C275.33 75.52 275.52 75.18 275.85 75.08C280.35 73.83 284.04 72.36 284.08 72.34C284.4 72.21 284.76 72.37 284.89 72.69C285.02 73.01 284.86 73.37 284.54 73.5C284.5 73.52 280.75 75.01 276.19 76.28C276.13 76.3 276.08 76.3 276.02 76.3Z" fill="#0C133D"/>
<path d="M270.05 66.47C269.31 66.47 268.59 66.25 267.96 65.83C267.67 65.64 267.6 65.25 267.79 64.97L271.29 59.73C271.38 59.59 271.52 59.5 271.69 59.47C271.85 59.44 272.02 59.47 272.16 59.56C273.89 60.71 274.36 63.06 273.2 64.79C272.64 65.63 271.79 66.2 270.8 66.39C270.55 66.44 270.3 66.46 270.05 66.46V66.47ZM269.22 65.08C269.65 65.23 270.1 65.27 270.56 65.18C271.22 65.05 271.79 64.67 272.17 64.1C272.83 63.12 272.7 61.84 271.94 61L269.22 65.08Z" fill="#0C133D"/>
<path d="M273.59 53.18C273.7 53.9 273.21 54.58 272.48 54.7C271.76 54.81 271.08 54.32 270.96 53.59C270.85 52.87 271.34 52.19 272.07 52.07C272.79 51.96 273.47 52.45 273.59 53.18Z" fill="#0C133D"/>
<path d="M257.789 52.18C257.789 52.18 261.59 50.57 259.94 43.97C259.94 43.97 260.619 50.94 265.229 49.57C269.84 48.2 268.31 39.02 268.31 39.02C268.31 39.02 271.03 51.97 282.38 47.16C282.78 46.99 276.72 32.41 276.72 32.41L260.39 38.65C260.39 38.65 254.35 45.72 257.78 52.19L257.789 52.18Z" fill="#0C133D"/>
<path d="M293.6 58.36C293.6 58.36 284.75 56.41 283.14 44.15L278.14 45.44C278.14 45.44 278.14 62.97 294.33 63.97L293.6 58.37V58.36Z" fill="#0C133D"/>
<path d="M225.9 90.12H159.65V156.37H225.9V90.12Z" fill="white"/>
<path d="M221.83 106.87C221.83 112.04 217.64 116.23 212.47 116.23C207.3 116.23 203.11 112.04 203.11 106.87C203.11 101.7 207.3 97.51 212.47 97.51C217.64 97.51 221.83 101.7 221.83 106.87Z" fill="#FFB743"/>
<path d="M225.91 127.54C223.17 126.26 220 126.27 217.05 126.92C212.87 127.83 209.19 130.65 204.95 131.13C200.27 131.65 196.7 128.17 193.85 124.93C190.86 121.53 188.01 118.35 183.76 116.54C180.22 115.04 176.28 114.53 172.48 115.14C167.21 115.99 162.6 119.14 159.67 123.46V156.38H225.92V127.54H225.91Z" fill="#FD5F2F"/>
<path d="M225.91 157H159.66C159.32 157 159.04 156.72 159.04 156.38V90.13C159.04 89.79 159.32 89.51 159.66 89.51H225.91C226.25 89.51 226.53 89.79 226.53 90.13V156.38C226.53 156.72 226.25 157 225.91 157ZM160.27 155.75H225.28V90.74H160.27V155.75Z" fill="#0C133D"/>
<path d="M209.51 76.99C205.4 76.63 202.88 78.88 202.88 78.88C202.88 78.88 200.82 75.79 195.27 75.12C190.94 74.6 188.53 78.07 188.53 78.07C188.53 78.07 185.21 75.53 182.14 75.71C177.88 75.96 176.11 78.33 176.11 78.33C176.11 78.33 174.28 75.07 170.06 75.85C165.8 76.65 163.22 80.7 160.76 85.52C158 90.93 156.15 101.27 162.08 102.73C165.05 103.46 168.36 99.62 169.47 96.55C168.66 101.01 168.95 105.54 173.12 106.44C176.15 107.09 178.4 104.97 180.05 101.94C180.44 105.16 181.71 107.65 184.7 107.68C188.08 107.71 190.38 104.55 191.92 100.73C191.62 103.32 194.36 107.25 198.33 106.86C205.55 106.14 207.16 97.44 208.52 90H222.55C222.55 90 218.1 77.74 209.55 76.99H209.51Z" fill="white"/>
<path d="M184.73 108.29C184.73 108.29 184.69 108.29 184.67 108.29C182.85 108.27 180.63 107.41 179.7 103.65C177.79 106.44 175.53 107.58 172.96 107.03C170.72 106.55 168.32 104.83 168.47 99.66C166.81 101.98 164.32 103.92 161.91 103.32C160.27 102.92 159.06 101.89 158.33 100.28C156.54 96.37 157.96 89.6 160.19 85.22C162.53 80.65 165.2 76.11 169.92 75.23C173.28 74.61 175.29 76.35 176.15 77.36C177.01 76.58 178.9 75.27 182.09 75.08C184.66 74.92 187.33 76.49 188.4 77.21C189.29 76.2 191.67 74.05 195.34 74.49C199.78 75.03 202.11 77.05 202.98 78.01C203.96 77.34 206.28 76.07 209.56 76.36C218.41 77.13 222.91 89.26 223.1 89.77C223.17 89.96 223.14 90.17 223.02 90.34C222.9 90.51 222.71 90.6 222.51 90.6H209C207.66 97.9 205.87 106.71 198.35 107.46C196.45 107.65 194.63 106.96 193.22 105.52C192.47 104.76 191.9 103.84 191.57 102.9C189.73 106.47 187.44 108.27 184.72 108.27L184.73 108.29ZM180.02 101.31C180.02 101.31 180.1 101.31 180.14 101.32C180.4 101.37 180.61 101.59 180.64 101.86C181.06 105.33 182.38 107.03 184.68 107.05C184.69 107.05 184.71 107.05 184.72 107.05C187.34 107.05 189.56 104.84 191.31 100.49C191.43 100.2 191.74 100.04 192.04 100.12C192.34 100.2 192.54 100.49 192.5 100.79C192.36 101.98 193.01 103.53 194.11 104.65C194.77 105.32 196.19 106.43 198.23 106.22C204.99 105.54 206.52 97.21 207.87 89.86C207.92 89.57 208.18 89.35 208.48 89.35H221.58C220.41 86.63 216.24 78.18 209.44 77.58C205.66 77.25 203.3 79.29 203.28 79.31C203.15 79.43 202.97 79.49 202.79 79.46C202.61 79.44 202.45 79.34 202.35 79.19C202.33 79.16 200.35 76.32 195.18 75.7C191.29 75.23 189.11 78.26 189.02 78.39C188.92 78.53 188.77 78.62 188.61 78.65C188.44 78.68 188.27 78.63 188.14 78.53C188.11 78.51 184.96 76.14 182.16 76.3C178.27 76.53 176.65 78.59 176.58 78.68C176.45 78.85 176.25 78.94 176.04 78.92C175.83 78.91 175.64 78.79 175.54 78.61C175.47 78.49 173.86 75.75 170.14 76.44C166.38 77.14 163.96 80.53 161.28 85.78C159.15 89.96 157.88 96.33 159.44 99.75C160.02 101.02 160.92 101.79 162.19 102.1C164.77 102.73 167.84 99.09 168.84 96.31C168.95 96.01 169.27 95.84 169.59 95.92C169.9 96 170.1 96.31 170.04 96.63C169.05 102.05 170.12 105.14 173.2 105.8C175.56 106.3 177.66 104.9 179.45 101.61C179.56 101.41 179.77 101.29 180 101.29L180.02 101.31Z" fill="#0C133D"/>
<path d="M169.449 97.17C169.449 97.17 169.369 97.17 169.329 97.16C168.989 97.1 168.769 96.77 168.829 96.43C170.709 86.5 175.499 78.1 175.549 78.02C175.719 77.72 176.099 77.62 176.399 77.79C176.699 77.96 176.799 78.34 176.629 78.64C176.579 78.72 171.889 86.95 170.049 96.67C169.989 96.97 169.729 97.18 169.439 97.18L169.449 97.17Z" fill="#0C133D"/>
<path d="M180.02 102.56C180.02 102.56 179.97 102.56 179.95 102.56C179.61 102.52 179.36 102.21 179.4 101.87C181.3 85.48 187.78 77.97 188.06 77.66C188.29 77.4 188.68 77.38 188.94 77.6C189.2 77.83 189.22 78.22 189 78.48C188.94 78.55 182.5 86.05 180.64 102.02C180.6 102.34 180.34 102.57 180.02 102.57V102.56Z" fill="#0C133D"/>
<path d="M191.9 101.35C191.9 101.35 191.84 101.35 191.81 101.35C191.47 101.3 191.23 100.99 191.28 100.65C193.6 84.25 202.19 78.59 202.55 78.36C202.84 78.18 203.22 78.26 203.41 78.55C203.6 78.84 203.51 79.22 203.22 79.41C203.14 79.46 194.74 85.03 192.51 100.83C192.47 101.14 192.2 101.36 191.9 101.36V101.35Z" fill="#0C133D"/>
<path d="M155.78 240.8C155.58 240.8 155.39 240.71 155.27 240.53C155.07 240.25 155.14 239.86 155.42 239.66C159.94 236.5 162.63 231.33 162.63 225.83C162.63 218.98 158.54 212.85 152.2 210.24C151.88 210.11 151.73 209.75 151.86 209.43C151.99 209.11 152.36 208.96 152.67 209.09C159.47 211.9 163.87 218.47 163.87 225.83C163.87 231.74 160.98 237.29 156.13 240.68C156.02 240.76 155.9 240.79 155.77 240.79L155.78 240.8Z" fill="#0C133D"/>
<path d="M152.44 210.3C152.1 210.3 151.82 210.02 151.82 209.68V201.61C151.82 201.27 152.1 200.99 152.44 200.99C152.78 200.99 153.06 201.27 153.06 201.61V209.68C153.06 210.02 152.78 210.3 152.44 210.3Z" fill="#0C133D"/>
<path d="M158.61 258.42C158.31 258.42 158.05 258.2 158 257.9L155.16 240.28C155.11 239.94 155.34 239.62 155.67 239.57C156.01 239.51 156.33 239.75 156.38 240.08L159.22 257.7C159.27 258.04 159.04 258.36 158.71 258.41C158.68 258.41 158.64 258.41 158.61 258.41V258.42Z" fill="#0C133D"/>
<path d="M32.1602 245.74C31.9902 245.74 31.8302 245.67 31.7102 245.54C31.4802 245.29 31.4902 244.9 31.7402 244.66C48.6502 228.81 77.6902 229.24 77.9902 229.24C78.3302 229.24 78.6102 229.53 78.6002 229.87C78.6002 230.21 78.3002 230.46 77.9702 230.48C77.7002 230.47 49.1302 230.06 32.6002 245.56C32.4802 245.67 32.3302 245.73 32.1802 245.73L32.1602 245.74Z" fill="white"/>
<path d="M78.7001 236.08C78.3601 236.08 78.0801 235.8 78.0801 235.46V201.62C78.0801 201.28 78.3601 201 78.7001 201C79.0401 201 79.3201 201.28 79.3201 201.62V235.46C79.3201 235.8 79.0401 236.08 78.7001 236.08Z" fill="white"/>
<path d="M108.16 179.9L109.04 165.9C117.85 162.17 112.08 151.65 112.08 151.65C124.01 150.75 128.84 135.38 129.54 132.24C130.58 132.87 135.47 135.41 136.56 139.98C140.08 154.7 145.86 168.99 129.94 171.66L129.54 180.58L108.16 179.9Z" fill="white"/>
<path d="M129.54 181.21C129.17 181.19 128.9 180.9 128.92 180.56L129.32 171.64C129.33 171.35 129.55 171.1 129.84 171.06C133.98 170.37 136.75 168.86 138.31 166.45C141.45 161.63 139.38 153.59 137.19 145.08C136.77 143.45 136.34 141.79 135.95 140.13C135.08 136.5 131.58 134.18 129.93 133.19C128.94 136.73 124.35 150.63 113.02 152.17C113.8 153.9 115.33 158.03 114.07 161.66C113.36 163.72 111.86 165.28 109.63 166.31L109.09 174.9C109.07 175.24 108.8 175.5 108.43 175.48C108.09 175.46 107.83 175.16 107.85 174.82L108.41 165.86C108.42 165.62 108.57 165.42 108.79 165.33C110.88 164.45 112.26 163.08 112.89 161.26C114.32 157.15 111.55 152 111.53 151.95C111.43 151.76 111.43 151.54 111.53 151.36C111.63 151.18 111.82 151.05 112.03 151.04C122.59 150.24 127.81 137.11 128.93 132.11C128.97 131.91 129.11 131.75 129.29 131.67C129.47 131.59 129.68 131.61 129.86 131.71L130.12 131.87C131.59 132.73 136.08 135.34 137.16 139.85C137.55 141.5 137.98 143.15 138.4 144.78C140.66 153.56 142.79 161.85 139.36 167.13C137.66 169.74 134.77 171.4 130.54 172.2L130.16 180.62C130.14 180.95 129.87 181.21 129.54 181.21Z" fill="#0C133D"/>
<path d="M108.16 179.72C107.78 179.7 107.52 179.4 107.54 179.06L108.46 165.28C108.48 164.94 108.78 164.68 109.12 164.7C109.46 164.72 109.72 165.02 109.7 165.36L108.78 179.14C108.76 179.47 108.48 179.72 108.16 179.72Z" fill="#0C133D"/>
<path d="M127.82 172.38C124.27 172.38 121.71 171.67 121.59 171.64C121.26 171.55 121.07 171.2 121.16 170.87C121.25 170.54 121.6 170.35 121.93 170.44C121.97 170.44 125.5 171.42 129.9 171.05C130.26 171.02 130.54 171.27 130.57 171.62C130.6 171.96 130.34 172.26 130 172.29C129.25 172.35 128.52 172.38 127.83 172.38H127.82Z" fill="#0C133D"/>
<path d="M129.571 178.07C129.571 178.07 127.951 179.96 125.081 178.3C122.211 176.64 121.091 170.78 121.091 170.78L129.951 171.67L129.581 178.07H129.571Z" fill="#0C133D"/>
<path d="M134.011 158.78C131.701 158.78 130.361 156.64 130.301 156.54C130.121 156.25 130.211 155.87 130.501 155.69C130.791 155.51 131.171 155.6 131.351 155.89C131.361 155.91 132.461 157.69 134.241 157.53C134.571 157.5 134.881 157.75 134.921 158.09C134.951 158.43 134.701 158.73 134.361 158.77C134.241 158.78 134.131 158.79 134.011 158.79V158.78Z" fill="#0C133D"/>
<path d="M106.33 156.77C107.59 159.57 110.88 160.81 113.68 159.55C116.48 158.29 117.72 155 116.46 152.2C115.2 149.4 111.91 148.16 109.11 149.42C106.31 150.68 105.07 153.97 106.33 156.77Z" fill="white"/>
<path d="M112.731 155.59C112.621 155.59 112.521 155.56 112.421 155.51L109.391 153.75C109.091 153.58 108.991 153.2 109.161 152.9C109.331 152.6 109.711 152.5 110.011 152.67L113.041 154.43C113.341 154.6 113.441 154.98 113.271 155.28C113.151 155.48 112.951 155.59 112.731 155.59Z" fill="#0C133D"/>
<path d="M135.621 154.71C135.381 154.71 135.141 154.57 135.051 154.33L131.331 145.32C131.201 145 131.351 144.64 131.671 144.51C131.981 144.38 132.351 144.53 132.481 144.85L136.201 153.86C136.331 154.18 136.181 154.54 135.861 154.67C135.781 154.7 135.701 154.72 135.621 154.72V154.71Z" fill="#0C133D"/>
<path d="M124.05 149.54C124.32 150.22 125.09 150.55 125.77 150.28C126.45 150.01 126.78 149.24 126.51 148.56C126.24 147.88 125.47 147.55 124.79 147.82C124.11 148.09 123.78 148.86 124.05 149.54Z" fill="#0C133D"/>
<path d="M134.23 147.23C134.5 147.91 135.27 148.24 135.95 147.97C136.63 147.7 136.96 146.93 136.69 146.25C136.42 145.57 135.65 145.24 134.97 145.51C134.29 145.78 133.96 146.55 134.23 147.23Z" fill="#0C133D"/>
<path d="M95.3408 148.07V169.66H102.731V146.74L95.3408 148.07Z" fill="#0C133D"/>
<path d="M312.19 218.4V242.3C312.19 251.12 314.69 259.13 318.77 265.04H353.15C357.22 259.13 359.73 251.12 359.73 242.3V218.4H312.2H312.19Z" fill="#FD5F2F"/>
<path d="M98.6009 174.85C99.6609 180.39 105.011 184.03 110.561 182.97C116.101 181.91 119.741 176.56 118.681 171.01C117.621 165.47 112.271 161.83 106.721 162.89C101.171 163.95 97.5409 169.3 98.6009 174.85Z" fill="#0C133D"/>
<path d="M130.82 211.46C121.76 209.68 109.34 212.05 104.22 213.59C99.1002 215.13 85.1002 228.17 85.1002 228.17L77.9602 229.86C68.9402 232 64.1502 241.88 68.0602 250.28C71.7102 258.13 81.3302 261.12 88.7902 256.72L95.3302 252.85C95.3302 252.85 102.4 254.76 104.26 256.24C106.95 258.39 112.83 264.17 117.23 260.89C123.81 255.97 108.15 243.97 108.15 243.97C108.15 243.97 112.73 244.82 115.18 246.3C117.63 247.78 124.26 257.19 131.13 251.91C134.31 249.47 129.25 244.05 129.25 244.05C130.51 245.65 134.62 246.48 136.52 244.5C142.44 238.37 121.05 223.12 121.05 223.12C121.05 223.12 124.14 221.77 126.59 222.71C129.04 223.65 134.7 235.33 141.32 231.29C147.94 227.24 136.3 212.53 130.8 211.45L130.82 211.46Z" fill="white"/>
<path d="M114.27 262.53C110.82 262.53 107.25 259.55 104.88 257.56C104.51 257.25 104.18 256.97 103.88 256.74C102.49 255.63 97.5303 254.11 95.4203 253.53L89.1003 257.26C85.4003 259.45 80.9203 259.97 76.8103 258.69C72.7003 257.41 69.3103 254.45 67.4903 250.55C65.5503 246.37 65.5903 241.6 67.6003 237.45C69.6103 233.3 73.3303 230.32 77.8203 229.26L84.8003 227.61C86.2803 226.24 99.0403 214.5 104.04 213C108.2 211.75 121.13 208.92 130.93 210.85C135.18 211.69 142.68 219.85 143.8 226.08C144.27 228.7 143.53 230.68 141.66 231.83C136.5 234.98 131.99 229.58 129.01 226C127.94 224.72 126.94 223.51 126.38 223.3C125.03 222.78 123.43 223.05 122.39 223.34C125.9 225.96 137.58 235.13 138.16 241.43C138.29 242.82 137.89 244.01 136.97 244.95C136.06 245.89 134.66 246.36 133.04 246.28C132.52 246.25 132 246.17 131.51 246.04C132.24 247.24 132.9 248.73 132.79 250.08C132.71 251.03 132.28 251.81 131.51 252.41C125.66 256.91 119.91 251.47 116.82 248.54C116.01 247.78 115.32 247.12 114.86 246.84C113.7 246.14 112.01 245.58 110.6 245.19C113.78 247.95 119.49 253.5 119.47 257.82C119.47 259.27 118.83 260.47 117.61 261.39C116.54 262.19 115.41 262.52 114.27 262.52V262.53ZM95.3403 252.24C95.3903 252.24 95.4503 252.24 95.5003 252.26C95.7903 252.34 102.71 254.22 104.66 255.77C104.96 256.01 105.3 256.3 105.68 256.61C108.55 259.01 113.36 263.03 116.87 260.41C117.78 259.73 118.23 258.88 118.23 257.83C118.26 252.58 107.89 244.57 107.78 244.49C107.55 244.32 107.47 244.01 107.59 243.74C107.71 243.48 107.99 243.33 108.27 243.38C108.46 243.42 112.99 244.26 115.51 245.79C116.08 246.14 116.79 246.8 117.68 247.65C120.89 250.69 125.75 255.29 130.75 251.43C131.24 251.05 131.5 250.58 131.55 249.99C131.7 248.21 129.92 245.77 129.01 244.72C128.92 244.63 128.84 244.55 128.77 244.45C128.56 244.19 128.6 243.81 128.85 243.59C129.1 243.37 129.48 243.39 129.71 243.64C129.73 243.66 129.8 243.74 129.91 243.86C130.56 244.5 131.83 244.97 133.1 245.04C133.84 245.07 135.19 245 136.08 244.08C136.74 243.39 137.02 242.56 136.92 241.53C136.3 234.83 120.85 223.74 120.7 223.63C120.52 223.5 120.42 223.28 120.44 223.06C120.46 222.84 120.6 222.64 120.81 222.56C120.95 222.5 124.16 221.12 126.83 222.14C127.69 222.47 128.65 223.62 129.97 225.2C132.84 228.64 136.77 233.36 141.01 230.76C142.43 229.89 142.95 228.39 142.58 226.29C141.58 220.69 134.43 212.79 130.69 212.06C122.2 210.39 110.06 212.47 104.39 214.18C99.4703 215.66 85.6503 228.49 85.5103 228.62C85.4303 228.69 85.3303 228.74 85.2303 228.77L78.0903 230.46C73.9703 231.44 70.5503 234.18 68.7103 237.99C66.8603 241.8 66.8303 246.18 68.6103 250.02C70.2703 253.6 73.3903 256.33 77.1703 257.5C80.9403 258.67 85.0603 258.19 88.4603 256.18L95.0003 252.31C95.1003 252.25 95.2103 252.22 95.3203 252.22L95.3403 252.24Z" fill="#0C133D"/>
<path d="M95.0704 116.07C94.7804 116.07 94.5204 115.86 94.4604 115.56C92.6504 105.83 98.7804 95.25 108.12 91.97C108.59 91.81 109.06 91.66 109.53 91.54C110.47 82.14 116.04 73.14 124.25 68.45C134.12 62.8 147.39 63.59 156.53 70.37C156.81 70.57 156.86 70.96 156.66 71.24C156.46 71.52 156.07 71.57 155.79 71.37C147.04 64.88 134.33 64.13 124.87 69.53C117.12 73.97 111.82 82.39 110.81 91.26C113.63 90.73 116.34 90.94 118.66 91.88C122.29 93.36 124.79 96.73 124.87 100.26C124.91 102.2 124.09 104.23 122.66 105.7C121.36 107.03 119.72 107.76 118.04 107.76C113.2 107.76 110.11 102.47 109.55 97.24C109.39 95.78 109.36 94.32 109.44 92.86C109.14 92.95 108.85 93.04 108.55 93.15C99.7604 96.23 94.0004 106.18 95.7004 115.34C95.7604 115.68 95.5404 116 95.2004 116.06C95.1604 116.06 95.1204 116.07 95.0904 116.07H95.0704ZM110.69 92.54C110.59 94.06 110.61 95.59 110.78 97.11C111.28 101.78 113.93 106.52 118.03 106.52C119.38 106.52 120.7 105.92 121.77 104.83C122.97 103.6 123.67 101.9 123.63 100.29C123.56 97.29 121.32 94.31 118.19 93.03C116 92.14 113.39 91.97 110.69 92.55V92.54Z" fill="#0C133D"/>
<path d="M121.071 223.76C120.961 223.76 120.851 223.73 120.741 223.67C120.691 223.64 115.941 220.7 114.291 219.88C113.981 219.73 113.861 219.35 114.011 219.05C114.161 218.74 114.531 218.62 114.841 218.77C116.541 219.62 121.191 222.5 121.391 222.62C121.681 222.8 121.771 223.18 121.591 223.48C121.471 223.67 121.271 223.77 121.061 223.77L121.071 223.76Z" fill="#0C133D"/>
<path d="M129.26 244.69C129.08 244.69 128.9 244.61 128.78 244.46C121.24 235.31 108.36 229.88 108.23 229.83C107.91 229.7 107.76 229.33 107.89 229.02C108.02 228.7 108.39 228.55 108.7 228.69C108.83 228.74 121.99 234.29 129.73 243.68C129.95 243.94 129.91 244.34 129.65 244.55C129.53 244.65 129.39 244.69 129.26 244.69Z" fill="#0C133D"/>
<path d="M108.161 244.61C108.021 244.61 107.881 244.56 107.761 244.47C105.311 242.42 100.331 240.79 100.281 240.77C99.951 240.66 99.771 240.31 99.881 239.99C99.981 239.66 100.341 239.49 100.661 239.59C100.871 239.66 105.921 241.31 108.551 243.52C108.811 243.74 108.851 244.13 108.631 244.4C108.511 244.55 108.331 244.62 108.151 244.62L108.161 244.61Z" fill="#0C133D"/>
<path d="M174.739 266C174.619 266 174.499 265.97 174.399 265.9C174.059 265.68 166.189 260.16 166.479 239.13C166.749 219.31 172.869 194.86 172.929 194.62C173.009 194.29 173.359 194.09 173.679 194.17C174.009 194.25 174.209 194.59 174.129 194.92C174.069 195.16 167.979 219.48 167.719 239.14C167.439 259.41 175.02 264.81 175.09 264.87C175.37 265.06 175.449 265.45 175.259 265.73C175.139 265.91 174.939 266 174.739 266Z" fill="white"/>
<path d="M245.661 149.59C243.281 147.58 240.871 147.69 238.621 148.89C241.141 144.34 242.141 140.02 238.401 138.35C233.361 136.11 229.481 140.35 226.811 145.32C227.881 140.47 227.511 136.26 222.521 135.63C217.511 134.99 214.931 141.55 212.571 147.12C213.301 142.87 212.351 138.75 208.301 138.35C201.311 137.66 196.311 156.17 196.311 156.17H183.931C176.401 156.17 170.541 162.7 171.341 170.19L173.521 194.76C174.451 205.25 183.591 213.08 194.101 212.39C206.381 211.58 214.811 199.69 211.501 187.83L208.191 175.97C208.191 175.97 216.351 175.92 227.981 168.97C240.461 161.51 251.991 154.96 245.641 149.58L245.661 149.59Z" fill="white"/>
<path d="M192.85 213.05C182.63 213.05 173.82 205.12 172.91 194.81L170.73 170.24C170.33 166.51 171.54 162.76 174.05 159.95C176.56 157.15 180.17 155.54 183.93 155.54H195.84C196.67 152.64 201.3 137.7 207.93 137.7C208.07 137.7 208.22 137.7 208.36 137.72C209.92 137.87 211.16 138.53 212.03 139.68C212.79 140.68 213.25 142.04 213.37 143.63C215.5 138.86 218.12 134.42 222.58 134.99C224.5 135.23 225.92 136 226.81 137.26C227.67 138.48 228.02 140.15 227.88 142.32C231.91 136.49 235.88 136.54 238.64 137.76C239.94 138.34 240.81 139.25 241.21 140.46C241.8 142.23 241.37 144.64 239.94 147.64C242.11 147 244.15 147.49 246.05 149.09C247.5 150.32 248.18 151.71 248.06 153.2C247.67 157.93 239.3 162.93 229.61 168.71L228.31 169.49C218.61 175.29 211.36 176.34 209 176.53L212.1 187.64C213.73 193.47 212.65 199.65 209.15 204.59C205.65 209.53 200.18 212.59 194.14 212.99C193.71 213.02 193.27 213.03 192.84 213.03L192.85 213.05ZM183.93 156.79C180.52 156.79 177.25 158.25 174.97 160.79C172.69 163.33 171.59 166.73 171.96 170.12L174.14 194.7C175.03 204.77 183.98 212.43 194.06 211.76C199.73 211.39 204.86 208.52 208.14 203.89C211.42 199.26 212.43 193.46 210.9 187.99L207.59 176.13C207.54 175.94 207.58 175.74 207.69 175.59C207.81 175.44 207.99 175.34 208.18 175.34C208.26 175.34 216.33 175.2 227.66 168.43L228.96 167.65C237.97 162.28 246.47 157.2 246.81 153.1C246.9 152.01 246.39 151.01 245.24 150.04C243.28 148.38 241.21 148.17 238.9 149.42C238.66 149.55 238.36 149.51 238.16 149.31C237.97 149.11 237.93 148.81 238.06 148.57C239.94 145.17 240.61 142.57 240.03 140.86C239.74 139.98 239.11 139.34 238.13 138.91C234.27 137.19 230.64 139.45 227.34 145.6C227.19 145.87 226.86 146 226.58 145.89C226.29 145.78 226.12 145.48 226.19 145.17C226.94 141.78 226.81 139.43 225.79 137.98C225.1 137 224 136.43 222.42 136.23C218.06 135.68 215.57 141.56 213.38 146.74L213.12 147.34C213 147.63 212.68 147.78 212.37 147.69C212.07 147.6 211.88 147.3 211.93 146.99C212.41 144.21 212.08 141.81 211.02 140.42C210.36 139.56 209.42 139.06 208.21 138.94C202.88 138.42 198.23 151.3 196.88 156.3C196.81 156.57 196.56 156.76 196.28 156.76H183.9L183.93 156.79Z" fill="#0C133D"/>
<path d="M226.671 169.03C226.561 169.03 226.451 169 226.351 168.94C226.061 168.76 225.961 168.38 226.141 168.09L238.091 148.57C238.271 148.28 238.651 148.18 238.941 148.36C239.231 148.54 239.331 148.92 239.151 149.21L227.201 168.73C227.081 168.92 226.881 169.03 226.671 169.03Z" fill="#0C133D"/>
<path d="M217.511 168.33C217.411 168.33 217.311 168.31 217.221 168.26C216.921 168.1 216.801 167.72 216.961 167.42C219.451 162.71 226.171 145.28 226.231 145.1C226.351 144.78 226.711 144.62 227.031 144.74C227.351 144.86 227.511 145.22 227.391 145.54C227.111 146.26 220.581 163.22 218.061 168C217.951 168.21 217.731 168.33 217.511 168.33Z" fill="#0C133D"/>
<path d="M205.801 169.03C205.801 169.03 205.711 169.03 205.661 169.02C205.321 168.95 205.111 168.61 205.191 168.28C206.031 164.48 211.731 147.64 211.971 146.92C212.081 146.59 212.441 146.42 212.761 146.53C213.081 146.64 213.261 146.99 213.151 147.32C213.091 147.49 207.231 164.82 206.401 168.55C206.341 168.84 206.081 169.04 205.791 169.04L205.801 169.03Z" fill="#0C133D"/>
<path d="M110.11 252.1H115.2C116.1 252.1 116.83 252.83 116.83 253.73V256.26H108.48V253.73C108.48 252.83 109.21 252.1 110.11 252.1Z" fill="#FFB743"/>
<path d="M116.83 256.88H108.48C108.14 256.88 107.86 256.6 107.86 256.26V253.03C107.86 252.17 108.56 251.48 109.41 251.48H115.9C116.76 251.48 117.45 252.18 117.45 253.03V256.26C117.45 256.6 117.17 256.88 116.83 256.88ZM109.1 255.64H116.21V253.03C116.21 252.86 116.07 252.72 115.9 252.72H109.41C109.24 252.72 109.1 252.86 109.1 253.03V255.64Z" fill="#0C133D"/>
<path d="M123.33 252.1H128.42C129.32 252.1 130.05 252.83 130.05 253.73V256.26H121.7V253.73C121.7 252.83 122.43 252.1 123.33 252.1Z" fill="#FFB743"/>
<path d="M130.05 256.88H121.7C121.36 256.88 121.08 256.6 121.08 256.26V253.03C121.08 252.17 121.78 251.48 122.63 251.48H129.12C129.98 251.48 130.67 252.18 130.67 253.03V256.26C130.67 256.6 130.39 256.88 130.05 256.88ZM122.32 255.64H129.43V253.03C129.43 252.86 129.29 252.72 129.12 252.72H122.63C122.46 252.72 122.32 252.86 122.32 253.03V255.64Z" fill="#0C133D"/>
<path d="M136.55 252.1H141.64C142.54 252.1 143.27 252.83 143.27 253.73V256.26H134.92V253.73C134.92 252.83 135.65 252.1 136.55 252.1Z" fill="#FFB743"/>
<path d="M143.271 256.88H134.921C134.581 256.88 134.301 256.6 134.301 256.26V253.03C134.301 252.17 135.001 251.48 135.851 251.48H142.341C143.201 251.48 143.891 252.18 143.891 253.03V256.26C143.891 256.6 143.611 256.88 143.271 256.88ZM135.541 255.64H142.651V253.03C142.651 252.86 142.511 252.72 142.341 252.72H135.851C135.681 252.72 135.541 252.86 135.541 253.03V255.64Z" fill="#0C133D"/>
<path d="M149.891 252.1H154.981C155.881 252.1 156.611 252.83 156.611 253.73V256.26H148.261V253.73C148.261 252.83 148.991 252.1 149.891 252.1Z" fill="#FFB743"/>
<path d="M156.611 256.88H148.261C147.921 256.88 147.641 256.6 147.641 256.26V253.03C147.641 252.17 148.341 251.48 149.191 251.48H155.681C156.541 251.48 157.231 252.18 157.231 253.03V256.26C157.231 256.6 156.951 256.88 156.611 256.88ZM148.881 255.64H155.991V253.03C155.991 252.86 155.851 252.72 155.681 252.72H149.191C149.021 252.72 148.881 252.86 148.881 253.03V255.64Z" fill="#0C133D"/>
<path d="M163.11 252.1H168.2C169.1 252.1 169.83 252.83 169.83 253.73V256.26H161.48V253.73C161.48 252.83 162.21 252.1 163.11 252.1Z" fill="#FFB743"/>
<path d="M169.83 256.88H161.48C161.14 256.88 160.86 256.6 160.86 256.26V253.03C160.86 252.17 161.56 251.48 162.41 251.48H168.9C169.76 251.48 170.45 252.18 170.45 253.03V256.26C170.45 256.6 170.17 256.88 169.83 256.88ZM162.1 255.64H169.21V253.03C169.21 252.86 169.07 252.72 168.9 252.72H162.41C162.24 252.72 162.1 252.86 162.1 253.03V255.64Z" fill="#0C133D"/>
<path d="M176.38 252.1H181.47C182.37 252.1 183.1 252.83 183.1 253.73V256.26H174.75V253.73C174.75 252.83 175.48 252.1 176.38 252.1Z" fill="#FFB743"/>
<path d="M183.1 256.88H174.75C174.41 256.88 174.13 256.6 174.13 256.26V253.03C174.13 252.17 174.83 251.48 175.68 251.48H182.17C183.03 251.48 183.72 252.18 183.72 253.03V256.26C183.72 256.6 183.44 256.88 183.1 256.88ZM175.37 255.64H182.48V253.03C182.48 252.86 182.34 252.72 182.17 252.72H175.68C175.51 252.72 175.37 252.86 175.37 253.03V255.64Z" fill="#0C133D"/>
<path d="M189.59 252.1H194.68C195.58 252.1 196.31 252.83 196.31 253.73V256.26H187.96V253.73C187.96 252.83 188.69 252.1 189.59 252.1Z" fill="#FFB743"/>
<path d="M196.321 256.88H187.971C187.631 256.88 187.351 256.6 187.351 256.26V253.03C187.351 252.17 188.051 251.48 188.901 251.48H195.391C196.251 251.48 196.941 252.18 196.941 253.03V256.26C196.941 256.6 196.661 256.88 196.321 256.88ZM188.591 255.64H195.701V253.03C195.701 252.86 195.561 252.72 195.391 252.72H188.901C188.731 252.72 188.591 252.86 188.591 253.03V255.64Z" fill="#0C133D"/>
<path d="M201.811 265.38H102.951C100.431 265.38 98.3906 263.34 98.3906 260.82C98.3906 258.3 100.431 256.26 102.951 256.26H201.811C204.331 256.26 206.371 258.3 206.371 260.82C206.371 263.34 204.331 265.38 201.811 265.38Z" fill="white"/>
<path d="M201.811 266H102.951C100.091 266 97.7705 263.68 97.7705 260.82C97.7705 257.96 100.091 255.64 102.951 255.64H201.811C204.671 255.64 206.991 257.96 206.991 260.82C206.991 263.68 204.671 266 201.811 266ZM102.951 256.88C100.781 256.88 99.0105 258.65 99.0105 260.82C99.0105 262.99 100.781 264.76 102.951 264.76H201.811C203.981 264.76 205.751 262.99 205.751 260.82C205.751 258.65 203.981 256.88 201.811 256.88H102.951Z" fill="#0C133D"/>
<path d="M278.541 165.8H202.401C191.095 165.8 181.931 174.965 181.931 186.27V222.31C181.931 233.615 191.095 242.78 202.401 242.78H278.541C289.846 242.78 299.011 233.615 299.011 222.31V186.27C299.011 174.965 289.846 165.8 278.541 165.8Z" fill="white"/>
<path d="M287.321 243.4H193.621C186.831 243.4 181.311 237.88 181.311 231.09V177.49C181.311 170.7 186.831 165.18 193.621 165.18H287.321C294.111 165.18 299.631 170.7 299.631 177.49V231.09C299.631 237.88 294.111 243.4 287.321 243.4ZM193.621 166.42C187.521 166.42 182.551 171.39 182.551 177.49V231.09C182.551 237.19 187.521 242.16 193.621 242.16H287.321C293.421 242.16 298.391 237.19 298.391 231.09V177.49C298.391 171.39 293.421 166.42 287.321 166.42H193.621Z" fill="#0C133D"/>
<path d="M283.941 256.26H271.881L257.211 203.06C255.601 197.2 250.271 193.15 244.191 193.15C235.271 193.15 228.801 201.64 231.171 210.24L243.861 256.27H207.361C204.841 256.27 202.801 258.31 202.801 260.83C202.801 263.35 204.841 265.39 207.361 265.39H283.931C286.451 265.39 288.491 263.35 288.491 260.83C288.491 258.31 286.451 256.27 283.931 256.27L283.941 256.26Z" fill="white"/>
<path d="M283.94 266H207.37C204.51 266 202.19 263.68 202.19 260.82C202.19 257.96 204.51 255.64 207.37 255.64H243.05L230.58 210.4C229.4 206.11 230.27 201.63 232.96 198.09C235.65 194.55 239.75 192.52 244.2 192.52C250.53 192.52 256.13 196.78 257.82 202.89L272.37 255.64H283.95C286.81 255.64 289.13 257.96 289.13 260.82C289.13 263.68 286.81 266 283.95 266H283.94ZM207.37 256.88C205.2 256.88 203.43 258.65 203.43 260.82C203.43 262.99 205.2 264.76 207.37 264.76H283.94C286.11 264.76 287.88 262.99 287.88 260.82C287.88 258.65 286.11 256.88 283.94 256.88H271.88C271.6 256.88 271.36 256.69 271.28 256.42L256.61 203.22C255.08 197.65 249.97 193.76 244.19 193.76C240.13 193.76 236.4 195.61 233.94 198.84C231.48 202.07 230.69 206.16 231.77 210.07L244.46 256.1C244.51 256.29 244.47 256.49 244.36 256.64C244.24 256.79 244.06 256.88 243.87 256.88H207.37Z" fill="#0C133D"/>
<path d="M271.881 256.88H243.871C243.531 256.88 243.251 256.6 243.251 256.26C243.251 255.92 243.531 255.64 243.871 255.64H271.881C272.221 255.64 272.501 255.92 272.501 256.26C272.501 256.6 272.221 256.88 271.881 256.88Z" fill="#0C133D"/>
<path d="M400.011 266H13.7909C13.4509 266 13.1709 265.72 13.1709 265.38C13.1709 265.04 13.4509 264.76 13.7909 264.76H400.001C400.341 264.76 400.621 265.04 400.621 265.38C400.621 265.72 400.341 266 400.001 266H400.011Z" fill="#0C133D"/>
<path d="M340.25 198.36C340.25 198.36 334.4 166.19 368.26 161.78C368.26 161.78 373.56 194.29 340.25 198.36Z" fill="white"/>
<path d="M340.25 198.99C339.95 198.99 339.69 198.78 339.64 198.48C339.54 197.9 337.16 184.21 345.1 173.34C350.01 166.62 357.77 162.53 368.18 161.18C368.51 161.14 368.82 161.36 368.87 161.7C368.97 162.29 371.15 176.36 362.97 187.26C358.05 193.81 350.43 197.76 340.33 199C340.3 199 340.28 199 340.25 199V198.99ZM367.73 162.49C357.98 163.88 350.71 167.77 346.11 174.06C339.39 183.26 340.43 194.95 340.78 197.67C350.23 196.4 357.36 192.64 361.97 186.51C368.91 177.28 368.04 165.29 367.73 162.49Z" fill="#0C133D"/>
<path d="M336.21 187.02C336.21 187.02 342.85 160.25 310.98 150.81C310.98 150.81 304.88 187.38 336.21 187.02Z" fill="#FFB743"/>
<path d="M333.031 207.99C333.031 207.99 333.511 187.38 308.101 188.1C308.101 188.1 309.061 209.19 333.031 207.99Z" fill="white"/>
<path d="M331.09 208.66C324.23 208.66 318.679 206.77 314.569 203.04C307.959 197.03 307.499 188.49 307.479 188.13C307.479 187.96 307.53 187.8 307.65 187.68C307.76 187.56 307.92 187.49 308.09 187.48C316.68 187.24 323.31 189.37 327.78 193.82C333.78 199.79 333.66 207.68 333.66 208.01C333.66 208.34 333.399 208.6 333.069 208.62C332.399 208.65 331.749 208.67 331.099 208.67L331.09 208.66ZM308.78 188.7C309.02 190.76 310.19 197.38 315.41 202.12C319.54 205.86 325.24 207.64 332.38 207.39C332.28 205.5 331.59 199.36 326.87 194.68C322.76 190.6 316.69 188.58 308.77 188.7H308.78Z" fill="#0C133D"/>
<path d="M336.211 219.02C335.871 219.02 335.591 218.74 335.591 218.4V187.21L310.471 151.16C310.271 150.88 310.341 150.49 310.621 150.3C310.901 150.1 311.291 150.17 311.491 150.45L336.721 186.66C336.791 186.76 336.831 186.89 336.831 187.02V218.4C336.831 218.74 336.551 219.02 336.211 219.02Z" fill="#0C133D"/>
<path d="M340.25 219.02C339.91 219.02 339.63 218.74 339.63 218.4V198.36C339.63 198.22 339.67 198.09 339.76 197.98L367.77 161.4C367.98 161.13 368.37 161.08 368.64 161.28C368.91 161.49 368.96 161.88 368.76 162.15L340.88 198.56V218.39C340.88 218.73 340.6 219.01 340.26 219.01L340.25 219.02Z" fill="#0C133D"/>
<path d="M333.03 219.02C332.69 219.02 332.41 218.74 332.41 218.4V208.29L307.72 188.58C307.45 188.37 307.41 187.98 307.62 187.71C307.84 187.44 308.23 187.4 308.49 187.61L333.42 207.5C333.57 207.62 333.65 207.8 333.65 207.99V218.4C333.65 218.74 333.37 219.02 333.03 219.02Z" fill="#0C133D"/>
<path d="M359.72 219.02H312.19C311.85 219.02 311.57 218.74 311.57 218.4C311.57 218.06 311.85 217.78 312.19 217.78H359.72C360.06 217.78 360.34 218.06 360.34 218.4C360.34 218.74 360.06 219.02 359.72 219.02Z" fill="#0C133D"/>
<path d="M83.1404 79.99C82.9804 79.99 82.8204 79.93 82.7004 79.81L74.0804 71.19C73.8404 70.95 73.8404 70.55 74.0804 70.31C74.3204 70.07 74.7204 70.07 74.9604 70.31L83.5804 78.93C83.8204 79.17 83.8204 79.57 83.5804 79.81C83.4604 79.93 83.3004 79.99 83.1404 79.99Z" fill="#0C133D"/>
<path d="M74.5204 79.99C74.3604 79.99 74.2004 79.93 74.0804 79.81C73.8404 79.57 73.8404 79.17 74.0804 78.93L82.7004 70.31C82.9404 70.07 83.3404 70.07 83.5804 70.31C83.8204 70.55 83.8204 70.95 83.5804 71.19L74.9604 79.81C74.8404 79.93 74.6804 79.99 74.5204 79.99Z" fill="#0C133D"/>
<path d="M171.271 53.96C166.661 53.96 162.921 50.21 162.921 45.61C162.921 41.01 166.671 37.26 171.271 37.26C175.871 37.26 179.621 41.01 179.621 45.61C179.621 50.21 175.871 53.96 171.271 53.96ZM171.271 38.5C167.351 38.5 164.161 41.69 164.161 45.61C164.161 49.53 167.351 52.72 171.271 52.72C175.191 52.72 178.381 49.53 178.381 45.61C178.381 41.69 175.191 38.5 171.271 38.5Z" fill="#0C133D"/>
</svg>
