<svg width="395" height="320" viewBox="0 0 395 320" fill="none" xmlns="http://www.w3.org/2000/svg">
<path d="M169.958 293.42H74.7183C74.7183 293.42 70.0883 304.13 68.2783 318.95H170.848L169.958 293.42Z" fill="white"/>
<path d="M170.839 319.67C170.449 319.67 170.129 319.36 170.119 318.97L169.249 294.14H75.1885C74.3185 296.29 70.5485 306.15 68.9885 319.03C68.9385 319.43 68.5685 319.7 68.1885 319.66C67.7885 319.61 67.5085 319.25 67.5585 318.86C69.3585 304.11 74.0085 293.24 74.0485 293.13C74.1585 292.87 74.4185 292.69 74.7085 292.69H169.949C170.339 292.69 170.659 293 170.669 293.39L171.559 318.92C171.569 319.32 171.259 319.65 170.859 319.67C170.859 319.67 170.839 319.67 170.829 319.67H170.839Z" fill="#0C133D"/>
<path d="M239.549 208.89L194.069 201.44C191.499 198.68 188.759 196.06 185.829 193.65C177.279 186.62 166.759 182.41 156.049 179.97C142.659 176.92 128.589 176.11 114.909 177.04C101.699 177.94 86.7786 180.38 75.8586 188.45C57.9186 201.72 48.0386 223.98 42.2386 244.79C35.5186 268.87 37.5686 306.17 82.9586 309.49C98.2086 310.61 113.029 303.26 125.979 293.02H169.869C194.779 312.77 221.999 314.73 238.569 296.69C259.819 273.56 239.549 208.86 239.549 208.86V208.89Z" fill="#0C133D"/>
<path d="M156.049 179.98C142.659 176.93 128.589 176.12 114.909 177.05C106.799 177.6 98.0485 178.74 89.9785 181.39C100.019 189.15 118.099 199.9 132.049 198.99C146.289 198.06 152.519 187.33 156.949 180.19C156.649 180.12 156.349 180.04 156.039 179.97L156.049 179.98Z" fill="white"/>
<path d="M86.0285 310.35C84.9785 310.35 83.9386 310.31 82.8986 310.24C66.0786 309.01 53.7985 303.06 46.4185 292.57C34.6185 275.8 39.0786 253.45 41.5386 244.62C48.9186 218.15 60.3186 199.06 75.4286 187.89C87.2686 179.13 103.599 177.1 114.859 176.34C129.379 175.35 143.289 176.34 156.209 179.28C168.379 182.05 178.499 186.7 186.289 193.1C189.059 195.38 191.799 197.96 194.429 200.77L239.669 208.18C239.939 208.22 240.159 208.42 240.239 208.68C241.069 211.34 260.379 274.05 239.099 297.21C222.469 315.32 195.209 313.96 169.619 293.77H126.229C112.249 304.78 98.7386 310.35 86.0386 310.35H86.0285ZM125.619 177.41C122.109 177.41 118.549 177.53 114.959 177.78C103.889 178.53 87.8286 180.52 76.2886 189.05C61.4486 200.03 50.2286 218.85 42.9286 245.01C37.9186 262.98 39.6585 280.45 47.5985 291.74C54.7185 301.86 66.6285 307.6 82.9986 308.8C96.2886 309.77 110.599 304.28 125.519 292.49C125.649 292.39 125.809 292.33 125.969 292.33H169.859C170.019 292.33 170.179 292.39 170.309 292.49C195.319 312.32 221.909 313.79 238.029 296.24C257.869 274.65 240.669 215.17 238.989 209.54L193.959 202.16C193.799 202.13 193.659 202.06 193.549 201.94C190.909 199.11 188.159 196.51 185.379 194.22C177.769 187.96 167.849 183.41 155.899 180.69C146.319 178.51 136.169 177.41 125.639 177.41H125.619Z" fill="#0C133D"/>
<path d="M169.859 293.77C169.459 293.77 169.139 293.45 169.139 293.05V257.36C169.139 256.96 169.459 256.64 169.859 256.64C170.259 256.64 170.579 256.96 170.579 257.36V293.05C170.579 293.45 170.259 293.77 169.859 293.77Z" fill="white"/>
<path d="M186.588 284.16C186.438 284.16 186.288 284.11 186.158 284.02C185.838 283.78 185.768 283.33 186.008 283.01C189.528 278.28 189.658 271.24 188.268 252.5C186.918 234.29 195.648 218.42 195.738 218.27C195.938 217.92 196.368 217.8 196.718 217.99C197.068 218.18 197.188 218.62 196.998 218.97C196.908 219.12 188.388 234.63 189.708 252.39C191.028 270.13 191.188 278.47 187.168 283.87C187.028 284.06 186.808 284.16 186.588 284.16Z" fill="white"/>
<path d="M254.109 12.64C236.949 15.38 220.279 21.69 205.359 31.61C202.329 33.63 199.329 35.61 196.459 37.9C158.839 67.93 150.769 120.45 171.749 162.81C177.879 175.19 186.499 186.39 197.339 195.01C202.449 199.08 207.859 202.38 213.999 204.64C225.799 208.98 238.509 207.78 249.379 201.34C256.449 197.15 262.169 191.05 268.689 186.04C279.509 177.73 292.889 177.38 305.839 179.61C319.289 181.92 331.909 185.04 345.469 181.6C357.599 178.52 368.779 171.67 377.109 162.34C396.579 140.54 399.469 109.28 388.389 82.74C370.219 39.22 322.669 12.49 276.689 11.18C274.009 11.1 271.329 11.11 268.639 11.21C263.759 11.39 258.919 11.88 254.099 12.65L254.109 12.64Z" fill="#FFB743"/>
<path d="M250.099 180.99C242.549 181.73 221.799 184.47 213.289 185.8C204.779 187.13 199.529 188.61 197.999 203.07C197.429 208.42 196.599 216 195.769 223.43C194.299 236.63 204.729 248.13 218.009 247.96C230.019 247.8 239.699 238.08 239.809 226.07L239.999 205.53C239.999 205.53 248.259 205.89 254.149 205.53C260.199 205.16 264.099 202.92 264.859 199.98C265.539 197.34 264.669 194.12 261.339 191.91C263.329 190.89 265.089 189.4 265.309 187.27C265.829 182.1 261.049 179.93 250.119 181L250.099 180.99Z" fill="white"/>
<path d="M217.719 248.68C211.289 248.68 205.149 245.96 200.819 241.19C196.429 236.35 194.329 229.84 195.049 223.34C195.879 215.91 196.709 208.33 197.279 202.98C198.829 188.35 204.319 186.46 213.179 185.08C221.549 183.78 242.389 181.02 250.029 180.27C257.499 179.54 262.239 180.29 264.519 182.57C265.709 183.77 266.219 185.37 266.019 187.33C265.839 189.15 264.709 190.71 262.659 191.98C265.679 194.48 266.169 197.77 265.549 200.15C264.679 203.53 260.329 205.87 254.189 206.25C249.359 206.55 242.889 206.36 240.709 206.28L240.529 226.08C240.419 238.38 230.319 248.52 218.019 248.68C217.919 248.68 217.819 248.68 217.719 248.68ZM255.049 181.45C253.589 181.45 251.959 181.54 250.169 181.71C242.549 182.46 221.749 185.21 213.399 186.51C205.009 187.82 200.189 189.24 198.719 203.14C198.149 208.49 197.319 216.08 196.489 223.51C195.809 229.6 197.779 235.69 201.889 240.22C205.999 244.76 211.829 247.3 217.999 247.23C229.519 247.08 238.979 237.58 239.089 226.06L239.279 205.52C239.279 205.32 239.359 205.14 239.509 205C239.649 204.87 239.839 204.79 240.039 204.8C240.119 204.8 248.329 205.16 254.109 204.8C259.599 204.46 263.449 202.54 264.159 199.79C264.869 197.04 263.669 194.31 260.939 192.5C260.729 192.36 260.599 192.11 260.619 191.86C260.629 191.6 260.779 191.37 261.009 191.26C263.219 190.13 264.429 188.76 264.589 187.19C264.749 185.66 264.389 184.49 263.509 183.6C262.089 182.17 259.249 181.45 255.069 181.45H255.049Z" fill="#0C133D"/>
<path d="M293.918 78.83V109.34C296.798 104.65 301.968 101.52 307.868 101.52C316.908 101.52 324.228 108.85 324.228 117.88C324.228 126.91 316.898 134.24 307.868 134.24C301.968 134.24 296.788 131.11 293.918 126.42V156.93H372.028V78.82H293.918V78.83Z" fill="white"/>
<path d="M372.028 157.67H293.918C293.518 157.67 293.198 157.35 293.198 156.95V126.44C293.198 126.12 293.408 125.83 293.728 125.74C294.038 125.65 294.368 125.78 294.538 126.06C297.408 130.74 302.398 133.53 307.878 133.53C316.498 133.53 323.518 126.51 323.518 117.89C323.518 109.27 316.498 102.25 307.878 102.25C302.398 102.25 297.408 105.04 294.538 109.72C294.368 110 294.038 110.13 293.728 110.04C293.418 109.95 293.198 109.67 293.198 109.34V78.83C293.198 78.43 293.518 78.11 293.918 78.11H372.028C372.428 78.11 372.748 78.43 372.748 78.83V156.94C372.748 157.34 372.428 157.66 372.028 157.66V157.67ZM294.638 156.22H371.308V79.55H294.638V107.07C297.868 103.11 302.658 100.8 307.868 100.8C317.288 100.8 324.958 108.47 324.958 117.89C324.958 127.31 317.298 134.98 307.868 134.98C302.658 134.98 297.858 132.67 294.638 128.71V156.23V156.22Z" fill="#0C133D"/>
<path d="M372.038 78.83V0.720032L293.928 0.720032V78.83H372.038Z" fill="#0C133D"/>
<path d="M308.298 23.41C302.098 23.41 296.698 26.86 293.918 31.95V0.719971H215.808V78.83H246.318C241.628 81.71 238.498 86.88 238.498 92.78C238.498 101.82 245.828 109.14 254.858 109.14C263.888 109.14 271.218 101.81 271.218 92.78C271.218 86.88 268.088 81.7 263.398 78.83H293.908V47.6C296.688 52.69 302.078 56.14 308.288 56.14C317.328 56.14 324.648 48.81 324.648 39.78C324.648 30.75 317.318 23.42 308.288 23.42L308.298 23.41Z" fill="white"/>
<path d="M254.868 109.88C245.448 109.88 237.778 102.21 237.778 92.79C237.778 87.58 240.088 82.78 244.048 79.56H215.808C215.408 79.56 215.088 79.24 215.088 78.84V0.72C215.088 0.32 215.408 0 215.808 0H293.918C294.318 0 294.638 0.32 294.638 0.72V29.5C297.838 25.25 302.878 22.69 308.288 22.69C317.708 22.69 325.378 30.36 325.378 39.78C325.378 49.2 317.718 56.87 308.288 56.87C302.868 56.87 297.838 54.31 294.638 50.06V78.84C294.638 79.24 294.318 79.56 293.918 79.56H265.678C269.638 82.79 271.948 87.58 271.948 92.79C271.948 102.21 264.288 109.88 254.858 109.88H254.868ZM216.528 78.11H246.318C246.638 78.11 246.928 78.32 247.018 78.64C247.108 78.95 246.978 79.28 246.698 79.45C242.018 82.32 239.228 87.31 239.228 92.79C239.228 101.41 246.248 108.43 254.868 108.43C263.488 108.43 270.508 101.41 270.508 92.79C270.508 87.31 267.718 82.32 263.038 79.45C262.758 79.28 262.628 78.95 262.718 78.64C262.808 78.33 263.088 78.11 263.418 78.11H293.208V47.6C293.208 47.27 293.428 46.98 293.748 46.9C294.068 46.82 294.398 46.96 294.558 47.25C297.308 52.29 302.568 55.41 308.298 55.41C316.918 55.41 323.938 48.39 323.938 39.77C323.938 31.15 316.918 24.13 308.298 24.13C302.568 24.13 297.308 27.26 294.558 32.29C294.398 32.58 294.068 32.73 293.748 32.64C293.428 32.56 293.208 32.27 293.208 31.94V1.45H216.538V78.12L216.528 78.11Z" fill="#0C133D"/>
<path d="M332.978 109.15C342.014 109.15 349.338 101.825 349.338 92.79C349.338 83.7546 342.014 76.43 332.978 76.43C323.943 76.43 316.618 83.7546 316.618 92.79C316.618 101.825 323.943 109.15 332.978 109.15Z" fill="#0C133D"/>
<path d="M149.588 131.79C147.458 122.6 134.258 121.29 134.258 121.29C134.098 121.25 132.458 112.68 132.248 111.95C130.278 104.94 127.118 98.08 121.908 92.88C116.158 87.14 108.288 86.32 100.778 84.5C97.3883 83.68 93.5383 83.05 91.7783 79.71C90.0583 76.45 90.4783 72.17 89.6483 68.64C87.8683 61.14 84.0583 53.9 78.3283 48.69C69.6983 40.85 57.5683 37.07 46.0083 37.73C30.0683 38.64 13.0183 48.85 8.36832 64.79C4.57832 77.81 9.91832 90.13 18.9683 99.5C21.1383 101.74 23.5083 103.79 26.0583 105.59C28.6383 107.41 32.0483 108.54 33.6283 111.45C35.7483 115.35 34.3383 120.23 34.5083 124.45C34.9083 134.54 42.1983 140.85 51.0783 144.27C55.5783 146 60.2983 147.09 65.0183 148.02C70.4783 149.09 76.8483 149.32 81.9783 151.4C82.7183 151.7 83.4283 152.08 84.0183 152.62C85.9983 154.44 85.8383 157.13 86.5483 159.5C87.3883 162.29 88.9483 164.86 91.0583 166.87C98.7083 174.16 109.848 176.46 119.998 173.48C125.478 171.87 130.818 168.76 134.898 164.58C139.778 159.59 145.508 144.9 145.508 144.9C149.108 141.69 150.688 136.54 149.578 131.74L149.588 131.79Z" fill="#0C133D"/>
<path d="M58.6087 146.8C58.6087 146.8 58.5187 146.8 58.4687 146.79C54.1887 145.95 49.1687 144.84 44.4087 143C33.7887 138.91 27.7387 131.64 27.3787 122.53C27.3287 121.2 27.4287 119.8 27.5287 118.44C27.7387 115.46 27.9687 112.37 26.5887 109.85C25.5687 107.97 23.6887 106.89 21.6987 105.75C20.8687 105.28 20.0187 104.79 19.2387 104.24C16.6987 102.45 14.2787 100.37 12.0487 98.06C1.58874 87.23 -2.24126 74.66 1.26874 62.64C6.20874 45.69 24.2687 35.93 39.5587 35.06C51.9787 34.35 65.3887 38.79 73.7287 46.37C74.0287 46.64 74.0487 47.1 73.7787 47.39C73.5087 47.69 73.0487 47.71 72.7587 47.44C64.6887 40.11 51.6987 35.81 39.6487 36.5C24.8687 37.34 7.41874 46.73 2.65874 63.04C-0.691257 74.53 3.00874 86.61 13.0887 97.05C15.2487 99.29 17.5987 101.31 20.0687 103.05C20.7887 103.56 21.5787 104.01 22.4087 104.49C24.4887 105.68 26.6387 106.91 27.8587 109.15C29.4287 112.04 29.1987 115.34 28.9687 118.53C28.8687 119.91 28.7787 121.21 28.8287 122.46C29.2587 133.35 37.8187 138.9 44.9387 141.64C49.5987 143.44 54.5387 144.53 58.7587 145.36C59.1487 145.44 59.4087 145.82 59.3287 146.21C59.2587 146.55 58.9587 146.79 58.6187 146.79L58.6087 146.8Z" fill="#0C133D"/>
<path d="M144.269 140.03C146.809 151.88 139.259 163.54 127.419 166.08C115.569 168.62 103.909 161.07 101.369 149.23C98.8288 137.38 106.379 125.72 118.219 123.18C130.069 120.64 141.729 128.19 144.269 140.03Z" fill="#0C133D"/>
<path d="M113.629 181.26L118.579 156.8L117.009 149.88C127.149 147.8 128.509 136.98 128.829 131.13C128.919 129.51 130.439 128.36 132.019 128.74C135.309 129.52 140.129 131 141.349 134.22C147.059 149.33 155.119 163.69 138.619 168.66L135.819 182.42L113.619 181.25L113.629 181.26Z" fill="white"/>
<path d="M136.748 178.64C136.748 178.64 136.648 178.64 136.608 178.63C136.218 178.55 135.968 178.17 136.048 177.78L137.928 168.53C137.978 168.27 138.168 168.06 138.428 167.98C142.698 166.69 145.418 164.73 146.748 161.99C149.408 156.48 146.138 148.26 142.678 139.56C142.008 137.89 141.338 136.19 140.688 134.49C139.468 131.26 133.748 129.9 131.858 129.45C131.318 129.32 130.748 129.44 130.308 129.77C129.858 130.1 129.588 130.62 129.558 131.18C129.328 135.31 128.648 147.71 117.878 150.44L119.288 156.65C119.308 156.75 119.308 156.85 119.288 156.95L115.218 177.07C115.138 177.46 114.758 177.72 114.368 177.64C113.978 177.56 113.728 177.18 113.808 176.79L117.848 156.82L116.318 150.06C116.278 149.87 116.318 149.67 116.418 149.51C116.528 149.35 116.688 149.23 116.878 149.19C123.858 147.76 127.528 141.84 128.118 131.1C128.168 130.11 128.658 129.21 129.448 128.62C130.238 128.03 131.238 127.82 132.198 128.05C135.778 128.9 140.698 130.44 142.038 133.98C142.678 135.68 143.348 137.37 144.018 139.03C147.598 148.03 150.988 156.54 148.048 162.62C146.578 165.66 143.708 167.82 139.258 169.24L137.458 178.07C137.388 178.41 137.088 178.65 136.748 178.65V178.64Z" fill="#0C133D"/>
<path d="M132.788 169.99C131.008 169.99 129.858 169.82 129.768 169.81C129.378 169.75 129.098 169.38 129.158 168.99C129.218 168.6 129.588 168.32 129.978 168.38C130.018 168.38 133.878 168.94 138.478 167.95C138.868 167.87 139.248 168.12 139.338 168.51C139.418 168.9 139.168 169.28 138.778 169.37C136.478 169.86 134.378 169.99 132.788 169.99Z" fill="#0C133D"/>
<path d="M137.048 176.54C137.048 176.54 136.088 177.59 132.838 176.22C129.578 174.85 129.868 169.11 129.868 169.11L138.628 168.67L137.048 176.54Z" fill="#0C133D"/>
<path d="M112.198 152.83C112.948 156.35 116.418 158.59 119.938 157.84C123.458 157.09 125.698 153.62 124.948 150.1C124.198 146.58 120.728 144.34 117.208 145.09C113.688 145.84 111.448 149.31 112.198 152.83Z" fill="white"/>
<path d="M119.988 153.08C119.818 153.08 119.638 153.02 119.498 152.89L116.468 150.12C116.178 149.85 116.148 149.39 116.418 149.1C116.688 148.8 117.148 148.78 117.438 149.05L120.468 151.82C120.758 152.09 120.788 152.55 120.518 152.84C120.378 153 120.178 153.08 119.988 153.08Z" fill="#0C133D"/>
<path d="M127.999 141.23C127.689 141.23 127.399 141.03 127.309 140.71C127.199 140.33 127.419 139.93 127.799 139.81L143.359 135.27C143.739 135.16 144.139 135.38 144.259 135.76C144.369 136.14 144.149 136.54 143.769 136.66L128.209 141.2C128.139 141.22 128.069 141.23 128.009 141.23H127.999Z" fill="#FD5F2F"/>
<path d="M129.958 154.93C126.618 154.93 123.528 152.74 122.548 149.38C121.358 145.3 123.708 141.01 127.798 139.82C129.778 139.24 131.858 139.47 133.668 140.46C135.478 141.45 136.788 143.09 137.368 145.06C137.948 147.04 137.718 149.12 136.728 150.93C135.738 152.74 134.098 154.05 132.128 154.63C131.408 154.84 130.688 154.94 129.968 154.94L129.958 154.93ZM123.938 148.97C124.908 152.29 128.388 154.2 131.708 153.23C133.318 152.76 134.648 151.69 135.448 150.23C136.258 148.76 136.438 147.07 135.968 145.46C135.498 143.85 134.428 142.52 132.968 141.72C131.498 140.91 129.808 140.73 128.198 141.2C124.878 142.17 122.968 145.65 123.938 148.97Z" fill="#FD5F2F"/>
<path d="M145.508 150.39C144.228 150.39 142.968 150.07 141.808 149.44C139.998 148.45 138.688 146.81 138.108 144.84C136.918 140.76 139.268 136.47 143.358 135.28C147.438 134.09 151.728 136.44 152.918 140.52C154.108 144.6 151.758 148.89 147.678 150.08C146.958 150.29 146.228 150.39 145.508 150.39ZM139.498 144.43C139.968 146.04 141.038 147.37 142.498 148.17C143.968 148.97 145.658 149.16 147.268 148.69C150.588 147.72 152.498 144.24 151.528 140.92C150.558 137.6 147.068 135.69 143.758 136.66C140.438 137.63 138.528 141.12 139.498 144.43Z" fill="#FD5F2F"/>
<path d="M141.889 152.18C141.629 152.18 141.389 152.04 141.259 151.8L136.419 142.97C136.229 142.62 136.359 142.18 136.709 141.99C137.059 141.8 137.499 141.93 137.689 142.28L142.529 151.11C142.719 151.46 142.589 151.9 142.239 152.09C142.129 152.15 142.009 152.18 141.889 152.18Z" fill="#0C133D"/>
<path d="M129.149 146.3C129.269 147.1 130.009 147.65 130.809 147.53C131.609 147.41 132.159 146.67 132.039 145.87C131.919 145.07 131.179 144.52 130.379 144.64C129.579 144.76 129.029 145.5 129.149 146.3Z" fill="#0C133D"/>
<path d="M140.449 142.87C140.569 143.67 141.309 144.22 142.109 144.1C142.909 143.98 143.459 143.24 143.339 142.44C143.219 141.64 142.479 141.09 141.679 141.21C140.879 141.33 140.329 142.07 140.449 142.87Z" fill="#0C133D"/>
<path d="M269.819 136.93C264.419 136.93 259.629 139.55 256.649 143.59V114.24H226.139C230.829 117.12 233.959 122.29 233.959 128.2C233.959 137.24 226.629 144.56 217.599 144.56C208.569 144.56 201.239 137.23 201.239 128.2C201.239 122.3 204.369 117.12 209.059 114.24H178.549V192.35H256.659V163C259.639 167.04 264.429 169.66 269.829 169.66C278.869 169.66 286.189 162.33 286.189 153.3C286.189 144.27 278.859 136.94 269.829 136.94L269.819 136.93Z" fill="#FD5F2F"/>
<path d="M256.639 193.07H178.529C178.129 193.07 177.809 192.75 177.809 192.35V114.24C177.809 113.84 178.129 113.52 178.529 113.52H209.039C209.359 113.52 209.649 113.73 209.739 114.05C209.829 114.36 209.699 114.69 209.419 114.86C204.739 117.73 201.949 122.72 201.949 128.2C201.949 136.82 208.969 143.84 217.589 143.84C226.209 143.84 233.229 136.82 233.229 128.2C233.229 122.72 230.439 117.73 225.759 114.86C225.479 114.69 225.349 114.36 225.439 114.05C225.529 113.74 225.809 113.52 226.139 113.52H256.649C257.049 113.52 257.369 113.84 257.369 114.24V141.6C260.579 138.19 265.099 136.21 269.819 136.21C279.239 136.21 286.909 143.88 286.909 153.3C286.909 162.72 279.249 170.39 269.819 170.39C265.099 170.39 260.579 168.41 257.369 165V192.36C257.369 192.76 257.049 193.08 256.649 193.08L256.639 193.07ZM179.259 191.62H255.929V162.99C255.929 162.68 256.129 162.4 256.429 162.3C256.729 162.2 257.049 162.3 257.239 162.56C260.179 166.55 264.889 168.92 269.829 168.92C278.449 168.92 285.469 161.9 285.469 153.28C285.469 144.66 278.449 137.64 269.829 137.64C264.889 137.64 260.179 140.02 257.239 144C257.049 144.25 256.729 144.36 256.429 144.26C256.129 144.16 255.929 143.89 255.929 143.57V114.94H228.409C232.369 118.17 234.679 122.97 234.679 128.17C234.679 137.59 227.019 145.26 217.589 145.26C208.159 145.26 200.499 137.6 200.499 128.17C200.499 122.96 202.809 118.16 206.769 114.94H179.249V191.61L179.259 191.62Z" fill="#0C133D"/>
<path d="M143.369 155.63C143.209 155.63 143.049 155.58 142.919 155.47C142.609 155.22 142.559 154.77 142.809 154.45L144.819 151.93C145.069 151.62 145.519 151.57 145.839 151.82C146.149 152.07 146.199 152.52 145.949 152.84L143.939 155.36C143.799 155.54 143.589 155.63 143.369 155.63Z" fill="#0C133D"/>
<path d="M63.3982 251.19C63.2982 251.19 63.1982 251.17 63.0982 251.13C62.7382 250.97 62.5682 250.54 62.7382 250.18C62.8182 250.01 70.4882 233.33 91.5582 225.51C97.3782 223.35 102.938 221.7 108.318 220.11C122.658 215.86 135.038 212.19 147.338 200.71C147.628 200.44 148.088 200.45 148.358 200.75C148.628 201.04 148.618 201.5 148.318 201.77C135.768 213.48 122.628 217.37 108.718 221.5C103.358 223.09 97.8282 224.73 92.0482 226.87C71.5682 234.48 64.1182 250.62 64.0382 250.78C63.9182 251.05 63.6582 251.21 63.3782 251.21L63.3982 251.19Z" fill="white"/>
<path d="M125.969 293.77C125.759 293.77 125.559 293.68 125.409 293.51C125.149 293.2 125.198 292.75 125.498 292.49C125.828 292.22 158.709 264.74 176.859 237.86C177.079 237.53 177.528 237.44 177.859 237.67C178.189 237.89 178.279 238.34 178.049 238.67C159.789 265.72 126.748 293.33 126.418 293.6C126.288 293.71 126.118 293.77 125.958 293.77H125.969Z" fill="white"/>
<path d="M261.328 192.63L256.618 192.46C256.218 192.45 255.908 192.11 255.918 191.71C255.938 191.31 256.268 191 256.668 191.01L261.358 191.18C261.758 191.19 262.068 191.53 262.058 191.93C262.048 192.32 261.718 192.63 261.338 192.63H261.328Z" fill="#0C133D"/>
<path d="M222.468 194.15C222.238 194.15 222.018 194.05 221.878 193.85C221.648 193.53 221.718 193.08 222.038 192.85C222.218 192.72 226.718 189.59 239.658 191.64C240.048 191.7 240.318 192.07 240.258 192.47C240.198 192.86 239.818 193.13 239.428 193.07C227.198 191.13 222.918 194 222.878 194.03C222.748 194.12 222.608 194.16 222.458 194.16L222.468 194.15Z" fill="#0C133D"/>
<path d="M169.859 257.7C169.459 257.7 169.139 257.38 169.139 256.98C169.139 256.58 169.459 256.26 169.859 256.26C178.689 256.26 185.869 249.08 185.869 240.25C185.869 237.59 185.199 234.95 183.939 232.62C183.749 232.27 183.879 231.83 184.229 231.64C184.579 231.45 185.019 231.58 185.209 231.93C186.589 234.47 187.319 237.34 187.319 240.25C187.319 249.87 179.489 257.7 169.869 257.7H169.859Z" fill="white"/>
<path d="M206.408 212.08C214.578 210.12 228.158 202.32 224.908 196.1C222.708 191.9 218.558 192.1 214.458 193.43C220.148 190.63 224.378 186.9 221.708 181.59C219.858 177.92 215.498 178.57 212.558 179.05C214.528 176.51 215.498 173.86 213.098 171.26C209.428 167.29 203.458 169.85 197.718 172.8C194.198 174.61 188.208 178.14 184.678 180.24C185.908 171.75 183.118 163.88 179.018 163.24C173.258 162.34 169.998 166.04 168.558 175.56C167.278 184.04 164.438 188.39 164.438 188.39L147.828 201.23C137.488 209.22 135.558 224.06 143.508 234.43C151.688 245.1 167.108 246.84 177.468 238.27C183.598 233.2 188.808 228.82 188.808 228.82C214.088 226.11 222.458 224.94 222.718 217.99C222.978 211.19 206.408 212.08 206.408 212.08Z" fill="white"/>
<path d="M162.398 244.44C161.468 244.44 160.528 244.39 159.588 244.28C152.928 243.53 147.018 240.18 142.938 234.87C134.768 224.21 136.768 208.87 147.388 200.66L163.898 187.9C164.308 187.22 166.718 182.97 167.848 175.45C168.768 169.36 170.388 165.65 172.958 163.77C174.628 162.54 176.648 162.14 179.128 162.52C183.478 163.2 186.328 170.65 185.568 178.86C190.878 175.71 194.948 173.4 197.388 172.15C203.398 169.06 209.598 166.41 213.628 170.76C216.168 173.51 215.178 176.31 214.108 178.08C216.968 177.73 220.598 177.79 222.348 181.26C223.308 183.17 223.498 185.03 222.908 186.77C222.298 188.58 220.868 190.27 218.568 191.87C221.808 191.72 224.098 193.01 225.538 195.76C226.308 197.24 226.308 198.86 225.538 200.57C223.548 204.94 216.718 209.1 210.908 211.38C214.648 211.58 219.698 212.3 222.058 214.62C223.028 215.57 223.488 216.71 223.438 218.01C223.148 225.48 214.948 226.74 189.098 229.51C188.158 230.3 183.408 234.28 177.918 238.82C173.478 242.49 168.048 244.44 162.388 244.44H162.398ZM177.428 163.82C176.018 163.82 174.828 164.19 173.818 164.93C171.618 166.55 170.128 170.06 169.288 175.66C167.998 184.2 165.178 188.6 165.058 188.78C165.018 188.85 164.958 188.91 164.898 188.96L148.288 201.8C138.288 209.52 136.408 223.96 144.098 233.99C147.938 238.99 153.498 242.14 159.768 242.85C166.038 243.56 172.168 241.73 177.028 237.71C183.148 232.64 188.368 228.27 188.368 228.27C188.478 228.18 188.608 228.12 188.758 228.11C213.838 225.42 221.788 224.27 222.028 217.97C222.058 217.08 221.748 216.33 221.078 215.67C217.608 212.26 206.588 212.81 206.478 212.81C206.118 212.83 205.778 212.56 205.728 212.19C205.678 211.82 205.908 211.47 206.278 211.38C212.278 209.94 222.018 204.91 224.258 199.98C224.848 198.68 224.868 197.52 224.298 196.44C222.648 193.28 219.598 192.54 214.708 194.12C214.348 194.24 213.958 194.05 213.818 193.7C213.678 193.35 213.828 192.95 214.168 192.78C218.388 190.7 220.818 188.59 221.578 186.31C222.048 184.92 221.888 183.48 221.098 181.91C219.588 178.91 216.128 179.2 212.708 179.75C212.408 179.8 212.118 179.66 211.968 179.41C211.818 179.15 211.838 178.83 212.018 178.6C214.228 175.75 214.408 173.7 212.598 171.75C209.258 168.14 203.598 170.61 198.088 173.44C195.488 174.78 190.988 177.34 185.088 180.86C184.848 181 184.548 180.99 184.318 180.84C184.088 180.69 183.968 180.41 184.008 180.14C185.238 171.66 182.298 164.48 178.958 163.96C178.438 163.88 177.938 163.84 177.468 163.84L177.428 163.82Z" fill="#0C133D"/>
<path d="M178.528 184.93C178.288 184.93 178.058 184.81 177.918 184.6C177.698 184.26 177.798 183.82 178.128 183.6L184.278 179.62C184.608 179.4 185.058 179.5 185.278 179.83C185.498 180.17 185.398 180.61 185.068 180.83L178.918 184.81C178.798 184.89 178.658 184.93 178.528 184.93Z" fill="#0C133D"/>
<path d="M184.678 195.76C184.428 195.76 184.188 195.63 184.048 195.4C183.848 195.05 183.968 194.61 184.318 194.41L212.188 178.42C212.538 178.22 212.978 178.34 213.178 178.69C213.378 179.04 213.258 179.48 212.908 179.68L185.038 195.67C184.928 195.73 184.798 195.77 184.678 195.77V195.76Z" fill="#0C133D"/>
<path d="M192.308 206.25C192.058 206.25 191.808 206.12 191.678 205.88C191.488 205.53 191.608 205.09 191.958 204.9C201.808 199.41 213.678 192.84 214.318 192.72C214.708 192.64 215.088 192.9 215.168 193.29C215.238 193.66 215.018 194.02 214.658 194.12C213.688 194.5 200.998 201.52 192.668 206.16C192.558 206.22 192.438 206.25 192.318 206.25H192.308Z" fill="#0C133D"/>
<path d="M199.688 216.09C199.418 216.09 199.168 215.94 199.038 215.69C198.858 215.33 199.008 214.9 199.368 214.72L206.088 211.43C206.448 211.25 206.878 211.4 207.058 211.76C207.238 212.12 207.088 212.55 206.728 212.73L200.008 216.02C199.908 216.07 199.798 216.09 199.688 216.09Z" fill="#0C133D"/>
<path d="M316.238 207.19C316.238 196.63 307.678 188.06 297.108 188.06C286.538 188.06 277.979 196.62 277.979 207.19C277.979 217.75 286.538 226.32 297.108 226.32C307.668 226.32 316.238 217.76 316.238 207.19Z" fill="#FFB743"/>
<path d="M151.864 75.2303C160.879 69.721 163.721 57.9467 158.212 48.9317C152.702 39.9166 140.928 37.0746 131.913 42.5839C122.898 48.0932 120.056 59.8675 125.565 68.8826C131.075 77.8977 142.849 80.7396 151.864 75.2303Z" fill="#FFB743"/>
<path d="M365.308 151.21C365.128 151.21 364.938 151.14 364.798 151L354.778 140.98C354.498 140.7 354.498 140.24 354.778 139.96C355.058 139.68 355.518 139.68 355.798 139.96L365.818 149.98C366.098 150.26 366.098 150.72 365.818 151C365.678 151.14 365.488 151.21 365.308 151.21Z" fill="#0C133D"/>
<path d="M355.288 151.21C355.108 151.21 354.918 151.14 354.778 151C354.498 150.72 354.498 150.26 354.778 149.98L364.798 139.96C365.078 139.68 365.538 139.68 365.818 139.96C366.098 140.24 366.098 140.7 365.818 140.98L355.798 151C355.658 151.14 355.468 151.21 355.288 151.21Z" fill="#0C133D"/>
<path d="M192.308 88.55C186.948 88.55 182.588 84.19 182.588 78.83C182.588 73.47 186.948 69.11 192.308 69.11C197.668 69.11 202.028 73.47 202.028 78.83C202.028 84.19 197.668 88.55 192.308 88.55ZM192.308 70.56C187.748 70.56 184.038 74.27 184.038 78.83C184.038 83.39 187.748 87.1 192.308 87.1C196.868 87.1 200.578 83.39 200.578 78.83C200.578 74.27 196.868 70.56 192.308 70.56Z" fill="#0C133D"/>
</svg>
