<svg width="446" height="332" viewBox="0 0 446 332" fill="none" xmlns="http://www.w3.org/2000/svg">
<path d="M406.383 180.842C373.673 198.732 328.223 191.562 307.503 157.672C301.823 148.382 299.573 138.672 289.323 132.942C279.983 127.722 269.673 129.422 259.693 127.162C240.183 122.752 226.143 105.562 223.333 86.1124C219.373 58.7224 232.263 31.9824 254.643 16.1924C294.183 -11.7076 358.473 0.182409 397.263 23.6924C424.943 40.4724 443.253 68.5124 445.463 100.952C446.943 122.732 441.713 145.302 428.033 162.652C422.013 170.282 414.603 176.352 406.393 180.842H406.383Z" fill="#FFB743"/>
<path d="M191.004 50.0824C191.004 38.5624 181.664 29.2324 170.154 29.2324C158.644 29.2324 149.304 38.5724 149.304 50.0824C149.304 61.5924 158.644 70.9324 170.154 70.9324C181.664 70.9324 191.004 61.5924 191.004 50.0824Z" fill="#FFB743"/>
<path d="M377.294 58.6924H139.754V287.312H377.294V58.6924Z" fill="white"/>
<path d="M377.284 288.102H139.744C139.304 288.102 138.954 287.752 138.954 287.312V58.6924C138.954 58.2524 139.304 57.9024 139.744 57.9024H377.284C377.724 57.9024 378.074 58.2524 378.074 58.6924V287.312C378.074 287.752 377.724 288.102 377.284 288.102ZM140.534 286.522H376.494V59.4724H140.534V286.522Z" fill="#0C133D"/>
<path d="M376.344 78.5824H139.744C139.304 78.5824 138.954 78.2324 138.954 77.7924C138.954 77.3524 139.304 77.0024 139.744 77.0024H376.344C376.784 77.0024 377.134 77.3524 377.134 77.7924C377.134 78.2324 376.784 78.5824 376.344 78.5824Z" fill="#0C133D"/>
<path d="M153.624 67.5824C153.624 69.4024 152.154 70.8724 150.334 70.8724C148.514 70.8724 147.044 69.4024 147.044 67.5824C147.044 65.7624 148.514 64.2924 150.334 64.2924C152.154 64.2924 153.624 65.7624 153.624 67.5824Z" fill="#0C133D"/>
<path d="M174.664 70.8724C176.481 70.8724 177.954 69.3994 177.954 67.5824C177.954 65.7654 176.481 64.2924 174.664 64.2924C172.847 64.2924 171.374 65.7654 171.374 67.5824C171.374 69.3994 172.847 70.8724 174.664 70.8724Z" fill="#FFB743"/>
<path d="M165.784 67.5824C165.784 69.4024 164.314 70.8724 162.494 70.8724C160.674 70.8724 159.204 69.4024 159.204 67.5824C159.204 65.7624 160.674 64.2924 162.494 64.2924C164.314 64.2924 165.784 65.7624 165.784 67.5824Z" fill="#FD5F2F"/>
<path d="M197.004 88.7524C197.004 88.1024 197.234 87.5524 197.694 87.0924C198.154 86.6324 198.704 86.4024 199.354 86.4024H204.684C205.674 86.4024 206.614 86.5924 207.494 86.9724C208.374 87.3524 209.144 87.8724 209.804 88.5324C210.464 89.1924 210.984 89.9624 211.364 90.8424C211.744 91.7224 211.934 92.6724 211.934 93.6824C211.934 94.6924 211.744 95.6324 211.364 96.5124C210.984 97.3924 210.464 98.1524 209.804 98.8124C209.144 99.4724 208.374 99.9924 207.494 100.372C206.614 100.752 205.674 100.942 204.684 100.942H201.734V104.322C201.734 104.992 201.504 105.552 201.044 106.012C200.584 106.472 200.024 106.702 199.354 106.702C198.684 106.702 198.154 106.472 197.694 106.012C197.234 105.552 197.004 104.992 197.004 104.322V88.7624V88.7524ZM201.734 90.7824V96.5424H204.334C204.734 96.5424 205.104 96.4624 205.454 96.3124C205.804 96.1624 206.104 95.9524 206.364 95.6924C206.614 95.4324 206.824 95.1324 206.974 94.7824C207.124 94.4424 207.204 94.0724 207.204 93.6724C207.204 93.2724 207.124 92.9024 206.974 92.5524C206.824 92.2024 206.614 91.8924 206.364 91.6324C206.114 91.3724 205.814 91.1624 205.454 91.0124C205.104 90.8624 204.724 90.7824 204.334 90.7824H201.734Z" fill="#FD5F2F"/>
<path d="M227.904 102.652C228.174 102.872 228.374 103.132 228.514 103.432C228.654 103.742 228.714 104.052 228.714 104.382C228.714 104.632 228.664 104.892 228.564 105.152C228.464 105.412 228.324 105.662 228.134 105.892C227.944 106.122 227.704 106.312 227.414 106.462C227.124 106.602 226.794 106.682 226.414 106.682C226.144 106.682 225.874 106.642 225.604 106.562C225.334 106.482 225.094 106.342 224.874 106.142L218.734 100.862H218.464V104.302C218.464 104.972 218.234 105.532 217.774 105.992C217.314 106.452 216.754 106.682 216.084 106.682C215.414 106.682 214.884 106.452 214.424 105.992C213.964 105.532 213.734 104.972 213.734 104.302V88.7424C213.734 88.0924 213.964 87.5424 214.424 87.0824C214.884 86.6224 215.434 86.3924 216.084 86.3924H221.334C222.324 86.3924 223.264 86.5824 224.144 86.9624C225.024 87.3424 225.804 87.8624 226.474 88.5324C227.144 89.2024 227.664 89.9724 228.044 90.8624C228.424 91.7424 228.614 92.6824 228.614 93.6724C228.614 95.0824 228.224 96.2824 227.454 97.2824C226.674 98.2824 225.554 99.0424 224.074 99.5724L227.914 102.652H227.904ZM218.464 90.7824V96.5424H221.274C221.674 96.5424 222.044 96.4624 222.384 96.3124C222.724 96.1624 223.034 95.9524 223.294 95.6924C223.554 95.4324 223.764 95.1324 223.914 94.7824C224.064 94.4424 224.144 94.0724 224.144 93.6724C224.144 93.2724 224.064 92.9024 223.914 92.5524C223.764 92.2024 223.554 91.8924 223.294 91.6324C223.034 91.3724 222.734 91.1624 222.384 91.0124C222.044 90.8624 221.674 90.7824 221.274 90.7824H218.464Z" fill="#FD5F2F"/>
<path d="M236.384 106.212C235.114 105.662 234.004 104.912 233.054 103.962C232.104 103.012 231.354 101.902 230.804 100.622C230.254 99.3424 229.974 97.9824 229.974 96.5324C229.974 95.0824 230.244 93.7324 230.804 92.4424C231.354 91.1624 232.104 90.0524 233.054 89.1024C234.004 88.1524 235.114 87.4024 236.384 86.8524C237.654 86.3024 239.014 86.0224 240.454 86.0224C241.894 86.0224 243.254 86.3024 244.544 86.8524C245.824 87.4024 246.934 88.1524 247.884 89.1024C248.834 90.0524 249.584 91.1624 250.134 92.4424C250.684 93.7224 250.964 95.0824 250.964 96.5324C250.964 97.9824 250.684 99.3424 250.134 100.622C249.584 101.902 248.834 103.012 247.884 103.962C246.934 104.912 245.824 105.662 244.544 106.212C243.264 106.762 241.904 107.042 240.454 107.042C239.004 107.042 237.654 106.772 236.384 106.212ZM235.164 98.7724C235.464 99.4624 235.874 100.072 236.394 100.602C236.914 101.122 237.524 101.532 238.224 101.832C238.914 102.132 239.664 102.282 240.454 102.282C241.244 102.282 241.994 102.132 242.704 101.832C243.404 101.532 244.024 101.122 244.544 100.602C245.064 100.082 245.474 99.4724 245.774 98.7724C246.074 98.0824 246.224 97.3324 246.224 96.5424C246.224 95.7524 246.074 95.0024 245.774 94.3124C245.474 93.6224 245.064 93.0124 244.544 92.4824C244.024 91.9624 243.404 91.5424 242.704 91.2424C242.004 90.9324 241.254 90.7824 240.454 90.7824C239.654 90.7824 238.914 90.9324 238.224 91.2424C237.534 91.5524 236.924 91.9624 236.394 92.4824C235.874 93.0024 235.464 93.6124 235.164 94.3124C234.864 95.0024 234.714 95.7524 234.714 96.5424C234.714 97.3324 234.864 98.0824 235.164 98.7724Z" fill="#FD5F2F"/>
<path d="M252.184 97.5824C252.644 97.1224 253.194 96.8924 253.844 96.8924C254.494 96.8924 255.054 97.1224 255.524 97.5824C255.994 98.0424 256.224 98.5924 256.224 99.2424C256.224 99.6624 256.304 100.052 256.464 100.422C256.624 100.792 256.844 101.112 257.114 101.382C257.384 101.652 257.704 101.872 258.074 102.032C258.444 102.192 258.834 102.272 259.254 102.272C259.674 102.272 260.064 102.192 260.434 102.032C260.804 101.872 261.124 101.652 261.404 101.382C261.684 101.112 261.904 100.792 262.064 100.422C262.224 100.052 262.304 99.6624 262.304 99.2424V88.7424C262.304 88.0924 262.534 87.5424 262.994 87.0824C263.454 86.6224 264.004 86.3924 264.654 86.3924C265.304 86.3924 265.864 86.6224 266.334 87.0824C266.804 87.5424 267.034 88.0924 267.034 88.7424V99.2424C267.034 100.302 266.834 101.312 266.424 102.262C266.014 103.212 265.464 104.032 264.764 104.742C264.064 105.442 263.234 106.002 262.284 106.422C261.334 106.832 260.324 107.042 259.244 107.042C258.164 107.042 257.174 106.832 256.224 106.422C255.274 106.012 254.454 105.452 253.744 104.742C253.044 104.042 252.484 103.212 252.084 102.262C251.674 101.312 251.474 100.312 251.474 99.2424C251.474 98.5924 251.704 98.0424 252.164 97.5824H252.184Z" fill="#FD5F2F"/>
<path d="M271.904 106.692C271.254 106.692 270.704 106.462 270.244 106.002C269.784 105.542 269.554 104.992 269.554 104.342V88.7524C269.554 88.1024 269.784 87.5524 270.244 87.0924C270.704 86.6324 271.264 86.4024 271.904 86.4024H281.054C281.664 86.4024 282.184 86.6124 282.614 87.0424C283.034 87.4624 283.254 87.9824 283.254 88.6024C283.254 89.2224 283.044 89.7324 282.614 90.1624C282.194 90.5824 281.674 90.8024 281.054 90.8024H274.294V94.2624H279.494C280.074 94.2624 280.554 94.4624 280.944 94.8624C281.334 95.2624 281.524 95.7424 281.524 96.2924C281.524 96.8424 281.334 97.3324 280.944 97.7224C280.554 98.1224 280.074 98.3224 279.494 98.3224H274.294V102.322H281.054C281.664 102.322 282.184 102.532 282.614 102.962C283.034 103.382 283.254 103.902 283.254 104.522C283.254 105.142 283.044 105.652 282.614 106.082C282.194 106.502 281.674 106.722 281.054 106.722H271.904V106.692Z" fill="#FD5F2F"/>
<path d="M290.404 106.212C289.144 105.662 288.034 104.912 287.074 103.962C286.114 103.012 285.364 101.902 284.814 100.622C284.264 99.3424 283.984 97.9824 283.984 96.5324C283.984 95.0824 284.254 93.7324 284.814 92.4424C285.364 91.1624 286.114 90.0524 287.074 89.1024C288.034 88.1524 289.144 87.4024 290.404 86.8524C291.664 86.3024 293.024 86.0224 294.464 86.0224C296.214 86.0224 297.774 86.3324 299.144 86.9524C300.514 87.5724 301.664 88.4424 302.584 89.5624C302.944 90.0124 303.124 90.4924 303.124 90.9924C303.124 91.4224 303.024 91.8024 302.814 92.1324C302.604 92.4524 302.354 92.7224 302.054 92.9324C301.754 93.1424 301.454 93.3024 301.144 93.4024C300.834 93.5124 300.584 93.5624 300.384 93.5624C299.804 93.5624 299.244 93.2524 298.704 92.6424C298.484 92.4124 298.234 92.1824 297.934 91.9524C297.634 91.7224 297.304 91.5224 296.944 91.3424C296.584 91.1624 296.194 91.0224 295.764 90.9124C295.344 90.8024 294.904 90.7524 294.454 90.7524C293.664 90.7524 292.914 90.9024 292.224 91.2124C291.524 91.5224 290.924 91.9324 290.394 92.4524C289.864 92.9724 289.464 93.5824 289.164 94.2824C288.864 94.9724 288.714 95.7224 288.714 96.5124C288.714 97.3024 288.864 98.0524 289.164 98.7424C289.464 99.4324 289.874 100.042 290.394 100.572C290.914 101.092 291.524 101.502 292.224 101.802C292.914 102.102 293.664 102.252 294.454 102.252C295.374 102.252 296.204 102.062 296.954 101.672C297.704 101.282 298.284 100.852 298.704 100.382C298.994 100.042 299.274 99.7924 299.554 99.6524C299.834 99.5124 300.114 99.4324 300.404 99.4324C300.694 99.4324 301.004 99.5024 301.324 99.6524C301.644 99.7924 301.944 99.9924 302.204 100.232C302.464 100.472 302.684 100.752 302.854 101.062C303.024 101.372 303.114 101.682 303.114 102.012C303.114 102.532 302.934 103.022 302.574 103.472C301.654 104.592 300.504 105.462 299.134 106.082C297.764 106.702 296.204 107.012 294.454 107.012C293.014 107.012 291.654 106.742 290.394 106.182L290.404 106.212Z" fill="#FD5F2F"/>
<path d="M317.814 86.3924C318.424 86.3924 318.954 86.6024 319.384 87.0324C319.814 87.4524 320.034 87.9724 320.034 88.5924C320.034 89.2124 319.814 89.7224 319.384 90.1524C318.954 90.5724 318.424 90.7924 317.814 90.7924H313.814V104.322C313.814 104.992 313.584 105.552 313.114 106.012C312.644 106.472 312.084 106.702 311.434 106.702C310.784 106.702 310.234 106.472 309.774 106.012C309.314 105.552 309.084 104.992 309.084 104.322V90.7924H305.054C304.444 90.7924 303.924 90.5824 303.494 90.1524C303.074 89.7324 302.854 89.2124 302.854 88.5924C302.854 87.9724 303.064 87.4624 303.494 87.0324C303.914 86.6124 304.434 86.3924 305.054 86.3924H317.824H317.814Z" fill="#FD5F2F"/>
<path d="M355.68 160.37C358.31 144.168 347.308 128.902 331.106 126.272C314.904 123.642 299.638 134.644 297.008 150.846C294.378 167.048 305.38 182.314 321.582 184.944C337.784 187.574 353.05 176.572 355.68 160.37Z" fill="#FD5F2F"/>
<path d="M296.614 155.572C296.624 139.162 309.924 125.872 326.334 125.872V155.572H296.614Z" fill="#FFB743"/>
<path d="M281.894 181.312C281.694 181.312 281.494 181.232 281.334 181.082L255.994 155.752H222.524C222.314 155.752 222.114 155.672 221.964 155.522L196.444 130.002C196.134 129.692 196.134 129.192 196.444 128.892C196.754 128.592 197.254 128.582 197.554 128.892L222.844 154.182H256.314C256.524 154.182 256.724 154.262 256.874 154.412L282.444 179.982C282.754 180.292 282.754 180.792 282.444 181.092C282.294 181.242 282.084 181.322 281.884 181.322L281.894 181.312Z" fill="#0C133D"/>
<path d="M277.104 180.532C277.104 183.182 279.245 185.322 281.895 185.322C284.545 185.322 286.685 183.182 286.685 180.532C286.685 177.882 284.545 175.742 281.895 175.742C279.245 175.742 277.104 177.882 277.104 180.532Z" fill="#FFB743"/>
<path d="M251.504 155.002C251.504 157.652 253.644 159.792 256.294 159.792C258.944 159.792 261.084 157.652 261.084 155.002C261.084 152.352 258.944 150.212 256.294 150.212C253.644 150.212 251.504 152.352 251.504 155.002Z" fill="white"/>
<path d="M256.294 160.572C253.214 160.572 250.714 158.072 250.714 154.992C250.714 151.912 253.214 149.412 256.294 149.412C259.374 149.412 261.874 151.912 261.874 154.992C261.874 158.072 259.374 160.572 256.294 160.572ZM256.294 150.992C254.084 150.992 252.294 152.792 252.294 154.992C252.294 157.192 254.094 158.992 256.294 158.992C258.494 158.992 260.294 157.192 260.294 154.992C260.294 152.792 258.494 150.992 256.294 150.992Z" fill="#0C133D"/>
<path d="M217.734 155.002C217.734 157.652 219.874 159.792 222.524 159.792C225.174 159.792 227.314 157.652 227.314 155.002C227.314 152.352 225.174 150.212 222.524 150.212C219.874 150.212 217.734 152.352 217.734 155.002Z" fill="white"/>
<path d="M222.524 160.572C219.444 160.572 216.944 158.072 216.944 154.992C216.944 151.912 219.444 149.412 222.524 149.412C225.604 149.412 228.104 151.912 228.104 154.992C228.104 158.072 225.604 160.572 222.524 160.572ZM222.524 150.992C220.314 150.992 218.524 152.792 218.524 154.992C218.524 157.192 220.324 158.992 222.524 158.992C224.724 158.992 226.524 157.192 226.524 154.992C226.524 152.792 224.724 150.992 222.524 150.992Z" fill="#0C133D"/>
<path d="M188.284 129.692C188.284 134.372 192.074 138.162 196.754 138.162C201.434 138.162 205.224 134.372 205.224 129.692C205.224 125.012 201.434 121.222 196.754 121.222C192.074 121.222 188.284 125.012 188.284 129.692Z" fill="#FD5F2F"/>
<path d="M204.434 202.212H191.964V214.682H204.434V202.212Z" fill="#0C133D"/>
<path d="M204.434 223.982H191.964V236.452H204.434V223.982Z" fill="#FFB743"/>
<path d="M204.434 245.742H191.964V258.212H204.434V245.742Z" fill="#FD5F2F"/>
<path d="M308.774 259.002H217.404C216.964 259.002 216.614 258.652 216.614 258.212V245.742C216.614 245.302 216.964 244.952 217.404 244.952H308.774C309.214 244.952 309.564 245.302 309.564 245.742V258.212C309.564 258.652 309.214 259.002 308.774 259.002ZM218.194 257.422H307.994V246.532H218.194V257.422Z" fill="#0C133D"/>
<path d="M308.774 215.472H217.404C216.964 215.472 216.614 215.122 216.614 214.682V202.212C216.614 201.772 216.964 201.422 217.404 201.422H308.774C309.214 201.422 309.564 201.772 309.564 202.212V214.682C309.564 215.122 309.214 215.472 308.774 215.472ZM218.194 213.892H307.994V203.002H218.194V213.892Z" fill="#0C133D"/>
<path d="M308.774 237.232H217.404C216.964 237.232 216.614 236.882 216.614 236.442V223.972C216.614 223.532 216.964 223.182 217.404 223.182H308.774C309.214 223.182 309.564 223.532 309.564 223.972V236.442C309.564 236.882 309.214 237.232 308.774 237.232ZM218.194 235.662H307.994V224.772H218.194V235.662Z" fill="#0C133D"/>
<path d="M326.334 155.572V115.372C340.954 115.372 353.754 123.172 360.794 134.842L326.334 155.572Z" fill="white"/>
<path d="M326.334 156.362C326.204 156.362 326.064 156.332 325.944 156.262C325.694 156.122 325.544 155.862 325.544 155.572V115.372C325.544 114.932 325.894 114.582 326.334 114.582C340.834 114.582 353.964 122.002 361.474 134.432C361.584 134.612 361.614 134.822 361.564 135.032C361.514 135.232 361.384 135.412 361.204 135.522L326.744 156.252C326.614 156.322 326.474 156.362 326.334 156.362ZM327.124 116.172V154.182L359.704 134.582C352.564 123.262 340.484 116.432 327.124 116.172Z" fill="#0C133D"/>
<path d="M361.394 301.722C378.636 301.722 392.614 287.745 392.614 270.502C392.614 253.26 378.636 239.282 361.394 239.282C344.151 239.282 330.174 253.26 330.174 270.502C330.174 287.745 344.151 301.722 361.394 301.722Z" fill="#FFB743"/>
<path d="M361.394 302.512C343.744 302.512 329.384 288.152 329.384 270.502C329.384 252.852 343.744 238.492 361.394 238.492C379.044 238.492 393.404 252.852 393.404 270.502C393.404 288.152 379.044 302.512 361.394 302.512ZM361.394 240.072C344.614 240.072 330.964 253.722 330.964 270.502C330.964 287.282 344.614 300.932 361.394 300.932C378.174 300.932 391.824 287.282 391.824 270.502C391.824 253.722 378.174 240.072 361.394 240.072Z" fill="#0C133D"/>
<path d="M355.755 279.942C355.555 279.942 355.355 279.872 355.205 279.722L345.005 269.802C344.695 269.502 344.685 269.002 344.985 268.692C345.285 268.382 345.785 268.372 346.095 268.672L355.755 278.062L376.475 258.322C376.795 258.022 377.285 258.032 377.585 258.352C377.885 258.672 377.875 259.162 377.555 259.462L356.285 279.722C356.135 279.872 355.935 279.942 355.745 279.942H355.755Z" fill="#0C133D"/>
<path d="M130.104 115.562C135.054 115.802 138.874 120.022 138.624 124.972C138.384 129.922 134.164 133.742 129.214 133.492C124.264 133.242 120.444 129.032 120.694 124.082C120.944 119.132 125.154 115.312 130.104 115.562Z" fill="#0C133D"/>
<path d="M88.814 123.142C87.484 121.492 86.714 119.362 86.834 117.072C87.084 112.122 91.294 108.302 96.244 108.552C99.564 108.712 102.364 110.662 103.784 113.422C104.944 112.962 106.214 112.722 107.544 112.792C112.494 113.032 116.314 117.252 116.064 122.202C115.824 127.152 111.604 130.972 106.654 130.722C105.694 130.672 104.784 130.472 103.924 130.152C103.664 135.092 99.454 138.892 94.514 138.642C89.564 138.392 85.744 134.182 85.994 129.232C86.114 126.812 87.184 124.672 88.814 123.142Z" fill="#0C133D"/>
<path d="M143.944 129.572C137.974 126.242 120.194 126.392 106.854 127.062C94.6137 127.672 83.2337 133.542 75.6737 143.182C68.1237 152.812 60.2837 162.982 49.2537 162.262C39.7937 161.642 36.7337 156.632 35.9737 151.952C32.8137 159.022 29.7237 166.122 26.5937 173.212C24.2537 178.522 22.1637 183.952 19.7637 189.292C23.2037 197.822 29.5937 204.702 41.0237 206.132C62.7337 208.852 79.3137 195.442 88.5537 185.232L88.7337 195.972H142.434L153.474 188.302L166.094 199.102C166.094 199.102 193.694 203.812 200.614 185.362C212.384 153.982 143.924 129.572 143.924 129.572H143.944Z" fill="#0C133D"/>
<path d="M117.644 137.852C108.534 138.072 99.5639 132.942 95.4639 129.212C99.1039 127.992 102.934 127.252 106.854 127.052C118.084 126.492 132.464 126.292 140.294 128.232C136.654 131.092 128.704 137.582 117.654 137.852H117.644Z" fill="white"/>
<path d="M230.724 331.592H22.0937C21.6537 331.592 21.3037 331.242 21.3037 330.802C21.3037 330.362 21.6537 330.012 22.0937 330.012H230.724C231.164 330.012 231.514 330.362 231.514 330.802C231.514 331.242 231.164 331.592 230.724 331.592Z" fill="#0C133D"/>
<path d="M111.373 243.292L99.3834 330.802H51.2434C50.2534 330.802 49.6234 330.232 49.6134 329.382C49.5534 316.792 67.5634 317.572 67.5634 317.572L80.8934 241.332L111.383 243.292H111.373Z" fill="white"/>
<path d="M120.864 243.292L132.854 330.802H180.994C181.984 330.802 182.614 330.232 182.624 329.382C182.684 316.792 164.674 317.572 164.674 317.572L151.344 241.332L120.854 243.292H120.864Z" fill="white"/>
<path d="M51.2343 331.592C49.8243 331.592 48.8343 330.692 48.8343 329.392C48.8143 326.202 49.8943 323.542 52.0343 321.492C56.5643 317.132 64.4843 316.782 66.9043 316.782C66.9143 316.782 80.1243 241.202 80.1243 241.202C80.1943 240.802 80.5543 240.532 80.9543 240.552L111.444 242.512C111.664 242.522 111.864 242.632 112.004 242.802C112.144 242.972 112.204 243.192 112.174 243.412L100.184 330.922C100.134 331.312 99.7943 331.602 99.4043 331.602H51.2543L51.2343 331.592ZM67.0143 318.352C64.9543 318.352 57.2543 318.632 53.1143 322.622C51.3043 324.372 50.3943 326.642 50.4043 329.382C50.4043 329.932 50.9343 330.072 51.2443 330.012H98.7043L110.484 244.022L81.5443 242.162L68.3443 317.712C68.2743 318.102 67.9243 318.372 67.5343 318.362C67.5243 318.362 67.3343 318.362 67.0143 318.362V318.352Z" fill="#0C133D"/>
<path d="M99.3844 330.802H51.2444C50.2544 330.802 49.6244 330.232 49.6144 329.382C49.5544 316.792 67.5644 317.572 67.5644 317.572L67.6444 317.022H101.264L99.3744 330.802H99.3844Z" fill="#0C133D"/>
<path d="M181.004 331.592H132.854C132.464 331.592 132.124 331.302 132.074 330.912L120.084 243.402C120.054 243.182 120.114 242.962 120.254 242.792C120.394 242.622 120.594 242.522 120.814 242.502L151.304 240.542C151.694 240.522 152.064 240.792 152.134 241.192L165.344 316.772C167.774 316.772 175.694 317.122 180.224 321.482C182.364 323.542 183.434 326.202 183.424 329.382C183.424 330.682 182.424 331.582 181.014 331.582L181.004 331.592ZM133.544 330.012H181.004C181.324 330.012 181.844 329.932 181.844 329.382C181.854 326.642 180.944 324.372 179.134 322.622C174.344 318.012 164.814 318.352 164.714 318.362C164.344 318.382 163.974 318.102 163.904 317.712L150.704 242.162L121.764 244.022L133.544 330.012Z" fill="#0C133D"/>
<path d="M132.854 330.802H180.994C181.984 330.802 182.614 330.232 182.624 329.382C182.684 316.792 164.674 317.572 164.674 317.572L164.594 317.022H130.974L132.864 330.802H132.854Z" fill="#0C133D"/>
<path d="M46.7734 207.282C44.8734 207.282 42.9234 207.162 40.9334 206.912C30.5134 205.612 23.1534 199.782 19.0334 189.582C18.9534 189.382 18.9534 189.162 19.0434 188.962C20.3234 186.122 21.5334 183.192 22.7034 180.372C23.7234 177.912 24.7834 175.362 25.8734 172.882C27.0334 170.252 28.1934 167.622 29.3534 164.982C31.3134 160.522 33.2734 156.062 35.2634 151.622C35.4034 151.302 35.7234 151.112 36.0834 151.162C36.4234 151.202 36.7034 151.472 36.7534 151.822C37.7034 157.742 41.9334 160.992 49.3034 161.472C59.8134 162.152 67.4234 152.422 74.8034 143.002L75.0534 142.682C82.7534 132.862 94.3234 126.882 106.813 126.262C120.523 125.582 138.123 125.472 144.263 128.842C146.853 129.772 189.933 145.512 200.483 168.222C203.203 174.072 203.503 179.932 201.363 185.622C194.303 204.462 166.253 199.912 165.973 199.862C165.833 199.842 165.703 199.772 165.593 199.682L153.433 189.282L142.893 196.612C142.763 196.702 142.603 196.752 142.443 196.752H88.7434C88.3134 196.752 87.9634 196.412 87.9534 195.982L87.8034 187.202C78.6034 196.922 64.6134 207.272 46.7734 207.272V207.282ZM20.6234 189.302C24.5334 198.732 31.4234 204.132 41.1334 205.352C62.0334 207.962 78.1434 195.572 87.9834 184.712C88.2034 184.472 88.5434 184.392 88.8434 184.502C89.1434 184.612 89.3534 184.902 89.3534 185.222L89.5234 195.192H142.203L153.043 187.662C153.333 187.462 153.733 187.472 154.003 187.712L166.453 198.362C168.983 198.732 193.593 201.882 199.893 185.092C201.873 179.812 201.593 174.362 199.053 168.902C188.683 146.582 144.123 130.482 143.673 130.322C143.633 130.302 143.593 130.292 143.553 130.272C139.063 127.762 126.033 126.902 106.883 127.852C94.8534 128.452 83.7034 134.212 76.2834 143.672L76.0334 143.992C68.4034 153.732 60.5234 163.812 49.1934 163.062C40.6234 162.502 37.1034 158.422 35.7534 154.392C34.0834 158.142 32.4334 161.892 30.7934 165.642C29.6334 168.272 28.4834 170.912 27.3134 173.542C26.2234 176.002 25.1734 178.542 24.1534 180.992C23.0234 183.722 21.8534 186.552 20.6134 189.312L20.6234 189.302Z" fill="#0C133D"/>
<path d="M126.046 115.433C131.97 109.508 131.97 99.9033 126.046 93.9791C120.121 88.0548 110.516 88.0548 104.592 93.9791C98.6678 99.9033 98.6678 109.508 104.592 115.433C110.516 121.357 120.121 121.357 126.046 115.433Z" fill="#0C133D"/>
<path d="M89.8343 195.972H144.394L170.154 314.382H123.674L116.124 223.192L108.564 314.382H61.9443L89.8343 195.972Z" fill="white"/>
<path d="M170.154 315.162H123.674C123.264 315.162 122.924 314.852 122.884 314.442L116.114 232.732L109.344 314.442C109.314 314.852 108.964 315.162 108.554 315.162H61.944C61.704 315.162 61.474 315.052 61.324 314.862C61.174 314.672 61.124 314.422 61.174 314.192L89.064 195.792C89.144 195.432 89.464 195.182 89.834 195.182H144.394C144.764 195.182 145.084 195.442 145.164 195.802L170.934 314.202C170.984 314.432 170.934 314.682 170.774 314.862C170.624 315.052 170.394 315.152 170.164 315.152L170.154 315.162ZM124.404 313.592H169.184L143.764 196.762H90.464L62.954 313.592H107.844L115.344 223.132C115.374 222.722 115.724 222.412 116.134 222.412C116.544 222.412 116.884 222.722 116.924 223.132L124.424 313.592H124.404Z" fill="#0C133D"/>
<path d="M107.094 128.022L109.484 113.892C116.074 112.362 112.484 105.512 112.484 105.512C122.824 105.512 124.704 95.4924 124.704 95.4924C124.704 95.4924 126.244 96.3224 127.934 98.6224C128.604 99.5424 129.124 100.572 129.294 101.692C130.764 111.362 132.574 121.742 123.304 121.742V127.632L107.094 128.012V128.022Z" fill="white"/>
<path d="M123.304 128.432C122.864 128.432 122.514 128.082 122.514 127.642V121.752C122.514 121.312 122.864 120.962 123.304 120.962C125.444 120.962 126.984 120.382 128.014 119.192C130.684 116.082 129.634 109.192 128.624 102.532L128.514 101.822C128.374 100.922 127.974 100.012 127.304 99.1024C126.494 98.0024 125.724 97.2624 125.174 96.8024C124.314 99.4324 121.474 105.702 113.664 106.272C114.134 107.572 114.664 109.792 113.784 111.702C113.154 113.072 111.944 114.022 110.184 114.542L109.254 120.012C109.184 120.442 108.764 120.732 108.344 120.662C107.914 120.592 107.624 120.182 107.704 119.752L108.714 113.782C108.764 113.472 109.004 113.222 109.314 113.142C110.854 112.782 111.874 112.082 112.344 111.052C113.334 108.912 111.804 105.922 111.794 105.892C111.664 105.652 111.674 105.352 111.824 105.122C111.964 104.882 112.224 104.742 112.494 104.742C122.074 104.742 123.874 95.7424 123.944 95.3624C123.994 95.1124 124.154 94.9024 124.384 94.7924C124.614 94.6824 124.884 94.6924 125.094 94.8124C125.164 94.8524 126.804 95.7524 128.584 98.1724C129.404 99.2924 129.914 100.442 130.084 101.592L130.194 102.302C131.264 109.312 132.364 116.572 129.224 120.232C128.034 121.612 126.314 122.382 124.114 122.532V127.662C124.114 128.102 123.764 128.452 123.324 128.452L123.304 128.432Z" fill="#0C133D"/>
<path d="M123.304 122.542C120.224 122.542 117.884 121.672 117.784 121.642C117.374 121.492 117.174 121.032 117.324 120.632C117.474 120.222 117.924 120.022 118.334 120.172C118.354 120.172 120.524 120.972 123.304 120.972C123.744 120.972 124.094 121.322 124.094 121.762C124.094 122.202 123.744 122.552 123.304 122.552V122.542Z" fill="#0C133D"/>
<path d="M123.304 125.472C123.304 125.472 121.564 126.982 119.814 125.762C118.054 124.532 117.654 120.702 117.654 120.702L123.314 121.762V125.482L123.304 125.472Z" fill="#0C133D"/>
<path d="M126.924 112.112C126.574 112.112 126.254 111.882 126.164 111.522L124.634 105.712C124.524 105.292 124.774 104.862 125.194 104.752C125.624 104.642 126.044 104.892 126.154 105.312L127.684 111.122C127.794 111.542 127.544 111.972 127.124 112.082C127.054 112.102 126.984 112.112 126.924 112.112Z" fill="#0C133D"/>
<path d="M119.725 106.842C119.725 107.332 120.125 107.732 120.615 107.732C121.105 107.732 121.505 107.332 121.505 106.842C121.505 106.352 121.105 105.952 120.615 105.952C120.125 105.952 119.725 106.352 119.725 106.842Z" fill="#0C133D"/>
<path d="M126.924 106.842C126.924 107.332 127.324 107.732 127.814 107.732C128.304 107.732 128.704 107.332 128.704 106.842C128.704 106.352 128.304 105.952 127.814 105.952C127.324 105.952 126.924 106.352 126.924 106.842Z" fill="#0C133D"/>
<path d="M108.654 108.542C108.654 110.652 110.364 112.372 112.484 112.372C114.604 112.372 116.314 110.662 116.314 108.542C116.314 106.422 114.604 104.712 112.484 104.712C110.364 104.712 108.654 106.422 108.654 108.542Z" fill="white"/>
<path d="M113.185 110.012C112.935 110.012 112.695 109.902 112.545 109.682L111.145 107.722C110.895 107.372 110.975 106.872 111.325 106.622C111.685 106.372 112.175 106.452 112.425 106.802L113.825 108.762C114.075 109.112 113.995 109.612 113.645 109.862C113.505 109.962 113.345 110.012 113.185 110.012Z" fill="#0C133D"/>
<path d="M122.235 80.6024C121.825 88.9724 114.705 95.4124 106.335 95.0024C97.9646 94.5924 91.5246 87.4724 91.9346 79.1024C92.3446 70.7324 99.4646 64.2924 107.835 64.7024C116.205 65.1124 122.645 72.2324 122.235 80.6024Z" fill="#0C133D"/>
<path d="M109.054 92.8024C108.794 92.8024 108.524 92.8024 108.254 92.7824C103.994 92.5724 100.074 90.7124 97.2139 87.5624C94.3539 84.4024 92.8939 80.3224 93.1039 76.0624C93.3139 71.8024 95.1639 67.8824 98.3239 65.0224C101.484 62.1624 105.574 60.7024 109.824 60.9124C118.614 61.3424 125.404 68.8524 124.974 77.6324C124.554 86.1524 117.484 92.8024 109.054 92.8024ZM109.024 62.4724C105.454 62.4724 102.054 63.7824 99.3839 66.1924C96.5339 68.7724 94.8639 72.3024 94.6739 76.1424C94.4839 79.9824 95.8039 83.6624 98.3739 86.5024C100.944 89.3424 104.484 91.0224 108.324 91.2124C116.234 91.6124 123.004 85.4824 123.394 77.5624C123.784 69.6424 117.664 62.8824 109.744 62.4924C109.504 62.4824 109.254 62.4724 109.014 62.4724H109.024Z" fill="#0C133D"/>
<path d="M103.934 95.4724C103.594 95.4724 103.284 95.2524 103.184 94.9124C103.054 94.4924 103.284 94.0524 103.704 93.9224L117.834 89.5524C118.254 89.4224 118.694 89.6524 118.814 90.0724C118.944 90.4924 118.714 90.9324 118.294 91.0624L104.164 95.4324C104.084 95.4524 104.004 95.4724 103.934 95.4724Z" fill="#FD5F2F"/>
<path d="M125.904 115.252C125.174 115.252 123.674 114.982 122.654 112.912C122.464 112.522 122.624 112.052 123.014 111.852C123.404 111.662 123.874 111.822 124.074 112.212C124.864 113.802 125.914 113.682 126.024 113.662C126.444 113.592 126.854 113.872 126.934 114.292C127.014 114.712 126.744 115.122 126.334 115.202C126.314 115.202 126.154 115.232 125.914 115.232L125.904 115.252Z" fill="#0C133D"/>
<path d="M107.464 113.072C111.674 113.282 114.924 116.862 114.714 121.082C114.504 125.302 110.924 128.542 106.704 128.332C102.494 128.122 99.244 124.542 99.454 120.322C99.664 116.112 103.244 112.862 107.464 113.072Z" fill="#0C133D"/>
<path d="M116.124 223.272C115.684 223.272 115.334 222.922 115.334 222.482V215.462C115.334 212.362 117.854 209.852 120.944 209.852C121.384 209.852 121.734 210.202 121.734 210.642C121.734 211.082 121.384 211.432 120.944 211.432C118.714 211.432 116.904 213.242 116.904 215.472V222.492C116.904 222.932 116.554 223.282 116.114 223.282L116.124 223.272Z" fill="#0C133D"/>
<path d="M160.514 177.732C160.374 177.732 160.234 177.692 160.104 177.612C159.734 177.382 159.614 176.902 159.844 176.532C159.954 176.342 171.444 158.162 191.294 168.152C191.684 168.352 191.834 168.822 191.644 169.212C191.454 169.602 190.984 169.762 190.584 169.562C172.034 160.222 161.614 176.652 161.184 177.362C161.034 177.602 160.774 177.732 160.514 177.732Z" fill="white"/>
<path d="M88.5634 186.022C88.1234 186.022 87.7734 185.672 87.7734 185.232V150.082C87.7734 149.642 88.1234 149.292 88.5634 149.292C89.0034 149.292 89.3534 149.642 89.3534 150.082V185.232C89.3534 185.672 89.0034 186.022 88.5634 186.022Z" fill="white"/>
<path d="M144.813 197.482C144.373 197.482 144.023 197.132 144.023 196.692V170.732C144.023 170.292 144.373 169.942 144.813 169.942C149.853 169.942 153.943 165.842 153.943 160.802C153.943 155.762 149.843 151.662 144.813 151.662C144.373 151.662 144.023 151.312 144.023 150.872V143.762C144.023 143.322 144.373 142.972 144.813 142.972C145.253 142.972 145.603 143.322 145.603 143.762V150.112C151.143 150.512 155.523 155.152 155.523 160.792C155.523 166.432 151.143 171.072 145.603 171.472V196.672C145.603 197.112 145.253 197.462 144.813 197.462V197.482Z" fill="white"/>
<path d="M137.445 172.602C141.195 173.402 148.195 180.292 148.195 180.292L162.935 176.282C168.795 174.682 174.875 177.962 176.765 183.742C178.835 190.062 175.065 196.792 168.605 198.362C160.995 200.222 151.725 201.072 147.435 195.932C147.435 195.932 138.465 203.532 135.335 199.802C134.115 198.352 134.155 196.792 134.955 195.242C133.265 195.462 131.695 195.212 130.655 194.062C129.225 192.482 129.875 190.412 131.405 188.422C130.295 188.422 129.285 188.092 128.545 187.212C127.485 185.962 128.005 184.392 129.265 182.822C127.105 183.242 125.145 182.522 125.275 180.032C125.445 176.692 133.705 171.782 137.455 172.592L137.445 172.602Z" fill="white"/>
<path d="M137.724 201.622C137.584 201.622 137.444 201.622 137.304 201.602C136.224 201.512 135.354 201.072 134.714 200.312C133.664 199.062 133.334 197.622 133.754 196.112C132.184 196.092 130.944 195.582 130.064 194.602C129.274 193.722 128.324 191.912 130.024 189.052C129.194 188.832 128.494 188.392 127.934 187.732C127.244 186.912 126.744 185.602 127.724 183.722C126.854 183.652 126.104 183.372 125.544 182.882C125.014 182.422 124.404 181.552 124.474 180.012C124.574 178.082 126.624 176.232 127.844 175.302C130.654 173.142 134.914 171.262 137.614 171.842C141.114 172.592 146.964 178.032 148.424 179.422L162.724 175.532C168.994 173.832 175.494 177.332 177.514 183.502C178.584 186.762 178.244 190.212 176.584 193.202C174.934 196.162 172.094 198.332 168.794 199.132C161.594 200.892 152.154 201.902 147.354 197.022C145.734 198.292 141.174 201.622 137.744 201.622H137.724ZM134.944 194.462C135.194 194.462 135.444 194.582 135.594 194.802C135.764 195.042 135.784 195.352 135.644 195.612C134.914 197.022 135.004 198.192 135.934 199.302C136.304 199.742 136.804 199.982 137.454 200.042C140.354 200.282 145.284 196.732 146.924 195.342C147.084 195.202 147.284 195.142 147.504 195.162C147.714 195.182 147.904 195.282 148.044 195.442C152.144 200.352 161.384 199.332 168.424 197.612C171.344 196.902 173.754 195.062 175.214 192.442C176.664 189.832 176.954 186.832 176.024 183.992C174.264 178.612 168.614 175.562 163.154 177.052L148.414 181.062C148.144 181.132 147.854 181.062 147.654 180.862C145.754 178.992 140.184 174.002 137.294 173.382C135.384 172.972 131.664 174.372 128.814 176.552C127.144 177.842 126.114 179.162 126.064 180.092C126.024 180.822 126.204 181.352 126.594 181.692C127.114 182.142 128.034 182.272 129.124 182.062C129.444 182.002 129.774 182.142 129.944 182.432C130.114 182.712 130.094 183.072 129.884 183.332C128.134 185.512 128.904 186.422 129.154 186.712C129.684 187.342 130.414 187.642 131.394 187.642C131.714 187.642 131.994 187.812 132.124 188.082C132.254 188.352 132.224 188.672 132.044 188.912C130.524 190.882 130.264 192.442 131.254 193.542C132.004 194.372 133.214 194.682 134.864 194.462C134.894 194.462 134.934 194.462 134.964 194.462H134.944Z" fill="#0C133D"/>
<path d="M129.244 183.622C129.104 183.622 128.954 183.582 128.824 183.502C128.454 183.272 128.344 182.782 128.574 182.422C128.824 182.012 134.874 172.482 142.704 174.652C143.124 174.772 143.364 175.202 143.254 175.622C143.134 176.042 142.714 176.292 142.284 176.172C135.604 174.322 129.964 183.172 129.914 183.262C129.764 183.502 129.504 183.632 129.244 183.632V183.622Z" fill="#0C133D"/>
<path d="M131.394 189.212C131.144 189.212 130.904 189.092 130.754 188.882C130.504 188.532 130.584 188.032 130.934 187.782C132.054 186.982 141.924 179.972 144.074 179.412C144.504 179.302 144.924 179.562 145.034 179.982C145.144 180.402 144.884 180.832 144.464 180.942C143.054 181.302 135.974 186.122 131.844 189.062C131.704 189.162 131.544 189.212 131.384 189.212H131.394Z" fill="#0C133D"/>
<path d="M134.945 196.032C134.725 196.032 134.505 195.942 134.345 195.752C134.065 195.422 134.105 194.922 134.435 194.642C136.065 193.252 144.335 186.312 146.835 185.892C147.265 185.822 147.675 186.112 147.745 186.542C147.815 186.972 147.525 187.382 147.095 187.452C145.495 187.722 139.105 192.742 135.455 195.842C135.305 195.972 135.125 196.032 134.945 196.032Z" fill="#0C133D"/>
<path d="M46.7626 110.006L8.01465 114.606L31.3616 311.275L70.1095 306.675L46.7626 110.006Z" fill="#FD5F2F"/>
<path d="M31.3738 312.062C31.1938 312.062 31.0238 312.002 30.8838 311.892C30.7238 311.762 30.6138 311.572 30.5938 311.362L7.23381 114.692C7.18381 114.262 7.49381 113.872 7.92381 113.812L46.6738 109.212C46.8738 109.192 47.0938 109.242 47.2538 109.372C47.4138 109.502 47.5238 109.692 47.5438 109.902L70.9038 306.572C70.9538 307.002 70.6438 307.392 70.2138 307.452L31.4638 312.052C31.4638 312.052 31.4038 312.052 31.3738 312.052V312.062ZM8.89381 115.292L32.0638 310.392L69.2538 305.972L46.0838 110.872L8.89381 115.292Z" fill="#0C133D"/>
<path d="M46.7939 110.232L23.4539 79.1324L8.04395 114.832L46.7939 110.232Z" fill="white"/>
<path d="M8.04361 115.622C7.79361 115.622 7.56361 115.502 7.41361 115.302C7.24361 115.072 7.21361 114.782 7.32361 114.522L22.7336 78.8224C22.8436 78.5624 23.0836 78.3824 23.3636 78.3524C23.6436 78.3224 23.9236 78.4324 24.0836 78.6624L47.4236 109.762C47.5936 109.992 47.6236 110.282 47.5136 110.542C47.4036 110.802 47.1636 110.982 46.8836 111.012L8.13361 115.612C8.13361 115.612 8.07361 115.612 8.04361 115.612V115.622ZM23.6436 80.6924L9.31361 113.892L45.3536 109.612L23.6436 80.6924Z" fill="#0C133D"/>
<path d="M23.4542 79.1324L15.5342 97.4824L35.4542 95.1124L23.4542 79.1324Z" fill="#0C133D"/>
<path d="M57.8141 291.512C57.4241 291.512 57.0841 291.222 57.0341 290.812L35.8041 112.082C35.7541 111.652 36.0641 111.262 36.4941 111.202C36.9341 111.152 37.3141 111.462 37.3641 111.892L58.5941 290.622C58.6441 291.052 58.3341 291.442 57.9041 291.502C57.8741 291.502 57.8441 291.502 57.8141 291.502V291.512Z" fill="#0C133D"/>
<path d="M39.6042 293.672C39.2142 293.672 38.8742 293.382 38.8242 292.972L17.5942 114.252C17.5442 113.822 17.8542 113.432 18.2842 113.372C18.7342 113.332 19.1042 113.632 19.1642 114.062L40.3942 292.792C40.4442 293.222 40.1342 293.612 39.7042 293.672C39.6742 293.672 39.6442 293.672 39.6142 293.672H39.6042Z" fill="#0C133D"/>
<path d="M68.874 296.142L70.384 308.852C71.654 319.552 64.014 329.262 53.314 330.532C42.614 331.802 32.904 324.162 31.634 313.462L30.124 300.752L68.874 296.152V296.142Z" fill="white"/>
<path d="M50.9942 331.462C40.8642 331.462 32.0742 323.862 30.8542 313.552L29.3442 300.832C29.2942 300.402 29.6042 300.012 30.0342 299.952L68.7842 295.352C68.9842 295.332 69.2042 295.382 69.3642 295.512C69.5242 295.642 69.6342 295.832 69.6542 296.042L71.1642 308.762C71.8042 314.142 70.3042 319.462 66.9542 323.722C63.5942 327.982 58.7842 330.682 53.4042 331.322C52.5942 331.422 51.7942 331.462 50.9942 331.462ZM31.0042 301.432L32.4242 313.362C33.6442 323.612 42.9642 330.972 53.2242 329.752C58.1942 329.162 62.6342 326.672 65.7242 322.742C68.8142 318.812 70.1942 313.912 69.6042 308.952L68.1842 297.022L30.9942 301.442L31.0042 301.432Z" fill="#0C133D"/>
<path d="M31.3878 311.264L70.1357 306.664L68.1246 289.723L29.3767 294.323L31.3878 311.264Z" fill="white"/>
<path d="M31.3734 312.062C31.1934 312.062 31.0234 312.002 30.8834 311.892C30.7234 311.762 30.6134 311.572 30.5934 311.362L28.5834 294.422C28.5334 293.992 28.8434 293.602 29.2734 293.542L68.0234 288.942C68.2234 288.922 68.4434 288.972 68.6034 289.102C68.7634 289.232 68.8734 289.422 68.8934 289.632L70.9034 306.572C70.9534 307.002 70.6434 307.392 70.2134 307.452L31.4634 312.052C31.4634 312.052 31.4034 312.052 31.3734 312.052V312.062ZM30.2334 295.022L32.0634 310.392L69.2534 305.972L67.4234 290.602L30.2334 295.022Z" fill="#0C133D"/>
<path d="M6.05424 167.452C6.05424 167.452 3.94424 166.972 2.85424 163.882C1.79424 160.862 4.32424 158.712 4.32424 158.712C4.32424 158.712 1.93424 158.592 0.924236 154.932C0.0142356 151.642 3.16424 148.352 6.68424 147.332C8.93424 146.682 14.8542 145.382 16.2042 148.772C17.6542 152.432 15.4042 154.292 15.4042 154.292C15.4042 154.292 19.6942 153.642 21.2242 157.792C22.3242 160.762 19.9642 163.022 19.9642 163.022C19.9642 163.022 22.8942 163.492 23.5742 166.412C24.6742 171.162 19.7542 172.592 19.7542 172.592C19.7542 172.592 21.4242 173.342 21.8042 175.762C22.4242 179.672 15.8942 180.932 15.8942 180.932L16.2242 183.702C16.2242 183.702 13.5542 184.642 10.9642 183.672C8.02424 182.572 6.55424 179.882 8.14424 176.372C8.14424 176.372 6.09424 175.132 5.29424 172.222C4.47424 169.272 6.04424 167.462 6.04424 167.462L6.05424 167.452Z" fill="white"/>
<path d="M13.5339 184.892C12.6639 184.892 11.6739 184.772 10.6939 184.402C8.98391 183.762 7.71391 182.612 7.11391 181.172C6.55391 179.822 6.58391 178.262 7.19391 176.632C6.45391 176.012 5.16391 174.662 4.54391 172.422C3.96391 170.322 4.45391 168.712 4.91391 167.802C4.06391 167.302 2.86391 166.262 2.12391 164.142C1.34391 161.912 2.20391 160.112 2.96391 159.082C2.02391 158.582 0.833906 157.502 0.183906 155.152C-0.846094 151.422 2.61391 147.712 6.48391 146.582C9.1039 145.822 15.3639 144.492 16.9539 148.492C17.8539 150.772 17.4939 152.452 16.9539 153.522C18.7339 153.752 20.9539 154.752 21.9839 157.522C22.7939 159.722 22.0039 161.562 21.3039 162.622C22.3839 163.092 23.8639 164.112 24.3539 166.242C25.1639 169.712 23.1339 171.812 21.2939 172.812C21.8339 173.402 22.3839 174.312 22.5939 175.642C23.1939 179.422 18.5939 181.042 16.7639 181.532L17.0139 183.602C17.0539 183.972 16.8439 184.312 16.4939 184.442C16.4139 184.472 15.1739 184.892 13.5439 184.892H13.5339ZM6.65391 167.972C6.59391 168.042 5.37391 169.532 6.06391 172.012C6.77391 174.592 8.54391 175.692 8.56391 175.702C8.90391 175.912 9.03391 176.342 8.87391 176.702C8.22391 178.142 8.11391 179.482 8.57391 180.582C9.01391 181.632 9.93391 182.452 11.2539 182.942C12.8539 183.542 14.5139 183.322 15.3739 183.132L15.1239 181.042C15.0739 180.632 15.3539 180.252 15.7539 180.172C15.8139 180.162 21.5339 179.012 21.0339 175.902C20.7239 173.972 19.4839 173.352 19.4239 173.322C19.1339 173.182 18.9539 172.872 18.9739 172.542C19.0039 172.212 19.2239 171.942 19.5339 171.852C19.7039 171.802 23.7239 170.562 22.8039 166.612C22.2539 164.252 19.9339 163.832 19.8339 163.822C19.5439 163.772 19.2939 163.562 19.2139 163.272C19.1239 162.992 19.2139 162.682 19.4239 162.472C19.5039 162.392 21.3939 160.512 20.4939 158.082C19.2039 154.602 15.6739 155.072 15.5239 155.092C15.1739 155.142 14.8339 154.952 14.6939 154.632C14.5539 154.312 14.6439 153.932 14.9139 153.702C14.9839 153.642 16.6939 152.132 15.4839 149.082C14.3139 146.132 8.14391 147.752 6.91391 148.102C3.76391 149.012 0.913906 151.902 1.69391 154.732C2.52391 157.742 4.30391 157.922 4.38391 157.932C4.70391 157.962 4.97391 158.172 5.07391 158.472C5.17391 158.772 5.07391 159.102 4.84391 159.312C4.76391 159.382 2.74391 161.172 3.60391 163.622C4.51391 166.222 6.17391 166.672 6.24391 166.692C6.50391 166.762 6.72391 166.962 6.80391 167.222C6.88391 167.482 6.83391 167.762 6.65391 167.972Z" fill="#0C133D"/>
<path d="M8.15353 177.152C7.93353 177.152 7.70353 177.062 7.55353 176.872C7.27353 176.542 7.31353 176.042 7.64353 175.762C10.2735 173.532 19.2435 171.882 19.6235 171.812C20.0535 171.742 20.4635 172.022 20.5435 172.442C20.6235 172.872 20.3335 173.282 19.9135 173.362C17.4335 173.812 10.5935 175.332 8.67353 176.962C8.52353 177.092 8.34353 177.152 8.16353 177.152H8.15353Z" fill="#0C133D"/>
<path d="M6.05399 168.242C5.77399 168.242 5.50399 168.092 5.36399 167.832C5.15399 167.452 5.29399 166.972 5.68399 166.762C14.704 161.872 19.814 162.222 20.034 162.242C20.464 162.282 20.794 162.662 20.754 163.092C20.724 163.522 20.324 163.842 19.904 163.812C19.854 163.812 14.964 163.512 6.42399 168.152C6.30399 168.212 6.17399 168.252 6.05399 168.252V168.242Z" fill="#0C133D"/>
<path d="M4.32416 159.502C4.05416 159.502 3.78416 159.362 3.64416 159.102C3.42416 158.722 3.55416 158.242 3.93416 158.022C7.22416 156.132 14.8442 153.642 15.1642 153.542C15.5842 153.412 16.0242 153.632 16.1542 154.052C16.2942 154.462 16.0642 154.912 15.6442 155.042C15.5642 155.062 7.85416 157.582 4.71416 159.392C4.59416 159.462 4.45416 159.492 4.32416 159.492V159.502Z" fill="#0C133D"/>
<path d="M414.805 113.292C414.605 113.292 414.405 113.212 414.245 113.062L403.315 102.132C403.005 101.822 403.005 101.322 403.315 101.022C403.625 100.712 404.125 100.712 404.425 101.022L415.355 111.952C415.665 112.262 415.665 112.762 415.355 113.062C415.205 113.212 414.995 113.292 414.795 113.292H414.805Z" fill="#0C133D"/>
<path d="M403.875 113.292C403.675 113.292 403.475 113.212 403.315 113.062C403.005 112.752 403.005 112.252 403.315 111.952L414.245 101.022C414.555 100.712 415.055 100.712 415.355 101.022C415.665 101.332 415.665 101.832 415.355 102.132L404.425 113.062C404.275 113.212 404.065 113.292 403.865 113.292H403.875Z" fill="#0C133D"/>
<path d="M283.994 40.9624C278.154 40.9624 273.404 36.2124 273.404 30.3724C273.404 24.5324 278.154 19.7824 283.994 19.7824C289.834 19.7824 294.584 24.5324 294.584 30.3724C294.584 36.2124 289.834 40.9624 283.994 40.9624ZM283.994 21.3524C279.024 21.3524 274.974 25.4024 274.974 30.3724C274.974 35.3424 279.024 39.3924 283.994 39.3924C288.964 39.3924 293.014 35.3424 293.014 30.3724C293.014 25.4024 288.964 21.3524 283.994 21.3524Z" fill="#0C133D"/>
</svg>
