<svg width="149" height="35" viewBox="0 0 149 35" fill="none" xmlns="http://www.w3.org/2000/svg">
<g clip-path="url(#clip0_6_4006)">
<path d="M12.3297 7.48345C10.5294 7.48345 10.1293 8.27642 10.1293 9.86238V12.6378H14.7302L14.3301 17.1974H10.1293V30.8763H4.52826V17.1974H0.727539V12.6378H4.52826V9.86238C4.52826 5.30276 6.3286 2.92383 11.5296 2.92383H14.7302V7.08696L12.3297 7.48345ZM15.1303 21.1623C15.1303 16.008 17.5307 12.2413 22.7317 12.2413C25.5323 12.2413 27.1326 13.629 27.9327 15.4132V12.6378H33.3337V30.8763H27.9327V28.1009C27.1326 29.8851 25.3322 31.2728 22.7317 31.2728C17.5307 31.2728 15.1303 27.5061 15.1303 22.3518V21.1623ZM20.7313 22.3518C20.7313 25.1272 21.7315 26.9114 24.332 26.9114C26.9325 26.9114 27.7327 25.3254 27.7327 22.7483V20.9641C27.7327 18.3869 26.5324 16.8009 24.332 16.8009C22.1316 16.8009 20.7313 18.5851 20.7313 21.3605V22.3518ZM44.9359 12.2413C47.1364 12.2413 49.1367 12.6378 50.337 13.4308L49.1367 17.3957C47.9452 16.8542 46.6467 16.5832 45.336 16.6027C42.3354 16.6027 40.9352 18.3869 40.9352 21.3605V22.3518C40.9352 25.3254 42.3354 27.1096 45.336 27.1096C46.6467 27.1291 47.9452 26.8582 49.1367 26.3167L50.337 30.2815C49.1367 31.0745 47.1364 31.471 44.9359 31.471C38.3347 31.471 35.3341 27.9026 35.3341 22.3518V21.5588C35.3341 15.8097 38.3347 12.2413 44.9359 12.2413ZM50.9371 22.55V20.9641C50.9371 15.8097 53.9377 12.4396 59.9388 12.4396C65.9399 12.4396 68.1404 15.8097 68.1404 20.9641V23.9377H56.5382C56.7382 26.5149 57.7384 27.5061 60.939 27.5061C64.1396 27.5061 65.1398 27.1096 66.9401 26.3167L67.9403 30.0833C66.5401 30.8763 63.5395 31.471 60.7389 31.471C53.5376 31.2728 50.9371 27.9026 50.9371 22.55ZM56.5382 20.1711H63.3394V19.7746C63.3394 17.7922 62.5393 16.2062 60.1388 16.2062C57.7384 16.2062 56.5382 17.5939 56.5382 20.1711ZM88.7443 22.3518C88.7443 27.5061 86.3438 31.2728 81.1428 31.2728C78.3423 31.2728 76.3419 29.8851 75.7418 28.1009V30.8763H70.5408V3.51856L76.1419 2.92383V15.0167C76.942 13.4308 78.7424 12.0431 81.3429 12.0431C86.5439 12.0431 88.9443 15.8097 88.9443 20.9641L88.7443 22.3518ZM83.1432 21.1623C83.1432 18.5851 82.143 16.6027 79.5425 16.6027C76.942 16.6027 75.9418 18.1886 75.9418 20.7658V22.7483C75.9418 25.3254 77.1421 26.9114 79.5425 26.9114C81.943 26.9114 83.1432 24.9289 83.1432 22.3518V21.1623ZM90.7447 22.1535V21.1623C90.7447 16.008 93.7452 12.0431 99.9464 12.0431C106.148 12.0431 109.148 15.8097 109.148 21.1623V22.1535C109.148 27.3079 106.148 31.2728 99.9464 31.2728C93.7452 31.2728 90.7447 27.5061 90.7447 22.1535ZM103.547 20.7658C103.547 18.3869 102.547 16.4044 99.9464 16.4044C97.3459 16.4044 96.3457 18.3869 96.3457 20.7658V22.55C96.3457 24.9289 97.3459 26.9114 99.9464 26.9114C102.547 26.9114 103.547 24.9289 103.547 22.55V20.7658ZM110.748 22.1535V21.1623C110.748 16.008 113.749 12.0431 119.95 12.0431C126.151 12.0431 129.152 15.8097 129.152 21.1623V22.1535C129.152 27.3079 126.151 31.2728 119.95 31.2728C113.749 31.2728 110.748 27.5061 110.748 22.1535ZM123.551 20.7658C123.551 18.3869 122.551 16.4044 119.95 16.4044C117.35 16.4044 116.35 18.3869 116.35 20.7658V22.55C116.35 24.9289 117.35 26.9114 119.95 26.9114C122.551 26.9114 123.551 24.9289 123.551 22.55V20.7658ZM136.753 21.3605L142.154 12.6378H148.156L142.354 21.5588L148.356 30.8763H142.555L136.753 21.9553V30.8763H131.152V3.51856L136.753 2.92383V21.3605Z" fill="black"/>
</g>
<defs>
<clipPath id="clip0_6_4006">
<rect width="147.628" height="33.8998" fill="white" transform="translate(0.727539 0.14856)"/>
</clipPath>
</defs>
</svg>
