<svg width="697" height="540" viewBox="0 0 697 540" fill="none" xmlns="http://www.w3.org/2000/svg">
<g clip-path="url(#clip0_306_4256)">
<path d="M37.9365 316.683C70.2139 406.533 153.899 472.72 247.301 489.066C313.952 500.764 389.748 484.799 448.167 451.305C500.337 421.393 545.571 371.82 563.024 313.406C580.097 256.326 553.917 186.253 510.817 147.463C476.177 116.294 435.554 109.511 392.034 124.524C374.581 130.545 358.957 139.194 339.789 135.079C302.519 127.039 281.369 82.3049 249.93 63.2528C192.731 28.5781 114.114 43.4006 68.499 90.5735C15.5291 145.329 13.2045 243.485 36.4503 312.416C36.9457 313.826 37.4411 315.235 37.9365 316.645V316.683Z" fill="#67DDB9"/>
<path d="M383.726 50.6404C383.726 73.9982 364.787 92.936 341.427 92.936C318.067 92.936 299.127 73.9982 299.127 50.6404C299.127 27.2826 318.067 8.3448 341.427 8.3448C364.787 8.3448 383.726 27.2826 383.726 50.6404Z" fill="#67DDB9"/>
<path d="M643.85 514.063H182.897C182.021 514.063 181.297 513.339 181.297 512.462C181.297 511.586 182.021 510.862 182.897 510.862H643.812C644.688 510.862 645.412 511.586 645.412 512.462C645.412 513.339 644.688 514.063 643.812 514.063H643.85Z" fill="#0C133D"/>
<path d="M166.168 17.0325H1.35156V512.462H166.168V17.0325Z" fill="white"/>
<path d="M166.168 17.0325H1.35156V512.462H166.168V17.0325Z" fill="#D75338"/>
<path d="M166.168 514.063H1.35151C0.475025 514.063 -0.249023 513.339 -0.249023 512.462V17.0325C-0.249023 16.1561 0.475025 15.4322 1.35151 15.4322H166.168C167.044 15.4322 167.768 16.1561 167.768 17.0325V512.462C167.768 513.339 167.044 514.063 166.168 514.063ZM2.95203 510.862H164.567V18.6329H2.95203V510.862Z" fill="#0C133D"/>
<path d="M330.984 168.839H166.168V512.462H330.984V168.839Z" fill="white"/>
<path d="M330.983 514.063H166.167C165.29 514.063 164.566 513.339 164.566 512.462V168.839C164.566 167.963 165.29 167.239 166.167 167.239H330.983C331.86 167.239 332.584 167.963 332.584 168.839V512.462C332.584 513.339 331.86 514.063 330.983 514.063ZM167.767 510.862H329.383V170.44H167.767V510.862Z" fill="#0C133D"/>
<path d="M495.801 421.355H330.984V512.462H495.801V421.355Z" fill="white"/>
<path d="M495.763 514.063H330.946C330.07 514.063 329.346 513.339 329.346 512.462V421.355C329.346 420.479 330.07 419.755 330.946 419.755H495.763C496.639 419.755 497.363 420.479 497.363 421.355V512.462C497.363 513.339 496.639 514.063 495.763 514.063ZM332.547 510.862H494.162V422.956H332.547V510.862Z" fill="#0C133D"/>
<path d="M217.119 138.242C216.7 138.242 216.319 138.089 215.976 137.784C215.366 137.175 215.366 136.146 215.976 135.536L237.354 114.16C237.964 113.55 238.993 113.55 239.603 114.16C240.212 114.77 240.212 115.798 239.603 116.408L218.224 137.784C217.919 138.089 217.5 138.242 217.081 138.242H217.119Z" fill="#0C133D"/>
<path d="M238.498 138.242C238.078 138.242 237.697 138.089 237.354 137.784L215.976 116.408C215.366 115.798 215.366 114.77 215.976 114.16C216.586 113.55 217.614 113.55 218.224 114.16L239.603 135.536C240.212 136.146 240.212 137.175 239.603 137.784C239.298 138.089 238.879 138.242 238.459 138.242H238.498Z" fill="#0C133D"/>
<path d="M498.926 172.535L498.393 222.338H606.809L624.987 241.047C726.354 243.18 696.058 181.947 666.715 140.147C639.544 101.433 632.113 78.685 567.406 80.3997L538.215 79.2185C506.624 78.304 496.754 84.3244 482.464 98.9183C474.309 107.225 459.561 109.016 459.485 91.5261C459.408 75.5224 475.261 59.4805 475.261 59.4805L445.118 31.3597C445.118 31.3597 439.287 35.0939 403.619 67.4824C340.245 125.02 375.914 197.951 498.926 172.535Z" fill="white"/>
<path d="M629.903 242.685C628.265 242.685 626.626 242.685 624.911 242.647C624.492 242.647 624.073 242.457 623.806 242.152L606.124 223.9H498.393C497.974 223.9 497.555 223.747 497.25 223.443C496.945 223.138 496.793 222.719 496.793 222.299L497.288 174.479C436.697 186.596 391.463 175.851 376.105 145.634C364.215 122.276 374.352 91.869 402.514 66.3012C437.878 34.2175 443.975 30.1785 444.242 30.026C444.852 29.645 445.652 29.7212 446.185 30.2166L476.329 58.3374C476.634 58.6422 476.824 59.0233 476.824 59.4805C476.824 59.8997 476.672 60.3188 476.367 60.6237C476.214 60.7761 460.971 76.3988 461.047 91.5261C461.047 97.5084 462.915 101.433 466.344 102.843C470.46 104.52 476.748 102.386 481.245 97.8133C495.383 83.3718 505.596 76.7036 538.178 77.6181L567.368 78.7993C625.864 77.2371 638.63 96.0605 659.742 127.268C662.295 131.04 665.001 135.041 667.935 139.194C693.924 176.232 702.08 202.714 692.781 220.089C684.779 235.102 663.629 242.685 629.865 242.685H629.903ZM625.673 239.446C660.618 240.094 682.34 233.083 690.037 218.603C698.688 202.371 690.609 177.032 665.382 141.061C662.447 136.87 659.742 132.869 657.15 129.097C635.924 97.7371 624.225 80.514 567.406 82.0382L538.102 80.8569C506.701 79.9424 497.326 86.001 483.569 100.061C478.12 105.625 470.536 107.987 465.163 105.815C461.848 104.481 457.885 100.9 457.846 91.5642C457.808 77.4276 469.241 63.672 472.975 59.5948L444.966 33.4554C442.222 35.5511 432.695 43.2101 404.686 68.7017C377.629 93.2789 367.76 122.2 378.963 144.224C390.434 166.744 427.856 185.605 498.622 171.011C499.117 170.897 499.574 171.011 499.956 171.354C500.337 171.659 500.527 172.116 500.527 172.612L500.032 220.775H606.81C607.229 220.775 607.648 220.966 607.953 221.271L625.673 239.523V239.446Z" fill="#0C133D"/>
<path d="M623.615 511.472C623.615 511.472 623.615 483.77 614.965 483.77L613.745 469.9H551.896L550.677 483.77C543.093 483.77 542.026 511.472 542.026 511.472H623.653H623.615Z" fill="white"/>
<path d="M614.927 483.77H550.601C543.017 483.77 541.95 511.472 541.95 511.472H623.577C623.577 511.472 623.577 483.77 614.927 483.77Z" fill="#0C133D"/>
<path d="M623.615 513.072H541.988C541.569 513.072 541.15 512.881 540.845 512.577C540.54 512.272 540.388 511.853 540.388 511.395C540.578 506.823 541.836 485.027 549.153 482.398L550.258 469.709C550.334 468.871 551.02 468.262 551.858 468.262H613.517C614.355 468.262 615.231 468.909 615.308 469.709L616.413 482.322C624.758 484.646 625.178 506.785 625.178 511.434C625.178 512.31 624.454 513.034 623.577 513.034L623.615 513.072ZM543.627 509.871H621.977C621.786 499.202 619.576 485.37 614.927 485.37C614.088 485.37 613.402 484.723 613.326 483.922L612.221 471.5H553.268L552.163 483.922C552.087 484.761 551.401 485.37 550.562 485.37C547.018 485.37 544.237 497.792 543.589 509.871H543.627Z" fill="#0C133D"/>
<path d="M472.784 374.525L473.508 419.831L375.876 421.355C373.856 421.393 372.56 420.25 372.522 418.536C371.989 393.006 408.534 393.273 408.534 393.273L410.973 375.44L472.784 374.525Z" fill="white"/>
<path d="M375.761 422.956C372.98 422.956 370.96 421.165 370.922 418.574C370.769 412.134 372.865 406.647 377.133 402.341C386.165 393.158 402.246 391.901 407.124 391.71L409.373 375.211C409.487 374.411 410.135 373.84 410.935 373.84L472.746 372.925C473.699 372.925 474.346 373.611 474.385 374.487L475.109 419.793C475.109 420.669 474.423 421.393 473.546 421.432L375.914 422.956C375.914 422.956 375.838 422.956 375.8 422.956H375.761ZM408.534 394.873C407.848 394.873 388.909 394.987 379.458 404.551C375.838 408.248 374.047 412.934 374.161 418.459C374.161 419.603 375.304 419.717 375.876 419.717L471.908 418.193L471.26 376.088L412.421 376.964L410.173 393.425C410.059 394.225 409.373 394.797 408.572 394.797L408.534 394.873Z" fill="#0C133D"/>
<path d="M473.508 419.793L375.876 421.317C373.856 421.355 372.56 420.212 372.522 418.498C371.989 392.968 408.534 393.235 408.534 393.235L408.839 391.101H473.051L473.508 419.755V419.793Z" fill="#0C133D"/>
<path d="M408.572 254.154C408.801 248.325 411.964 222.414 445.308 222.414C454.873 222.414 492.676 222.338 492.676 222.338H601.474C620.223 230.72 617.327 270.844 617.289 291.611C617.174 337.336 621.404 474.434 621.404 474.434H541.492L534.976 311.196L529.069 310.739L482.654 309.139L477.243 382.87H396.797L408.61 254.193L408.572 254.154Z" fill="#0C133D"/>
<path d="M621.366 475.997H541.454C540.578 475.997 539.892 475.311 539.854 474.472L533.375 312.644L528.879 312.301L484.064 310.739L478.767 382.946C478.69 383.785 478.005 384.432 477.166 384.432H396.721C396.263 384.432 395.844 384.242 395.539 383.899C395.234 383.556 395.082 383.137 395.12 382.68L406.933 254.04C407.162 248.401 410.135 220.813 445.27 220.813C454.835 220.813 492.638 220.737 492.638 220.737H601.436C601.664 220.737 601.893 220.775 602.084 220.89C619.766 228.815 619.27 262.233 618.927 284.371C618.889 286.962 618.851 289.401 618.851 291.649C618.737 336.84 622.929 473.025 622.967 474.396C622.967 474.815 622.814 475.235 622.509 475.539C622.205 475.844 621.785 476.035 621.366 476.035V475.997ZM542.978 472.796H619.689C619.232 457.097 615.536 334.097 615.65 291.573C615.65 289.325 615.688 286.886 615.726 284.257C616.031 263.109 616.527 231.216 601.093 223.9H492.638C492.638 223.9 454.873 223.976 445.27 223.976C412.954 223.976 410.325 249.125 410.135 254.193C410.135 254.269 398.473 381.194 398.473 381.194H475.68L481.015 308.948C481.091 308.11 481.777 307.462 482.616 307.462C482.654 307.462 529.069 309.063 529.069 309.063L535.052 309.52C535.852 309.596 536.5 310.244 536.538 311.044L542.978 472.758V472.796Z" fill="#0C133D"/>
<path d="M498.927 174.136C498.012 174.136 497.326 173.374 497.326 172.497L498.469 112.903C498.469 112.026 499.193 111.34 500.07 111.34C500.984 111.34 501.67 112.102 501.67 112.979L500.527 172.574C500.527 173.45 499.803 174.136 498.927 174.136Z" fill="#0C133D"/>
<path d="M534.9 312.759C534.024 312.759 533.338 312.073 533.3 311.196L531.966 250.916C531.966 250.039 532.652 249.315 533.528 249.277C534.443 249.277 535.129 249.963 535.167 250.839L536.501 311.12C536.501 311.997 535.815 312.721 534.938 312.759H534.9Z" fill="white"/>
<path d="M616.337 192.693C615.956 192.693 615.575 192.578 615.27 192.312C614.622 191.74 614.546 190.711 615.117 190.063C639.125 162.781 677.691 182.671 678.072 182.862C678.834 183.281 679.139 184.233 678.758 185.034C678.338 185.796 677.386 186.101 676.585 185.719C676.204 185.529 639.849 166.82 617.518 192.197C617.213 192.54 616.756 192.731 616.337 192.731V192.693Z" fill="#0C133D"/>
<path d="M614.317 188.12C613.441 188.12 612.717 187.396 612.717 186.52V112.903C612.717 112.026 613.441 111.302 614.317 111.302C615.194 111.302 615.918 112.026 615.918 112.903V186.52C615.918 187.396 615.194 188.12 614.317 188.12Z" fill="#0C133D"/>
<path d="M482.617 310.701C482.007 310.701 481.435 310.358 481.169 309.748L469.355 283.076C469.012 282.275 469.355 281.323 470.155 280.98C470.956 280.637 471.908 280.98 472.251 281.78L484.065 308.453C484.408 309.253 484.065 310.206 483.264 310.549C483.074 310.625 482.845 310.701 482.617 310.701Z" fill="white"/>
<path d="M522.21 43.6292C525.182 60.3569 541.111 71.5214 557.84 68.5493C574.57 65.5772 585.735 49.6497 582.763 32.922C579.791 16.1943 563.861 5.02975 547.132 8.00187C530.403 10.974 519.237 26.9015 522.21 43.6292Z" fill="#0C133D"/>
<path d="M575.066 83.8291L570.569 61.0047C554.907 60.9285 556.431 47.5159 556.431 47.5159C553.421 45.8774 552.62 40.619 552.468 35.3987C552.239 27.5112 543.398 22.8244 536.958 27.3969C536.653 27.5874 536.386 27.816 536.082 28.0446C530.48 32.6552 523.696 32.4266 523.696 32.4266C523.468 34.7891 523.392 35.132 523.163 38.0279C521.372 60.014 517.066 77.6943 538.558 75.3319L540.54 86.7631L575.028 83.791L575.066 83.8291Z" fill="white"/>
<path d="M540.578 88.3635C539.816 88.3635 539.13 87.83 539.015 87.0298L537.262 77.0465C531.318 77.4657 527.05 76.3226 524.23 73.5029C518.742 68.054 519.771 57.3467 520.952 44.9248C521.181 42.6385 521.41 40.2761 521.6 37.8755C521.791 35.5512 521.867 34.8272 522.019 33.4554L522.134 32.2361C522.248 31.2073 522.972 26.1013 525.335 24.3485C526.059 23.8151 527.049 23.9675 527.583 24.6915C528.116 25.4155 527.964 26.4062 527.24 26.9396C526.44 27.5493 525.601 30.369 525.335 32.6171L525.22 33.8365C525.068 35.1701 524.992 35.8941 524.801 38.1803C524.611 40.619 524.382 42.9815 524.153 45.2677C523.048 56.8895 522.057 66.9109 526.516 71.2547C528.841 73.541 532.766 74.3793 538.444 73.7696C539.282 73.6934 540.044 74.2649 540.197 75.0651L542.178 86.4964C542.331 87.3728 541.759 88.2111 540.883 88.3635C540.806 88.3635 540.692 88.3635 540.616 88.3635H540.578Z" fill="#0C133D"/>
<path d="M575.066 84.896C574.303 84.896 573.656 84.3625 573.503 83.6004L569.006 61.3095C568.816 60.4331 569.387 59.5948 570.264 59.4424C571.14 59.2519 571.979 59.8235 572.131 60.6999L576.628 82.9908C576.819 83.8672 576.247 84.7055 575.37 84.8579C575.256 84.8579 575.142 84.8579 575.066 84.8579V84.896Z" fill="#0C133D"/>
<path d="M528.574 46.1441C528.574 47.1348 527.812 47.9731 526.821 48.0112C525.831 48.0112 524.992 47.2491 524.954 46.2584C524.954 45.2677 525.716 44.4294 526.707 44.3913C527.698 44.3913 528.536 45.1534 528.574 46.1441Z" fill="#0C133D"/>
<path d="M565.424 51.3263C563.9 55.3272 559.403 57.3467 555.402 55.8225C551.4 54.2984 549.381 49.8021 550.905 45.8012C552.429 41.8002 556.926 39.7807 560.927 41.3049C564.929 42.829 566.948 47.3253 565.424 51.3263Z" fill="white"/>
<path d="M556.355 50.9452C555.821 50.9452 555.326 50.6785 555.021 50.2212C554.526 49.4972 554.716 48.5065 555.478 48.0112L559.556 45.3058C560.28 44.8104 561.271 45.001 561.766 45.763C562.262 46.487 562.071 47.4777 561.309 47.9731L557.231 50.6785C556.965 50.869 556.66 50.9452 556.355 50.9452Z" fill="#0C133D"/>
<path d="M543.36 46.5632C543.36 47.554 542.598 48.3922 541.608 48.4303C540.617 48.4303 539.778 47.6683 539.74 46.6776C539.74 45.6868 540.502 44.8486 541.493 44.8105C542.484 44.8105 543.322 45.5725 543.36 46.5632Z" fill="#0C133D"/>
<path d="M538.596 76.9322C537.758 76.9322 537.072 76.2845 536.996 75.4462C536.958 74.5698 537.605 73.8077 538.482 73.7315C541.492 73.541 548.657 71.712 548.733 71.712C549.609 71.4833 550.448 72.0168 550.676 72.8551C550.905 73.6934 550.372 74.5698 549.533 74.7984C549.228 74.8746 541.988 76.7036 538.711 76.9322C538.711 76.9322 538.634 76.9322 538.596 76.9322Z" fill="#0C133D"/>
<path d="M540.883 84.172C540.883 84.172 547.438 87.1441 549.915 80.6664C551.591 76.2845 550.258 73.0456 550.258 73.0456L538.597 75.3319L540.883 84.172Z" fill="#0C133D"/>
<path d="M530.518 57.2705C530.518 57.2705 530.442 57.2705 530.365 57.2705C529.489 57.1943 528.841 56.4322 528.917 55.5558L529.946 43.2482C530.022 42.3718 530.746 41.724 531.661 41.8002C532.537 41.8764 533.185 42.6385 533.109 43.5149L532.08 55.8225C532.004 56.6608 531.318 57.2705 530.48 57.2705H530.518Z" fill="#0C133D"/>
<path d="M532.728 61.2714C531.928 61.2714 531.242 60.6618 531.127 59.8616C531.013 58.9852 531.661 58.185 532.537 58.0707C533.833 57.9183 534.671 56.3179 534.671 56.3179C535.052 55.5177 536.005 55.1748 536.805 55.5558C537.606 55.9369 537.949 56.8895 537.568 57.6896C537.491 57.804 536.005 60.8904 532.957 61.2333C532.88 61.2333 532.842 61.2333 532.766 61.2333L532.728 61.2714Z" fill="#0C133D"/>
<path d="M442.45 59.0995C449.652 68.435 463.257 69.6924 472.06 61.9192C473.241 60.8904 474.156 60.1283 474.651 59.8235C478.69 57.4991 481.625 56.7751 486.007 57.1181C490.199 57.4229 493.705 55.7082 497.63 54.6413C502.736 53.2696 505.442 54.2603 509.062 58.185C509.977 59.1757 510.51 60.4331 511.692 61.2333C516.417 64.396 522.553 60.8523 523.772 55.7082C525.411 48.8114 520.266 43.5911 515.045 39.8569C528.574 39.0948 539.434 39.171 540.044 33.1506C540.654 27.3207 534.175 27.3207 534.175 27.3207C536.233 25.3392 540.616 21.0335 539.206 17.2231C536.386 9.60224 532.88 11.7361 532.88 11.7361C537.262 7.12547 530.25 -2.01952 514.436 4.19145C514.436 4.19145 513.826 -0.762081 502.737 3.04833C491.838 6.78254 472.326 17.8708 465.658 20.7286C462.723 21.9861 456.321 25.0725 449.576 28.3495C437.991 34.027 434.523 48.8876 442.412 59.0995H442.45Z" fill="white"/>
<path d="M458.646 68.5874C457.922 68.5874 457.236 68.5874 456.512 68.4731C450.376 67.9015 444.965 64.8913 441.192 60.0521C437.153 54.7937 435.667 48.0874 437.191 41.6478C438.715 35.1701 442.983 29.7974 448.928 26.9015C457.083 22.9006 462.533 20.3476 465.086 19.2426C467.449 18.2519 471.488 16.1562 476.137 13.7556C484.635 9.37362 495.191 3.96283 502.279 1.52417C507.652 -0.30483 511.577 -0.495351 513.978 1.02881C514.55 1.37175 514.969 1.7909 515.274 2.17194C525.677 -1.48606 532.194 1.33365 534.633 4.95354C535.738 6.59202 536.043 8.42101 535.624 10.0976C537.719 10.8216 539.434 13.0316 540.768 16.6134C542.102 20.1952 539.663 23.8151 537.415 26.2918C538.367 26.6348 539.358 27.2063 540.158 28.1208C540.997 29.0353 541.911 30.6738 541.645 33.303C540.959 40.0093 531.47 40.5809 519.39 41.1906C522.857 44.277 526.935 49.3829 525.372 56.0512C524.61 59.3281 522.171 62.1097 519.008 63.3291C516.227 64.4341 513.254 64.1292 510.853 62.5289C509.863 61.8811 509.253 61.0047 508.719 60.2426C508.491 59.8997 508.224 59.5567 507.919 59.2138C504.642 55.5939 502.508 54.9461 498.087 56.1274C497.058 56.3941 496.068 56.737 495.077 57.0419C492.219 57.9564 489.323 58.909 485.931 58.6423C481.891 58.3374 479.224 58.9852 475.489 61.119C475.337 61.2333 474.765 61.5763 473.127 63.0242C469.049 66.606 463.981 68.5493 458.646 68.5493V68.5874ZM509.825 3.20075C508.415 3.20075 506.319 3.50558 503.308 4.53439C496.449 6.89685 486.007 12.2695 477.585 16.5753C472.86 19.014 468.782 21.1097 466.305 22.1385C463.79 23.2054 458.417 25.7584 450.3 29.7212C445.194 32.198 441.535 36.8086 440.24 42.3337C438.944 47.8588 440.24 53.5744 443.669 58.0707C446.87 62.224 451.52 64.777 456.74 65.2724C461.999 65.7677 467.029 64.1292 470.955 60.6618C472.784 59.0614 473.47 58.6041 473.813 58.3755C478.081 55.8988 481.434 55.0986 486.121 55.4415C488.865 55.632 491.38 54.8318 494.048 53.9935C495.077 53.6506 496.144 53.3077 497.211 53.0409C502.736 51.5549 506.166 52.6218 510.206 57.0419C510.587 57.461 510.93 57.9183 511.235 58.3374C511.654 58.9471 512.035 59.4805 512.568 59.8235C514.131 60.8523 515.96 61.0428 517.789 60.3188C519.961 59.4805 521.676 57.4991 522.21 55.251C523.391 50.3737 520.8 45.8774 514.093 41.0762C513.559 40.6952 513.292 39.9712 513.483 39.3235C513.673 38.6757 514.245 38.2184 514.931 38.1803L518.666 37.9898C529.069 37.4564 538.024 36.9991 538.444 32.922C538.558 31.7407 538.329 30.8643 537.758 30.2166C536.767 29.1116 534.823 28.8448 534.175 28.8448C533.528 28.8448 532.956 28.4257 532.689 27.8541C532.461 27.2444 532.575 26.5586 533.07 26.1013C534.633 24.5772 538.786 20.5762 537.719 17.6803C536.386 14.0604 535.014 13.2221 534.518 13.0697C534.061 12.9173 533.718 13.0316 533.718 13.0697C533.032 13.4889 532.156 13.3364 531.66 12.6887C531.165 12.079 531.203 11.1645 531.737 10.5929C532.765 9.48793 532.842 8.03997 531.965 6.70633C530.441 4.42008 525.144 1.63848 515.045 5.60131C514.588 5.79183 514.055 5.75373 513.635 5.487C513.216 5.22027 512.911 4.80112 512.873 4.30577C512.873 4.30577 512.759 3.92473 512.187 3.61989C511.768 3.39127 511.044 3.16264 509.825 3.16264V3.20075Z" fill="#0C133D"/>
<path d="M515.083 41.4192C514.283 41.4192 513.597 40.8095 513.482 39.9712C513.482 39.895 512.644 32.6552 506.814 28.4638C502.469 25.3393 496.448 24.5772 488.903 26.2538C488.065 26.4443 487.188 25.9108 486.998 25.0344C486.807 24.158 487.34 23.3197 488.217 23.1292C496.715 21.2621 503.613 22.1766 508.719 25.8727C515.693 30.9406 516.607 39.2854 516.645 39.6283C516.722 40.5047 516.112 41.2668 515.235 41.3811C515.197 41.3811 515.121 41.3811 515.083 41.3811V41.4192Z" fill="#0C133D"/>
<path d="M505.633 27.4731C505.061 27.4731 504.49 27.1683 504.223 26.5967C503.804 25.7965 504.109 24.8439 504.909 24.4248L532.232 10.25C533.033 9.83087 533.985 10.1357 534.366 10.9359C534.786 11.7361 534.481 12.6887 533.68 13.1078L506.357 27.2826C506.129 27.3969 505.862 27.4731 505.633 27.4731Z" fill="#0C133D"/>
<path d="M515.084 36.9991C514.474 36.9991 513.864 36.618 513.598 36.0084C513.255 35.2082 513.598 34.2556 514.436 33.9127L533.566 25.7965C534.366 25.4535 535.319 25.7965 535.662 26.6348C536.005 27.435 535.662 28.3876 534.824 28.7305L515.694 36.8467C515.503 36.9229 515.274 36.961 515.084 36.961V36.9991Z" fill="#0C133D"/>
<path d="M503.765 19.4712C503.232 19.4712 502.698 19.2045 502.393 18.671C501.936 17.9089 502.203 16.9182 502.965 16.4991C503.003 16.4991 504.184 15.7751 508.376 13.6413C511.12 12.2314 512.949 10.4786 513.559 8.64964C513.94 7.43031 513.788 6.17287 513.14 4.91544C512.721 4.15336 513.025 3.16265 513.826 2.7435C514.626 2.32436 515.579 2.62919 515.998 3.42938C517.065 5.4489 517.294 7.62083 516.646 9.64035C515.807 12.3457 513.445 14.7082 509.901 16.5372C505.823 18.5948 504.68 19.2807 504.642 19.2807C504.375 19.4331 504.108 19.5093 503.841 19.5093L503.765 19.4712Z" fill="#0C133D"/>
<path d="M551.706 104.786C551.363 104.786 551.058 104.786 550.715 104.786C523.43 104.253 518.78 80.1711 518.704 79.9424C518.552 79.0661 519.123 78.2659 520 78.0753C520.838 77.9229 521.715 78.4945 521.867 79.3709C522.02 80.2473 526.135 101.09 550.791 101.586C551.096 101.586 551.401 101.586 551.706 101.586C576.514 101.586 594.348 80.7807 594.539 80.5902C595.111 79.9043 596.139 79.8281 596.787 80.3997C597.473 80.9713 597.549 81.962 596.978 82.6478C596.216 83.5623 577.962 104.786 551.744 104.786H551.706Z" fill="#0C133D"/>
<path d="M653.454 205.343C648.195 192.388 633.447 186.177 620.49 191.397L618.814 192.083C618.814 192.083 616.489 180.194 607.61 177.184C598.731 174.174 586.689 172.688 579.372 172.878C572.093 173.069 558.146 172.535 558.489 181.376C558.794 190.254 587.908 188.349 587.908 188.349C587.908 188.349 574.799 190.063 569.54 190.483C560.966 191.13 555.745 193.531 556.469 200.123C557.269 207.629 575.79 205.61 586.574 203.781C576.704 206.029 561.042 210.754 562.452 218.222C563.595 224.395 572.551 223.519 580.02 221.652C576.895 223.443 574.57 226.11 575.79 229.92C578.648 239.141 605.59 228.51 605.59 228.51C605.59 228.51 606.009 240.132 618.775 241.047C622.472 241.313 627.921 240.818 633.752 239.942C649.948 237.541 659.589 220.547 653.415 205.343H653.454Z" fill="white"/>
<path d="M620.947 242.723C620.109 242.723 619.347 242.723 618.661 242.647C608.143 241.885 605.171 234.455 604.332 230.682C598.959 232.626 584.402 237.389 577.657 234.188C575.942 233.35 574.799 232.092 574.265 230.378C573.732 228.663 573.579 226.491 574.875 224.281C569.959 224.967 566.263 224.548 563.9 223.023C562.261 221.995 561.271 220.47 560.889 218.489C559.975 213.65 564.472 209.878 570.836 207.02C565.158 207.134 560.089 206.486 557.307 204.391C555.897 203.324 555.059 201.914 554.868 200.237C554.564 197.494 555.173 195.207 556.659 193.455C558.641 191.054 562.147 189.644 567.558 189.035C563.976 188.349 560.813 187.244 558.908 185.529C557.612 184.348 556.926 182.976 556.888 181.414C556.812 179.127 557.498 177.222 558.946 175.698C562.871 171.583 571.293 171.43 577.466 171.316H579.334C586.612 171.088 598.845 172.535 608.105 175.698C615.612 178.251 618.775 186.291 619.88 189.949C633.637 184.386 649.338 191.054 654.901 204.772C658.026 212.507 657.455 221.08 653.339 228.32C649.223 235.522 642.173 240.323 633.98 241.542C628.607 242.342 624.225 242.723 620.947 242.723ZM605.59 226.91C605.895 226.91 606.2 226.986 606.466 227.177C606.886 227.443 607.152 227.939 607.19 228.472C607.19 228.891 607.762 238.684 618.89 239.484C622.129 239.713 627.045 239.332 633.523 238.379C640.725 237.312 646.937 233.083 650.557 226.72C654.216 220.318 654.711 212.773 651.929 205.953C647.013 193.836 633.142 188.006 621.062 192.883L619.385 193.569C618.928 193.759 618.432 193.721 618.013 193.493C617.594 193.264 617.289 192.845 617.213 192.388C617.213 192.273 614.964 181.376 607.076 178.67C598.273 175.66 586.269 174.25 579.41 174.441H577.543C572.246 174.555 564.281 174.707 561.271 177.87C560.432 178.785 560.013 179.89 560.089 181.299C560.089 181.985 560.432 182.595 561.08 183.167C565.577 187.244 581.925 187.129 587.832 186.748C588.67 186.71 589.432 187.32 589.508 188.196C589.585 189.073 588.975 189.835 588.137 189.949C587.603 190.025 574.913 191.702 569.692 192.083C564.205 192.502 560.737 193.645 559.136 195.55C558.222 196.655 557.879 198.103 558.069 199.97C558.146 200.733 558.527 201.38 559.251 201.914C562.642 204.467 572.512 204.581 586.345 202.257C587.184 202.104 588.022 202.676 588.175 203.514C588.327 204.352 587.794 205.191 586.955 205.381C571.788 208.811 563.214 213.535 564.014 217.994C564.205 219.099 564.738 219.861 565.615 220.432C567.978 221.957 572.97 221.842 579.638 220.166C580.401 219.975 581.201 220.394 581.506 221.118C581.811 221.842 581.506 222.719 580.82 223.1C576.628 225.538 576.78 227.939 577.314 229.539C577.581 230.378 578.114 230.949 579.029 231.406C584.631 234.112 599.683 229.234 605.018 227.139C605.209 227.062 605.399 227.024 605.59 227.024V226.91Z" fill="#0C133D"/>
<path d="M621.253 214.983C620.452 214.983 619.767 214.374 619.652 213.574L617.213 192.273C617.099 191.397 617.747 190.597 618.623 190.521C619.5 190.406 620.3 191.054 620.376 191.93L622.815 213.231C622.929 214.107 622.282 214.907 621.405 214.983C621.329 214.983 621.291 214.983 621.215 214.983H621.253Z" fill="#0C133D"/>
<path d="M580.02 223.214C579.334 223.214 578.686 222.757 578.495 222.033C578.267 221.194 578.762 220.318 579.6 220.051L600.941 214.145C601.817 213.917 602.656 214.412 602.922 215.25C603.151 216.088 602.656 216.965 601.817 217.232L580.477 223.138C580.477 223.138 580.21 223.214 580.058 223.214H580.02Z" fill="#0C133D"/>
<path d="M586.575 205.343C585.851 205.343 585.203 204.848 585.012 204.124C584.822 203.247 585.355 202.409 586.194 202.219L598.274 199.361C599.112 199.17 599.989 199.704 600.179 200.542C600.37 201.418 599.836 202.257 598.998 202.447L586.918 205.305C586.918 205.305 586.689 205.343 586.537 205.343H586.575Z" fill="#0C133D"/>
<path d="M587.87 189.911C587.032 189.911 586.346 189.263 586.269 188.425C586.193 187.548 586.879 186.786 587.756 186.71L595.034 186.215C595.873 186.177 596.673 186.824 596.749 187.701C596.825 188.577 596.139 189.339 595.263 189.416L587.984 189.911C587.984 189.911 587.908 189.911 587.87 189.911Z" fill="#0C133D"/>
</g>
<defs>
<clipPath id="clip0_306_4256">
<rect width="696.802" height="539.611" fill="white"/>
</clipPath>
</defs>
</svg>
