<svg width="679" height="636" viewBox="0 0 679 636" fill="none" xmlns="http://www.w3.org/2000/svg">
<g clip-path="url(#clip0_306_4803)">
<path d="M406.904 31.9515C406.904 14.3062 392.591 0 374.937 0C357.283 0 342.97 14.3062 342.97 31.9515C342.97 49.5969 357.283 63.9031 374.937 63.9031C392.591 63.9031 406.904 49.5969 406.904 31.9515Z" fill="#67DDB9"/>
<path d="M647.033 406.591C664.688 406.591 679 392.285 679 374.639C679 356.993 664.688 342.688 647.033 342.688C629.378 342.688 615.065 356.993 615.065 374.639C615.065 392.285 629.378 406.591 647.033 406.591Z" fill="#67DDB9"/>
<path d="M99.876 258.807C99.876 258.807 129.712 253.108 141.088 266.982C151.311 279.446 138.381 290.385 138.381 290.385L99.876 258.807Z" fill="#0C133D"/>
<path d="M63.3874 346.833C66.2097 345.163 69.2337 344.184 72.2864 343.81C70.5008 334.973 74.3887 325.56 82.6253 320.753C89.1051 316.954 96.7658 316.867 103.073 319.89C104.714 317.759 106.788 315.917 109.236 314.478C119.604 308.376 132.966 311.859 139.072 322.221C139.677 323.257 140.195 324.351 140.627 325.445C141.923 322.02 144.371 318.968 147.769 316.982C155.718 312.319 165.97 314.967 170.636 322.912C175.301 330.857 172.652 341.104 164.703 345.767C156.755 350.431 146.502 347.782 141.837 339.838C141.664 339.521 141.491 339.204 141.347 338.888C139.907 344.213 136.48 349.02 131.325 352.043C124.845 355.842 117.184 355.929 110.877 352.906C109.236 355.036 107.162 356.879 104.714 358.318C102.468 359.642 100.106 360.505 97.7161 360.937C100.337 370.782 96.2186 381.576 87.0028 386.988C75.9151 393.493 61.6307 389.809 55.122 378.698C48.6134 367.615 52.2997 353.338 63.3874 346.833Z" fill="#0C133D"/>
<path d="M271.98 501.927L124.47 551.322C124.067 550.085 117.27 570.637 113.987 588.714L281.081 588.657L271.98 501.927Z" fill="white"/>
<path d="M113.959 589.923C113.959 589.923 113.815 589.923 113.728 589.923C113.066 589.808 112.634 589.175 112.749 588.513C114.621 578.208 117.415 568.162 118.912 563.096C122.714 550.171 123.462 550.142 124.298 550.085C124.326 550.085 124.355 550.085 124.384 550.085L271.548 500.804C271.894 500.689 272.268 500.747 272.585 500.92C272.902 501.121 273.103 501.438 273.132 501.812L282.233 588.542C282.29 589.204 281.829 589.808 281.167 589.866C280.533 589.952 279.9 589.463 279.842 588.801L270.915 503.568L125.075 552.416C123.722 555.18 118.134 572.422 115.139 588.973C115.024 589.549 114.535 589.952 113.959 589.952V589.923Z" fill="#0C133D"/>
<path d="M42.9969 396.257C65.8635 365.169 100.711 346.573 136.998 338.168C164.472 331.807 195.547 327.086 223.424 331.605C241.28 334.512 248.48 340.413 248.48 340.413L271.951 501.898L124.441 551.294L114.304 520.839C87.5493 553.596 41.9025 564.305 13.3049 532.382C-17.1072 498.415 15.4072 433.735 42.9969 396.228V396.257Z" fill="#0C133D"/>
<path d="M55.2659 552.79C38.7064 552.79 23.9035 546.026 12.4126 533.217C-16.617 500.805 10.2239 438.801 42.0183 395.537C46.079 390.01 50.6292 384.743 55.5539 379.849C56.0435 379.389 56.7923 379.389 57.2531 379.849C57.7139 380.31 57.7139 381.087 57.2531 381.548C52.4148 386.355 47.9509 391.536 43.9766 396.948C12.7006 439.463 -13.8523 500.258 14.227 531.576C25.5739 544.241 40.2327 550.718 56.6195 550.344C77.067 549.883 98.292 538.571 113.383 520.091C113.671 519.745 114.103 519.572 114.535 519.659C114.967 519.745 115.312 520.062 115.456 520.465L125.191 549.768L270.598 501.064L247.357 341.076C245.715 339.924 238.343 335.232 223.223 332.785C209.054 330.483 193.33 330.396 175.1 332.526C174.408 332.613 173.832 332.123 173.746 331.461C173.66 330.799 174.149 330.195 174.812 330.108C193.243 327.95 209.227 328.036 223.598 330.367C241.568 333.275 248.912 339.205 249.229 339.435C249.459 339.636 249.603 339.895 249.661 340.183L273.132 501.668C273.219 502.244 272.873 502.791 272.326 502.992L124.816 552.387C124.499 552.503 124.183 552.474 123.895 552.33C123.607 552.186 123.376 551.927 123.29 551.639L113.844 523.228C98.4072 541.248 77.1822 552.244 56.6483 552.704C56.1875 552.704 55.7267 552.704 55.2371 552.704L55.2659 552.79Z" fill="#0C133D"/>
<path d="M56.4176 381.922C56.1008 381.922 55.784 381.806 55.5536 381.576C55.0928 381.116 55.0928 380.338 55.5536 379.878C76.2027 359.354 104.253 344.558 136.739 337.017C150.764 333.764 163.234 331.519 174.869 330.166C175.531 330.08 176.136 330.569 176.222 331.231C176.309 331.893 175.819 332.498 175.157 332.584C163.637 333.937 151.254 336.153 137.315 339.377C105.29 346.804 77.6138 361.398 57.2815 381.576C57.0512 381.806 56.7344 381.922 56.4176 381.922Z" fill="white"/>
<path d="M137.027 338.168C149.18 335.347 162.025 332.872 175.013 331.346C174.293 342.947 168.85 358.951 145.926 365.773C123.463 372.451 101.143 364.967 86.6572 357.742C102.324 348.675 119.517 342.227 137.027 338.168Z" fill="white"/>
<path d="M141.663 181.174C143.305 164.277 148.546 147.783 157.791 133.592C187.541 87.9387 250.697 71.7615 302.104 75.302C330.673 77.2594 358.234 87.766 387.263 83.9952C428.187 78.6987 463.898 56.3038 505.456 52.792C573.595 47.0062 637.443 83.8225 663.103 147.697C678.021 184.83 678.798 229.101 662.527 265.946C638.335 320.696 587.015 362.664 529.503 378.18C500.041 386.124 471.588 384.887 441.464 383.764C404.773 382.411 367.824 382.008 331.623 375.244C288.021 367.097 245.168 351.208 210.35 323.747C174.351 295.365 146.531 252.043 141.807 205.843C140.972 197.668 140.915 189.378 141.721 181.174H141.663Z" fill="#67DDB9"/>
<path d="M134.922 318.696C148.158 303.381 146.466 280.241 131.143 267.012C115.82 253.783 92.6693 255.474 79.4338 270.789C66.1983 286.105 67.8902 309.244 83.2129 322.473C98.5356 335.702 121.687 334.011 134.922 318.696Z" fill="#0C133D"/>
<path d="M115.456 355.036L111.77 345.825C127.235 327.719 106.125 318.911 106.125 318.911L104.397 299.164C110.964 294.731 106.125 287.218 106.125 287.218C120.151 284.57 117.76 270.005 115.514 262.866C115.226 262.003 116.349 261.283 117.242 261.427C121.043 262.118 130.029 264.478 134.838 271.646C150.102 294.443 165.653 310.131 144.284 325.1L150.217 337.995L115.456 355.036Z" fill="white"/>
<path d="M111.77 347.034C111.482 347.034 111.223 346.948 110.992 346.746C110.474 346.314 110.416 345.566 110.848 345.048C115.255 339.895 116.954 335.088 115.946 330.77C114.275 323.689 105.78 320.034 105.693 320.005C105.29 319.832 105.002 319.429 104.945 318.997L103.217 299.251C103.188 298.819 103.389 298.387 103.735 298.157C109.264 294.444 105.29 288.14 105.117 287.881C104.887 287.535 104.858 287.132 105.031 286.758C105.204 286.384 105.521 286.125 105.924 286.038C109.783 285.319 112.576 283.563 114.189 280.828C117.559 275.186 115.427 266.637 114.362 263.212C114.132 262.492 114.304 261.715 114.823 261.139C115.456 260.419 116.493 260.074 117.443 260.247C121.274 260.938 130.749 263.413 135.817 270.984C137.718 273.833 139.648 276.597 141.491 279.245C154.22 297.466 164.329 311.916 145.782 325.503L151.283 337.477C151.571 338.082 151.283 338.801 150.678 339.089C150.073 339.377 149.353 339.089 149.065 338.485L143.132 325.589C142.902 325.071 143.046 324.438 143.536 324.092C161.218 311.715 152.579 299.337 139.475 280.598C137.603 277.95 135.673 275.186 133.773 272.308C129.194 265.486 120.496 263.24 116.983 262.607C116.896 262.607 116.781 262.607 116.695 262.665C118.135 267.328 119.92 275.906 116.234 282.066C114.477 285.002 111.684 287.017 107.94 288.024C109.38 291.22 110.128 296.286 105.665 299.711L107.277 318.076C109.524 319.17 116.608 323.114 118.279 330.195C119.488 335.318 117.616 340.816 112.692 346.602C112.461 346.89 112.116 347.034 111.77 347.034Z" fill="#0C133D"/>
<path d="M130.633 331.605C130.057 331.605 129.539 331.202 129.452 330.598C129.337 329.936 129.769 329.302 130.431 329.187C130.489 329.187 136.911 328.007 143.679 324.035C144.255 323.689 145.004 323.891 145.321 324.467C145.666 325.042 145.465 325.791 144.889 326.107C137.718 330.31 131.123 331.49 130.835 331.548C130.777 331.548 130.691 331.548 130.633 331.548V331.605Z" fill="#0C133D"/>
<path d="M149.094 335.549C149.094 335.549 147.481 339.953 141.578 339.492C135.674 339.032 130.634 330.367 130.634 330.367L144.285 325.071L149.094 335.52V335.549Z" fill="#0C133D"/>
<path d="M139.302 297.783C138.956 297.783 138.582 297.639 138.351 297.322L127.984 284.311C127.58 283.793 127.667 283.045 128.185 282.613C128.704 282.21 129.481 282.296 129.884 282.814L140.252 295.825C140.655 296.343 140.569 297.092 140.051 297.524C139.82 297.696 139.561 297.783 139.302 297.783Z" fill="#0C133D"/>
<path d="M117.357 295.393C118.019 296.574 119.488 297.005 120.669 296.343C121.85 295.681 122.282 294.213 121.619 293.033C120.957 291.853 119.488 291.421 118.307 292.083C117.127 292.745 116.695 294.213 117.357 295.393Z" fill="#0C133D"/>
<path d="M133.974 285.664C134.636 286.844 136.105 287.276 137.286 286.614C138.467 285.952 138.899 284.484 138.236 283.304C137.574 282.124 136.105 281.692 134.924 282.354C133.744 283.016 133.312 284.484 133.974 285.664Z" fill="#0C133D"/>
<path d="M94.0581 313.874C97.1108 319.055 103.763 320.782 108.947 317.731C114.131 314.68 115.859 308.03 112.806 302.849C109.754 297.668 103.101 295.94 97.9172 298.992C92.7333 302.043 91.0053 308.692 94.0581 313.874Z" fill="white"/>
<path d="M106.154 310.247C105.981 310.247 105.837 310.218 105.664 310.132L99.3862 307.339C98.7814 307.08 98.4934 306.361 98.7814 305.756C99.0406 305.152 99.7606 304.864 100.365 305.152L106.644 307.944C107.248 308.203 107.536 308.923 107.248 309.527C107.047 309.988 106.615 310.247 106.154 310.247Z" fill="#0C133D"/>
<path d="M110.128 315.543C112.173 317.5 112.23 320.753 110.272 322.797C108.314 324.841 105.059 324.898 103.015 322.941C100.97 320.983 100.912 317.731 102.871 315.687C104.829 313.643 108.083 313.586 110.128 315.543Z" fill="#D75338"/>
<path d="M579.871 112.209C603.656 108.35 619.808 85.9493 615.947 62.1756C612.087 38.4019 589.675 22.2579 565.889 26.1169C542.104 29.9759 525.952 52.3767 529.813 76.1504C533.674 99.9241 556.086 116.068 579.871 112.209Z" fill="#D75338"/>
<path d="M260.489 563.268H569.275C608.211 563.268 639.775 531.72 639.775 492.802V341.392C639.775 302.475 608.211 270.926 569.275 270.926L260.489 270.926C221.553 270.926 189.989 302.475 189.989 341.392V492.802C189.989 531.72 221.553 563.268 260.489 563.268Z" fill="white"/>
<path d="M599.514 564.477H230.25C207.384 564.477 188.779 545.882 188.779 523.027V311.197C188.779 288.341 207.384 269.746 230.25 269.746H599.514C622.381 269.746 640.985 288.341 640.985 311.197V523.027C640.985 545.882 622.381 564.477 599.514 564.477ZM230.25 272.135C208.708 272.135 191.198 289.636 191.198 311.168V522.998C191.198 544.529 208.708 562.03 230.25 562.03H599.514C621.056 562.03 638.566 544.529 638.566 522.998V311.168C638.566 289.636 621.056 272.135 599.514 272.135H230.25Z" fill="#0C133D"/>
<path d="M257.724 294.357H579.383C598.275 294.357 613.597 309.671 613.597 328.554V505.669C613.597 524.552 598.275 539.866 579.383 539.866H250.381C231.488 539.866 216.167 524.552 216.167 505.669V335.894C216.167 312.981 234.8 294.357 257.724 294.357Z" fill="#D75338"/>
<path d="M622.669 187.19L630.214 202.446L647.033 204.893L634.851 216.752L637.731 233.505L622.669 225.618L607.607 233.505L610.487 216.752L598.305 204.893L615.152 202.446L622.669 187.19Z" fill="white"/>
<path d="M304.437 107.34L308.987 116.551L319.125 118.019L311.781 125.187L313.509 135.29L304.437 130.512L295.337 135.29L297.093 125.187L289.721 118.019L299.887 116.551L304.437 107.34Z" fill="white"/>
<path d="M572.875 45.02L580.737 60.9382L598.304 63.5001L585.575 75.9065L588.599 93.4079L572.875 85.1465L557.121 93.4079L560.145 75.9065L547.416 63.5001L564.984 60.9382L572.875 45.02Z" fill="white"/>
<path d="M241.809 170.331C264.955 147.196 264.955 109.687 241.809 86.5529C218.663 63.4182 181.136 63.4182 157.99 86.5528C134.845 109.687 134.845 147.196 157.99 170.331C181.136 193.465 218.663 193.465 241.809 170.331Z" fill="white"/>
<path d="M199.895 188.888C166.546 188.888 139.417 161.773 139.417 128.439C139.417 95.1062 166.546 67.9906 199.895 67.9906C233.245 67.9906 260.374 95.1062 260.374 128.439C260.374 161.773 233.245 188.888 199.895 188.888ZM199.895 70.4086C167.899 70.4086 141.836 96.4303 141.836 128.439C141.836 160.449 167.871 186.47 199.895 186.47C231.92 186.47 257.955 160.449 257.955 128.439C257.955 96.4303 231.92 70.4086 199.895 70.4086Z" fill="#0C133D"/>
<path d="M199.896 90.702L212.164 115.544L239.581 119.545L219.739 138.86L224.433 166.177L199.896 153.281L175.359 166.177L180.024 138.86L160.182 119.545L187.627 115.544L199.896 90.702Z" fill="#D75338"/>
<path d="M232.871 443.407C239.322 443.407 245.485 444.472 251.274 446.4C259.28 433.562 273.536 425.013 289.778 425.013C296.748 425.013 303.343 426.596 309.247 429.388C309.045 427.949 308.93 426.481 308.93 425.013C308.93 407.972 322.754 394.155 339.831 394.155C344.555 394.155 349.018 395.22 353.022 397.12V297.955H471.732V385.318C474.382 384.397 477.233 383.879 480.228 383.879C494.368 383.879 505.802 395.336 505.802 409.44C505.802 409.786 505.802 410.102 505.802 410.448C507.846 410.16 509.891 410.016 512.022 410.016C530.252 410.016 545.977 420.782 553.176 436.268C561.787 431.259 571.781 428.381 582.436 428.381C593.899 428.381 604.583 431.691 613.597 437.419V520.35C613.597 531.144 604.842 539.866 594.071 539.866H235.722C224.922 539.866 216.196 531.115 216.196 520.35V445.882C221.495 444.299 227.082 443.436 232.9 443.436L232.871 443.407Z" fill="white"/>
<path d="M594.043 541.075H235.693C224.26 541.075 214.958 531.777 214.958 520.35V445.882C214.958 445.335 215.304 444.875 215.822 444.731C227.198 441.334 239.466 441.421 250.755 444.99C259.424 431.72 273.939 423.833 289.778 423.833C296.057 423.833 302.105 425.042 307.836 427.46C307.778 426.654 307.749 425.848 307.749 425.042C307.749 407.368 322.149 392.975 339.832 392.975C343.979 392.975 348.011 393.752 351.812 395.307V297.984C351.812 297.322 352.359 296.775 353.022 296.775H471.732C472.395 296.775 472.942 297.322 472.942 297.984V383.706C475.303 383.044 477.751 382.699 480.228 382.699C494.887 382.699 506.81 394.501 507.011 409.124C508.682 408.951 510.352 408.836 511.993 408.836C529.59 408.836 545.833 418.911 553.666 434.627C562.45 429.791 572.357 427.23 582.408 427.23C593.697 427.23 604.698 430.425 614.231 436.47C614.576 436.7 614.778 437.074 614.778 437.477V520.407C614.778 531.835 605.476 541.132 594.043 541.132V541.075ZM217.377 446.775V520.35C217.377 530.453 225.614 538.657 235.693 538.657H594.043C604.151 538.657 612.359 530.424 612.359 520.35V438.11C603.345 432.555 593.006 429.619 582.379 429.619C572.328 429.619 562.421 432.296 553.724 437.333C553.436 437.506 553.09 437.535 552.744 437.448C552.428 437.333 552.168 437.103 552.024 436.815C544.796 421.3 529.071 411.254 511.965 411.254C510.006 411.254 507.962 411.398 505.917 411.686C505.571 411.743 505.197 411.628 504.938 411.369C504.678 411.139 504.535 410.793 504.535 410.419C504.535 410.102 504.535 409.786 504.535 409.469C504.535 396.026 493.591 385.117 480.17 385.117C477.406 385.117 474.67 385.577 472.078 386.499C471.703 386.642 471.3 386.585 470.983 386.355C470.667 386.124 470.465 385.75 470.465 385.376V299.222H354.174V397.178C354.174 397.581 353.972 397.984 353.598 398.185C353.252 398.416 352.82 398.444 352.446 398.243C348.471 396.343 344.209 395.393 339.774 395.393C323.416 395.393 310.082 408.692 310.082 425.071C310.082 426.452 310.197 427.863 310.399 429.273C310.456 429.705 310.284 430.166 309.909 430.425C309.564 430.684 309.074 430.741 308.671 430.54C302.709 427.719 296.345 426.28 289.721 426.28C274.4 426.28 260.374 434.052 252.224 447.091C251.936 447.552 251.331 447.782 250.813 447.609C240.013 444.011 228.234 443.752 217.291 446.832L217.377 446.775Z" fill="#0C133D"/>
<path d="M498.717 265.371L541.512 332.411L542.463 253.511C542.664 237.046 535.896 221.156 523.628 209.153C508.048 193.926 487.427 173.287 479.824 163.672L498.717 265.371Z" fill="white"/>
<path d="M330.817 265.371L288.021 332.411L287.071 253.511C286.869 237.046 293.637 221.156 305.906 209.153C321.486 193.926 342.106 173.287 349.709 163.672L330.817 265.371Z" fill="white"/>
<path d="M541.541 333.62C541.138 333.62 540.735 333.419 540.533 333.073L497.738 266.033C497.738 266.033 497.594 265.745 497.565 265.601L478.673 163.903C478.557 163.356 478.845 162.809 479.364 162.579C479.882 162.348 480.458 162.492 480.804 162.924C488.349 172.481 508.739 192.861 524.521 208.29C537.106 220.581 543.932 236.643 543.73 253.511L542.78 332.411C542.78 332.958 542.405 333.419 541.916 333.563C541.801 333.591 541.685 333.62 541.599 333.62H541.541ZM499.869 264.939L540.361 328.381L541.253 253.511C541.455 237.305 534.889 221.876 522.793 210.045C508.71 196.286 490.97 178.554 481.869 168.019L499.869 264.939Z" fill="#0C133D"/>
<path d="M288.021 333.62C288.021 333.62 287.791 333.62 287.704 333.563C287.186 333.419 286.84 332.958 286.84 332.411L285.89 253.511C285.688 236.643 292.514 220.581 305.099 208.29C320.881 192.861 341.271 172.452 348.816 162.924C349.162 162.492 349.767 162.348 350.256 162.579C350.775 162.809 351.034 163.356 350.948 163.903L332.055 265.601C332.055 265.745 331.969 265.889 331.882 266.033L289.087 333.073C288.856 333.419 288.482 333.62 288.079 333.62H288.021ZM347.664 167.99C338.564 178.526 320.795 196.229 306.741 210.017C294.645 221.847 288.079 237.305 288.28 253.482L289.173 328.352L329.665 264.91L347.664 167.99Z" fill="#0C133D"/>
<path d="M330.356 265.371C334.273 226.77 356.851 74.8703 408.978 23.9205C430.52 10.3051 457.879 87.7372 464.215 103.339C479.651 146.689 488.982 193.638 494.425 228.497C500.963 274.985 506.262 283.16 471.213 280.943V308.347H353.597V280.943C338.42 281.864 330.068 280.396 330.356 265.371Z" fill="#0C133D"/>
<path d="M414.565 173.632C402.988 173.632 391.007 166.666 389.971 150.921C389.971 150.863 389.971 150.834 389.971 150.777C390.345 136.154 402.642 128.238 414.594 128.008C426.315 127.777 438.699 134.715 439.736 150.719C439.361 165.486 427.064 173.373 415.112 173.632C414.911 173.632 414.738 173.632 414.536 173.632H414.565ZM392.966 150.777C393.916 164.507 404.399 170.61 414.536 170.61C414.709 170.61 414.882 170.61 415.026 170.61C425.538 170.408 436.366 163.529 436.712 150.777C435.79 136.902 424.962 130.829 414.623 131.03C404.111 131.232 393.311 138.082 392.937 150.777H392.966Z" fill="white"/>
<path d="M414.565 233.649C402.988 233.649 391.007 226.683 389.971 210.938C389.971 210.88 389.971 210.851 389.971 210.794C390.345 196.171 402.642 188.255 414.594 188.025C426.315 187.794 438.699 194.732 439.736 210.736C439.361 225.503 427.064 233.39 415.112 233.649C414.911 233.649 414.738 233.649 414.536 233.649H414.565ZM392.966 210.823C393.916 224.553 404.399 230.656 414.536 230.656C414.709 230.656 414.882 230.656 415.026 230.656C425.538 230.454 436.366 223.574 436.712 210.823C435.79 196.948 425.019 190.846 414.623 191.076C404.111 191.277 393.311 198.128 392.937 210.823H392.966Z" fill="white"/>
<path d="M374.938 79.2168C411.887 -2.15892 421.765 9.52786 454.769 79.2168H374.938Z" fill="#D75338"/>
<path d="M471.213 282.152H353.597C352.935 282.152 352.388 281.605 352.388 280.943C352.388 280.281 352.935 279.734 353.597 279.734H471.213C471.876 279.734 472.423 280.281 472.423 280.943C472.423 281.605 471.876 282.152 471.213 282.152Z" fill="white"/>
<path d="M471.213 309.556H353.597C352.934 309.556 352.387 309.009 352.387 308.347V282.21C343.402 282.67 337.008 282.123 333.149 278.41C330.298 275.676 329.031 271.531 329.175 265.342C329.175 265.313 329.175 265.284 329.175 265.255C334.33 214.334 358.608 71.5311 408.171 23.0569C408.229 22.9993 408.287 22.9417 408.373 22.913C411.368 21.0131 414.622 20.6389 418.021 21.7616C436.135 27.7201 455.028 76.3095 463.092 97.0636C464.013 99.4527 464.791 101.439 465.367 102.878C481.149 147.179 490.537 195.538 495.635 228.295C496.326 233.16 496.988 237.622 497.593 241.651C500.588 261.398 502.23 272.279 497.104 277.863C492.985 282.354 484.605 282.929 472.423 282.21V308.347C472.423 309.009 471.875 309.556 471.213 309.556ZM354.778 307.138H469.975V280.943C469.975 280.598 470.119 280.281 470.349 280.051C470.579 279.821 470.925 279.706 471.242 279.734C485.584 280.655 492.092 279.706 495.26 276.222C499.609 271.502 498.025 261.024 495.145 241.997C494.54 237.938 493.849 233.505 493.187 228.612C488.089 195.969 478.758 147.754 463.034 103.684C462.458 102.274 461.68 100.288 460.759 97.8696C453.501 79.188 434.206 29.5911 417.186 23.978C414.507 23.0857 412.059 23.3735 409.698 24.8128C360.71 72.8552 336.663 214.68 331.508 265.399C331.421 270.84 332.429 274.409 334.762 276.625C338.189 279.907 344.467 280.224 353.482 279.677C353.827 279.677 354.144 279.763 354.374 279.993C354.605 280.224 354.749 280.54 354.749 280.886V307.08L354.778 307.138Z" fill="#0C133D"/>
<path d="M431.212 387.161C430.549 387.161 430.002 386.614 430.002 385.952V332.901C430.002 332.238 430.549 331.692 431.212 331.692C431.874 331.692 432.421 332.238 432.421 332.901V385.952C432.421 386.614 431.874 387.161 431.212 387.161Z" fill="#0C133D"/>
<path d="M419.979 443.205C419.317 443.205 418.77 442.658 418.77 441.996V424.092C418.77 423.43 419.317 422.883 419.979 422.883C420.641 422.883 421.189 423.43 421.189 424.092V441.996C421.189 442.658 420.641 443.205 419.979 443.205Z" fill="#0C133D"/>
<path d="M391.468 417.5C390.806 417.5 390.259 416.953 390.259 416.291V374.639C390.259 373.977 390.806 373.43 391.468 373.43C392.131 373.43 392.678 373.977 392.678 374.639V416.291C392.678 416.953 392.131 417.5 391.468 417.5Z" fill="#0C133D"/>
<path d="M349.105 532.411H370.215C375.658 532.411 380.064 536.815 380.064 542.255V550.056H339.284V542.255C339.284 536.815 343.69 532.411 349.134 532.411H349.105Z" fill="#0C133D"/>
<path d="M404.313 532.411H425.423C430.866 532.411 435.272 536.815 435.272 542.255V550.056H394.492V542.255C394.492 536.815 398.898 532.411 404.342 532.411H404.313Z" fill="#0C133D"/>
<path d="M293.897 532.411H315.007C320.45 532.411 324.856 536.815 324.856 542.255V550.056H284.076V542.255C284.076 536.815 288.482 532.411 293.926 532.411H293.897Z" fill="#0C133D"/>
<path d="M238.659 532.411H259.769C265.212 532.411 269.619 536.815 269.619 542.255V550.056H228.839V542.255C228.839 536.815 233.245 532.411 238.688 532.411H238.659Z" fill="#0C133D"/>
<path d="M514.758 532.411H535.868C541.311 532.411 545.717 536.815 545.717 542.255V550.056H504.938V542.255C504.938 536.815 509.344 532.411 514.787 532.411H514.758Z" fill="#0C133D"/>
<path d="M459.55 532.411H480.66C486.103 532.411 490.509 536.815 490.509 542.255V550.056H449.729V542.255C449.729 536.815 454.136 532.411 459.579 532.411H459.55Z" fill="#0C133D"/>
<path d="M569.995 532.411H591.105C596.548 532.411 600.955 536.815 600.955 542.255V550.056H560.175V542.255C560.175 536.815 564.581 532.411 570.024 532.411H569.995Z" fill="#0C133D"/>
<path d="M191.487 588.657H638.25C648.905 588.657 657.545 580.021 657.545 569.371C657.545 558.72 648.905 550.085 638.25 550.085H191.487C180.831 550.085 172.191 558.72 172.191 569.371C172.191 580.021 180.831 588.657 191.487 588.657Z" fill="white"/>
<path d="M638.249 589.866H191.487C180.168 589.866 170.981 580.683 170.981 569.371C170.981 558.058 180.168 548.876 191.487 548.876H638.249C649.567 548.876 658.754 558.058 658.754 569.371C658.754 580.683 649.567 589.866 638.249 589.866ZM191.487 551.294C181.522 551.294 173.401 559.411 173.401 569.371C173.401 579.33 181.522 587.448 191.487 587.448H638.249C648.214 587.448 656.335 579.33 656.335 569.371C656.335 559.411 648.214 551.294 638.249 551.294H191.487Z" fill="#0C133D"/>
<path d="M114.333 522.077C114.016 522.077 113.699 521.962 113.469 521.731C113.008 521.271 113.008 520.493 113.469 520.033C138.553 495.105 164.76 446.228 165.019 445.738C165.336 445.163 166.056 444.932 166.661 445.249C167.237 445.566 167.467 446.285 167.15 446.89C166.891 447.379 140.511 496.544 115.168 521.76C114.937 521.99 114.621 522.105 114.304 522.105L114.333 522.077Z" fill="white"/>
<path d="M33.3781 465.629C33.0901 465.629 32.831 465.543 32.6006 465.341C32.111 464.909 32.0534 464.132 32.4854 463.643C68.8012 421.559 124.297 402.158 124.845 401.956C125.478 401.726 126.169 402.071 126.371 402.705C126.601 403.338 126.256 404.029 125.622 404.23C125.075 404.432 70.1836 423.631 34.2997 465.226C34.0693 465.514 33.7237 465.658 33.3781 465.658V465.629Z" fill="white"/>
<path d="M155.256 379.82C155.256 379.82 147.97 341.795 173.544 323.229C176.136 321.329 180.081 318.825 184.257 316.119C191.918 311.168 202.977 307.224 208.391 312.607C218.327 322.509 198.513 331.864 198.513 331.864C206.692 328.957 216.858 326.366 219.392 334.196C221.005 339.204 217.29 344.559 212.452 347.84C217.952 347.926 222.387 349.654 222.963 354.72C223.597 360.448 218.672 364.852 212.48 368.134C216.8 367.184 222.589 369.199 223.338 375.934C224.231 384.023 205.943 392.86 194.337 398.963C194.337 398.963 208.449 431.576 174.984 436.124L166.114 446.314C154.076 460.16 132.534 460.016 120.697 445.997C109.725 433.015 111.769 413.499 125.219 403.108L155.256 379.849V379.82Z" fill="white"/>
<path d="M143.535 457.771C143.535 457.771 143.391 457.771 143.334 457.771C134.233 457.713 125.651 453.683 119.776 446.746C114.247 440.212 111.712 431.921 112.605 423.43C113.498 414.938 117.731 407.368 124.499 402.129L153.961 379.331C153.126 373.862 148.95 339.636 172.824 322.279C175.071 320.638 178.354 318.537 181.81 316.291L183.595 315.14C191.717 309.872 203.294 305.871 209.227 311.772C211.732 314.276 212.74 316.982 212.25 319.832C211.675 323.171 209.025 326.136 206.26 328.381C209.975 327.633 213.633 327.518 216.369 328.871C218.356 329.849 219.767 331.519 220.516 333.822C222.129 338.744 219.22 343.58 215.562 346.89C221.956 347.869 223.799 351.496 224.145 354.576C224.663 359.095 222.186 363.24 216.801 366.925C218.154 367.212 219.422 367.759 220.516 368.537C222.791 370.148 224.145 372.653 224.49 375.79C225.412 384.081 210.004 392.112 197.592 398.588L195.806 399.509C197.188 403.194 201.163 415.744 195.576 425.618C192.005 431.921 185.266 435.836 175.56 437.247L166.978 447.12C161.074 453.942 152.521 457.828 143.507 457.828L143.535 457.771ZM201.22 311.225C196.296 311.225 190.133 313.73 184.891 317.126L183.106 318.278C179.679 320.494 176.424 322.595 174.235 324.179C149.612 342.083 156.38 379.216 156.438 379.59C156.524 380.022 156.351 380.482 155.977 380.77L125.939 404.029C119.69 408.865 115.802 415.831 114.967 423.689C114.131 431.547 116.493 439.175 121.59 445.191C127.005 451.611 134.925 455.295 143.305 455.353C143.363 455.353 143.449 455.353 143.507 455.353C151.83 455.353 159.692 451.754 165.164 445.479L174.034 435.289C174.235 435.059 174.495 434.915 174.783 434.886C183.97 433.649 190.248 430.108 193.473 424.409C199.348 413.988 193.243 399.567 193.185 399.423C192.926 398.847 193.185 398.156 193.733 397.869L196.469 396.429C206.951 390.96 222.82 382.699 222.071 376.049C221.812 373.632 220.775 371.703 219.076 370.494C217.319 369.227 214.929 368.796 212.682 369.285C212.078 369.429 211.502 369.083 211.3 368.537C211.099 367.961 211.329 367.328 211.876 367.04C218.903 363.326 222.215 359.21 221.725 354.835C221.581 353.453 221.092 349.193 212.394 349.049C211.876 349.049 211.415 348.704 211.271 348.185C211.127 347.696 211.3 347.149 211.732 346.833C215.678 344.127 219.738 339.291 218.212 334.541C217.665 332.843 216.714 331.692 215.303 331.001C211.3 329.014 204.446 331.001 198.888 332.987C198.283 333.188 197.62 332.9 197.361 332.296C197.102 331.692 197.361 331.029 197.966 330.742C198.081 330.684 208.766 325.56 209.86 319.371C210.206 317.328 209.457 315.37 207.499 313.442C205.943 311.887 203.726 311.196 201.192 311.196L201.22 311.225Z" fill="#0C133D"/>
<path d="M170.808 368.249C170.434 368.249 170.06 368.076 169.829 367.731C169.455 367.184 169.599 366.435 170.117 366.061C170.29 365.946 188.491 353.396 212.107 346.689C212.74 346.516 213.403 346.89 213.604 347.523C213.777 348.157 213.403 348.819 212.769 349.02C189.557 355.641 171.672 367.932 171.5 368.047C171.298 368.191 171.039 368.249 170.808 368.249Z" fill="#0C133D"/>
<path d="M175.791 386.901C175.503 386.901 175.215 386.786 174.985 386.585C174.495 386.153 174.437 385.376 174.898 384.887C175.301 384.426 185.324 373.516 211.329 367.241C211.963 367.097 212.625 367.471 212.798 368.134C212.942 368.796 212.568 369.429 211.905 369.602C186.706 375.704 176.799 386.412 176.684 386.527C176.453 386.786 176.108 386.93 175.791 386.93V386.901Z" fill="#0C133D"/>
<path d="M85.7641 423.2C85.2745 423.2 84.8425 422.912 84.6409 422.451L80.3499 411.887C80.0907 411.283 80.4075 410.563 81.0122 410.304C81.617 410.045 82.337 410.362 82.5962 410.966L86.8873 421.53C87.1465 422.135 86.8297 422.854 86.2249 423.113C86.0809 423.171 85.9369 423.2 85.7641 423.2Z" fill="white"/>
<path d="M157.244 392.774C156.668 392.774 156.15 392.371 156.063 391.766L154.076 380.022C153.961 379.36 154.393 378.755 155.055 378.64C155.718 378.525 156.323 378.986 156.438 379.619L158.425 391.363C158.54 392.025 158.108 392.63 157.446 392.745C157.388 392.745 157.302 392.745 157.244 392.745V392.774Z" fill="#0C133D"/>
<path d="M164.645 353.741C164.386 353.741 164.156 353.655 163.926 353.511C163.378 353.108 163.263 352.359 163.666 351.812C173.372 338.629 197.131 331.029 198.139 330.713C198.773 330.511 199.464 330.857 199.665 331.49C199.867 332.123 199.521 332.814 198.888 333.016C198.657 333.102 174.869 340.701 165.625 353.252C165.394 353.568 165.02 353.741 164.645 353.741Z" fill="#0C133D"/>
<path d="M137.372 308.174C137.056 308.174 136.739 308.174 136.422 308.088C133.139 307.57 130.864 304.461 131.382 301.179C131.44 300.863 131.613 300.575 131.872 300.402C132.131 300.201 132.448 300.143 132.765 300.172L142.326 301.669C142.988 301.784 143.42 302.388 143.334 303.05C143.075 304.633 142.24 306.044 140.915 306.994C139.878 307.742 138.64 308.145 137.372 308.145V308.174ZM133.801 302.791C134.061 304.259 135.241 305.468 136.796 305.698C137.747 305.842 138.697 305.612 139.504 305.036C139.936 304.72 140.31 304.288 140.569 303.827L133.801 302.762V302.791Z" fill="#0C133D"/>
<path d="M56.4178 392.774C56.1586 392.774 55.8994 392.687 55.6978 392.515C55.5538 392.399 39.9158 380.195 46.2804 361.916C52.6451 343.695 72.0558 342.601 72.2573 342.601C72.9197 342.601 73.4957 343.09 73.5245 343.752C73.5533 344.415 73.0349 344.99 72.3725 345.019C71.6526 345.048 54.373 346.055 48.5844 362.722C42.7957 379.331 56.5906 390.154 57.1953 390.615C57.7137 391.018 57.8289 391.766 57.4257 392.313C57.1953 392.63 56.8209 392.774 56.4754 392.774H56.4178Z" fill="#0C133D"/>
<path d="M231.719 235.319C231.402 235.319 231.114 235.204 230.855 234.973L214.094 218.22C213.633 217.76 213.633 216.983 214.094 216.522C214.554 216.061 215.332 216.061 215.793 216.522L232.554 233.275C233.015 233.736 233.015 234.513 232.554 234.973C232.324 235.204 232.007 235.319 231.69 235.319H231.719Z" fill="#0C133D"/>
<path d="M214.958 235.319C214.641 235.319 214.353 235.204 214.094 234.973C213.633 234.513 213.633 233.736 214.094 233.275L230.855 216.522C231.316 216.061 232.093 216.061 232.554 216.522C233.015 216.983 233.015 217.76 232.554 218.22L215.793 234.973C215.562 235.204 215.246 235.319 214.929 235.319H214.958Z" fill="#0C133D"/>
<path d="M557.496 179.907C548.539 179.907 541.253 172.625 541.253 163.672C541.253 154.72 548.539 147.438 557.496 147.438C566.452 147.438 573.738 154.72 573.738 163.672C573.738 172.625 566.452 179.907 557.496 179.907ZM557.496 149.856C549.864 149.856 543.672 156.044 543.672 163.672C543.672 171.301 549.864 177.489 557.496 177.489C565.128 177.489 571.319 171.301 571.319 163.672C571.319 156.044 565.128 149.856 557.496 149.856Z" fill="#0C133D"/>
</g>
<defs>
<clipPath id="clip0_306_4803">
<rect width="679" height="636" fill="white"/>
</clipPath>
</defs>
</svg>
