<svg width="492" height="248" viewBox="0 0 492 248" fill="none" xmlns="http://www.w3.org/2000/svg">
<path d="M459.323 248H31.6791C23.2127 235.197 18.4674 228.021 10.001 215.217V45.7829C18.4674 32.9795 23.2127 25.8034 31.6791 13H459.323C467.789 25.8034 472.535 32.9795 481.001 45.7829V215.217C472.535 228.021 467.789 235.197 459.323 248Z" fill="#233A62"/>
<path d="M471.001 158.081V93L491.589 101.564V149.517L471.001 158.081Z" fill="#D75338"/>
<path d="M20.5889 93L20.5889 158.081L0.00048903 149.517L0.000493222 101.564L20.5889 93Z" fill="#D75338"/>
<path d="M281.727 0L268.001 26.1538H277.52L291.245 0H281.727Z" fill="#DD5025"/>
<path d="M310.59 0L296.864 26.1538H306.377L320.108 0H310.59Z" fill="#DD5025"/>
<path d="M339.446 0L325.721 26.1538H335.239L348.965 0H339.446Z" fill="#DD5025"/>
<path d="M368.304 0L354.578 26.1538H364.097L377.822 0H368.304Z" fill="#DD5025"/>
<path d="M397.167 0L383.441 26.1538H392.954L406.68 0H397.167Z" fill="white"/>
</svg>
