<svg width="132" height="44" viewBox="0 0 132 44" fill="none" xmlns="http://www.w3.org/2000/svg">
<path d="M32.3533 15.7854H17.0319V20.325H27.8846C27.3526 26.709 22.0327 29.4044 17.0319 29.4044C10.6126 29.4044 5.04437 24.3682 5.04437 17.3104C5.04437 10.43 10.3643 5.14551 17.0319 5.14551C22.1745 5.14551 25.2246 8.44387 25.2246 8.44387L28.4166 5.14551C28.4166 5.14551 24.338 0.605835 16.8901 0.605835C7.42061 0.605835 0.0791016 8.6212 0.0791016 17.2395C0.0791016 25.7159 6.99501 33.9795 17.1383 33.9795C26.0758 33.9795 32.6016 27.8439 32.6016 18.8C32.6016 16.8848 32.3533 15.7854 32.3533 15.7854Z" fill="black"/>
<path d="M44.8725 12.4871C38.595 12.4871 34.0908 17.4169 34.0908 23.1269C34.0908 28.9434 38.4532 33.9441 44.9435 33.9441C50.8309 33.9441 55.6188 29.4399 55.6188 23.2688C55.6543 16.1401 50.0506 12.4871 44.8725 12.4871ZM44.9435 16.7075C48.029 16.7075 50.9727 19.1902 50.9727 23.2333C50.9727 27.1701 48.0645 29.7591 44.9435 29.7591C41.5033 29.7591 38.8078 27.0282 38.8078 23.2333C38.8078 19.4739 41.4678 16.7075 44.9435 16.7075Z" fill="black"/>
<path d="M68.352 12.4871C62.0745 12.4871 57.5703 17.4169 57.5703 23.1269C57.5703 28.9434 61.9327 33.9441 68.423 33.9441C74.3104 33.9441 79.0983 29.4399 79.0983 23.2688C79.0983 16.1401 73.4946 12.4871 68.352 12.4871ZM68.423 16.7075C71.5085 16.7075 74.4522 19.1902 74.4522 23.2333C74.4522 27.1701 71.544 29.7591 68.423 29.7591C64.9828 29.7591 62.2873 27.0282 62.2873 23.2333C62.2518 19.4739 64.9473 16.7075 68.423 16.7075Z" fill="black"/>
<path d="M91.334 12.4871C85.553 12.4871 81.0488 17.5233 81.0488 23.1979C81.0488 29.6527 86.2978 33.9441 91.2631 33.9441C94.3132 33.9441 95.9446 32.7383 97.1505 31.3196V33.4476C97.1505 37.1361 94.9161 39.3704 91.5114 39.3704C88.2485 39.3704 86.5816 36.9233 86.0141 35.5401L81.9 37.2779C83.3541 40.3635 86.2978 43.5909 91.5468 43.5909C97.2924 43.5909 101.655 39.9734 101.655 32.4191V13.1255H97.1505V14.9342C95.7673 13.4801 93.8521 12.4871 91.334 12.4871ZM91.7596 16.7075C94.5969 16.7075 97.5052 19.1192 97.5052 23.2333C97.5052 27.4183 94.5969 29.7236 91.7242 29.7236C88.6386 29.7236 85.8013 27.241 85.8013 23.2688C85.7658 19.1547 88.745 16.7075 91.7596 16.7075Z" fill="black"/>
<path d="M121.622 12.4871C116.195 12.4871 111.62 16.8139 111.62 23.1979C111.62 29.9719 116.727 33.9796 122.154 33.9796C126.693 33.9796 129.495 31.497 131.127 29.2626L127.403 26.7799C126.445 28.2695 124.814 29.7236 122.154 29.7236C119.139 29.7236 117.756 28.0567 116.905 26.4607L131.304 20.5024L130.559 18.7646C129.176 15.3244 125.913 12.4871 121.622 12.4871ZM121.834 16.6011C123.785 16.6011 125.204 17.6297 125.807 18.9064L116.195 22.9141C115.77 19.7931 118.713 16.6011 121.834 16.6011Z" fill="black"/>
<path d="M109.492 1.70581H104.775V33.3417H109.492V1.70581Z" fill="black"/>
</svg>
