<svg width="475" height="196" viewBox="0 0 475 196" fill="none" xmlns="http://www.w3.org/2000/svg">
<path d="M65.4531 89.0545V23.9739L86.0415 32.5376V80.4908L65.4531 89.0545Z" fill="#D75338"/>
<path d="M0 80.4908V32.5376L20.5884 23.9739V89.0545L0 80.4908Z" fill="#D75338"/>
<path d="M20.5879 23.9738L29.2138 0H56.8212L65.4527 23.9738H20.5879Z" fill="#D75338"/>
<path d="M65.4527 89.0544L56.8212 113.028H29.2138L20.5879 89.0544H65.4527Z" fill="#D75338"/>
<path d="M454.685 196H53.9312C45.9971 188.072 41.5503 183.628 33.6162 175.7V70.7841C41.5503 62.856 45.9971 58.4125 53.9312 50.4844H454.685C462.619 58.4125 467.066 62.856 475 70.7841V175.7C467.066 183.628 462.619 188.072 454.685 196Z" fill="#233A62"/>
<path d="M328.89 37.4104L315.164 63.5642H324.683L338.408 37.4104H328.89Z" fill="#DD5025"/>
<path d="M357.753 37.4104L344.027 63.5642H353.54L367.272 37.4104H357.753Z" fill="#DD5025"/>
<path d="M386.609 37.4104L372.884 63.5642H382.402L396.128 37.4104H386.609Z" fill="#DD5025"/>
<path d="M415.467 37.4104L401.741 63.5642H411.26L424.985 37.4104H415.467Z" fill="#DD5025"/>
<path d="M444.33 37.4104L430.604 63.5642H440.118L453.843 37.4104H444.33Z" fill="white"/>
</svg>
