<svg width="901" height="795" viewBox="0 0 901 795" fill="none" xmlns="http://www.w3.org/2000/svg">
<path d="M212.709 442.42C239.009 503.826 296.748 561.191 369.43 541.592C411.449 530.266 454.956 506.925 499.862 512.243C527.327 515.497 553.382 525.702 579.904 532.786C665.097 555.55 741.52 500.884 768.597 424.031C781.019 388.764 781.397 348.944 766.054 314.765C731.173 237.09 644.704 251.515 578.361 222.932C544.224 208.219 517.635 180.503 487.972 159.238C419.209 109.946 323.747 130.811 263.854 184.256C200.553 240.733 182.558 330.899 201.852 410.106C204.439 420.744 208.091 431.649 212.709 442.431V442.42Z" fill="#67DDB9"/>
<path d="M62.7611 619.189H387.947L387.947 379.991H62.7611L62.7611 619.189Z" fill="white"/>
<path d="M387.958 619.189C387.958 619.189 362.369 566.943 327.488 517.041C306.728 487.348 265.686 476.721 230.949 476.832L192.727 476.699C64.9037 476.654 123.786 338.561 123.786 338.561L73.0744 317.552C-55.9365 545.723 120.811 573.45 142.97 575.816L143.813 617.179L340.166 619.156L302.488 619.2H387.947L387.958 619.189Z" fill="#283F56"/>
<path d="M387.958 620.577H302.499C302.099 620.577 301.744 620.41 301.488 620.144L143.802 618.556C143.058 618.556 142.448 617.945 142.426 617.201L141.604 577.059C126.317 575.26 63.8268 564.789 36.9833 512.599C13.0262 466.016 24.7605 400.168 71.8532 316.875C72.1974 316.264 72.9412 316.009 73.5962 316.275L124.308 337.284C124.652 337.429 124.919 337.695 125.063 338.039C125.207 338.384 125.196 338.772 125.063 339.105C124.774 339.783 96.7096 406.819 122.787 446.295C135.487 465.517 159.022 475.266 192.749 475.266C192.871 475.266 192.993 475.277 193.104 475.311L230.96 475.444C274.179 475.277 310.681 490.557 328.632 516.241C363.18 565.666 388.957 618.056 389.213 618.578C389.424 619.011 389.402 619.511 389.146 619.922C388.891 620.333 388.447 620.577 387.969 620.577H387.958ZM340.533 617.801H385.716C380.665 607.751 356.963 561.624 326.345 517.829C308.993 493 273.568 478.209 231.516 478.209C231.327 478.209 231.138 478.209 230.938 478.209L192.705 478.076C192.582 478.076 192.471 478.065 192.36 478.031C157.846 477.953 133.644 467.793 120.445 447.805C95.2664 409.684 117.969 349.199 121.954 339.305L73.6628 319.295C27.5692 401.223 16.0569 465.828 39.4589 511.322C67.0019 564.878 135.41 573.617 143.114 574.428C143.813 574.505 144.346 575.083 144.357 575.782L145.179 615.791L340.188 617.745C340.311 617.745 340.422 617.768 340.533 617.79V617.801Z" fill="#283F56"/>
<path d="M171.39 443.752C176.53 461.841 195.347 472.335 213.431 467.193C231.516 462.052 242.007 443.23 236.867 425.142C231.727 407.053 212.91 396.559 194.825 401.7C176.741 406.842 166.25 425.663 171.39 443.752Z" fill="#283F56"/>
<path d="M189.796 464.406C197.989 458.954 198.055 452.647 197.767 444.43L200.598 443.941C201.319 443.819 201.841 443.186 201.819 442.464C201.675 438.089 197.944 430.316 195.913 425.097C195.291 423.487 196.801 421.855 198.444 422.399C202.64 423.787 209.379 424.942 215.829 423.32C220.436 422.165 222.568 420.233 224.488 419.09C227.352 417.391 231.049 418.779 232.126 421.932C232.681 423.554 236.556 429.639 238.72 440.543C241.851 456.245 245.315 465.617 229.04 470.247L229.972 474.211C229.972 474.211 236 491.789 224.344 497.386C212.687 502.983 194.547 484.15 194.547 484.15L189.796 464.395V464.406Z" fill="white"/>
<path d="M219.559 499.818C207.858 499.818 194.214 485.815 193.548 485.127C193.382 484.949 193.259 484.727 193.204 484.494L188.452 464.739C188.275 463.995 188.73 463.24 189.474 463.063C190.218 462.885 190.973 463.34 191.15 464.084L195.813 483.461C198.033 485.671 213.842 500.906 223.744 496.142C234.146 491.145 228.718 474.833 228.662 474.667L227.696 470.569C227.53 469.847 227.952 469.114 228.673 468.915C242.384 465.017 240.963 458.166 238.132 444.518C237.888 443.33 237.632 442.098 237.377 440.821C235.245 430.138 231.393 418.923 231.36 418.812C231.105 418.09 231.493 417.302 232.215 417.046C232.936 416.791 233.725 417.18 233.98 417.901C234.024 418.013 237.932 429.394 240.097 440.266C240.352 441.531 240.607 442.753 240.852 443.941C243.549 456.955 245.525 466.449 230.705 471.191L231.338 473.889C231.56 474.522 237.588 492.567 224.965 498.63C223.267 499.451 221.446 499.807 219.581 499.807L219.559 499.818Z" fill="#283F56"/>
<path d="M229.295 447.072C228.751 447.072 228.241 446.75 228.008 446.217L222.501 432.981C222.201 432.27 222.546 431.46 223.245 431.171C223.955 430.882 224.766 431.216 225.055 431.915L230.561 445.151C230.861 445.862 230.517 446.673 229.817 446.961C229.639 447.039 229.462 447.072 229.284 447.072H229.295Z" fill="#283F56"/>
<path d="M211.788 439.111C212.11 440.221 213.265 440.876 214.375 440.554C215.485 440.232 216.14 439.077 215.818 437.967C215.496 436.856 214.341 436.201 213.231 436.523C212.121 436.845 211.466 438 211.788 439.111Z" fill="#283F56"/>
<path d="M228.097 434.469C228.419 435.579 229.573 436.235 230.683 435.913C231.794 435.591 232.449 434.436 232.127 433.325C231.805 432.215 230.65 431.56 229.54 431.882C228.43 432.204 227.775 433.359 228.097 434.469Z" fill="#283F56"/>
<path d="M143.813 572.551C143.07 572.551 142.459 571.962 142.426 571.218L140.505 523.759C140.472 522.992 141.071 522.348 141.837 522.315C142.637 522.315 143.247 522.904 143.281 523.648L145.201 571.107C145.234 571.873 144.635 572.518 143.869 572.551C143.847 572.551 143.825 572.551 143.813 572.551Z" fill="white"/>
<path d="M296.725 571.396C296.626 571.396 296.526 571.396 296.426 571.363C295.682 571.196 295.205 570.452 295.371 569.708C295.427 569.453 300.922 543.591 291.075 510.989C290.853 510.256 291.264 509.479 292.007 509.256C292.751 509.034 293.517 509.445 293.739 510.189C303.797 543.524 298.135 570.052 298.08 570.308C297.936 570.952 297.358 571.396 296.725 571.396Z" fill="white"/>
<path d="M241.618 412.36C241.618 420.777 234.802 427.596 226.387 427.596C217.972 427.596 211.155 420.777 211.155 412.36C211.155 403.943 217.972 397.125 226.387 397.125C234.802 397.125 241.618 403.943 241.618 412.36Z" fill="#283F56"/>
<path d="M225.365 426.052C216.195 426.052 208.746 418.59 208.746 409.429C208.746 400.268 216.206 392.806 225.365 392.806C234.524 392.806 241.984 400.268 241.984 409.429C241.984 418.59 234.524 426.052 225.365 426.052ZM225.365 395.582C217.727 395.582 211.521 401.789 211.521 409.429C211.521 417.069 217.727 423.276 225.365 423.276C233.003 423.276 239.209 417.069 239.209 409.429C239.209 401.789 233.003 395.582 225.365 395.582Z" fill="#283F56"/>
<path d="M207.992 429.594C207.992 435.691 203.052 440.632 196.957 440.632C190.862 440.632 185.922 435.691 185.922 429.594C185.922 423.498 190.862 418.557 196.957 418.557C203.052 418.557 207.992 423.498 207.992 429.594Z" fill="#283F56"/>
<path d="M187.797 450.082C189.163 454.868 194.147 457.655 198.932 456.289C203.717 454.923 206.503 449.937 205.138 445.151C203.772 440.365 198.788 437.578 194.003 438.944C189.218 440.31 186.432 445.296 187.797 450.082Z" fill="white"/>
<path d="M198.51 450.104C198.21 450.104 197.899 450.004 197.644 449.804L193.204 446.262C192.604 445.784 192.504 444.907 192.981 444.307C193.47 443.708 194.336 443.608 194.935 444.085L199.376 447.628C199.975 448.105 200.075 448.982 199.598 449.582C199.32 449.926 198.921 450.104 198.51 450.104Z" fill="#283F56"/>
<path d="M231.993 478.786C231.993 478.786 228.984 483.483 224.066 481.84C219.148 480.197 216.162 472.823 216.162 472.823L229.451 470.136L231.993 478.786Z" fill="#283F56"/>
<path d="M216.174 474.733C215.552 474.733 214.986 474.311 214.83 473.667C214.653 472.923 215.108 472.168 215.852 471.99L229.14 468.77C229.873 468.592 230.628 469.048 230.817 469.792C230.994 470.536 230.539 471.291 229.795 471.469L216.507 474.689C216.396 474.711 216.285 474.733 216.174 474.733Z" fill="#283F56"/>
<path d="M62.7611 619.189H387.947V572.162H62.7611V619.189Z" fill="white"/>
<path d="M387.959 573.561H62.7725C62.0065 573.561 61.3848 572.94 61.3848 572.173C61.3848 571.407 62.0065 570.785 62.7725 570.785H387.959C388.725 570.785 389.346 571.407 389.346 572.173C389.346 572.94 388.725 573.561 387.959 573.561Z" fill="#283F56"/>
<path d="M256.583 593.216C256.583 599.612 261.767 604.798 268.162 604.798C274.556 604.798 279.741 599.612 279.741 593.216C279.741 586.82 274.556 581.634 268.162 581.634C261.767 581.634 256.583 586.82 256.583 593.216Z" fill="#67DDB9"/>
<path d="M170.979 593.216C170.979 599.612 176.164 604.798 182.558 604.798C188.953 604.798 194.137 599.612 194.137 593.216C194.137 586.82 188.953 581.634 182.558 581.634C176.164 581.634 170.979 586.82 170.979 593.216Z" fill="#283F56"/>
<path d="M213.787 593.216C213.787 599.612 218.972 604.798 225.366 604.798C231.76 604.798 236.945 599.612 236.945 593.216C236.945 586.82 231.76 581.634 225.366 581.634C218.972 581.634 213.787 586.82 213.787 593.216Z" fill="#D75338"/>
<path d="M387.959 620.577H62.7725C62.0065 620.577 61.3848 619.955 61.3848 619.189V379.991C61.3848 379.225 62.0065 378.603 62.7725 378.603H387.959C388.725 378.603 389.346 379.225 389.346 379.991V619.189C389.346 619.955 388.725 620.577 387.959 620.577ZM64.1601 617.801H386.571V381.379H64.1601V617.801Z" fill="#283F56"/>
<path d="M228.019 456.156C224.2 456.156 221.091 453.058 221.08 449.238C221.08 448.472 221.691 447.85 222.457 447.839L233.569 447.783C234.235 447.75 234.957 448.394 234.957 449.16C234.957 451.014 234.258 452.758 232.948 454.079C231.638 455.401 229.906 456.122 228.052 456.134H228.019V456.156ZM224.1 450.615C224.677 452.225 226.298 453.402 228.041 453.38C229.151 453.38 230.194 452.936 230.983 452.147C231.427 451.692 231.76 451.159 231.96 450.581L224.1 450.615Z" fill="#283F56"/>
<path d="M303.021 572.173C303.021 572.173 318.374 543.158 331.762 551.02C331.762 551.02 340.044 543.036 349.369 549.632C349.369 549.632 359.105 543.18 367.054 550.331C367.054 550.331 372.871 544.646 379.943 549.043C387.015 553.44 391.466 567.354 393.587 574.35C395.707 581.345 394.597 591.306 387.947 591.506C381.297 591.695 378.866 586.875 378.866 586.875C378.866 586.875 378.455 593.938 371.117 595.381C363.779 596.825 360.682 589.685 360.682 589.685C360.682 589.685 363.391 597.147 354.099 598.602C344.807 600.056 341.221 588.952 341.221 588.952C341.221 588.952 341.665 597.28 332.406 596.658C323.214 596.036 317.464 571.918 317.464 571.918L303.021 572.162V572.173Z" fill="white"/>
<path d="M352.478 600.123C347.393 600.123 343.819 596.669 341.72 593.26C341.343 594.093 340.81 594.926 340.055 595.67C338.235 597.469 335.626 598.257 332.306 598.046C323.236 597.436 317.73 578.547 316.376 573.328L303.032 573.55C302.488 573.572 302.077 573.306 301.821 572.884C301.566 572.462 301.544 571.94 301.777 571.507C302.199 570.708 312.224 551.964 323.592 548.743C326.411 547.944 329.087 548.144 331.574 549.343C333.938 547.511 341.287 542.825 349.403 547.988C351.956 546.611 359.994 543.091 367.021 548.51C369.763 546.445 375.069 544.39 380.653 547.855C387.559 552.152 391.888 564.045 394.897 573.939C396.351 578.714 396.562 585.721 393.609 589.829C392.221 591.761 390.267 592.816 387.969 592.883C383.806 592.994 381.164 591.417 379.554 589.929C378.5 592.672 376.091 595.803 371.373 596.736C367.321 597.524 364.245 596.014 362.169 594.071C362.014 594.671 361.781 595.281 361.426 595.881C360.138 598.057 357.751 599.434 354.31 599.967C353.677 600.067 353.066 600.112 352.478 600.112V600.123ZM341.221 587.575C341.809 587.575 342.353 587.953 342.542 588.53C342.675 588.941 345.895 598.49 353.888 597.236C356.452 596.836 358.195 595.914 359.039 594.493C360.204 592.55 359.383 590.173 359.383 590.151C359.139 589.452 359.494 588.663 360.182 588.397C360.882 588.13 361.67 588.452 361.958 589.13C362.07 589.374 364.723 595.215 370.862 594.015C377.079 592.794 377.49 586.853 377.49 586.787C377.523 586.165 377.978 585.632 378.589 585.51C379.199 585.376 379.832 585.687 380.11 586.242C380.187 586.398 382.352 590.273 387.903 590.107C389.346 590.062 390.489 589.441 391.378 588.208C393.398 585.387 393.775 579.724 392.266 574.738C390.589 569.209 386.127 554.506 379.221 550.209C373.182 546.456 368.231 551.12 368.02 551.308C367.498 551.808 366.666 551.83 366.122 551.342C359.061 544.979 350.224 550.709 350.135 550.764C349.658 551.075 349.036 551.075 348.57 550.742C340.333 544.912 333.039 551.708 332.728 551.997C332.284 552.43 331.596 552.508 331.063 552.197C328.987 550.975 326.789 550.72 324.369 551.408C316.209 553.718 308.349 565.811 305.429 570.719L317.441 570.519C318.119 570.519 318.662 570.952 318.818 571.585C320.35 578.014 325.812 594.815 332.506 595.259C334.993 595.437 336.88 594.893 338.112 593.682C339.944 591.883 339.844 589.041 339.844 589.019C339.811 588.319 340.288 587.708 340.977 587.586C341.065 587.575 341.143 587.564 341.232 587.564L341.221 587.575Z" fill="#283F56"/>
<path d="M378.867 588.263C378.279 588.263 377.735 587.886 377.546 587.297L365.723 550.753C365.49 550.02 365.889 549.243 366.622 549.01C367.355 548.777 368.132 549.176 368.365 549.898L380.188 586.442C380.421 587.175 380.021 587.952 379.289 588.186C379.144 588.23 379 588.252 378.867 588.252V588.263Z" fill="#283F56"/>
<path d="M360.838 591.606C360.227 591.606 359.672 591.206 359.506 590.595L348.038 549.998C347.827 549.265 348.26 548.488 348.993 548.288C349.725 548.077 350.491 548.51 350.702 549.243L362.17 589.84C362.381 590.573 361.948 591.339 361.215 591.55C361.093 591.584 360.96 591.606 360.838 591.606Z" fill="#283F56"/>
<path d="M341.665 591.073C341.044 591.073 340.477 590.651 340.322 590.029L330.419 551.364C330.231 550.62 330.675 549.865 331.418 549.676C332.151 549.487 332.917 549.931 333.106 550.675L343.009 589.341C343.197 590.085 342.753 590.84 342.009 591.028C341.898 591.062 341.776 591.073 341.665 591.073Z" fill="#283F56"/>
<path d="M161.465 285.616C153.905 286.271 143.103 293.389 143.103 293.389C143.103 293.389 148.287 282.585 150.841 276.81C153.394 271.036 165.095 249.25 158.434 245.13C151.773 241.01 145.59 252.237 145.59 252.237C145.59 252.237 150.763 233.681 141.904 230.75C135.099 228.496 131.957 238.889 130.447 243.82C133.167 233.071 129.393 230.372 126.095 229.517C122.554 228.596 118.391 232.604 116.992 237.224C115.604 241.843 105.591 272.546 105.591 272.546C109.909 247.873 108.055 244.786 103.126 244.63C98.1972 244.475 95.9214 253.547 95.1554 255.79C94.3894 258.033 88.1392 277.932 87.9838 278.398C87.895 278.665 79.9463 299.519 73.0745 317.552C67.6125 331.865 74.8396 347.878 89.1606 353.275C102.36 358.238 117.181 352.464 123.553 339.872L125.685 335.652C135.299 332.443 148.343 315.231 151.929 310.556C155.514 305.881 171.734 303.55 174.165 297.098C176.607 290.657 169.025 284.961 161.465 285.616Z" fill="white"/>
<path d="M98.9074 356.439C95.4992 356.439 92.0355 355.84 88.6717 354.563C81.3891 351.82 75.6163 346.412 72.4302 339.316C69.233 332.221 68.9998 324.315 71.7752 317.052C75.7829 306.548 86.4181 278.643 86.6735 277.943L87.1397 276.466C88.6384 271.714 93.1901 257.256 93.8451 255.346C93.9228 255.124 94.0116 254.846 94.1115 254.502C95.1661 251.115 97.6307 243.242 102.993 243.242C103.048 243.242 103.104 243.242 103.159 243.242C104.58 243.287 106.379 243.542 107.666 245.13C109.065 246.851 109.798 249.738 109.176 256.989C111.929 248.517 114.938 239.189 115.648 236.824C117.192 231.694 121.876 226.985 126.428 228.174C129.814 229.062 131.846 231.238 132.512 234.681C133.688 232.582 135.165 230.761 137.041 229.784C138.684 228.929 140.46 228.818 142.325 229.428C148.853 231.583 148.909 240.455 148.098 246.585C149.586 245.052 151.451 243.631 153.538 243.087C155.503 242.576 157.379 242.865 159.144 243.964C165.461 247.873 159.544 261.709 153.505 274.379C152.916 275.6 152.428 276.633 152.095 277.388C150.563 280.852 148.065 286.16 146.322 289.847C150.263 287.648 156.38 284.672 161.331 284.25C166.327 283.817 171.5 285.916 174.176 289.469C176.041 291.946 176.496 294.833 175.441 297.609C173.843 301.817 167.87 304.227 162.097 306.559C158.278 308.091 154.337 309.69 153.005 311.422L152.783 311.711C148.698 317.052 136.397 333.109 126.639 336.807L124.763 340.527C119.689 350.565 109.543 356.473 98.8852 356.473L98.9074 356.439ZM102.993 246.018C99.6623 246.018 97.553 252.77 96.7537 255.335C96.6426 255.701 96.5427 256.012 96.465 256.245C95.8211 258.122 91.2806 272.557 89.7819 277.31L89.3045 278.831C89.249 278.998 88.0501 282.163 74.373 318.063C71.864 324.637 72.0749 331.788 74.9613 338.195C77.8477 344.613 83.0655 349.51 89.6487 351.986C102.216 356.717 116.248 351.242 122.309 339.261L124.441 335.041C124.607 334.719 124.896 334.464 125.24 334.353C131.224 332.354 139.761 324.159 150.607 310.012L150.829 309.724C152.617 307.392 156.735 305.726 161.087 303.983C166.072 301.973 171.711 299.696 172.877 296.632C173.776 294.255 172.888 292.345 171.989 291.157C169.891 288.381 165.605 286.682 161.598 287.026C154.471 287.637 143.98 294.5 143.88 294.577C143.358 294.922 142.681 294.877 142.203 294.466C141.737 294.055 141.593 293.378 141.87 292.823C141.926 292.712 147.077 281.974 149.586 276.289C149.93 275.522 150.43 274.467 151.029 273.213C154.149 266.661 162.441 249.272 157.723 246.351C156.613 245.663 155.481 245.485 154.282 245.796C150.23 246.862 146.855 252.881 146.822 252.936C146.477 253.547 145.734 253.813 145.079 253.547C144.424 253.28 144.08 252.57 144.268 251.892C145.6 247.084 147.71 234.148 141.482 232.093C140.338 231.716 139.317 231.771 138.34 232.282C134.921 234.048 132.9 240.622 131.823 244.142C131.601 244.863 130.824 245.33 130.103 245.13C129.381 244.93 128.926 244.242 129.115 243.509C131.901 232.493 127.438 231.327 125.751 230.894C123.153 230.228 119.578 233.515 118.324 237.657C116.947 242.243 107.322 271.758 106.912 273.013C106.69 273.701 105.968 274.112 105.257 273.934C104.547 273.757 104.103 273.068 104.225 272.346C106.923 256.967 107.322 249.127 105.524 246.918C105.058 246.34 104.347 246.096 103.082 246.052C103.059 246.052 103.026 246.052 103.004 246.052L102.993 246.018Z" fill="#283F56"/>
<path d="M103.104 302.872C102.871 302.872 102.627 302.817 102.405 302.683C101.739 302.295 101.517 301.451 101.905 300.785C106.29 293.223 112.074 288.57 119.079 286.96C131.579 284.084 143.369 291.901 143.869 292.234C144.502 292.667 144.668 293.522 144.246 294.155C143.824 294.788 142.959 294.966 142.326 294.533C142.215 294.455 131.013 287.049 119.69 289.658C113.462 291.09 108.3 295.299 104.314 302.173C104.059 302.617 103.592 302.861 103.115 302.861L103.104 302.872Z" fill="#283F56"/>
<path d="M120.345 276.189C120.2 276.189 120.056 276.166 119.912 276.122C119.179 275.889 118.79 275.1 119.024 274.367L129.126 243.386C129.359 242.654 130.136 242.265 130.88 242.498C131.613 242.731 132.001 243.52 131.768 244.253L121.666 275.234C121.477 275.822 120.933 276.189 120.345 276.189Z" fill="#283F56"/>
<path d="M133.733 281.663C133.556 281.663 133.367 281.63 133.189 281.552C132.479 281.252 132.157 280.442 132.457 279.731L144.313 251.693C144.613 250.982 145.434 250.66 146.134 250.96C146.844 251.259 147.166 252.07 146.866 252.781L135.01 280.819C134.788 281.352 134.277 281.663 133.733 281.663Z" fill="#283F56"/>
<path d="M813.93 513.371H557.085V761.13H813.93V513.371Z" fill="white"/>
<path d="M813.919 762.173H557.074C556.497 762.173 556.03 761.707 556.03 761.13V513.371C556.03 512.793 556.497 512.327 557.074 512.327H813.919C814.496 512.327 814.963 512.793 814.963 513.371V761.13C814.963 761.707 814.496 762.173 813.919 762.173ZM558.117 760.086H812.875V514.415H558.117V760.086Z" fill="#283F56"/>
<path d="M813.919 538.355H557.074C556.497 538.355 556.03 537.889 556.03 537.312C556.03 536.734 556.497 536.268 557.074 536.268H813.919C814.496 536.268 814.963 536.734 814.963 537.312C814.963 537.889 814.496 538.355 813.919 538.355Z" fill="#283F56"/>
<path d="M574.459 524.519C574.459 526.796 572.616 528.65 570.329 528.65C568.042 528.65 566.199 526.807 566.199 524.519C566.199 522.232 568.042 520.389 570.329 520.389C572.616 520.389 574.459 522.232 574.459 524.519Z" fill="#283F56"/>
<path d="M604.955 524.519C604.955 526.796 603.112 528.65 600.825 528.65C598.538 528.65 596.695 526.807 596.695 524.519C596.695 522.232 598.538 520.389 600.825 520.389C603.112 520.389 604.955 522.232 604.955 524.519Z" fill="#67DDB9"/>
<path d="M589.701 524.519C589.701 526.796 587.858 528.65 585.571 528.65C583.284 528.65 581.441 526.807 581.441 524.519C581.441 522.232 583.284 520.389 585.571 520.389C587.858 520.389 589.701 522.232 589.701 524.519Z" fill="#D75338"/>
<path d="M570.473 591.167C560.626 601.217 548.281 616.507 537.879 611.644C530.874 608.368 526.988 577.942 526.644 566.249C526.322 555.489 527.765 538.877 523.913 523.254C520.061 507.63 494.128 504.743 494.128 504.743C494.128 504.743 486.468 480.746 474.689 482.046C462.91 483.345 470.104 500.989 470.104 500.989C470.104 500.989 452.53 476.049 443.927 477.482C438.609 478.37 437.499 483.123 437.432 486.632C433.658 484.844 428.862 483.7 425.953 487.209C420.613 493.683 431.049 501.878 431.049 501.878C431.049 501.878 424.343 498.669 420.835 505.442C417.327 512.216 426.364 520.389 426.364 520.389C425.254 521.732 426.364 528.439 432.603 529.961C439.797 531.715 466.074 537.867 466.074 537.867C466.074 537.867 465.286 598.285 465.819 621.038C467.839 708.34 547.748 721.898 608.274 667.121L570.473 591.156V591.167Z" fill="white"/>
<path d="M533.771 700.867C524.046 700.867 514.71 699.068 506.106 695.359C480.295 684.255 465.619 657.882 464.764 621.071C464.276 600.017 464.92 546.084 465.009 538.7C460.512 537.645 438.742 532.548 432.348 530.982C427.607 529.827 425.909 526.118 425.398 524.586C424.899 523.087 424.81 521.655 425.11 520.633C423.089 518.623 416.584 511.405 419.914 504.976C421.901 501.134 424.965 500.023 427.63 500.079C425.831 498.102 423.777 495.237 423.444 492.173C423.222 490.107 423.8 488.22 425.165 486.576C427.607 483.611 431.515 483.112 436.5 485.11C437.022 480.224 439.564 477.182 443.771 476.482C450.599 475.339 461.722 488.275 467.462 495.682C466.74 492.195 466.452 487.842 468.283 484.766C469.571 482.612 471.692 481.357 474.589 481.035C486.09 479.769 493.562 499.868 494.916 503.821C499.157 504.398 521.26 508.13 524.935 523.031C527.877 534.969 527.765 547.439 527.666 557.455C527.632 560.631 527.61 563.629 527.688 566.238C528.11 580.363 532.461 607.968 538.323 610.711C546.738 614.653 556.918 603.915 565.899 594.443C567.209 593.066 568.486 591.711 569.729 590.446C569.962 590.201 570.295 590.09 570.64 590.146C570.973 590.201 571.261 590.412 571.417 590.712L609.217 666.676C609.428 667.098 609.328 667.598 608.984 667.92C585.271 689.385 558.317 700.878 533.794 700.878L533.771 700.867ZM427.474 502.178C425.62 502.178 423.322 502.911 421.757 505.942C418.649 511.927 426.975 519.556 427.063 519.634C427.474 520.011 427.53 520.644 427.163 521.077C426.997 521.31 426.853 522.576 427.485 524.253C428.018 525.652 429.417 528.139 432.847 528.972C439.952 530.705 466.041 536.812 466.307 536.879C466.785 536.99 467.118 537.423 467.118 537.911C467.118 538.511 466.341 598.574 466.862 621.049C467.695 656.994 481.927 682.711 506.939 693.46C535.881 705.908 575.08 695.481 606.986 666.91L570.196 592.977C569.285 593.921 568.364 594.898 567.42 595.887C557.951 605.869 547.215 617.185 537.446 612.61C529.375 608.834 525.878 575.422 525.612 566.305C525.534 563.662 525.567 560.642 525.59 557.444C525.678 547.539 525.801 535.224 522.914 523.531C519.284 508.796 494.272 505.831 494.028 505.809C493.617 505.764 493.273 505.476 493.151 505.087C493.073 504.854 485.58 481.912 474.833 483.112C472.58 483.356 471.037 484.255 470.093 485.832C467.151 490.774 471.07 500.523 471.114 500.612C471.314 501.101 471.114 501.667 470.648 501.922C470.182 502.178 469.605 502.044 469.294 501.611C464.509 494.827 450.688 477.448 444.138 478.537C440.507 479.147 438.609 481.879 438.509 486.676C438.509 487.031 438.32 487.353 438.01 487.542C437.71 487.731 437.332 487.753 437.01 487.598C432.248 485.344 428.806 485.455 426.786 487.898C425.787 489.108 425.376 490.429 425.531 491.939C426.02 496.548 431.66 501.034 431.715 501.078C432.137 501.411 432.237 502 431.959 502.455C431.682 502.911 431.104 503.077 430.627 502.844C430.516 502.788 429.184 502.189 427.496 502.189L427.474 502.178Z" fill="#283F56"/>
<path d="M862.144 505.442C863.332 500.534 868.527 484.955 861.899 482.634C855.849 480.513 852.563 488.753 851.908 490.796C850.887 494.027 848.999 499.413 847.845 503.555C854.894 478.37 859.712 461.78 850.953 459.348C844.881 457.661 840.929 463.357 839.386 467.932C840.94 461.003 843.493 451.986 835.111 450.587C825.353 448.966 821.79 468.487 820.968 474.128C822.456 461.78 821.623 452.008 814.929 451.786C807.968 451.553 805.648 459.937 804.627 464.501C803.605 469.065 798.099 505.431 798.099 505.431C798.099 505.431 783.845 476.849 773.054 484.322C762.263 491.795 777.583 510.217 781.991 518.39C786.254 526.296 792.115 538.311 793.592 545.54C794.613 550.548 793.203 610.067 781.48 615.552C771.089 620.416 758.733 605.125 748.886 595.076L701.127 661.635C761.653 716.413 851.52 712.249 853.54 624.947C854.683 575.699 852.829 556.833 853.007 553.168C853.007 553.168 860.967 510.317 862.155 505.409L862.144 505.442Z" fill="white"/>
<path d="M785.487 698.801C757.667 698.801 726.338 685.887 700.427 662.435C700.039 662.079 699.972 661.48 700.283 661.047L748.042 594.488C748.219 594.232 748.508 594.077 748.808 594.054C749.108 594.032 749.418 594.143 749.629 594.365C750.873 595.631 752.149 596.975 753.459 598.363C762.452 607.835 772.621 618.562 781.036 614.631C791.804 609.589 793.858 552.069 792.57 545.773C790.883 537.5 783.345 523.12 781.069 518.912C780.27 517.424 779.104 515.603 777.761 513.493C771.821 504.199 762.851 490.152 772.465 483.489C774.452 482.112 776.673 481.724 779.048 482.334C786.753 484.311 794.391 496.559 797.532 502.189C798.898 493.239 802.75 468.11 803.605 464.29C804.371 460.87 806.736 450.476 814.962 450.754C816.905 450.82 818.503 451.575 819.735 453.008C821.367 454.918 822.311 458.016 822.566 462.38C824.054 457.805 826.241 453.308 829.361 451.02C831.17 449.699 833.157 449.21 835.278 449.554C837.731 449.965 839.541 451.02 840.662 452.686C842.227 455.029 842.249 458.216 841.761 461.525C844.07 458.871 847.267 457.227 851.231 458.327C853.062 458.838 854.461 459.915 855.371 461.525C857.747 465.744 856.715 473.651 854.084 484.455C854.916 483.422 855.926 482.501 857.114 481.901C858.735 481.091 860.467 480.991 862.243 481.624C868.982 483.989 865.574 496.67 863.731 503.477C863.498 504.332 863.298 505.076 863.154 505.664C861.988 510.484 854.106 552.935 854.017 553.368C853.995 554.079 854.073 555.956 854.195 558.787C854.594 568.193 855.427 587.758 854.572 624.969C853.806 658.271 839.896 682.422 815.406 692.949C806.28 696.869 796.145 698.768 785.487 698.768V698.801ZM702.514 661.513C737.662 692.949 782.601 704.82 814.573 691.073C838.264 680.879 851.73 657.404 852.485 624.958C853.34 587.814 852.507 568.293 852.108 558.909C851.974 555.911 851.897 554.101 851.952 553.157C852.296 551.27 859.945 510.084 861.122 505.209C861.266 504.609 861.466 503.843 861.71 502.966C863.131 497.691 866.451 485.355 861.544 483.622C860.289 483.189 859.146 483.245 858.036 483.8C855.383 485.133 853.562 489.019 852.896 491.118C852.563 492.184 852.13 493.483 851.664 494.882C850.698 497.791 849.61 501.078 848.833 503.843C848.677 504.398 848.1 504.721 847.545 504.565C846.99 504.41 846.668 503.832 846.823 503.277L847.19 501.989C852.485 483.078 856.67 468.132 853.54 462.58C852.896 461.447 851.963 460.725 850.664 460.359C843.87 458.482 840.706 467.266 840.362 468.265C840.185 468.787 839.629 469.087 839.085 468.931C838.553 468.787 838.231 468.243 838.353 467.699L838.608 466.544C839.652 461.947 840.851 456.739 838.908 453.852C838.109 452.664 836.799 451.931 834.922 451.609C833.357 451.353 831.936 451.709 830.582 452.697C824.92 456.828 822.566 470.253 821.989 474.273C821.911 474.839 821.401 475.239 820.812 475.161C820.246 475.083 819.846 474.572 819.913 474.006C821.145 463.779 820.546 457.172 818.137 454.363C817.293 453.374 816.227 452.875 814.884 452.83C814.806 452.83 814.718 452.83 814.64 452.83C808.967 452.83 806.78 459.604 805.625 464.734C804.615 469.209 799.164 505.231 799.109 505.587C799.042 506.042 798.687 506.386 798.243 506.464C797.799 506.531 797.344 506.308 797.144 505.898C797.044 505.709 787.441 486.621 778.504 484.333C776.717 483.878 775.118 484.144 773.631 485.177C765.671 490.685 773.664 503.199 779.504 512.338C780.869 514.481 782.057 516.336 782.889 517.89C785.842 523.365 792.903 537.012 794.59 545.329C795.534 549.959 794.59 610.567 781.89 616.496C772.121 621.071 761.386 609.756 751.916 599.773C750.917 598.718 749.94 597.686 748.985 596.697L702.503 661.491L702.514 661.513Z" fill="#283F56"/>
<path d="M808.279 423.259C808.146 418.285 807.202 413.255 805.348 408.291C799.176 391.768 783.822 380.985 767.103 376.966C753.948 373.812 739.882 374.556 727.093 378.92C718.701 381.785 710.552 385.882 704.391 392.356C697.641 399.452 693.123 408.569 689.792 417.685C686.162 427.601 683.931 437.95 681.888 448.289C679.979 457.96 677.947 468.798 669.921 475.416C657.309 485.81 638.736 473.795 626.58 497.98C623.272 504.565 624.06 513.904 623.339 517.812C620.152 535.024 629.367 549.715 646.574 552.891C652.458 553.979 663.792 551.658 664.037 551.725C681.688 556.6 698.507 553.224 711.085 539.244C719.322 530.083 723.818 518.368 727.793 506.93C729.836 501.056 731.612 494.471 736.319 490.085C741.326 485.432 748.32 482.712 754.636 480.402C766.382 476.105 778.072 471.685 788.052 463.957C801.007 453.93 808.69 438.905 808.268 423.226L808.279 423.259Z" fill="#283F56"/>
<path d="M587.625 762.173C587.536 762.173 587.459 762.173 587.37 762.14C586.815 761.996 586.471 761.429 586.615 760.874L593.109 735.279C593.231 734.813 593.642 734.49 594.12 734.49H721.365C721.676 734.49 721.976 734.635 722.176 734.868C722.32 735.046 725.828 739.521 728.437 760.996C728.504 761.574 728.104 762.085 727.527 762.162C726.972 762.229 726.439 761.829 726.361 761.252C724.252 743.94 721.587 738.033 720.788 736.578H594.93L588.635 761.385C588.513 761.863 588.091 762.173 587.625 762.173Z" fill="#283F56"/>
<path d="M720.865 730.415C720.654 730.415 720.444 730.349 720.255 730.215L696.62 713.192C696.153 712.859 696.042 712.204 696.386 711.738C696.72 711.271 697.375 711.16 697.841 711.505L721.476 728.527C721.942 728.861 722.053 729.516 721.709 729.982C721.509 730.271 721.187 730.415 720.865 730.415Z" fill="#283F56"/>
<path d="M765.127 602.349C739.371 574.156 697.752 568.57 673.184 567.315L637.881 567.349C624.215 566.949 579.965 570.225 554.209 598.43L585.715 631.065C584.15 634.485 583.273 638.283 583.273 642.292C583.273 651.453 587.836 659.537 594.807 664.411L594.13 735.534L722.431 736.134C722.431 736.134 721.964 685.82 721.098 642.669L765.138 602.338L765.127 602.349Z" fill="#283F56"/>
<path d="M644.987 484.588C644.509 484.588 644.076 484.255 643.965 483.767C643.843 483.2 644.199 482.645 644.765 482.523C665.169 478.07 675.272 469.642 677.492 433.82C678.491 417.652 689.437 399.463 704.724 388.559C715.526 380.852 733.344 373.035 756.89 379.553C757.445 379.708 757.767 380.286 757.612 380.841C757.456 381.396 756.89 381.729 756.324 381.574C733.577 375.278 716.359 382.829 705.934 390.269C691.136 400.829 680.534 418.385 679.568 433.953C677.281 470.908 666.202 479.991 645.209 484.566C645.131 484.577 645.065 484.588 644.987 484.588Z" fill="#283F56"/>
<path d="M673.185 567.315H672.963L670.487 551.025C656.466 546.439 663.593 527.107 663.593 527.107C648.395 527.24 650.859 514.048 651.37 506.742C651.47 505.254 649.882 504.254 648.595 505.009C639.158 510.617 625.448 505.809 624.449 512.338C620.952 535.413 613.913 558.154 638.725 560.186V567.338H637.871C631.676 567.16 619.209 567.726 605.032 571.035C606.586 573.201 626.503 600.14 660.118 599.807C686.74 599.54 702.37 580.907 708.343 571.979C695.31 568.992 682.898 567.804 673.173 567.304L673.185 567.315Z" fill="white"/>
<path d="M722.42 737.178L594.12 736.578C593.842 736.578 593.576 736.467 593.376 736.267C593.176 736.067 593.076 735.801 593.076 735.523L593.753 664.944C586.526 659.67 582.23 651.242 582.23 642.292C582.23 638.472 582.985 634.763 584.484 631.276L553.466 599.151C553.088 598.752 553.077 598.13 553.444 597.719C583.251 565.083 635.695 566.238 637.915 566.305C638.493 566.327 638.948 566.805 638.926 567.382C638.903 567.959 638.393 568.381 637.849 568.393C635.695 568.326 584.917 567.215 555.642 598.407L586.46 630.332C586.759 630.643 586.837 631.098 586.66 631.498C585.105 634.896 584.306 638.527 584.306 642.292C584.306 650.753 588.447 658.704 595.396 663.556C595.674 663.756 595.841 664.078 595.841 664.422L595.163 734.502L721.354 735.09C721.288 727.606 720.822 681.923 720.033 642.702C720.033 642.403 720.156 642.114 720.378 641.914L763.651 602.294C744.512 581.873 714.072 570.458 673.141 568.359C672.563 568.326 672.119 567.837 672.152 567.26C672.186 566.682 672.696 566.238 673.252 566.272C715.26 568.415 746.433 580.319 765.916 601.65C766.305 602.072 766.271 602.738 765.849 603.127L722.154 643.135C723.009 685.698 723.475 735.634 723.475 736.134C723.475 736.411 723.364 736.678 723.175 736.878C722.975 737.078 722.709 737.189 722.431 737.189L722.42 737.178Z" fill="#283F56"/>
<path d="M585.483 632.62C585.338 632.62 585.205 632.586 585.072 632.531C584.539 632.298 584.295 631.687 584.528 631.154C587.403 624.514 592.876 619.128 599.559 616.374C600.092 616.152 600.703 616.408 600.925 616.941C601.147 617.474 600.891 618.084 600.359 618.306C594.175 620.86 589.102 625.846 586.448 631.987C586.282 632.375 585.893 632.62 585.494 632.62H585.483Z" fill="white"/>
<path d="M599.948 618.395C599.371 618.395 598.904 617.929 598.904 617.351V604.903C598.904 604.326 599.371 603.86 599.948 603.86C600.525 603.86 600.991 604.326 600.991 604.903V617.351C600.991 617.929 600.525 618.395 599.948 618.395Z" fill="white"/>
<path d="M721.432 643.835C720.855 643.835 720.389 643.369 720.389 642.791V604.826C720.389 604.248 720.855 603.782 721.432 603.782C722.009 603.782 722.476 604.248 722.476 604.826V642.791C722.476 643.369 722.009 643.835 721.432 643.835Z" fill="white"/>
<path d="M638.736 571.946C638.159 571.946 637.693 571.479 637.693 570.902V561.141C631.165 560.453 626.547 558.265 623.616 554.479C617.632 546.772 619.83 533.736 622.173 519.922C622.461 518.234 622.75 516.524 623.027 514.814C623.327 512.949 623.727 511.05 624.215 509.173L625.248 505.176C625.392 504.621 625.958 504.276 626.524 504.432C627.08 504.576 627.413 505.142 627.268 505.709L626.236 509.706C625.77 511.516 625.381 513.349 625.092 515.159C624.815 516.88 624.526 518.59 624.238 520.278C621.984 533.625 619.852 546.228 625.27 553.202C627.968 556.677 632.408 558.621 638.836 559.154C639.38 559.198 639.791 559.653 639.791 560.198V570.902C639.791 571.479 639.324 571.946 638.747 571.946H638.736Z" fill="#283F56"/>
<path d="M673.185 569.825C672.674 569.825 672.23 569.458 672.152 568.937L669.455 551.181C669.366 550.615 669.766 550.081 670.332 549.993C670.898 549.915 671.431 550.292 671.52 550.87L674.217 568.626C674.306 569.192 673.906 569.725 673.34 569.814C673.285 569.814 673.229 569.825 673.185 569.825Z" fill="#283F56"/>
<path d="M671.275 529.816C671.275 535.013 667.057 539.233 661.861 539.233C656.666 539.233 652.447 535.013 652.447 529.816C652.447 524.619 656.666 520.4 661.861 520.4C667.057 520.4 671.275 524.619 671.275 529.816Z" fill="white"/>
<path d="M660.13 532.548C659.919 532.548 659.708 532.481 659.53 532.348C659.064 532.015 658.953 531.36 659.286 530.893L662.728 526.063C663.061 525.597 663.716 525.486 664.182 525.819C664.648 526.152 664.759 526.807 664.426 527.273L660.985 532.104C660.785 532.392 660.463 532.537 660.13 532.537V532.548Z" fill="#283F56"/>
<path d="M669.765 540.443C669.765 543.863 667.001 546.628 663.582 546.628C660.163 546.628 657.398 543.863 657.398 540.443C657.398 537.023 660.163 534.258 663.582 534.258C667.001 534.258 669.765 537.023 669.765 540.443Z" fill="#D75338"/>
<path d="M638.737 561.23C638.16 561.23 637.693 560.764 637.693 560.186C637.693 559.609 638.16 559.143 638.737 559.143C645.531 559.143 650.815 557.199 650.871 557.177C651.404 556.977 652.014 557.244 652.214 557.788C652.414 558.332 652.148 558.932 651.604 559.132C651.37 559.22 645.92 561.23 638.737 561.23Z" fill="#283F56"/>
<path d="M629.877 536.046C629.777 536.046 629.666 536.035 629.566 536.001C629.011 535.824 628.711 535.246 628.878 534.691L633.108 521.122C633.285 520.566 633.851 520.267 634.418 520.433C634.973 520.611 635.272 521.188 635.106 521.743L630.876 535.313C630.732 535.757 630.321 536.046 629.877 536.046Z" fill="#283F56"/>
<path d="M644.088 527.096C645.253 527.096 646.197 526.151 646.197 524.986C646.197 523.821 645.253 522.876 644.088 522.876C642.923 522.876 641.979 523.821 641.979 524.986C641.979 526.151 642.923 527.096 644.088 527.096Z" fill="#283F56"/>
<path d="M628.801 523.875C628.801 525.041 627.857 525.985 626.691 525.985C625.526 525.985 624.582 525.041 624.582 523.875C624.582 522.709 625.526 521.766 626.691 521.766C627.857 521.766 628.801 522.709 628.801 523.875Z" fill="#283F56"/>
<path d="M632.831 543.164C630.544 543.164 628.445 541.653 627.802 539.344C627.724 539.077 627.757 538.788 627.901 538.555C628.035 538.311 628.268 538.133 628.534 538.067L636.583 535.813C636.849 535.735 637.138 535.768 637.382 535.912C637.626 536.046 637.804 536.279 637.871 536.545C638.648 539.321 637.027 542.209 634.252 542.986C633.785 543.119 633.308 543.175 632.842 543.175L632.831 543.164ZM630.255 539.743C630.999 540.798 632.353 541.331 633.663 540.965C634.973 540.598 635.861 539.444 635.95 538.156L630.255 539.755V539.743Z" fill="#283F56"/>
<path d="M638.736 569.07C638.736 569.07 642.877 572.679 647.074 569.747C651.259 566.827 652.236 557.666 652.236 557.666L638.736 560.186V569.07Z" fill="#283F56"/>
<path d="M831.548 536.412C830.949 536.412 830.493 535.924 830.505 535.346C830.649 527.051 828.229 520.378 823.3 515.503C813.852 506.153 798.255 506.486 798.11 506.486C797.522 506.486 797.056 506.042 797.033 505.476C797.022 504.898 797.466 504.421 798.044 504.398C798.71 504.376 814.696 504.054 824.765 514.015C830.105 519.3 832.736 526.485 832.581 535.368C832.581 535.935 832.103 536.39 831.537 536.39L831.548 536.412Z" fill="#283F56"/>
<path d="M831.559 506.497C831.493 506.497 831.415 506.497 831.348 506.475C830.782 506.353 830.427 505.809 830.538 505.242L838.364 467.732C838.487 467.166 839.031 466.799 839.597 466.922C840.163 467.044 840.518 467.588 840.407 468.154L832.581 505.664C832.481 506.153 832.048 506.497 831.559 506.497Z" fill="#283F56"/>
<path d="M817.194 503.677C817.194 503.677 817.105 503.677 817.06 503.677C816.483 503.599 816.083 503.077 816.161 502.5L819.936 474.017C820.013 473.451 820.546 473.04 821.112 473.118C821.69 473.195 822.089 473.717 822.012 474.295L818.237 502.777C818.17 503.299 817.715 503.688 817.205 503.688L817.194 503.677Z" fill="#283F56"/>
<path d="M474.067 518.345C473.956 518.345 473.834 518.323 473.723 518.29L427.852 501.989C427.308 501.8 427.019 501.2 427.219 500.656C427.407 500.112 428.007 499.824 428.551 500.023L474.422 516.324C474.966 516.513 475.255 517.113 475.055 517.657C474.9 518.09 474.5 518.357 474.067 518.357V518.345Z" fill="#283F56"/>
<path d="M473.823 511.616C473.623 511.616 473.423 511.561 473.246 511.45L436.866 487.52C436.389 487.198 436.255 486.554 436.566 486.076C436.877 485.599 437.521 485.455 438.009 485.777L474.389 509.706C474.866 510.028 475 510.672 474.689 511.15C474.489 511.45 474.156 511.616 473.812 511.616H473.823Z" fill="#283F56"/>
<path d="M515.265 535.757C514.788 535.757 514.355 535.424 514.244 534.935C514.199 534.758 510.092 516.669 493.828 513.815C477.631 510.972 471.17 521.888 470.903 522.354C470.67 522.765 470.193 522.965 469.738 522.843C469.493 522.776 445.614 516.602 437.565 515.347C429.783 514.137 427.452 520.466 427.363 520.733C427.174 521.277 426.575 521.566 426.031 521.377C425.487 521.188 425.198 520.6 425.387 520.056C425.409 519.978 428.34 511.805 437.887 513.282C445.347 514.437 465.408 519.567 469.549 520.633C471.381 518.035 478.952 509.073 494.205 511.749C511.857 514.848 516.253 534.291 516.297 534.491C516.419 535.057 516.064 535.613 515.498 535.735C515.42 535.746 515.354 535.757 515.276 535.757H515.265Z" fill="#283F56"/>
<path d="M550.058 454.118H443.938V523.265H550.058V454.118Z" fill="#D75338"/>
<path d="M550.058 524.308H443.938C443.361 524.308 442.895 523.842 442.895 523.265V454.118C442.895 453.541 443.361 453.074 443.938 453.074H550.058C550.635 453.074 551.101 453.541 551.101 454.118V523.265C551.101 523.842 550.635 524.308 550.058 524.308ZM444.982 522.221H549.014V455.162H444.982V522.221Z" fill="#283F56"/>
<path d="M550.058 472.018H443.938C443.361 472.018 442.895 471.552 442.895 470.975V454.129C442.895 453.552 443.361 453.086 443.938 453.086H550.058C550.635 453.086 551.101 453.552 551.101 454.129V470.975C551.101 471.552 550.635 472.018 550.058 472.018ZM444.982 469.931H549.014V455.173H444.982V469.931Z" fill="#283F56"/>
<path d="M496.993 524.308C496.415 524.308 495.949 523.842 495.949 523.265V454.907C495.949 454.329 496.415 453.863 496.993 453.863C497.57 453.863 498.036 454.329 498.036 454.907V523.265C498.036 523.842 497.57 524.308 496.993 524.308Z" fill="#283F56"/>
<path d="M496.993 454.995C496.859 454.995 496.726 454.973 496.604 454.918C495.361 454.418 466.108 442.414 464.509 430.477C464.099 427.368 465.498 424.57 468.661 422.149C471.947 419.639 475.289 418.951 478.586 420.117C490.642 424.359 497.714 452.508 498.003 453.707C498.092 454.085 497.969 454.496 497.67 454.751C497.481 454.918 497.237 455.007 496.981 455.007L496.993 454.995ZM475.467 421.649C473.646 421.649 471.825 422.36 469.938 423.804C467.374 425.769 466.275 427.857 466.585 430.189C467.807 439.283 488.833 449.221 495.427 452.131C493.562 445.557 487.134 425.325 477.898 422.071C477.087 421.783 476.277 421.638 475.467 421.638V421.649Z" fill="#283F56"/>
<path d="M500.267 455.162C500.001 455.162 499.734 455.062 499.534 454.862C499.124 454.451 499.124 453.796 499.534 453.385C506.262 446.623 523.225 427.246 520.927 418.918C520.428 417.097 518.995 415.908 516.553 415.287C513.789 414.576 511.38 415.042 509.182 416.697C499.079 424.303 498.058 453.685 498.047 453.985C498.025 454.562 497.614 455.007 496.97 454.995C496.393 454.973 495.938 454.496 495.96 453.918C495.993 452.675 497.026 423.237 507.927 415.031C510.625 412.999 513.7 412.411 517.075 413.266C520.261 414.076 522.237 415.797 522.948 418.362C526.034 429.556 502.055 453.83 501.022 454.851C500.822 455.051 500.556 455.162 500.278 455.162H500.267Z" fill="#283F56"/>
<path d="M464.107 287.692L797.404 287.692V42.5344L464.107 42.5344L464.107 287.692Z" fill="white"/>
<path d="M464.107 287.692H797.404L796.86 194.051C776.738 164.031 750.619 134.434 702.565 133.345C656.373 132.293 634.836 140.034 634.836 140.034C595.428 145.356 584.388 154.887 569.635 175.92C561.219 187.906 551.122 205.699 539.634 202.469C526.007 198.635 509.235 127.431 509.235 127.431L451.253 141.945C449.62 129.789 453.405 182.657 464.119 239.505V287.704L464.107 287.692Z" fill="#283F56"/>
<path d="M672.951 159.592C699.493 154.028 709.808 142.489 713.811 134.18C710.195 133.732 706.447 133.442 702.553 133.345C656.361 132.293 638.138 139.042 638.138 139.042C626.844 140.566 614.57 143.432 607.182 145.815C607.23 145.864 628.875 168.832 672.951 159.592Z" fill="white"/>
<path d="M672.589 69.2285C671.984 68.4423 671.343 67.6924 670.678 66.9667C670.642 66.9304 670.618 66.8942 670.618 66.8942C663.338 59.0565 652.395 54.8957 641.064 56.7705C626.965 59.0928 616.433 70.051 613.978 83.3436C613.978 83.3436 606.868 117.694 614.752 124.177C630.738 137.324 689.663 129.317 696.241 109.699C698.926 101.704 679.034 76.9695 672.589 69.2406V69.2285Z" fill="#283F56"/>
<path d="M797.404 289.119H464.107C463.321 289.119 462.68 288.478 462.68 287.692V239.626C457.577 212.52 454.215 187.35 452.305 170.998C448.701 140.167 449.548 139.465 449.995 139.09C450.394 138.764 450.951 138.667 451.434 138.861C452.003 139.078 452.232 139.429 452.402 140.191L508.872 126.052C509.235 125.955 509.634 126.015 509.961 126.221C510.287 126.415 510.517 126.741 510.601 127.104C515.221 146.686 529.489 198.139 539.998 201.09C549.055 203.642 557.64 191.003 565.198 179.851C566.31 178.206 567.398 176.61 568.463 175.098C583.191 154.101 597.327 143.142 637.799 137.651C639.782 136.962 658.356 130.914 702.589 131.918C751.224 133.019 778.129 163.547 798.045 193.265C798.202 193.495 798.287 193.773 798.287 194.051L798.831 287.692C798.831 288.067 798.686 288.43 798.42 288.708C798.154 288.974 797.791 289.131 797.416 289.131L797.404 289.119ZM465.534 286.265H795.977L795.445 194.486C774.997 164.043 749.555 135.825 702.529 134.76C657.268 133.732 638.815 140.3 638.634 140.372C638.537 140.409 638.428 140.433 638.331 140.445C598.802 145.779 585.053 156.399 570.796 176.719C569.744 178.218 568.668 179.803 567.568 181.436C559.466 193.386 550.288 206.92 539.248 203.812C525.886 200.05 511.049 141.038 508.183 129.136L452.414 143.106C453.139 154.137 457.359 196.01 465.51 239.227C465.522 239.311 465.534 239.396 465.534 239.493V286.265Z" fill="#283F56"/>
<path d="M676.107 140.13L671.512 125.991C646.735 130.503 656.542 102.297 656.542 102.297C642.866 78.2514 636.953 96.3096 616.904 79.2311L614.739 84.9522C615.054 109.239 611.68 133.78 637.497 131.664L639.879 146.093L676.107 140.118V140.13Z" fill="white"/>
<path d="M674.33 136.091C673.725 136.091 673.169 135.704 672.975 135.111L669.698 125.024C669.456 124.274 669.868 123.475 670.605 123.233C671.355 122.992 672.153 123.403 672.395 124.153L675.672 134.24C675.914 134.99 675.503 135.788 674.765 136.03C674.62 136.079 674.475 136.103 674.33 136.103V136.091Z" fill="#283F56"/>
<path d="M639.311 144.086C638.622 144.086 638.029 143.59 637.908 142.9L636.312 133.176C629.553 133.514 624.45 132.015 620.774 128.616C613.216 121.613 613.276 107.776 613.337 93.1165C613.337 90.4192 613.361 87.6978 613.337 84.9643C613.361 84.6256 613.809 80.8398 615.743 76.6912C616.082 75.9776 616.928 75.6752 617.63 76.0017C618.343 76.3283 618.645 77.1871 618.319 77.8886C616.59 81.5897 616.179 85.0611 616.167 85.0973C616.215 87.6615 616.203 90.4071 616.191 93.1165C616.13 107.123 616.07 120.355 622.721 126.511C626.01 129.559 630.822 130.769 637.4 130.237C638.138 130.176 638.803 130.696 638.924 131.422L640.738 142.416C640.871 143.191 640.339 143.928 639.565 144.049C639.492 144.061 639.408 144.074 639.335 144.074L639.311 144.086Z" fill="#283F56"/>
<path d="M637.509 133.091C636.82 133.091 636.227 132.595 636.106 131.894C635.973 131.12 636.505 130.382 637.279 130.261C644.22 129.112 649.251 126.257 649.299 126.233C649.976 125.834 650.847 126.076 651.246 126.753C651.633 127.431 651.403 128.301 650.726 128.701C650.508 128.834 645.188 131.845 637.751 133.079C637.678 133.091 637.594 133.103 637.521 133.103L637.509 133.091Z" fill="#283F56"/>
<path d="M639.009 140.796C639.009 140.796 643.87 143.795 647.679 140.082C651.488 136.369 650.932 126.802 650.932 126.802L637.497 131.676L638.997 140.796H639.009Z" fill="#283F56"/>
<path d="M623.095 111.114C622.285 111.114 621.656 110.461 621.668 109.675L621.886 94.8824C621.886 94.1083 622.527 93.4794 623.313 93.4794C624.123 93.4794 624.752 94.1325 624.74 94.9187L624.522 109.711C624.51 110.485 623.881 111.114 623.095 111.114Z" fill="#283F56"/>
<path d="M610.023 247.56C609.818 247.56 609.612 247.512 609.407 247.415C600.712 243.254 594.594 235.09 593.034 225.595C591.087 213.766 596.408 202.034 606.589 195.72C607.266 195.309 608.137 195.514 608.548 196.18C608.959 196.845 608.754 197.728 608.089 198.139C598.886 203.848 594.074 214.443 595.839 225.136C597.254 233.711 602.78 241.089 610.64 244.851C611.354 245.189 611.644 246.036 611.305 246.75C611.063 247.258 610.555 247.56 610.023 247.56Z" fill="white"/>
<path d="M607.339 198.369C606.649 198.369 606.057 197.873 605.936 197.171L603.832 184.387C603.699 183.613 604.231 182.875 605.005 182.754C605.791 182.633 606.516 183.153 606.637 183.927L608.741 196.712C608.874 197.486 608.342 198.224 607.568 198.345C607.484 198.357 607.411 198.369 607.339 198.369Z" fill="white"/>
<path d="M610.12 289.119C609.334 289.119 608.706 288.49 608.693 287.704L608.597 246.145C608.597 245.359 609.225 244.718 610.011 244.718C610.797 244.718 611.438 245.347 611.438 246.133L611.535 287.692C611.535 288.478 610.906 289.119 610.12 289.119Z" fill="white"/>
<path d="M774.755 287.934C774.308 287.934 773.873 287.728 773.594 287.341L724.234 218.06C723.775 217.419 723.92 216.536 724.56 216.076C725.201 215.617 726.084 215.774 726.544 216.415L775.904 285.696C776.364 286.337 776.218 287.22 775.577 287.68C775.324 287.861 775.033 287.946 774.755 287.946V287.934Z" fill="white"/>
<path d="M616.324 97.9666C616.324 99.1519 617.292 100.12 618.477 100.12C619.662 100.12 620.629 99.1519 620.629 97.9666C620.629 96.7813 619.662 95.8137 618.477 95.8137C617.292 95.8137 616.324 96.7813 616.324 97.9666Z" fill="#283F56"/>
<path d="M632.66 95.8136C632.66 96.999 633.628 97.9666 634.813 97.9666C635.998 97.9666 636.965 96.999 636.965 95.8136C636.965 94.6283 635.998 93.6607 634.813 93.6607C633.628 93.6607 632.66 94.6283 632.66 95.8136Z" fill="#283F56"/>
<path d="M626.698 116.279C626.093 116.279 625.537 115.892 625.344 115.287C625.102 114.537 625.513 113.739 626.263 113.497C627.436 113.122 628.621 110.921 629.008 109.917C629.286 109.179 630.12 108.816 630.846 109.106C631.583 109.385 631.946 110.207 631.668 110.945C631.499 111.392 629.915 115.323 627.145 116.218C627 116.267 626.855 116.291 626.71 116.291L626.698 116.279Z" fill="#283F56"/>
<path d="M650.351 88.992C646.312 92.1005 645.55 97.9062 648.67 101.958C651.79 105.998 657.582 106.76 661.633 103.639C665.671 100.519 666.433 94.7251 663.314 90.6732C660.206 86.6334 654.402 85.8714 650.351 88.992Z" fill="white"/>
<path d="M655.708 100.095C655.575 100.095 655.43 100.071 655.297 100.035C654.547 99.8051 654.124 99.0068 654.341 98.2569L656.034 92.681C656.264 91.9311 657.05 91.5078 657.812 91.7376C658.561 91.9674 658.985 92.7657 658.767 93.5156L657.074 99.0915C656.893 99.7083 656.324 100.107 655.708 100.107V100.095Z" fill="#283F56"/>
<path d="M464.107 287.692L797.404 287.692V239.493L464.107 239.493V287.692Z" fill="white"/>
<path d="M797.405 240.92H464.108C463.322 240.92 462.681 240.279 462.681 239.493C462.681 238.706 463.322 238.065 464.108 238.065H797.405C798.191 238.065 798.832 238.706 798.832 239.493C798.832 240.279 798.191 240.92 797.405 240.92Z" fill="#283F56"/>
<path d="M797.405 289.119H464.108C463.322 289.119 462.681 288.478 462.681 287.692V42.5344C462.681 41.7482 463.322 41.1072 464.108 41.1072H797.405C798.191 41.1072 798.832 41.7482 798.832 42.5344V287.692C798.832 288.478 798.191 289.119 797.405 289.119ZM465.534 286.265H795.99V43.9616H465.534V286.277V286.265Z" fill="#283F56"/>
<path d="M377.358 111.702L520.856 111.777L520.905 19.9261L377.406 19.8509L377.358 111.702Z" fill="white"/>
<path d="M520.856 113.182L377.358 113.098C376.572 113.098 375.931 112.457 375.931 111.671L375.979 19.8196C375.979 19.4447 376.124 19.0818 376.39 18.8157C376.656 18.5496 377.019 18.4045 377.394 18.4045L520.892 18.4891C521.678 18.4891 522.319 19.1302 522.319 19.9164L522.27 111.767C522.27 112.142 522.125 112.505 521.859 112.771C521.593 113.037 521.231 113.182 520.856 113.182ZM378.784 110.255L519.429 110.34L519.477 21.3315L378.833 21.2469L378.784 110.255Z" fill="#283F56"/>
<path d="M449.125 80.6584C448.798 80.6584 448.484 80.5496 448.218 80.3319L376.511 20.9203C375.906 20.4243 375.822 19.5172 376.318 18.9124C376.825 18.3077 377.72 18.223 378.325 18.7189L449.137 77.3806L520.009 18.8157C520.614 18.3198 521.509 18.3924 522.017 19.0092C522.512 19.614 522.428 20.509 521.823 21.017L450.044 80.3439C449.778 80.5617 449.463 80.6705 449.137 80.6705L449.125 80.6584Z" fill="#283F56"/>
<path d="M377.37 113.098C376.971 113.098 376.584 112.928 376.306 112.614C375.786 112.021 375.846 111.126 376.439 110.606L429.681 63.834C430.273 63.314 431.168 63.3744 431.688 63.9671C432.208 64.5598 432.148 65.4548 431.555 65.9749L378.301 112.747C378.035 112.989 377.697 113.098 377.358 113.098H377.37Z" fill="#283F56"/>
<path d="M520.855 113.182C520.517 113.182 520.19 113.062 519.912 112.832L466.96 66.2047C466.368 65.6846 466.32 64.7896 466.827 64.1969C467.347 63.6043 468.242 63.5559 468.835 64.0639L521.787 110.691C522.379 111.211 522.427 112.106 521.92 112.699C521.641 113.013 521.242 113.182 520.855 113.182Z" fill="#283F56"/>
<path d="M486.054 169.909C501.786 167.236 512.572 152.576 510.468 136.756L509.222 127.418C507.808 118.601 505.643 108.78 482.874 111.671C482.874 111.671 477.746 103.53 472.607 93.6608C464.106 77.3081 443.925 77.0541 453.344 96.2612L449.136 86.7907C443.235 71.1395 434.964 74.3689 430.611 76.5461C423.876 79.9206 428.942 91.4836 428.942 91.4836C428.942 91.4836 423.186 73.8125 410.502 80.4528C403.73 83.9967 410.852 93.3705 419.269 111.743L406.463 111.658C406.463 111.658 420.998 123.947 424.166 126.777C427.322 129.608 449.136 129.547 449.136 129.547L451.869 145.622C454.614 161.769 469.923 172.63 486.054 169.885V169.909Z" fill="white"/>
<path d="M481.023 171.759C474.639 171.759 468.435 169.788 463.115 166.026C456.343 161.225 451.857 154.076 450.466 145.888L447.939 130.999C442.437 130.974 426.342 130.66 423.223 127.866C420.115 125.084 405.701 112.892 405.556 112.771C405.097 112.384 404.927 111.755 405.145 111.187C405.35 110.618 405.81 110.219 406.487 110.255L417.056 110.328C415.52 107.038 414.033 104.063 412.69 101.377C406.874 89.6814 403.367 82.6178 409.849 79.2191C413.416 77.3443 416.85 77.0541 420.042 78.3603C422.328 79.2917 424.202 80.9366 425.702 82.7388C425.798 79.7755 426.838 76.8605 429.982 75.3003C432.872 73.8609 436.706 72.3974 440.781 73.994C444.42 75.4212 447.492 79.074 449.898 84.8796C450.672 82.5211 452.292 81.4325 453.115 81.0092C458.556 78.2636 468.423 82.5211 473.877 93.0197C478.025 101.003 482.221 107.921 483.611 110.159C507.457 107.425 509.368 119.303 510.637 127.201L511.895 136.575C514.12 153.23 502.886 168.494 486.308 171.312C484.542 171.614 482.789 171.759 481.036 171.759H481.023ZM449.136 128.144C449.826 128.144 450.418 128.64 450.539 129.329L453.272 145.404C454.529 152.843 458.617 159.338 464.759 163.692C470.902 168.058 478.375 169.764 485.812 168.494C500.867 165.93 511.073 152.068 509.053 136.937L507.808 127.6C506.502 119.508 505.026 110.28 483.055 113.086C482.499 113.158 481.967 112.904 481.676 112.433C481.628 112.348 476.465 104.135 471.362 94.326C466.501 84.9643 458.06 81.6865 454.408 83.5371C451.918 84.795 451.651 88.3873 453.61 93.3342L454.65 95.6807C454.965 96.3943 454.65 97.2167 453.949 97.5433C453.26 97.8699 452.413 97.5796 452.075 96.8781C451.651 96.0072 451.289 95.1848 450.974 94.3986L447.842 87.3592C445.605 81.4325 442.897 77.8523 439.741 76.6186C436.73 75.4454 433.755 76.5582 431.252 77.8161C426.983 79.9569 428.761 86.7181 429.753 89.5968C430.091 90.4193 430.272 90.9514 430.297 91.0482C430.526 91.7739 430.164 92.548 429.45 92.8141C428.737 93.0802 427.939 92.7536 427.636 92.0521C427.588 91.9553 427.37 91.4352 427.08 90.6249C426.028 88.1212 423.332 82.7388 418.942 80.9608C416.536 79.9811 413.984 80.223 411.143 81.7107C407.285 83.7306 409.607 88.7985 415.206 100.083C416.814 103.337 418.652 107.014 420.55 111.15C420.756 111.598 420.72 112.106 420.454 112.517C420.188 112.928 419.716 113.182 419.244 113.17L410.357 113.11C414.794 116.871 422.812 123.681 425.097 125.725C426.826 127.273 438.568 128.168 449.112 128.132L449.136 128.144Z" fill="#283F56"/>
<path d="M662.758 261.07C662.758 267.626 668.066 272.936 674.62 272.936C681.174 272.936 686.483 267.626 686.483 261.07C686.483 254.515 681.174 249.205 674.62 249.205C668.066 249.205 662.758 254.515 662.758 261.07Z" fill="#67DDB9"/>
<path d="M575.017 261.07C575.017 267.626 580.325 272.936 586.879 272.936C593.433 272.936 598.741 267.626 598.741 261.07C598.741 254.515 593.433 249.205 586.879 249.205C580.325 249.205 575.017 254.515 575.017 261.07Z" fill="#283F56"/>
<path d="M618.887 261.07C618.887 267.626 624.195 272.936 630.749 272.936C637.303 272.936 642.612 267.626 642.612 261.07C642.612 254.515 637.303 249.205 630.749 249.205C624.195 249.205 618.887 254.515 618.887 261.07Z" fill="#D75338"/>
<path d="M469.053 130.999H449.137C448.351 130.999 447.71 130.358 447.71 129.571C447.71 128.785 448.351 128.144 449.137 128.144H469.053C469.839 128.144 470.48 128.785 470.48 129.571C470.48 130.358 469.839 130.999 469.053 130.999Z" fill="#283F56"/>
<path d="M461.084 115.65C460.54 115.65 460.008 115.323 459.778 114.791L444.288 78.8684C443.973 78.1427 444.312 77.3081 445.025 76.9936C445.751 76.6792 446.585 77.0178 446.9 77.7314L462.39 113.654C462.704 114.38 462.365 115.214 461.652 115.529C461.471 115.614 461.277 115.65 461.084 115.65Z" fill="#283F56"/>
<path d="M441.349 121.685C440.805 121.685 440.273 121.359 440.043 120.827L427.649 92.0642C427.335 91.3384 427.673 90.5039 428.387 90.1894C429.112 89.8749 429.947 90.2136 430.261 90.9272L442.655 119.69C442.97 120.415 442.631 121.25 441.918 121.564C441.736 121.649 441.543 121.685 441.349 121.685Z" fill="#283F56"/>
<path d="M464.107 287.692H797.404L796.86 194.051C776.738 164.031 750.619 134.434 702.565 133.345C656.373 132.293 634.836 140.034 634.836 140.034C595.428 145.356 584.388 154.887 569.635 175.92C561.219 187.906 551.122 205.699 539.634 202.469C526.007 198.635 509.235 127.431 509.235 127.431L451.253 141.945C449.62 129.789 453.405 182.657 464.119 239.505V287.704L464.107 287.692Z" fill="#283F56"/>
<path d="M672.951 159.592C699.493 154.028 709.808 142.489 713.811 134.18C710.195 133.732 706.447 133.442 702.553 133.345C656.361 132.293 638.138 139.042 638.138 139.042C626.844 140.566 614.57 143.432 607.182 145.815C607.23 145.864 628.875 168.832 672.951 159.592Z" fill="white"/>
<path d="M672.589 69.2285C671.984 68.4423 671.343 67.6924 670.678 66.9667C670.642 66.9304 670.618 66.8942 670.618 66.8942C663.338 59.0565 652.395 54.8957 641.064 56.7705C626.965 59.0928 616.433 70.051 613.978 83.3436C613.978 83.3436 606.868 117.694 614.752 124.177C630.738 137.324 689.663 129.317 696.241 109.699C698.926 101.704 679.034 76.9695 672.589 69.2406V69.2285Z" fill="#283F56"/>
<path d="M797.404 289.119H464.107C463.321 289.119 462.68 288.478 462.68 287.692V239.626C457.577 212.52 454.215 187.35 452.305 170.998C448.701 140.167 449.548 139.465 449.995 139.09C450.394 138.764 450.951 138.667 451.434 138.861C452.003 139.078 452.232 139.429 452.402 140.191L508.872 126.052C509.235 125.955 509.634 126.015 509.961 126.221C510.287 126.415 510.517 126.741 510.601 127.104C515.221 146.686 529.489 198.139 539.998 201.09C549.055 203.642 557.64 191.003 565.198 179.851C566.31 178.206 567.398 176.61 568.463 175.098C583.191 154.101 597.327 143.142 637.799 137.651C639.782 136.962 658.356 130.914 702.589 131.918C751.224 133.019 778.129 163.547 798.045 193.265C798.202 193.495 798.287 193.773 798.287 194.051L798.831 287.692C798.831 288.067 798.686 288.43 798.42 288.708C798.154 288.974 797.791 289.131 797.416 289.131L797.404 289.119ZM465.534 286.265H795.977L795.445 194.486C774.997 164.043 749.555 135.825 702.529 134.76C657.268 133.732 638.815 140.3 638.634 140.372C638.537 140.409 638.428 140.433 638.331 140.445C598.802 145.779 585.053 156.399 570.796 176.719C569.744 178.218 568.668 179.803 567.568 181.436C559.466 193.386 550.288 206.92 539.248 203.812C525.886 200.05 511.049 141.038 508.183 129.136L452.414 143.106C453.139 154.137 457.359 196.01 465.51 239.227C465.522 239.311 465.534 239.396 465.534 239.493V286.265Z" fill="#283F56"/>
<path d="M676.107 140.13L671.512 125.991C646.735 130.503 656.542 102.297 656.542 102.297C642.866 78.2514 636.953 96.3096 616.904 79.2311L614.739 84.9522C615.054 109.239 611.68 133.78 637.497 131.664L639.879 146.093L676.107 140.118V140.13Z" fill="white"/>
<path d="M674.33 136.091C673.725 136.091 673.169 135.704 672.975 135.111L669.698 125.024C669.456 124.274 669.868 123.475 670.605 123.233C671.355 122.992 672.153 123.403 672.395 124.153L675.672 134.24C675.914 134.99 675.503 135.788 674.765 136.03C674.62 136.079 674.475 136.103 674.33 136.103V136.091Z" fill="#283F56"/>
<path d="M639.311 144.086C638.622 144.086 638.029 143.59 637.908 142.9L636.312 133.176C629.553 133.514 624.45 132.015 620.774 128.616C613.216 121.613 613.276 107.776 613.337 93.1165C613.337 90.4192 613.361 87.6978 613.337 84.9643C613.361 84.6256 613.809 80.8398 615.743 76.6912C616.082 75.9776 616.928 75.6752 617.63 76.0017C618.343 76.3283 618.645 77.1871 618.319 77.8886C616.59 81.5897 616.179 85.0611 616.167 85.0973C616.215 87.6615 616.203 90.4071 616.191 93.1165C616.13 107.123 616.07 120.355 622.721 126.511C626.01 129.559 630.822 130.769 637.4 130.237C638.138 130.176 638.803 130.696 638.924 131.422L640.738 142.416C640.871 143.191 640.339 143.928 639.565 144.049C639.492 144.061 639.408 144.074 639.335 144.074L639.311 144.086Z" fill="#283F56"/>
<path d="M637.509 133.091C636.82 133.091 636.227 132.595 636.106 131.894C635.973 131.12 636.505 130.382 637.279 130.261C644.22 129.112 649.251 126.257 649.299 126.233C649.976 125.834 650.847 126.076 651.246 126.753C651.633 127.431 651.403 128.301 650.726 128.701C650.508 128.834 645.188 131.845 637.751 133.079C637.678 133.091 637.594 133.103 637.521 133.103L637.509 133.091Z" fill="#283F56"/>
<path d="M639.009 140.796C639.009 140.796 643.87 143.795 647.679 140.082C651.488 136.369 650.932 126.802 650.932 126.802L637.497 131.676L638.997 140.796H639.009Z" fill="#283F56"/>
<path d="M623.095 111.114C622.285 111.114 621.656 110.461 621.668 109.675L621.886 94.8824C621.886 94.1083 622.527 93.4794 623.313 93.4794C624.123 93.4794 624.752 94.1325 624.74 94.9187L624.522 109.711C624.51 110.485 623.881 111.114 623.095 111.114Z" fill="#283F56"/>
<path d="M610.023 247.56C609.818 247.56 609.612 247.512 609.407 247.415C600.712 243.254 594.594 235.09 593.034 225.595C591.087 213.766 596.408 202.034 606.589 195.72C607.266 195.309 608.137 195.514 608.548 196.18C608.959 196.845 608.754 197.728 608.089 198.139C598.886 203.848 594.074 214.443 595.839 225.136C597.254 233.711 602.78 241.089 610.64 244.851C611.354 245.189 611.644 246.036 611.305 246.75C611.063 247.258 610.555 247.56 610.023 247.56Z" fill="white"/>
<path d="M607.339 198.369C606.649 198.369 606.057 197.873 605.936 197.171L603.832 184.387C603.699 183.613 604.231 182.875 605.005 182.754C605.791 182.633 606.516 183.153 606.637 183.927L608.741 196.712C608.874 197.486 608.342 198.224 607.568 198.345C607.484 198.357 607.411 198.369 607.339 198.369Z" fill="white"/>
<path d="M610.12 289.119C609.334 289.119 608.706 288.49 608.693 287.704L608.597 246.145C608.597 245.359 609.225 244.718 610.011 244.718C610.797 244.718 611.438 245.347 611.438 246.133L611.535 287.692C611.535 288.478 610.906 289.119 610.12 289.119Z" fill="white"/>
<path d="M774.755 287.934C774.308 287.934 773.873 287.728 773.594 287.341L724.234 218.06C723.775 217.419 723.92 216.536 724.56 216.076C725.201 215.617 726.084 215.774 726.544 216.415L775.904 285.696C776.364 286.337 776.218 287.22 775.577 287.68C775.324 287.861 775.033 287.946 774.755 287.946V287.934Z" fill="white"/>
<path d="M616.324 97.9666C616.324 99.1519 617.292 100.12 618.477 100.12C619.662 100.12 620.629 99.1519 620.629 97.9666C620.629 96.7813 619.662 95.8137 618.477 95.8137C617.292 95.8137 616.324 96.7813 616.324 97.9666Z" fill="#283F56"/>
<path d="M632.66 95.8136C632.66 96.999 633.628 97.9666 634.813 97.9666C635.998 97.9666 636.965 96.999 636.965 95.8136C636.965 94.6283 635.998 93.6607 634.813 93.6607C633.628 93.6607 632.66 94.6283 632.66 95.8136Z" fill="#283F56"/>
<path d="M626.698 116.279C626.093 116.279 625.537 115.892 625.344 115.287C625.102 114.537 625.513 113.739 626.263 113.497C627.436 113.122 628.621 110.921 629.008 109.917C629.286 109.179 630.12 108.816 630.846 109.106C631.583 109.385 631.946 110.207 631.668 110.945C631.499 111.392 629.915 115.323 627.145 116.218C627 116.267 626.855 116.291 626.71 116.291L626.698 116.279Z" fill="#283F56"/>
<path d="M650.351 88.992C646.312 92.1005 645.55 97.9062 648.67 101.958C651.79 105.998 657.582 106.76 661.633 103.639C665.671 100.519 666.433 94.7251 663.314 90.6732C660.206 86.6334 654.402 85.8714 650.351 88.992Z" fill="white"/>
<path d="M655.708 100.095C655.575 100.095 655.43 100.071 655.297 100.035C654.547 99.8051 654.124 99.0068 654.341 98.2569L656.034 92.681C656.264 91.9311 657.05 91.5078 657.812 91.7376C658.561 91.9674 658.985 92.7657 658.767 93.5156L657.074 99.0915C656.893 99.7083 656.324 100.107 655.708 100.107V100.095Z" fill="#283F56"/>
<path d="M464.107 287.692L797.404 287.692V239.493L464.107 239.493V287.692Z" fill="white"/>
<path d="M797.405 240.92H464.108C463.322 240.92 462.681 240.279 462.681 239.493C462.681 238.706 463.322 238.065 464.108 238.065H797.405C798.191 238.065 798.832 238.706 798.832 239.493C798.832 240.279 798.191 240.92 797.405 240.92Z" fill="#283F56"/>
<path d="M797.405 289.119H464.108C463.322 289.119 462.681 288.478 462.681 287.692V42.5344C462.681 41.7482 463.322 41.1072 464.108 41.1072H797.405C798.191 41.1072 798.832 41.7482 798.832 42.5344V287.692C798.832 288.478 798.191 289.119 797.405 289.119ZM465.534 286.265H795.99V43.9616H465.534V286.277V286.265Z" fill="#283F56"/>
<path d="M377.358 111.702L520.856 111.777L520.905 19.9261L377.406 19.8509L377.358 111.702Z" fill="white"/>
<path d="M520.856 113.182L377.358 113.098C376.572 113.098 375.931 112.457 375.931 111.671L375.979 19.8196C375.979 19.4447 376.124 19.0818 376.39 18.8157C376.656 18.5496 377.019 18.4045 377.394 18.4045L520.892 18.4891C521.678 18.4891 522.319 19.1302 522.319 19.9164L522.27 111.767C522.27 112.142 522.125 112.505 521.859 112.771C521.593 113.037 521.231 113.182 520.856 113.182ZM378.784 110.255L519.429 110.34L519.477 21.3315L378.833 21.2469L378.784 110.255Z" fill="#283F56"/>
<path d="M449.125 80.6584C448.798 80.6584 448.484 80.5496 448.218 80.3319L376.511 20.9203C375.906 20.4243 375.822 19.5172 376.318 18.9124C376.825 18.3077 377.72 18.223 378.325 18.7189L449.137 77.3806L520.009 18.8157C520.614 18.3198 521.509 18.3924 522.017 19.0092C522.512 19.614 522.428 20.509 521.823 21.017L450.044 80.3439C449.778 80.5617 449.463 80.6705 449.137 80.6705L449.125 80.6584Z" fill="#283F56"/>
<path d="M377.37 113.098C376.971 113.098 376.584 112.928 376.306 112.614C375.786 112.021 375.846 111.126 376.439 110.606L429.681 63.834C430.273 63.314 431.168 63.3744 431.688 63.9671C432.208 64.5598 432.148 65.4548 431.555 65.9749L378.301 112.747C378.035 112.989 377.697 113.098 377.358 113.098H377.37Z" fill="#283F56"/>
<path d="M520.855 113.182C520.517 113.182 520.19 113.062 519.912 112.832L466.96 66.2047C466.368 65.6846 466.32 64.7896 466.827 64.1969C467.347 63.6043 468.242 63.5559 468.835 64.0639L521.787 110.691C522.379 111.211 522.427 112.106 521.92 112.699C521.641 113.013 521.242 113.182 520.855 113.182Z" fill="#283F56"/>
<path d="M486.054 169.909C501.786 167.236 512.572 152.576 510.468 136.756L509.222 127.418C507.808 118.601 505.643 108.78 482.874 111.671C482.874 111.671 477.746 103.53 472.607 93.6608C464.106 77.3081 443.925 77.0541 453.344 96.2612L449.136 86.7907C443.235 71.1395 434.964 74.3689 430.611 76.5461C423.876 79.9206 428.942 91.4836 428.942 91.4836C428.942 91.4836 423.186 73.8125 410.502 80.4528C403.73 83.9967 410.852 93.3705 419.269 111.743L406.463 111.658C406.463 111.658 420.998 123.947 424.166 126.777C427.322 129.608 449.136 129.547 449.136 129.547L451.869 145.622C454.614 161.769 469.923 172.63 486.054 169.885V169.909Z" fill="white"/>
<path d="M662.758 261.07C662.758 267.626 668.066 272.936 674.62 272.936C681.174 272.936 686.483 267.626 686.483 261.07C686.483 254.515 681.174 249.205 674.62 249.205C668.066 249.205 662.758 254.515 662.758 261.07Z" fill="#67DDB9"/>
<path d="M575.017 261.07C575.017 267.626 580.325 272.936 586.879 272.936C593.433 272.936 598.741 267.626 598.741 261.07C598.741 254.515 593.433 249.205 586.879 249.205C580.325 249.205 575.017 254.515 575.017 261.07Z" fill="#283F56"/>
<path d="M618.887 261.07C618.887 267.626 624.195 272.936 630.749 272.936C637.303 272.936 642.612 267.626 642.612 261.07C642.612 254.515 637.303 249.205 630.749 249.205C624.195 249.205 618.887 254.515 618.887 261.07Z" fill="#D75338"/>
<path d="M469.052 130.999H449.136C448.35 130.999 447.709 130.358 447.709 129.571C447.709 128.785 448.35 128.144 449.136 128.144H469.052C469.838 128.144 470.479 128.785 470.479 129.571C470.479 130.358 469.838 130.999 469.052 130.999Z" fill="#283F56"/>
<path d="M481.023 171.759C474.639 171.759 468.435 169.788 463.115 166.026C456.343 161.225 451.857 154.076 450.466 145.888L447.939 130.999C442.437 130.974 426.342 130.66 423.223 127.866C420.115 125.084 405.701 112.892 405.556 112.771C405.097 112.384 404.927 111.755 405.145 111.187C405.35 110.618 405.81 110.219 406.487 110.255L417.056 110.328C415.52 107.038 414.033 104.063 412.69 101.377C406.874 89.6814 403.367 82.6178 409.849 79.2191C413.416 77.3443 416.85 77.0541 420.042 78.3603C422.328 79.2917 424.202 80.9366 425.702 82.7388C425.798 79.7755 426.838 76.8605 429.982 75.3003C432.872 73.8609 436.706 72.3974 440.781 73.994C444.42 75.4212 447.492 79.074 449.898 84.8796C450.672 82.5211 452.292 81.4325 453.115 81.0092C458.556 78.2636 468.423 82.5211 473.877 93.0197C478.025 101.003 482.221 107.921 483.611 110.159C507.457 107.425 509.368 119.303 510.637 127.201L511.895 136.575C514.12 153.23 502.886 168.494 486.308 171.312C484.542 171.614 482.789 171.759 481.036 171.759H481.023ZM449.136 128.144C449.826 128.144 450.418 128.64 450.539 129.329L453.272 145.404C454.529 152.843 458.617 159.338 464.759 163.692C470.902 168.058 478.375 169.764 485.812 168.494C500.867 165.93 511.073 152.068 509.053 136.937L507.808 127.6C506.502 119.508 505.026 110.28 483.055 113.086C482.499 113.158 481.967 112.904 481.676 112.433C481.628 112.348 476.465 104.135 471.362 94.326C466.501 84.9643 458.06 81.6865 454.408 83.5371C451.918 84.795 451.651 88.3873 453.61 93.3342L454.65 95.6807C454.965 96.3943 454.65 97.2167 453.949 97.5433C453.26 97.8699 452.413 97.5796 452.075 96.8781C451.651 96.0072 451.289 95.1848 450.974 94.3986L447.842 87.3592C445.605 81.4325 442.897 77.8523 439.741 76.6186C436.73 75.4454 433.755 76.5582 431.252 77.8161C426.983 79.9569 428.761 86.7181 429.753 89.5968C430.091 90.4193 430.272 90.9514 430.297 91.0482C430.526 91.7739 430.164 92.548 429.45 92.8141C428.737 93.0802 427.939 92.7536 427.636 92.0521C427.588 91.9553 427.37 91.4352 427.08 90.6249C426.028 88.1212 423.332 82.7388 418.942 80.9608C416.536 79.9811 413.984 80.223 411.143 81.7107C407.285 83.7306 409.607 88.7985 415.206 100.083C416.814 103.337 418.652 107.014 420.55 111.15C420.756 111.598 420.72 112.106 420.454 112.517C420.188 112.928 419.716 113.182 419.244 113.17L410.357 113.11C414.794 116.871 422.812 123.681 425.097 125.725C426.826 127.273 438.568 128.168 449.112 128.132L449.136 128.144Z" fill="#283F56"/>
<path d="M461.084 115.65C460.54 115.65 460.008 115.323 459.778 114.791L444.288 78.8684C443.973 78.1427 444.312 77.3081 445.025 76.9937C445.751 76.6792 446.585 77.0179 446.9 77.7315L462.39 113.654C462.704 114.38 462.365 115.214 461.652 115.529C461.471 115.614 461.277 115.65 461.084 115.65Z" fill="#283F56"/>
<path d="M441.348 121.685C440.804 121.685 440.272 121.359 440.043 120.827L427.648 92.0642C427.334 91.3385 427.672 90.5039 428.386 90.1895C429.111 89.875 429.946 90.2137 430.26 90.9273L442.654 119.69C442.969 120.415 442.63 121.25 441.917 121.564C441.735 121.649 441.542 121.685 441.348 121.685Z" fill="#283F56"/>
<path d="M422.835 120.548C422.303 120.548 421.795 120.258 421.554 119.75L417.998 112.384C417.66 111.671 417.95 110.824 418.664 110.485C419.377 110.147 420.223 110.437 420.562 111.15L424.117 118.516C424.456 119.218 424.165 120.077 423.452 120.415C423.259 120.512 423.041 120.56 422.835 120.56V120.548Z" fill="#283F56"/>
<path d="M99.2601 676.27V648.27H116.86V653.07H104.54V659.83H115.9V664.63H104.54V676.27H99.2601ZM120.627 676.27V648.27H132.787C134.547 648.27 136.081 648.577 137.387 649.19C138.694 649.803 139.707 650.67 140.427 651.79C141.147 652.91 141.507 654.23 141.507 655.75V656.23C141.507 657.91 141.107 659.27 140.307 660.31C139.507 661.35 138.521 662.11 137.347 662.59V663.31C138.414 663.363 139.241 663.737 139.827 664.43C140.414 665.097 140.707 665.99 140.707 667.11V676.27H135.427V667.87C135.427 667.23 135.254 666.71 134.907 666.31C134.587 665.91 134.041 665.71 133.267 665.71H125.907V676.27H120.627ZM125.907 660.91H132.227C133.481 660.91 134.454 660.577 135.147 659.91C135.867 659.217 136.227 658.31 136.227 657.19V656.79C136.227 655.67 135.881 654.777 135.187 654.11C134.494 653.417 133.507 653.07 132.227 653.07H125.907V660.91ZM145.901 676.27V648.27H163.901V653.07H151.181V659.75H162.781V664.55H151.181V671.47H164.141V676.27H145.901ZM168.049 676.27V648.27H186.049V653.07H173.329V659.75H184.929V664.55H173.329V671.47H186.289V676.27H168.049ZM190.198 676.27V648.27H195.478V671.47H208.278V676.27H190.198ZM209.957 676.27L217.317 648.27H226.517L233.877 676.27H228.437L226.917 670.11H216.917L215.397 676.27H209.957ZM218.157 665.23H225.677L222.277 651.59H221.557L218.157 665.23ZM237.229 676.27V648.27H247.269L252.829 672.67H253.549V648.27H258.749V676.27H248.709L243.149 651.87H242.429V676.27H237.229ZM274.666 676.83C271.199 676.83 268.452 675.87 266.426 673.95C264.399 672.003 263.386 669.23 263.386 665.63V658.91C263.386 655.31 264.399 652.55 266.426 650.63C268.452 648.683 271.199 647.71 274.666 647.71C278.106 647.71 280.759 648.657 282.626 650.55C284.519 652.417 285.466 654.99 285.466 658.27V658.51H280.266V658.11C280.266 656.457 279.799 655.097 278.866 654.03C277.959 652.963 276.559 652.43 274.666 652.43C272.799 652.43 271.332 653.003 270.266 654.15C269.199 655.297 268.666 656.857 268.666 658.83V665.71C268.666 667.657 269.199 669.217 270.266 670.39C271.332 671.537 272.799 672.11 274.666 672.11C276.559 672.11 277.959 671.577 278.866 670.51C279.799 669.417 280.266 668.057 280.266 666.43V665.71H285.466V666.27C285.466 669.55 284.519 672.137 282.626 674.03C280.759 675.897 278.106 676.83 274.666 676.83ZM289.768 676.27V648.27H307.768V653.07H295.048V659.75H306.648V664.55H295.048V671.47H308.008V676.27H289.768ZM311.916 676.27V648.27H324.076C325.836 648.27 327.37 648.577 328.676 649.19C329.983 649.803 330.996 650.67 331.716 651.79C332.436 652.91 332.796 654.23 332.796 655.75V656.23C332.796 657.91 332.396 659.27 331.596 660.31C330.796 661.35 329.81 662.11 328.636 662.59V663.31C329.703 663.363 330.53 663.737 331.116 664.43C331.703 665.097 331.996 665.99 331.996 667.11V676.27H326.716V667.87C326.716 667.23 326.543 666.71 326.196 666.31C325.876 665.91 325.33 665.71 324.556 665.71H317.196V676.27H311.916ZM317.196 660.91H323.516C324.77 660.91 325.743 660.577 326.436 659.91C327.156 659.217 327.516 658.31 327.516 657.19V656.79C327.516 655.67 327.17 654.777 326.476 654.11C325.783 653.417 324.796 653.07 323.516 653.07H317.196V660.91ZM346.91 676.83C344.75 676.83 342.843 676.443 341.19 675.67C339.536 674.897 338.243 673.79 337.31 672.35C336.376 670.91 335.91 669.177 335.91 667.15V666.03H341.11V667.15C341.11 668.83 341.63 670.097 342.67 670.95C343.71 671.777 345.123 672.19 346.91 672.19C348.723 672.19 350.07 671.83 350.95 671.11C351.856 670.39 352.31 669.47 352.31 668.35C352.31 667.577 352.083 666.95 351.63 666.47C351.203 665.99 350.563 665.603 349.71 665.31C348.883 664.99 347.87 664.697 346.67 664.43L345.75 664.23C343.83 663.803 342.176 663.27 340.79 662.63C339.43 661.963 338.376 661.097 337.63 660.03C336.91 658.963 336.55 657.577 336.55 655.87C336.55 654.163 336.95 652.71 337.75 651.51C338.576 650.283 339.723 649.35 341.19 648.71C342.683 648.043 344.43 647.71 346.43 647.71C348.43 647.71 350.203 648.057 351.75 648.75C353.323 649.417 354.55 650.43 355.43 651.79C356.336 653.123 356.79 654.803 356.79 656.83V658.03H351.59V656.83C351.59 655.763 351.376 654.91 350.95 654.27C350.55 653.603 349.963 653.123 349.19 652.83C348.416 652.51 347.496 652.35 346.43 652.35C344.83 652.35 343.643 652.657 342.87 653.27C342.123 653.857 341.75 654.67 341.75 655.71C341.75 656.403 341.923 656.99 342.27 657.47C342.643 657.95 343.19 658.35 343.91 658.67C344.63 658.99 345.55 659.27 346.67 659.51L347.59 659.71C349.59 660.137 351.323 660.683 352.79 661.35C354.283 662.017 355.443 662.897 356.27 663.99C357.096 665.083 357.51 666.483 357.51 668.19C357.51 669.897 357.07 671.403 356.19 672.71C355.336 673.99 354.11 675.003 352.51 675.75C350.936 676.47 349.07 676.83 346.91 676.83ZM173.817 699.99C172.19 698.977 170.95 697.71 170.097 696.19C169.243 694.67 168.817 692.977 168.817 691.11C168.817 689.257 169.243 687.57 170.097 686.05C170.963 684.517 172.21 683.243 173.837 682.23L174.937 683.47C173.577 684.417 172.537 685.55 171.817 686.87C171.11 688.177 170.757 689.59 170.757 691.11C170.757 692.63 171.11 694.05 171.817 695.37C172.537 696.677 173.577 697.803 174.937 698.75L173.817 699.99ZM180.281 696.27L175.821 682.27H178.121L180.821 691.03C180.901 691.243 180.974 691.497 181.041 691.79C181.107 692.07 181.167 692.357 181.221 692.65C181.274 692.943 181.321 693.217 181.361 693.47C181.414 693.723 181.461 693.93 181.501 694.09L180.921 694.07C181.121 693.363 181.274 692.817 181.381 692.43C181.501 692.043 181.594 691.75 181.661 691.55C181.727 691.337 181.787 691.157 181.841 691.01L184.361 684.69H186.301L188.741 691.01C188.874 691.33 188.987 691.65 189.081 691.97C189.187 692.277 189.281 692.59 189.361 692.91C189.441 693.217 189.527 693.543 189.621 693.89L189.101 694.03C189.167 693.67 189.214 693.39 189.241 693.19C189.281 692.977 189.314 692.803 189.341 692.67C189.367 692.537 189.394 692.41 189.421 692.29C189.447 692.157 189.487 691.99 189.541 691.79C189.607 691.59 189.694 691.317 189.801 690.97L192.461 682.27H194.781L190.321 696.27H188.821L185.121 687.51L185.301 687.59L181.741 696.27H180.281ZM202.985 696.47C201.998 696.47 201.085 696.29 200.245 695.93C199.418 695.57 198.692 695.07 198.065 694.43C197.452 693.777 196.972 693.017 196.625 692.15C196.292 691.27 196.125 690.31 196.125 689.27C196.125 688.23 196.292 687.277 196.625 686.41C196.972 685.53 197.452 684.77 198.065 684.13C198.692 683.477 199.418 682.97 200.245 682.61C201.085 682.25 201.998 682.07 202.985 682.07C203.972 682.07 204.878 682.25 205.705 682.61C206.545 682.97 207.272 683.477 207.885 684.13C208.512 684.783 208.992 685.55 209.325 686.43C209.672 687.297 209.845 688.243 209.845 689.27C209.845 690.297 209.672 691.25 209.325 692.13C208.992 692.997 208.512 693.757 207.885 694.41C207.272 695.063 206.545 695.57 205.705 695.93C204.878 696.29 203.972 696.47 202.985 696.47ZM202.985 694.37C203.665 694.37 204.285 694.243 204.845 693.99C205.418 693.737 205.912 693.383 206.325 692.93C206.738 692.463 207.058 691.923 207.285 691.31C207.525 690.683 207.645 690.003 207.645 689.27C207.645 688.537 207.525 687.863 207.285 687.25C207.058 686.623 206.738 686.083 206.325 685.63C205.912 685.163 205.418 684.803 204.845 684.55C204.285 684.297 203.665 684.17 202.985 684.17C202.305 684.17 201.678 684.297 201.105 684.55C200.545 684.803 200.052 685.157 199.625 685.61C199.212 686.063 198.892 686.603 198.665 687.23C198.438 687.843 198.325 688.523 198.325 689.27C198.325 690.003 198.438 690.683 198.665 691.31C198.892 691.937 199.212 692.477 199.625 692.93C200.052 693.383 200.545 693.737 201.105 693.99C201.678 694.243 202.305 694.37 202.985 694.37ZM212.77 696.27V682.27H218.73C219.53 682.27 220.263 682.47 220.93 682.87C221.61 683.257 222.15 683.79 222.55 684.47C222.95 685.137 223.15 685.89 223.15 686.73C223.15 687.49 222.95 688.197 222.55 688.85C222.15 689.503 221.616 690.03 220.95 690.43C220.283 690.817 219.543 691.01 218.73 691.01H214.93V696.27H212.77ZM221.09 696.27L217.53 689.95L219.75 689.45L223.71 696.29L221.09 696.27ZM214.93 688.93H218.93C219.316 688.93 219.663 688.837 219.97 688.65C220.276 688.45 220.516 688.183 220.69 687.85C220.863 687.503 220.95 687.123 220.95 686.71C220.95 686.243 220.836 685.837 220.61 685.49C220.396 685.13 220.09 684.85 219.69 684.65C219.303 684.45 218.863 684.35 218.37 684.35H214.93V688.93ZM228.476 692.03L228.356 689.61L235.696 682.27H238.536L228.476 692.03ZM226.676 696.27V682.27H228.836V696.27H226.676ZM235.956 696.27L230.596 689.11L232.196 687.73L238.656 696.27H235.956ZM240.804 696.27V694.27H243.064V684.27H240.804V682.27H247.484V684.27H245.224V694.27H247.484V696.27H240.804ZM250.875 696.27V682.27H252.815L261.375 693.73L261.055 693.91C261.002 693.577 260.955 693.217 260.915 692.83C260.875 692.43 260.835 692.01 260.795 691.57C260.768 691.117 260.742 690.643 260.715 690.15C260.702 689.643 260.688 689.117 260.675 688.57C260.662 688.023 260.655 687.457 260.655 686.87V682.27H262.815V696.27H260.835L252.415 685.23L252.635 684.95C252.702 685.763 252.755 686.457 252.795 687.03C252.848 687.59 252.888 688.07 252.915 688.47C252.955 688.857 252.982 689.177 252.995 689.43C253.008 689.67 253.015 689.87 253.015 690.03C253.028 690.19 253.035 690.33 253.035 690.45V696.27H250.875ZM272.994 696.47C271.981 696.47 271.034 696.29 270.154 695.93C269.274 695.557 268.501 695.043 267.834 694.39C267.168 693.737 266.648 692.977 266.274 692.11C265.914 691.23 265.734 690.283 265.734 689.27C265.734 688.27 265.914 687.337 266.274 686.47C266.648 685.603 267.161 684.85 267.814 684.21C268.481 683.557 269.254 683.05 270.134 682.69C271.014 682.33 271.961 682.15 272.974 682.15C273.681 682.15 274.368 682.25 275.034 682.45C275.714 682.65 276.328 682.93 276.874 683.29C277.421 683.65 277.868 684.063 278.214 684.53L276.814 685.99C276.414 685.603 276.001 685.283 275.574 685.03C275.161 684.777 274.734 684.583 274.294 684.45C273.854 684.317 273.414 684.25 272.974 684.25C272.254 684.25 271.588 684.377 270.974 684.63C270.374 684.883 269.841 685.237 269.374 685.69C268.921 686.143 268.568 686.677 268.314 687.29C268.061 687.89 267.934 688.55 267.934 689.27C267.934 689.963 268.068 690.623 268.334 691.25C268.601 691.863 268.968 692.403 269.434 692.87C269.914 693.337 270.461 693.703 271.074 693.97C271.701 694.237 272.361 694.37 273.054 694.37C273.574 694.37 274.068 694.297 274.534 694.15C275.001 693.99 275.414 693.77 275.774 693.49C276.134 693.21 276.414 692.89 276.614 692.53C276.814 692.157 276.914 691.763 276.914 691.35V690.95L277.214 691.23H272.934V689.09H279.134C279.161 689.237 279.181 689.383 279.194 689.53C279.208 689.663 279.214 689.797 279.214 689.93C279.228 690.05 279.234 690.17 279.234 690.29C279.234 691.21 279.074 692.05 278.754 692.81C278.434 693.557 277.988 694.203 277.414 694.75C276.854 695.297 276.194 695.723 275.434 696.03C274.688 696.323 273.874 696.47 272.994 696.47ZM281.587 699.99L280.487 698.75C281.847 697.803 282.88 696.677 283.587 695.37C284.307 694.05 284.667 692.63 284.667 691.11C284.667 689.59 284.307 688.177 283.587 686.87C282.88 685.55 281.847 684.417 280.487 683.47L281.607 682.23C283.234 683.243 284.474 684.51 285.327 686.03C286.18 687.55 286.607 689.243 286.607 691.11C286.607 692.963 286.174 694.657 285.307 696.19C284.454 697.71 283.214 698.977 281.587 699.99Z" fill="#0C133D"/>
<path d="M549.116 338.985C545.649 338.985 542.903 338.025 540.876 336.105C538.849 334.159 537.836 331.385 537.836 327.785V321.065C537.836 317.465 538.849 314.705 540.876 312.785C542.903 310.839 545.649 309.865 549.116 309.865C552.556 309.865 555.209 310.812 557.076 312.705C558.969 314.572 559.916 317.145 559.916 320.425V320.665H554.716V320.265C554.716 318.612 554.249 317.252 553.316 316.185C552.409 315.119 551.009 314.585 549.116 314.585C547.249 314.585 545.783 315.159 544.716 316.305C543.649 317.452 543.116 319.012 543.116 320.985V327.865C543.116 329.812 543.649 331.372 544.716 332.545C545.783 333.692 547.249 334.265 549.116 334.265C551.009 334.265 552.409 333.732 553.316 332.665C554.249 331.572 554.716 330.212 554.716 328.585V327.865H559.916V328.425C559.916 331.705 558.969 334.292 557.076 336.185C555.209 338.052 552.556 338.985 549.116 338.985ZM575.098 338.985C571.578 338.985 568.778 338.025 566.698 336.105C564.618 334.159 563.578 331.385 563.578 327.785V321.065C563.578 317.465 564.618 314.705 566.698 312.785C568.778 310.839 571.578 309.865 575.098 309.865C578.618 309.865 581.418 310.839 583.498 312.785C585.578 314.705 586.618 317.465 586.618 321.065V327.785C586.618 331.385 585.578 334.159 583.498 336.105C581.418 338.025 578.618 338.985 575.098 338.985ZM575.098 334.265C577.071 334.265 578.605 333.692 579.698 332.545C580.791 331.399 581.338 329.865 581.338 327.945V320.905C581.338 318.985 580.791 317.452 579.698 316.305C578.605 315.159 577.071 314.585 575.098 314.585C573.151 314.585 571.618 315.159 570.498 316.305C569.405 317.452 568.858 318.985 568.858 320.905V327.945C568.858 329.865 569.405 331.399 570.498 332.545C571.618 333.692 573.151 334.265 575.098 334.265ZM591.249 338.425V310.425H601.049L605.889 334.825H606.609L611.449 310.425H621.249V338.425H616.129V314.305H615.409L610.609 338.425H601.889L597.089 314.305H596.369V338.425H591.249ZM626.523 338.425V310.425H638.043C639.803 310.425 641.349 310.785 642.683 311.505C644.043 312.199 645.096 313.185 645.843 314.465C646.616 315.745 647.003 317.265 647.003 319.025V319.585C647.003 321.319 646.603 322.839 645.803 324.145C645.029 325.425 643.963 326.425 642.603 327.145C641.269 327.839 639.749 328.185 638.043 328.185H631.803V338.425H626.523ZM631.803 323.385H637.523C638.776 323.385 639.789 323.039 640.563 322.345C641.336 321.652 641.723 320.705 641.723 319.505V319.105C641.723 317.905 641.336 316.959 640.563 316.265C639.789 315.572 638.776 315.225 637.523 315.225H631.803V323.385ZM646.595 338.425L653.955 310.425H663.155L670.515 338.425H665.075L663.555 332.265H653.555L652.035 338.425H646.595ZM654.795 327.385H662.315L658.915 313.745H658.195L654.795 327.385ZM673.867 338.425V310.425H683.907L689.467 334.825H690.187V310.425H695.387V338.425H685.347L679.787 314.025H679.067V338.425H673.867ZM700.663 338.425V310.425H705.943V338.425H700.663ZM711.21 338.425V310.425H729.21V315.225H716.49V321.905H728.09V326.705H716.49V333.625H729.45V338.425H711.21ZM743.079 338.985C740.919 338.985 739.012 338.599 737.359 337.825C735.705 337.052 734.412 335.945 733.479 334.505C732.545 333.065 732.079 331.332 732.079 329.305V328.185H737.279V329.305C737.279 330.985 737.799 332.252 738.839 333.105C739.879 333.932 741.292 334.345 743.079 334.345C744.892 334.345 746.239 333.985 747.119 333.265C748.025 332.545 748.479 331.625 748.479 330.505C748.479 329.732 748.252 329.105 747.799 328.625C747.372 328.145 746.732 327.759 745.879 327.465C745.052 327.145 744.039 326.852 742.839 326.585L741.919 326.385C739.999 325.959 738.345 325.425 736.959 324.785C735.599 324.119 734.545 323.252 733.799 322.185C733.079 321.119 732.719 319.732 732.719 318.025C732.719 316.319 733.119 314.865 733.919 313.665C734.745 312.439 735.892 311.505 737.359 310.865C738.852 310.199 740.599 309.865 742.599 309.865C744.599 309.865 746.372 310.212 747.919 310.905C749.492 311.572 750.719 312.585 751.599 313.945C752.505 315.279 752.959 316.959 752.959 318.985V320.185H747.759V318.985C747.759 317.919 747.545 317.065 747.119 316.425C746.719 315.759 746.132 315.279 745.359 314.985C744.585 314.665 743.665 314.505 742.599 314.505C740.999 314.505 739.812 314.812 739.039 315.425C738.292 316.012 737.919 316.825 737.919 317.865C737.919 318.559 738.092 319.145 738.439 319.625C738.812 320.105 739.359 320.505 740.079 320.825C740.799 321.145 741.719 321.425 742.839 321.665L743.759 321.865C745.759 322.292 747.492 322.839 748.959 323.505C750.452 324.172 751.612 325.052 752.439 326.145C753.265 327.239 753.679 328.639 753.679 330.345C753.679 332.052 753.239 333.559 752.359 334.865C751.505 336.145 750.279 337.159 748.679 337.905C747.105 338.625 745.239 338.985 743.079 338.985ZM604.185 362.145C602.558 361.132 601.318 359.865 600.465 358.345C599.611 356.825 599.185 355.132 599.185 353.265C599.185 351.412 599.611 349.725 600.465 348.205C601.331 346.672 602.578 345.399 604.205 344.385L605.305 345.625C603.945 346.572 602.905 347.705 602.185 349.025C601.478 350.332 601.125 351.745 601.125 353.265C601.125 354.785 601.478 356.205 602.185 357.525C602.905 358.832 603.945 359.959 605.305 360.905L604.185 362.145ZM616.809 358.425V344.425H618.969V358.425H616.809ZM607.669 358.425V344.425H609.829V358.425H607.669ZM608.609 352.485V350.405H617.769V352.485H608.609ZM622.364 358.425V356.425H624.624V346.425H622.364V344.425H629.044V346.425H626.784V356.425H629.044V358.425H622.364ZM632.435 358.425V344.425H638.395C639.195 344.425 639.928 344.625 640.595 345.025C641.275 345.412 641.815 345.945 642.215 346.625C642.615 347.292 642.815 348.045 642.815 348.885C642.815 349.645 642.615 350.352 642.215 351.005C641.815 351.659 641.281 352.185 640.615 352.585C639.948 352.972 639.208 353.165 638.395 353.165H634.595V358.425H632.435ZM640.755 358.425L637.195 352.105L639.415 351.605L643.375 358.445L640.755 358.425ZM634.595 351.085H638.595C638.981 351.085 639.328 350.992 639.635 350.805C639.941 350.605 640.181 350.339 640.355 350.005C640.528 349.659 640.615 349.279 640.615 348.865C640.615 348.399 640.501 347.992 640.275 347.645C640.061 347.285 639.755 347.005 639.355 346.805C638.968 346.605 638.528 346.505 638.035 346.505H634.595V351.085ZM645.821 358.425V356.425H648.081V346.425H645.821V344.425H652.501V346.425H650.241V356.425H652.501V358.425H645.821ZM655.892 358.425V344.425H657.832L666.392 355.885L666.072 356.065C666.018 355.732 665.972 355.372 665.932 354.985C665.892 354.585 665.852 354.165 665.812 353.725C665.785 353.272 665.758 352.799 665.732 352.305C665.718 351.799 665.705 351.272 665.692 350.725C665.678 350.179 665.672 349.612 665.672 349.025V344.425H667.832V358.425H665.852L657.432 347.385L657.652 347.105C657.718 347.919 657.772 348.612 657.812 349.185C657.865 349.745 657.905 350.225 657.932 350.625C657.972 351.012 657.998 351.332 658.012 351.585C658.025 351.825 658.032 352.025 658.032 352.185C658.045 352.345 658.052 352.485 658.052 352.605V358.425H655.892ZM678.011 358.625C676.998 358.625 676.051 358.445 675.171 358.085C674.291 357.712 673.518 357.199 672.851 356.545C672.184 355.892 671.664 355.132 671.291 354.265C670.931 353.385 670.751 352.439 670.751 351.425C670.751 350.425 670.931 349.492 671.291 348.625C671.664 347.759 672.178 347.005 672.831 346.365C673.498 345.712 674.271 345.205 675.151 344.845C676.031 344.485 676.978 344.305 677.991 344.305C678.698 344.305 679.384 344.405 680.051 344.605C680.731 344.805 681.344 345.085 681.891 345.445C682.438 345.805 682.884 346.219 683.231 346.685L681.831 348.145C681.431 347.759 681.018 347.439 680.591 347.185C680.178 346.932 679.751 346.739 679.311 346.605C678.871 346.472 678.431 346.405 677.991 346.405C677.271 346.405 676.604 346.532 675.991 346.785C675.391 347.039 674.858 347.392 674.391 347.845C673.938 348.299 673.584 348.832 673.331 349.445C673.078 350.045 672.951 350.705 672.951 351.425C672.951 352.119 673.084 352.779 673.351 353.405C673.618 354.019 673.984 354.559 674.451 355.025C674.931 355.492 675.478 355.859 676.091 356.125C676.718 356.392 677.378 356.525 678.071 356.525C678.591 356.525 679.084 356.452 679.551 356.305C680.018 356.145 680.431 355.925 680.791 355.645C681.151 355.365 681.431 355.045 681.631 354.685C681.831 354.312 681.931 353.919 681.931 353.505V353.105L682.231 353.385H677.951V351.245H684.151C684.178 351.392 684.198 351.539 684.211 351.685C684.224 351.819 684.231 351.952 684.231 352.085C684.244 352.205 684.251 352.325 684.251 352.445C684.251 353.365 684.091 354.205 683.771 354.965C683.451 355.712 683.004 356.359 682.431 356.905C681.871 357.452 681.211 357.879 680.451 358.185C679.704 358.479 678.891 358.625 678.011 358.625ZM686.604 362.145L685.504 360.905C686.864 359.959 687.897 358.832 688.604 357.525C689.324 356.205 689.684 354.785 689.684 353.265C689.684 351.745 689.324 350.332 688.604 349.025C687.897 347.705 686.864 346.572 685.504 345.625L686.624 344.385C688.25 345.399 689.49 346.665 690.344 348.185C691.197 349.705 691.624 351.399 691.624 353.265C691.624 355.119 691.19 356.812 690.324 358.345C689.47 359.865 688.23 361.132 686.604 362.145Z" fill="#0C133D"/>
</svg>
