<svg width="112" height="42" viewBox="0 0 112 42" fill="none" xmlns="http://www.w3.org/2000/svg">
<path d="M21.2927 42H11.0737L7.88031 33.0902H24.4844L21.291 42H21.2927ZM0.217773 29.9098V12.0919L7.88199 8.9098V33.0919L0.217773 29.9098ZM24.4861 33.0902V8.9098L32.1504 12.0919V29.9098L24.4861 33.0919V33.0902ZM7.88199 8.9098L11.0737 0H21.2927L24.4861 8.9098H7.88199Z" fill="#D75338"/>
<path d="M51.7585 20.4742V13.8674L45.4375 2.26538H48.6115L52.9811 10.5108H53.3717L57.7413 2.26538H60.9153L54.5943 13.8674V20.4742H51.7585Z" fill="#10143D"/>
<path d="M69.2383 20.8392C67.0011 20.8392 65.2228 20.2104 63.9065 18.9529C62.5886 17.6954 61.9297 15.8789 61.9297 13.5036V9.23721C61.9297 6.86187 62.5886 5.04544 63.9065 3.78791C65.2244 2.53038 67.0027 1.90161 69.2383 1.90161C71.4739 1.90161 73.257 2.53038 74.5844 3.78791C75.9118 5.04544 76.5739 6.86187 76.5739 9.23721V13.5036C76.5739 15.8789 75.9102 17.6954 74.5844 18.9529C73.2586 20.2104 71.4755 20.8392 69.2383 20.8392ZM69.2383 18.3162C70.6768 18.3162 71.7883 17.8954 72.5679 17.0539C73.3475 16.2124 73.7381 15.0644 73.7381 13.6068V9.13242C73.7381 7.67641 73.3475 6.52685 72.5679 5.68532C71.7867 4.84379 70.6768 4.42303 69.2383 4.42303C67.7998 4.42303 66.7328 4.84379 65.9341 5.68532C65.137 6.52685 64.7369 7.67482 64.7369 9.13242V13.6068C64.7369 15.0628 65.1354 16.2124 65.9341 17.0539C66.7312 17.8954 67.8331 18.3162 69.2383 18.3162Z" fill="#10143D"/>
<path d="M79.9033 20.4742V2.26538H82.7121V10.0694H90.3605V2.26538H93.1693V20.4742H90.3605V12.6178H82.7121V20.4742H79.9033Z" fill="#10143D"/>
<path d="M103.808 20.8392C101.57 20.8392 99.7921 20.2104 98.4758 18.9529C97.158 17.6954 96.499 15.8789 96.499 13.5036V9.23721C96.499 6.86187 97.158 5.04544 98.4758 3.78791C99.7937 2.53038 101.572 1.90161 103.808 1.90161C106.043 1.90161 107.826 2.53038 109.154 3.78791C110.481 5.04544 111.143 6.86187 111.143 9.23721V13.5036C111.143 15.8789 110.48 17.6954 109.154 18.9529C107.828 20.2104 106.045 20.8392 103.808 20.8392ZM103.808 18.3162C105.246 18.3162 106.358 17.8954 107.137 17.0539C107.917 16.2124 108.307 15.0644 108.307 13.6068V9.13242C108.307 7.67641 107.917 6.52685 107.137 5.68532C106.356 4.84379 105.246 4.42303 103.808 4.42303C102.369 4.42303 101.302 4.84379 100.503 5.68532C99.7064 6.52685 99.3062 7.67482 99.3062 9.13242V13.6068C99.3062 15.0628 99.7048 16.2124 100.503 17.0539C101.301 17.8954 102.402 18.3162 103.808 18.3162Z" fill="#10143D"/>
<path d="M49.4448 39.6353L47.0527 23.3743H49.5611L51.5122 37.9394H51.8837L54.392 23.3743H58.782L61.2903 37.9394H61.6618L63.5902 23.3743H66.0986L63.7051 39.6353H59.3151L56.76 24.8617H56.3885L53.856 39.6353H49.442H49.4448Z" fill="#10143D"/>
<path d="M74.5327 39.9614C72.5348 39.9614 70.9467 39.3999 69.7712 38.2769C68.5943 37.1539 68.0059 35.5317 68.0059 33.4105V29.6005C68.0059 27.4792 68.5943 25.8571 69.7712 24.7341C70.9481 23.6111 72.5362 23.0496 74.5327 23.0496C76.5291 23.0496 78.1215 23.6111 79.3069 24.7341C80.4909 25.8571 81.0836 27.4792 81.0836 29.6005V33.4105C81.0836 35.5317 80.4909 37.1539 79.3069 38.2769C78.1215 39.3999 76.5305 39.9614 74.5327 39.9614ZM74.5327 37.7083C75.8173 37.7083 76.8099 37.3325 77.5061 36.581C78.2037 35.8295 78.5511 34.8043 78.5511 33.5027V29.5069C78.5511 28.2066 78.2023 27.18 77.5061 26.4285C76.8099 25.677 75.8173 25.3013 74.5327 25.3013C73.248 25.3013 72.2951 25.677 71.5819 26.4285C70.8687 27.18 70.5128 28.2052 70.5128 29.5069V33.5027C70.5128 34.8029 70.8687 35.8295 71.5819 36.581C72.2937 37.3325 73.2778 37.7083 74.5327 37.7083Z" fill="#10143D"/>
<path d="M84.0566 39.6353V23.3743H90.8869C91.8936 23.3743 92.7798 23.5487 93.547 23.8975C94.3141 24.2463 94.9096 24.7454 95.3364 25.3963C95.7618 26.0471 95.9745 26.8213 95.9745 27.7189V27.9741C95.9745 28.9964 95.7306 29.8132 95.2428 30.4243C94.755 31.0368 94.1623 31.4665 93.4661 31.7132V32.0847C94.0546 32.1159 94.5268 32.313 94.8827 32.6774C95.2386 33.0418 95.4172 33.5636 95.4172 34.2457V39.6353H92.8848V34.5945C92.8848 34.1762 92.7756 33.843 92.5601 33.5962C92.3431 33.3481 91.9943 33.2247 91.515 33.2247H86.5664V39.6367H84.0581L84.0566 39.6353ZM86.565 30.9475H90.6076C91.5051 30.9475 92.2027 30.7192 92.6976 30.2627C93.1925 29.8061 93.4406 29.1822 93.4406 28.3924V28.2066C93.4406 27.4168 93.1967 26.7944 92.7089 26.3364C92.2212 25.8798 91.5207 25.6515 90.6061 25.6515H86.5636V30.9475H86.565Z" fill="#10143D"/>
<path d="M98.7383 39.6353V23.3743H101.247V30.1336H101.618L107.681 23.3743H110.957L103.616 31.3885L111.212 39.6353H107.844L101.618 32.7355H101.247V39.6353H98.7383Z" fill="#10143D"/>
</svg>
