<svg width="110" height="174" viewBox="0 0 110 174" fill="none" xmlns="http://www.w3.org/2000/svg">
<path d="M106.51 5.82001C108.078 5.82001 109.35 4.51715 109.35 2.91C109.35 1.30286 108.078 0 106.51 0C104.941 0 103.67 1.30286 103.67 2.91C103.67 4.51715 104.941 5.82001 106.51 5.82001Z" fill="#DD5025"/>
<path d="M106.51 26.57C108.08 26.57 109.35 25.27 109.35 23.66C109.35 22.05 108.08 20.75 106.51 20.75C104.94 20.75 103.67 22.05 103.67 23.66C103.67 25.27 104.94 26.57 106.51 26.57Z" fill="#DD5025"/>
<path d="M106.51 47.31C108.08 47.31 109.35 46.01 109.35 44.4C109.35 42.79 108.08 41.49 106.51 41.49C104.94 41.49 103.67 42.79 103.67 44.4C103.67 46.01 104.94 47.31 106.51 47.31Z" fill="#DD5025"/>
<path d="M86.1505 5.82001C87.719 5.82001 88.9906 4.51715 88.9906 2.91C88.9906 1.30286 87.719 0 86.1505 0C84.5821 0 83.3105 1.30286 83.3105 2.91C83.3105 4.51715 84.5821 5.82001 86.1505 5.82001Z" fill="#DD5025"/>
<path d="M86.1505 26.57C87.7205 26.57 88.9906 25.27 88.9906 23.66C88.9906 22.05 87.7205 20.75 86.1505 20.75C84.5805 20.75 83.3105 22.05 83.3105 23.66C83.3105 25.27 84.5805 26.57 86.1505 26.57Z" fill="#DD5025"/>
<path d="M86.1505 47.31C87.7205 47.31 88.9906 46.01 88.9906 44.4C88.9906 42.79 87.7205 41.49 86.1505 41.49C84.5805 41.49 83.3105 42.79 83.3105 44.4C83.3105 46.01 84.5805 47.31 86.1505 47.31Z" fill="#DD5025"/>
<path d="M65.7902 5.82001C67.3602 5.82001 68.6302 4.52 68.6302 2.91C68.6302 1.3 67.3602 0 65.7902 0C64.2202 0 62.9502 1.3 62.9502 2.91C62.9502 4.52 64.2202 5.82001 65.7902 5.82001Z" fill="#DD5025"/>
<path d="M65.7902 26.57C67.3602 26.57 68.6302 25.27 68.6302 23.66C68.6302 22.05 67.3602 20.75 65.7902 20.75C64.2202 20.75 62.9502 22.05 62.9502 23.66C62.9502 25.27 64.2202 26.57 65.7902 26.57Z" fill="#DD5025"/>
<path d="M65.7902 47.31C67.3602 47.31 68.6302 46.01 68.6302 44.4C68.6302 42.79 67.3602 41.49 65.7902 41.49C64.2202 41.49 62.9502 42.79 62.9502 44.4C62.9502 46.01 64.2202 47.31 65.7902 47.31Z" fill="#DD5025"/>
<path d="M106.51 68.86C108.078 68.86 109.35 67.5572 109.35 65.95C109.35 64.3429 108.078 63.04 106.51 63.04C104.941 63.04 103.67 64.3429 103.67 65.95C103.67 67.5572 104.941 68.86 106.51 68.86Z" fill="#DD5025"/>
<path d="M106.51 89.61C108.08 89.61 109.35 88.31 109.35 86.7C109.35 85.09 108.08 83.79 106.51 83.79C104.94 83.79 103.67 85.09 103.67 86.7C103.67 88.31 104.94 89.61 106.51 89.61Z" fill="#DD5025"/>
<path d="M106.51 110.35C108.08 110.35 109.35 109.05 109.35 107.44C109.35 105.83 108.08 104.53 106.51 104.53C104.94 104.53 103.67 105.83 103.67 107.44C103.67 109.05 104.94 110.35 106.51 110.35Z" fill="#DD5025"/>
<path d="M86.1505 68.86C87.719 68.86 88.9906 67.5572 88.9906 65.95C88.9906 64.3429 87.719 63.04 86.1505 63.04C84.5821 63.04 83.3105 64.3429 83.3105 65.95C83.3105 67.5572 84.5821 68.86 86.1505 68.86Z" fill="#DD5025"/>
<path d="M86.1505 89.61C87.7205 89.61 88.9906 88.31 88.9906 86.7C88.9906 85.09 87.7205 83.79 86.1505 83.79C84.5805 83.79 83.3105 85.09 83.3105 86.7C83.3105 88.31 84.5805 89.61 86.1505 89.61Z" fill="#DD5025"/>
<path d="M86.1505 110.35C87.7205 110.35 88.9906 109.05 88.9906 107.44C88.9906 105.83 87.7205 104.53 86.1505 104.53C84.5805 104.53 83.3105 105.83 83.3105 107.44C83.3105 109.05 84.5805 110.35 86.1505 110.35Z" fill="#DD5025"/>
<path d="M65.7902 68.86C67.3602 68.86 68.6302 67.56 68.6302 65.95C68.6302 64.34 67.3602 63.04 65.7902 63.04C64.2202 63.04 62.9502 64.34 62.9502 65.95C62.9502 67.56 64.2202 68.86 65.7902 68.86Z" fill="#DD5025"/>
<path d="M65.7902 89.61C67.3602 89.61 68.6302 88.31 68.6302 86.7C68.6302 85.09 67.3602 83.79 65.7902 83.79C64.2202 83.79 62.9502 85.09 62.9502 86.7C62.9502 88.31 64.2202 89.61 65.7902 89.61Z" fill="#DD5025"/>
<path d="M65.7902 110.35C67.3602 110.35 68.6302 109.05 68.6302 107.44C68.6302 105.83 67.3602 104.53 65.7902 104.53C64.2202 104.53 62.9502 105.83 62.9502 107.44C62.9502 109.05 64.2202 110.35 65.7902 110.35Z" fill="#DD5025"/>
<path d="M106.51 131.9C108.078 131.9 109.35 130.597 109.35 128.99C109.35 127.383 108.078 126.08 106.51 126.08C104.941 126.08 103.67 127.383 103.67 128.99C103.67 130.597 104.941 131.9 106.51 131.9Z" fill="#DD5025"/>
<path d="M106.51 152.65C108.08 152.65 109.35 151.35 109.35 149.74C109.35 148.13 108.08 146.83 106.51 146.83C104.94 146.83 103.67 148.13 103.67 149.74C103.67 151.35 104.94 152.65 106.51 152.65Z" fill="#DD5025"/>
<path d="M106.51 173.39C108.08 173.39 109.35 172.09 109.35 170.48C109.35 168.87 108.08 167.57 106.51 167.57C104.94 167.57 103.67 168.87 103.67 170.48C103.67 172.09 104.94 173.39 106.51 173.39Z" fill="#DD5025"/>
<path d="M86.1505 131.9C87.719 131.9 88.9906 130.597 88.9906 128.99C88.9906 127.383 87.719 126.08 86.1505 126.08C84.5821 126.08 83.3105 127.383 83.3105 128.99C83.3105 130.597 84.5821 131.9 86.1505 131.9Z" fill="#DD5025"/>
<path d="M86.1505 152.65C87.7205 152.65 88.9906 151.35 88.9906 149.74C88.9906 148.13 87.7205 146.83 86.1505 146.83C84.5805 146.83 83.3105 148.13 83.3105 149.74C83.3105 151.35 84.5805 152.65 86.1505 152.65Z" fill="#DD5025"/>
<path d="M86.1505 173.39C87.7205 173.39 88.9906 172.09 88.9906 170.48C88.9906 168.87 87.7205 167.57 86.1505 167.57C84.5805 167.57 83.3105 168.87 83.3105 170.48C83.3105 172.09 84.5805 173.39 86.1505 173.39Z" fill="#DD5025"/>
<path d="M65.7902 131.9C67.3602 131.9 68.6302 130.6 68.6302 128.99C68.6302 127.38 67.3602 126.08 65.7902 126.08C64.2202 126.08 62.9502 127.38 62.9502 128.99C62.9502 130.6 64.2202 131.9 65.7902 131.9Z" fill="#DD5025"/>
<path d="M65.7902 152.65C67.3602 152.65 68.6302 151.35 68.6302 149.74C68.6302 148.13 67.3602 146.83 65.7902 146.83C64.2202 146.83 62.9502 148.13 62.9502 149.74C62.9502 151.35 64.2202 152.65 65.7902 152.65Z" fill="#DD5025"/>
<path d="M65.7902 173.39C67.3602 173.39 68.6302 172.09 68.6302 170.48C68.6302 168.87 67.3602 167.57 65.7902 167.57C64.2202 167.57 62.9502 168.87 62.9502 170.48C62.9502 172.09 64.2202 173.39 65.7902 173.39Z" fill="#DD5025"/>
<path d="M43.5597 5.82001C45.1297 5.82001 46.3997 4.52 46.3997 2.91C46.3997 1.3 45.1297 0 43.5597 0C41.9897 0 40.7197 1.3 40.7197 2.91C40.7197 4.52 41.9897 5.82001 43.5597 5.82001Z" fill="#DD5025"/>
<path d="M43.5597 26.57C45.1297 26.57 46.3997 25.27 46.3997 23.66C46.3997 22.05 45.1297 20.75 43.5597 20.75C41.9897 20.75 40.7197 22.05 40.7197 23.66C40.7197 25.27 41.9897 26.57 43.5597 26.57Z" fill="#DD5025"/>
<path d="M43.5597 47.31C45.1297 47.31 46.3997 46.01 46.3997 44.4C46.3997 42.79 45.1297 41.49 43.5597 41.49C41.9897 41.49 40.7197 42.79 40.7197 44.4C40.7197 46.01 41.9897 47.31 43.5597 47.31Z" fill="#DD5025"/>
<path d="M23.2004 5.82001C24.7704 5.82001 26.0404 4.52 26.0404 2.91C26.0404 1.3 24.7704 0 23.2004 0C21.6304 0 20.3604 1.3 20.3604 2.91C20.3604 4.52 21.6304 5.82001 23.2004 5.82001Z" fill="#DD5025"/>
<path d="M23.04 27.24C24.72 27.24 26.08 25.84 26.08 24.12C26.08 22.4 24.72 21 23.04 21C21.36 21 20 22.4 20 24.12C20 25.84 21.36 27.24 23.04 27.24Z" fill="#DD5025"/>
<path d="M23.2004 47.31C24.7704 47.31 26.0404 46.01 26.0404 44.4C26.0404 42.79 24.7704 41.49 23.2004 41.49C21.6304 41.49 20.3604 42.79 20.3604 44.4C20.3604 46.01 21.6304 47.31 23.2004 47.31Z" fill="#DD5025"/>
<path d="M2.84 5.82001C4.40848 5.82001 5.67999 4.51715 5.67999 2.91C5.67999 1.30286 4.40848 0 2.84 0C1.27151 0 0 1.30286 0 2.91C0 4.51715 1.27151 5.82001 2.84 5.82001Z" fill="#DD5025"/>
<path d="M2.84 26.57C4.41 26.57 5.67999 25.27 5.67999 23.66C5.67999 22.05 4.41 20.75 2.84 20.75C1.27 20.75 0 22.05 0 23.66C0 25.27 1.27 26.57 2.84 26.57Z" fill="#DD5025"/>
<path d="M2.84 47.31C4.41 47.31 5.67999 46.01 5.67999 44.4C5.67999 42.79 4.41 41.49 2.84 41.49C1.27 41.49 0 42.79 0 44.4C0 46.01 1.27 47.31 2.84 47.31Z" fill="#DD5025"/>
<path d="M43.5597 68.86C45.1297 68.86 46.3997 67.56 46.3997 65.95C46.3997 64.34 45.1297 63.04 43.5597 63.04C41.9897 63.04 40.7197 64.34 40.7197 65.95C40.7197 67.56 41.9897 68.86 43.5597 68.86Z" fill="#DD5025"/>
<path d="M43.5597 89.61C45.1297 89.61 46.3997 88.31 46.3997 86.7C46.3997 85.09 45.1297 83.79 43.5597 83.79C41.9897 83.79 40.7197 85.09 40.7197 86.7C40.7197 88.31 41.9897 89.61 43.5597 89.61Z" fill="#DD5025"/>
<path d="M43.5597 110.35C45.1297 110.35 46.3997 109.05 46.3997 107.44C46.3997 105.83 45.1297 104.53 43.5597 104.53C41.9897 104.53 40.7197 105.83 40.7197 107.44C40.7197 109.05 41.9897 110.35 43.5597 110.35Z" fill="#DD5025"/>
<path d="M23.2004 68.86C24.7704 68.86 26.0404 67.56 26.0404 65.95C26.0404 64.34 24.7704 63.04 23.2004 63.04C21.6304 63.04 20.3604 64.34 20.3604 65.95C20.3604 67.56 21.6304 68.86 23.2004 68.86Z" fill="#DD5025"/>
<path d="M23.2004 89.61C24.7704 89.61 26.0404 88.31 26.0404 86.7C26.0404 85.09 24.7704 83.79 23.2004 83.79C21.6304 83.79 20.3604 85.09 20.3604 86.7C20.3604 88.31 21.6304 89.61 23.2004 89.61Z" fill="#DD5025"/>
<path d="M23.2004 110.35C24.7704 110.35 26.0404 109.05 26.0404 107.44C26.0404 105.83 24.7704 104.53 23.2004 104.53C21.6304 104.53 20.3604 105.83 20.3604 107.44C20.3604 109.05 21.6304 110.35 23.2004 110.35Z" fill="#DD5025"/>
<path d="M2.84 68.86C4.40848 68.86 5.67999 67.5572 5.67999 65.95C5.67999 64.3429 4.40848 63.04 2.84 63.04C1.27151 63.04 0 64.3429 0 65.95C0 67.5572 1.27151 68.86 2.84 68.86Z" fill="#DD5025"/>
<path d="M2.84 89.61C4.41 89.61 5.67999 88.31 5.67999 86.7C5.67999 85.09 4.41 83.79 2.84 83.79C1.27 83.79 0 85.09 0 86.7C0 88.31 1.27 89.61 2.84 89.61Z" fill="#DD5025"/>
<path d="M2.84 110.35C4.41 110.35 5.67999 109.05 5.67999 107.44C5.67999 105.83 4.41 104.53 2.84 104.53C1.27 104.53 0 105.83 0 107.44C0 109.05 1.27 110.35 2.84 110.35Z" fill="#DD5025"/>
<path d="M43.5597 131.9C45.1297 131.9 46.3997 130.6 46.3997 128.99C46.3997 127.38 45.1297 126.08 43.5597 126.08C41.9897 126.08 40.7197 127.38 40.7197 128.99C40.7197 130.6 41.9897 131.9 43.5597 131.9Z" fill="#DD5025"/>
<path d="M43.5597 152.65C45.1297 152.65 46.3997 151.35 46.3997 149.74C46.3997 148.13 45.1297 146.83 43.5597 146.83C41.9897 146.83 40.7197 148.13 40.7197 149.74C40.7197 151.35 41.9897 152.65 43.5597 152.65Z" fill="#DD5025"/>
<path d="M43.5597 173.39C45.1297 173.39 46.3997 172.09 46.3997 170.48C46.3997 168.87 45.1297 167.57 43.5597 167.57C41.9897 167.57 40.7197 168.87 40.7197 170.48C40.7197 172.09 41.9897 173.39 43.5597 173.39Z" fill="#DD5025"/>
<path d="M23.2004 131.9C24.7704 131.9 26.0404 130.6 26.0404 128.99C26.0404 127.38 24.7704 126.08 23.2004 126.08C21.6304 126.08 20.3604 127.38 20.3604 128.99C20.3604 130.6 21.6304 131.9 23.2004 131.9Z" fill="#DD5025"/>
<path d="M23.2004 152.65C24.7704 152.65 26.0404 151.35 26.0404 149.74C26.0404 148.13 24.7704 146.83 23.2004 146.83C21.6304 146.83 20.3604 148.13 20.3604 149.74C20.3604 151.35 21.6304 152.65 23.2004 152.65Z" fill="#DD5025"/>
<path d="M23.2004 173.39C24.7704 173.39 26.0404 172.09 26.0404 170.48C26.0404 168.87 24.7704 167.57 23.2004 167.57C21.6304 167.57 20.3604 168.87 20.3604 170.48C20.3604 172.09 21.6304 173.39 23.2004 173.39Z" fill="#DD5025"/>
<path d="M2.84 131.9C4.40848 131.9 5.67999 130.597 5.67999 128.99C5.67999 127.383 4.40848 126.08 2.84 126.08C1.27151 126.08 0 127.383 0 128.99C0 130.597 1.27151 131.9 2.84 131.9Z" fill="#DD5025"/>
<path d="M2.84 152.65C4.41 152.65 5.67999 151.35 5.67999 149.74C5.67999 148.13 4.41 146.83 2.84 146.83C1.27 146.83 0 148.13 0 149.74C0 151.35 1.27 152.65 2.84 152.65Z" fill="#DD5025"/>
<path d="M2.84 173.39C4.41 173.39 5.67999 172.09 5.67999 170.48C5.67999 168.87 4.41 167.57 2.84 167.57C1.27 167.57 0 168.87 0 170.48C0 172.09 1.27 173.39 2.84 173.39Z" fill="#DD5025"/>
</svg>
