<svg width="95" height="61" viewBox="0 0 95 61" fill="none" xmlns="http://www.w3.org/2000/svg">
<path d="M17.4409 55.9166L77.5594 55.9166C85.1405 55.9166 91.2861 49.9084 91.2861 42.4969V13.6618C91.2861 6.25026 85.1405 0.242023 77.5594 0.242023L17.4409 0.242023C9.85981 0.242023 3.71413 6.25026 3.71413 13.6618V42.4969C3.71413 49.9084 9.85981 55.9166 17.4409 55.9166Z" fill="white"/>
<path d="M83.4477 56.1646H11.5591C7.09626 56.1646 3.4668 52.6163 3.4668 48.2533V7.91134C3.46077 3.5483 7.09626 0 11.5591 0H83.4477C87.9106 0 91.54 3.5483 91.54 7.91134V48.2533C91.54 52.6163 87.9106 56.1646 83.4477 56.1646ZM11.5591 0.495935C7.37406 0.495935 3.96804 3.81988 3.96804 7.91134V48.2533C3.96804 52.3448 7.37406 55.6687 11.5531 55.6687H83.4417C87.6267 55.6687 91.0267 52.3388 91.0267 48.2533V7.91134C91.0267 3.81988 87.6207 0.495935 83.4417 0.495935H11.5591Z" fill="black"/>
<path d="M16.9038 4.71135H79.5286C83.2064 4.71135 86.1896 7.62792 86.1896 11.2234V44.947C86.1896 48.5425 83.2064 51.4591 79.5286 51.4591H15.4726C11.7948 51.4591 8.81152 48.5425 8.81152 44.947V12.6168C8.81152 8.25374 12.4349 4.70544 16.9038 4.70544V4.71135Z" fill="#FD5F2F"/>
<path d="M34.6946 50.0363H38.8012C39.858 50.0363 40.7156 50.8746 40.7156 51.9078V53.3956H32.7803V51.9078C32.7803 50.8746 33.6378 50.0363 34.6946 50.0363Z" fill="black"/>
<path d="M45.4505 50.0363H49.557C50.6139 50.0363 51.4714 50.8746 51.4714 51.9078V53.3956H43.5361V51.9078C43.5361 50.8746 44.3937 50.0363 45.4505 50.0363Z" fill="black"/>
<path d="M23.9456 50.0363H28.0522C29.109 50.0363 29.9665 50.8746 29.9665 51.9078V53.3956H22.0312V51.9078C22.0312 50.8746 22.8888 50.0363 23.9456 50.0363Z" fill="black"/>
<path d="M13.1956 50.0363H17.3022C18.359 50.0363 19.2165 50.8746 19.2165 51.9078V53.3956H11.2812V51.9078C11.2812 50.8746 12.1388 50.0363 13.1956 50.0363Z" fill="black"/>
<path d="M66.9495 50.0363H71.0561C72.1129 50.0363 72.9704 50.8746 72.9704 51.9078V53.3956H65.0352V51.9078C65.0352 50.8746 65.8927 50.0363 66.9495 50.0363Z" fill="black"/>
<path d="M56.1995 50.0363H60.3061C61.3629 50.0363 62.2204 50.8746 62.2204 51.9078V53.3956H54.2852V51.9078C54.2852 50.8746 55.1427 50.0363 56.1995 50.0363Z" fill="black"/>
<path d="M77.6986 50.0363H81.8051C82.8619 50.0363 83.7195 50.8746 83.7195 51.9078V53.3956H75.7842V51.9078C75.7842 50.8746 76.6417 50.0363 77.6986 50.0363Z" fill="black"/>
<path d="M4.01018 60.752H90.9964C93.0738 60.752 94.7527 59.1107 94.7527 57.0798C94.7527 55.0488 93.0738 53.4075 90.9964 53.4075H4.01018C1.93276 53.4075 0.253906 55.0488 0.253906 57.0798C0.253906 59.1107 1.93276 60.752 4.01018 60.752Z" fill="white"/>
<path d="M90.9961 61H4.00992C1.79963 61 0 59.2407 0 57.0798C0 54.9189 1.79963 53.1595 4.00992 53.1595H90.9961C93.2064 53.1595 95.006 54.9189 95.006 57.0798C95.006 59.2407 93.2064 61 90.9961 61ZM4.00992 53.6555C2.07743 53.6555 0.507279 55.1905 0.507279 57.0798C0.507279 58.9691 2.07743 60.5041 4.00992 60.5041H90.9961C92.9286 60.5041 94.4988 58.9691 94.4988 57.0798C94.4988 55.1905 92.9286 53.6555 90.9961 53.6555H4.00992Z" fill="black"/>
<path d="M61.3692 7.23828H41.5732V26.5916H61.3692V7.23828Z" fill="white"/>
<path d="M60.1488 12.1327C60.1488 13.6441 58.8987 14.8663 57.3527 14.8663C55.8067 14.8663 54.5566 13.6441 54.5566 12.1327C54.5566 10.6213 55.8067 9.39917 57.3527 9.39917C58.8987 9.39917 60.1488 10.6213 60.1488 12.1327Z" fill="#FD5F2F"/>
<path d="M61.369 18.1666C60.5477 17.7947 59.6056 17.7947 58.7239 17.9836C57.4738 18.2493 56.3747 19.0758 55.1065 19.2116C53.7115 19.3651 52.6426 18.3497 51.7911 17.3991C50.8973 16.4072 50.0458 15.4744 48.7776 14.949C47.7208 14.5121 46.5432 14.3586 45.4078 14.5416C43.8317 14.7895 42.4548 15.7106 41.5791 16.9681V26.5857H61.375V18.1607L61.369 18.1666Z" fill="#FFB743"/>
<path d="M61.3689 26.8396H41.573C41.4341 26.8396 41.3193 26.7274 41.3193 26.5916V7.23832C41.3193 7.10253 41.4341 6.99036 41.573 6.99036H61.3689C61.5078 6.99036 61.6226 7.10253 61.6226 7.23832V26.5916C61.6226 26.7274 61.5078 26.8396 61.3689 26.8396ZM41.8266 26.3436H61.1153V7.48629H41.8266V26.3436Z" fill="black"/>
<path d="M75.1562 37.4372H66.8767C66.7378 37.4372 66.623 37.3251 66.623 37.1893V29.0949C66.623 28.9591 66.7378 28.8469 66.8767 28.8469H75.1562C75.2951 28.8469 75.4098 28.9591 75.4098 29.0949V37.1893C75.4098 37.3251 75.2951 37.4372 75.1562 37.4372ZM67.1364 36.9413H74.9086V29.3429H67.1364V36.9413Z" fill="white"/>
<path d="M70.784 40.9442H79.0635V32.8498H70.784V40.9442Z" fill="black"/>
<path d="M46.8817 13.8625H18.8848V41.2334H46.8817V13.8625Z" fill="black"/>
<path d="M45.1602 20.782C45.1602 22.9193 43.3907 24.6491 41.2046 24.6491C39.0185 24.6491 37.249 22.9193 37.249 20.782C37.249 18.6448 39.0185 16.9149 41.2046 16.9149C43.3907 16.9149 45.1602 18.6448 45.1602 20.782Z" fill="#FFB743"/>
<path d="M46.8817 29.3192C45.7222 28.7938 44.3876 28.7938 43.1375 29.0595C41.3741 29.4373 39.816 30.6004 38.0225 30.8011C36.0477 31.0196 34.5379 29.579 33.3301 28.2388C32.068 26.8337 30.8602 25.523 29.0666 24.7732C27.5689 24.1533 25.9021 23.9407 24.3018 24.1946C22.0794 24.5488 20.1288 25.8477 18.8848 27.6307V41.2276H46.8817V29.3133V29.3192Z" fill="white"/>
<path d="M46.8814 41.4814H18.8845C18.7456 41.4814 18.6309 41.3693 18.6309 41.2335V13.8626C18.6309 13.7268 18.7456 13.6146 18.8845 13.6146H46.8814C47.0203 13.6146 47.1351 13.7268 47.1351 13.8626V41.2335C47.1351 41.3693 47.0203 41.4814 46.8814 41.4814ZM19.1381 40.9855H46.6278V14.1106H19.1381V40.9855Z" fill="black"/>
</svg>
