<svg width="77" height="74" viewBox="0 0 77 74" fill="none" xmlns="http://www.w3.org/2000/svg">
<path d="M72.1272 0.23877H0.239258V69.407H72.1272V0.23877Z" fill="white"/>
<path d="M72.1267 69.64H0.23883C0.108042 69.64 0 69.532 0 69.4013V0.238746C0 0.108004 0.108042 0 0.23883 0H72.1267C72.2575 0 72.3656 0.108004 72.3656 0.238746V69.407C72.3656 69.5377 72.2575 69.6457 72.1267 69.6457V69.64ZM0.47766 69.1682H71.8879V0.477493H0.47766V69.1682Z" fill="black"/>
<path d="M71.8424 6.25862H0.23883C0.108042 6.25862 0 6.15062 0 6.01987C0 5.88913 0.108042 5.78113 0.23883 5.78113H71.8424C71.9732 5.78113 72.0812 5.88913 72.0812 6.01987C72.0812 6.15062 71.9732 6.25862 71.8424 6.25862Z" fill="black"/>
<path d="M4.43556 2.93313C4.43556 3.48452 3.99202 3.92791 3.44044 3.92791C2.88885 3.92791 2.44531 3.48452 2.44531 2.93313C2.44531 2.38174 2.88885 1.93835 3.44044 1.93835C3.99202 1.93835 4.43556 2.38174 4.43556 2.93313Z" fill="black"/>
<path d="M10.8047 3.92791C11.3543 3.92791 11.7998 3.48253 11.7998 2.93313C11.7998 2.38373 11.3543 1.93835 10.8047 1.93835C10.2551 1.93835 9.80957 2.38373 9.80957 2.93313C9.80957 3.48253 10.2551 3.92791 10.8047 3.92791Z" fill="#FFB743"/>
<path d="M8.12013 2.93313C8.12013 3.48452 7.67659 3.92791 7.12501 3.92791C6.57342 3.92791 6.12988 3.48452 6.12988 2.93313C6.12988 2.38174 6.57342 1.93835 7.12501 1.93835C7.67659 1.93835 8.12013 2.38174 8.12013 2.93313Z" fill="#FD5F2F"/>
<path d="M17.5654 9.33391C17.5654 9.13496 17.6337 8.97011 17.7758 8.828C17.9123 8.69157 18.0829 8.61768 18.2819 8.61768H19.8969C20.1982 8.61768 20.4826 8.67452 20.7498 8.78821C21.0171 8.9019 21.2502 9.06106 21.4493 9.26002C21.6483 9.45897 21.8075 9.69203 21.9212 9.9592C22.035 10.2264 22.0918 10.5106 22.0918 10.8176C22.0918 11.1245 22.035 11.4087 21.9212 11.6702C21.8075 11.9374 21.6483 12.1648 21.4493 12.3637C21.2502 12.5627 21.0171 12.7218 20.7498 12.8355C20.4826 12.9492 20.1982 13.0061 19.8969 13.0061H19.0041V14.0293C19.0041 14.2339 18.9359 14.4044 18.7937 14.5409C18.6572 14.6773 18.4809 14.7512 18.2819 14.7512C18.0829 14.7512 17.918 14.683 17.7758 14.5409C17.6394 14.4044 17.5654 14.2339 17.5654 14.0293V9.32255V9.33391ZM18.9984 9.94783V11.693H19.7831C19.9026 11.693 20.0163 11.6702 20.1243 11.6247C20.2324 11.5793 20.3233 11.5167 20.3973 11.4372C20.4712 11.3576 20.5337 11.2666 20.5792 11.1643C20.6247 11.062 20.6475 10.9483 20.6475 10.8289C20.6475 10.7095 20.6247 10.5959 20.5792 10.4879C20.5337 10.3799 20.4712 10.2889 20.3973 10.2093C20.3233 10.1297 20.2267 10.0672 20.1243 10.0217C20.0163 9.97626 19.9026 9.95352 19.7831 9.95352H18.9984V9.94783Z" fill="#FD5F2F"/>
<path d="M26.9144 13.5403C26.994 13.6085 27.0565 13.6824 27.0963 13.7791C27.1361 13.87 27.1589 13.9667 27.1589 14.0633C27.1589 14.1372 27.1418 14.2168 27.1134 14.2964C27.0849 14.3759 27.0395 14.4498 26.9826 14.5237C26.9257 14.5919 26.8518 14.6545 26.7665 14.6943C26.6812 14.7397 26.5789 14.7625 26.4651 14.7625C26.3855 14.7625 26.3002 14.7511 26.2206 14.7284C26.141 14.7056 26.0671 14.6602 25.9988 14.6033L24.1394 13.006H24.0598V14.0462C24.0598 14.2509 23.9915 14.4214 23.8494 14.5578C23.7129 14.6943 23.5366 14.7682 23.3376 14.7682C23.1386 14.7682 22.9737 14.7 22.8315 14.5578C22.695 14.4214 22.6211 14.2509 22.6211 14.0462V9.33953C22.6211 9.14057 22.6893 8.97573 22.8315 8.83362C22.968 8.69719 23.1386 8.62329 23.3376 8.62329H24.9241C25.2255 8.62329 25.5098 8.68014 25.7771 8.79382C26.0443 8.90751 26.2775 9.06668 26.4822 9.27132C26.6812 9.47596 26.8404 9.70902 26.9598 9.97619C27.0736 10.2434 27.1304 10.5276 27.1304 10.8289C27.1304 11.2552 27.011 11.619 26.7779 11.9203C26.5447 12.2215 26.2035 12.4546 25.7543 12.6138L26.9144 13.546V13.5403ZM24.0598 9.94776V11.6929H24.9127C25.0321 11.6929 25.1459 11.6701 25.2482 11.6247C25.3506 11.5792 25.4416 11.5167 25.5212 11.4371C25.6008 11.3575 25.6633 11.2666 25.7088 11.1642C25.7543 11.0619 25.7771 10.9482 25.7771 10.8289C25.7771 10.7095 25.7543 10.5958 25.7088 10.4878C25.6633 10.3798 25.6008 10.2888 25.5212 10.2092C25.4416 10.1297 25.3506 10.0671 25.2482 10.0217C25.1459 9.97619 25.0321 9.95345 24.9127 9.95345H24.0598V9.94776Z" fill="#FD5F2F"/>
<path d="M29.484 14.6147C29.0973 14.4499 28.7618 14.2225 28.4775 13.9326C28.1932 13.6484 27.9657 13.3073 27.7951 12.9208C27.6302 12.5342 27.5449 12.1193 27.5449 11.6872C27.5449 11.2552 27.6302 10.8403 27.7951 10.4537C27.96 10.0672 28.1875 9.7318 28.4775 9.44189C28.7618 9.15767 29.0973 8.93029 29.484 8.75976C29.8707 8.59491 30.2801 8.50964 30.718 8.50964C31.1558 8.50964 31.5652 8.59491 31.9519 8.75976C32.3386 8.92461 32.6741 9.15199 32.9641 9.44189C33.2484 9.72611 33.4759 10.0672 33.6465 10.4537C33.8114 10.8403 33.8967 11.2552 33.8967 11.6872C33.8967 12.1193 33.8114 12.5342 33.6465 12.9208C33.4816 13.3073 33.2541 13.6427 32.9641 13.9326C32.6798 14.2168 32.3386 14.4442 31.9519 14.6147C31.5652 14.7796 31.1501 14.8648 30.718 14.8648C30.2858 14.8648 29.8707 14.7796 29.484 14.6147ZM29.1144 12.3637C29.2054 12.574 29.3305 12.7559 29.4897 12.9151C29.6489 13.0742 29.8309 13.1993 30.0413 13.2903C30.2517 13.3812 30.4791 13.4267 30.718 13.4267C30.9568 13.4267 31.1842 13.3812 31.4003 13.2903C31.6107 13.1993 31.7984 13.0742 31.9576 12.9151C32.1168 12.7559 32.2419 12.574 32.3329 12.3637C32.4239 12.1534 32.4694 11.926 32.4694 11.6872C32.4694 11.4485 32.4239 11.2211 32.3329 11.0108C32.2419 10.8005 32.1168 10.6186 31.9576 10.4594C31.7984 10.3002 31.6164 10.1752 31.4003 10.0842C31.1899 9.99328 30.9625 9.94781 30.718 9.94781C30.4734 9.94781 30.2517 9.99328 30.0413 10.0842C29.8309 10.1752 29.6489 10.3002 29.4897 10.4594C29.3305 10.6186 29.2054 10.8005 29.1144 11.0108C29.0234 11.2211 28.9779 11.4485 28.9779 11.6872C28.9779 11.926 29.0234 12.1534 29.1144 12.3637Z" fill="#FD5F2F"/>
<path d="M34.2661 12.0056C34.4025 11.8692 34.5731 11.7953 34.7722 11.7953C34.9712 11.7953 35.1361 11.8635 35.2782 12.0056C35.4204 12.142 35.4886 12.3126 35.4886 12.5115C35.4886 12.6366 35.5114 12.7559 35.5626 12.8696C35.6137 12.9833 35.6763 13.08 35.7616 13.1595C35.8412 13.2391 35.9379 13.3073 36.0516 13.3585C36.1653 13.4097 36.2847 13.4324 36.4098 13.4324C36.5349 13.4324 36.6544 13.4097 36.7681 13.3585C36.8818 13.3073 36.9785 13.2448 37.0638 13.1595C37.1491 13.08 37.2173 12.9833 37.2628 12.8696C37.314 12.7559 37.3367 12.6366 37.3367 12.5115V9.33391C37.3367 9.13496 37.405 8.97011 37.5471 8.828C37.6836 8.69157 37.8542 8.61768 38.0532 8.61768C38.2523 8.61768 38.4172 8.68589 38.5593 8.828C38.7015 8.96443 38.7697 9.13496 38.7697 9.33391V12.5115C38.7697 12.8355 38.7072 13.1368 38.5878 13.4267C38.4627 13.7109 38.2977 13.961 38.0817 14.1771C37.8713 14.3874 37.6211 14.5579 37.3311 14.683C37.0467 14.808 36.7397 14.8706 36.4098 14.8706C36.08 14.8706 35.7843 14.808 35.4943 14.683C35.21 14.5579 34.9598 14.3874 34.7437 14.1771C34.5333 13.9667 34.3627 13.7166 34.2376 13.4267C34.1125 13.1425 34.0557 12.8355 34.0557 12.5115C34.0557 12.3126 34.1239 12.1477 34.2661 12.0056Z" fill="#FD5F2F"/>
<path d="M40.2311 14.7626C40.0321 14.7626 39.8672 14.6943 39.725 14.5522C39.5886 14.4158 39.5146 14.2453 39.5146 14.0463V9.33391C39.5146 9.13496 39.5829 8.97011 39.725 8.828C39.8615 8.69157 40.0321 8.61768 40.2311 8.61768H43.0004C43.1881 8.61768 43.3416 8.6802 43.4724 8.81095C43.6032 8.94169 43.6657 9.09517 43.6657 9.28275C43.6657 9.47034 43.6032 9.62382 43.4724 9.75456C43.3416 9.88531 43.1881 9.94783 43.0004 9.94783H40.9533V10.9938H42.5228C42.6991 10.9938 42.8412 11.0563 42.9606 11.1757C43.08 11.295 43.1369 11.4428 43.1369 11.6077C43.1369 11.7725 43.08 11.9203 42.9606 12.0397C42.8412 12.1591 42.6991 12.2216 42.5228 12.2216H40.9533V13.4324H43.0004C43.1881 13.4324 43.3416 13.4949 43.4724 13.6257C43.6032 13.7564 43.6657 13.9099 43.6657 14.0975C43.6657 14.2851 43.6032 14.4385 43.4724 14.5693C43.3416 14.7 43.1881 14.7626 43.0004 14.7626H40.2311Z" fill="#FD5F2F"/>
<path d="M45.8326 14.6147C45.4516 14.4499 45.1161 14.2225 44.8261 13.9326C44.5361 13.6484 44.3087 13.3073 44.1438 12.9208C43.9788 12.5342 43.8936 12.1193 43.8936 11.6872C43.8936 11.2552 43.9788 10.8403 44.1438 10.4537C44.3087 10.0672 44.5361 9.7318 44.8261 9.44189C45.1161 9.15767 45.4516 8.93029 45.8326 8.75976C46.2136 8.59491 46.623 8.50964 47.0609 8.50964C47.5897 8.50964 48.0617 8.60628 48.4768 8.79387C48.8919 8.98145 49.2388 9.24294 49.5174 9.584C49.6255 9.72043 49.6823 9.86254 49.6823 10.016C49.6823 10.1468 49.6482 10.2604 49.5857 10.3571C49.5231 10.4537 49.4492 10.5333 49.3582 10.5958C49.2672 10.6584 49.1762 10.7038 49.0853 10.7379C48.9943 10.772 48.9147 10.7891 48.8578 10.7891C48.6815 10.7891 48.5166 10.6982 48.3517 10.5106C48.2835 10.4424 48.2096 10.3685 48.1186 10.3002C48.0276 10.232 47.9309 10.1695 47.8172 10.1183C47.7091 10.0615 47.5897 10.0217 47.4589 9.9876C47.3282 9.95349 47.1974 9.93644 47.0609 9.93644C46.8221 9.93644 46.5946 9.98191 46.3842 10.0729C46.1738 10.1638 45.9918 10.2889 45.8326 10.448C45.6734 10.6072 45.5483 10.7891 45.4573 10.9994C45.3663 11.2098 45.3208 11.4371 45.3208 11.6759C45.3208 11.9146 45.3663 12.142 45.4573 12.3523C45.5483 12.5626 45.6734 12.7445 45.8326 12.9037C45.9918 13.0629 46.1738 13.1879 46.3842 13.2789C46.5946 13.3698 46.8221 13.4153 47.0609 13.4153C47.3395 13.4153 47.5897 13.3585 47.8172 13.2391C48.0446 13.1197 48.2209 12.9947 48.346 12.8526C48.4313 12.7502 48.5166 12.6763 48.6019 12.6309C48.6872 12.5854 48.7725 12.5626 48.8578 12.5626C48.9431 12.5626 49.0398 12.5854 49.1364 12.6309C49.2331 12.6763 49.3241 12.7332 49.4037 12.8071C49.4833 12.881 49.5459 12.9662 49.6027 13.0572C49.6539 13.1481 49.6823 13.2448 49.6823 13.3414C49.6823 13.5006 49.6255 13.6484 49.5174 13.7848C49.2388 14.1259 48.8919 14.3874 48.4768 14.5749C48.0617 14.7625 47.5897 14.8592 47.0609 14.8592C46.623 14.8592 46.2136 14.7739 45.8326 14.609V14.6147Z" fill="#FD5F2F"/>
<path d="M54.1288 8.61768C54.3164 8.61768 54.47 8.6802 54.6064 8.81095C54.7372 8.94169 54.8055 9.09517 54.8055 9.28275C54.8055 9.47034 54.7372 9.62382 54.6064 9.75456C54.4756 9.88531 54.3164 9.94783 54.1288 9.94783H52.9176V14.0406C52.9176 14.2453 52.8493 14.4158 52.7072 14.5522C52.565 14.6887 52.3944 14.7626 52.2011 14.7626C52.0077 14.7626 51.8371 14.6943 51.695 14.5522C51.5585 14.4158 51.4846 14.2453 51.4846 14.0406V9.94783H50.262C50.0743 9.94783 49.9208 9.88531 49.79 9.75456C49.6592 9.62382 49.5967 9.47034 49.5967 9.28275C49.5967 9.09517 49.6592 8.94169 49.79 8.81095C49.9208 8.6802 50.0743 8.61768 50.262 8.61768H54.1288Z" fill="#FD5F2F"/>
<path d="M65.5826 30.999C66.3787 26.0966 63.0484 21.4774 58.1443 20.6816C53.2402 19.8858 48.6193 23.2149 47.8232 28.1173C47.0272 33.0197 50.3574 37.639 55.2616 38.4348C60.1657 39.2305 64.7866 35.9015 65.5826 30.999Z" fill="#FD5F2F"/>
<path d="M47.709 29.5476C47.709 24.5851 51.7407 20.5605 56.7049 20.5605V29.5476H47.709Z" fill="#FFB743"/>
<path d="M43.2565 37.3353C43.1939 37.3353 43.1371 37.3126 43.0859 37.2671L35.4206 29.6045H25.293C25.2305 29.6045 25.1679 29.5817 25.1224 29.5363L17.4003 21.8168C17.3093 21.7259 17.3093 21.5724 17.4003 21.4814C17.4913 21.3905 17.6448 21.3905 17.7358 21.4814L25.3897 29.1327H35.5172C35.5798 29.1327 35.6423 29.1554 35.6878 29.2009L43.4271 36.9374C43.5181 37.0284 43.5181 37.1818 43.4271 37.2728C43.3816 37.3183 43.319 37.341 43.2565 37.341V37.3353Z" fill="black"/>
<path d="M41.8066 37.0966C41.8066 37.8981 42.4549 38.5462 43.2567 38.5462C44.0585 38.5462 44.7067 37.8981 44.7067 37.0966C44.7067 36.2951 44.0585 35.6471 43.2567 35.6471C42.4549 35.6471 41.8066 36.2951 41.8066 37.0966Z" fill="#FFB743"/>
<path d="M34.0557 29.3771C34.0557 30.1786 34.7039 30.8267 35.5057 30.8267C36.3075 30.8267 36.9557 30.1786 36.9557 29.3771C36.9557 28.5756 36.3075 27.9276 35.5057 27.9276C34.7039 27.9276 34.0557 28.5756 34.0557 29.3771Z" fill="white"/>
<path d="M35.5063 31.0597C34.5737 31.0597 33.8174 30.3036 33.8174 29.3714C33.8174 28.4391 34.5737 27.6831 35.5063 27.6831C36.4388 27.6831 37.1951 28.4391 37.1951 29.3714C37.1951 30.3036 36.4388 31.0597 35.5063 31.0597ZM35.5063 28.1663C34.8409 28.1663 34.295 28.712 34.295 29.3771C34.295 30.0421 34.8409 30.5879 35.5063 30.5879C36.1716 30.5879 36.7175 30.0421 36.7175 29.3771C36.7175 28.712 36.1716 28.1663 35.5063 28.1663Z" fill="black"/>
<path d="M23.8369 29.3771C23.8369 30.1786 24.4852 30.8267 25.287 30.8267C26.0887 30.8267 26.737 30.1786 26.737 29.3771C26.737 28.5756 26.0887 27.9276 25.287 27.9276C24.4852 27.9276 23.8369 28.5756 23.8369 29.3771Z" fill="white"/>
<path d="M25.2875 31.0597C24.3549 31.0597 23.5986 30.3036 23.5986 29.3714C23.5986 28.4391 24.3549 27.6831 25.2875 27.6831C26.2201 27.6831 26.9764 28.4391 26.9764 29.3714C26.9764 30.3036 26.2201 31.0597 25.2875 31.0597ZM25.2875 28.1663C24.6222 28.1663 24.0763 28.712 24.0763 29.3771C24.0763 30.0421 24.6222 30.5879 25.2875 30.5879C25.9528 30.5879 26.4987 30.0421 26.4987 29.3771C26.4987 28.712 25.9528 28.1663 25.2875 28.1663Z" fill="black"/>
<path d="M14.9268 21.7202C14.9268 23.1356 16.0754 24.2839 17.4913 24.2839C18.9073 24.2839 20.0559 23.1356 20.0559 21.7202C20.0559 20.3047 18.9073 19.1565 17.4913 19.1565C16.0754 19.1565 14.9268 20.3047 14.9268 21.7202Z" fill="#FD5F2F"/>
<path d="M19.8111 43.6565H16.041V47.4253H19.8111V43.6565Z" fill="black"/>
<path d="M19.8111 50.2448H16.041V54.0135H19.8111V50.2448Z" fill="#FFB743"/>
<path d="M19.8111 56.8274H16.041V60.5962H19.8111V56.8274Z" fill="#FD5F2F"/>
<path d="M51.3939 60.8406H23.7408C23.61 60.8406 23.502 60.7326 23.502 60.6019V56.8331C23.502 56.7024 23.61 56.5944 23.7408 56.5944H51.3939C51.5247 56.5944 51.6327 56.7024 51.6327 56.8331V60.6019C51.6327 60.7326 51.5247 60.8406 51.3939 60.8406ZM23.9796 60.3631H51.1551V57.0662H23.9796V60.3631Z" fill="black"/>
<path d="M51.3939 47.6697H23.7408C23.61 47.6697 23.502 47.5617 23.502 47.431V43.6622C23.502 43.5315 23.61 43.4235 23.7408 43.4235H51.3939C51.5247 43.4235 51.6327 43.5315 51.6327 43.6622V47.431C51.6327 47.5617 51.5247 47.6697 51.3939 47.6697ZM23.9796 47.1922H51.1551V43.8953H23.9796V47.1922Z" fill="black"/>
<path d="M51.3939 54.2523H23.7408C23.61 54.2523 23.502 54.1442 23.502 54.0135V50.2447C23.502 50.114 23.61 50.006 23.7408 50.006H51.3939C51.5247 50.006 51.6327 50.114 51.6327 50.2447V54.0135C51.6327 54.1442 51.5247 54.2523 51.3939 54.2523ZM23.9796 53.7748H51.1551V50.4778H23.9796V53.7748Z" fill="black"/>
<path d="M56.7051 29.5477V17.3887C61.1291 17.3887 65.0016 19.7477 67.134 23.2777L56.7051 29.5477Z" fill="white"/>
<path d="M56.7046 29.7865C56.6648 29.7865 56.625 29.7751 56.5852 29.758C56.5113 29.7182 56.4658 29.6387 56.4658 29.5534V17.3944C56.4658 17.2636 56.5739 17.1556 56.7046 17.1556C61.0946 17.1556 65.0694 19.401 67.3383 23.1584C67.3724 23.2153 67.3781 23.2778 67.3667 23.3403C67.3497 23.4028 67.3098 23.454 67.2587 23.4881L56.8298 29.758C56.7899 29.7808 56.7501 29.7921 56.7046 29.7921V29.7865ZM56.9435 17.6274V29.1271L66.8038 23.1982C64.6429 19.7705 60.9865 17.707 56.9435 17.6274Z" fill="black"/>
<path d="M67.3163 73.7613C72.5327 73.7613 76.7614 69.534 76.7614 64.3194C76.7614 59.1048 72.5327 54.8776 67.3163 54.8776C62.0998 54.8776 57.8711 59.1048 57.8711 64.3194C57.8711 69.534 62.0998 73.7613 67.3163 73.7613Z" fill="#FFB743"/>
<path d="M67.3158 74C61.9763 74 57.6318 69.6571 57.6318 64.3194C57.6318 58.9817 61.9763 54.6388 67.3158 54.6388C72.6554 54.6388 76.9998 58.9817 76.9998 64.3194C76.9998 69.6571 72.6554 74 67.3158 74ZM67.3158 55.1106C62.2378 55.1106 58.1038 59.2432 58.1038 64.3194C58.1038 69.3956 62.2378 73.5282 67.3158 73.5282C72.3938 73.5282 76.5279 69.3956 76.5279 64.3194C76.5279 59.2432 72.3938 55.1106 67.3158 55.1106Z" fill="black"/>
<path d="M65.6103 67.173C65.5477 67.173 65.4909 67.1502 65.4454 67.1048L62.3577 64.1034C62.261 64.0124 62.261 63.8589 62.3577 63.768C62.4486 63.6714 62.6022 63.6714 62.6932 63.768L65.616 66.6102L71.8881 60.6359C71.9848 60.5449 72.1326 60.5506 72.2236 60.6416C72.3146 60.7382 72.3089 60.886 72.2179 60.9769L65.7809 67.1048C65.7354 67.1502 65.6728 67.173 65.616 67.173H65.6103Z" fill="black"/>
</svg>
