<svg width="83" height="76" viewBox="0 0 83 76" fill="none" xmlns="http://www.w3.org/2000/svg">
<g clip-path="url(#clip0_323_6436)">
<path d="M38.3799 23.0251C43.1504 23.0251 47.0176 19.2185 47.0176 14.5228C47.0176 9.82712 43.1504 6.02051 38.3799 6.02051C33.6094 6.02051 29.7422 9.82712 29.7422 14.5228C29.7422 19.2185 33.6094 23.0251 38.3799 23.0251Z" fill="#FFB743"/>
<path d="M82.6729 58.5281V33.542C82.6729 24.0702 74.8722 16.3918 65.2495 16.3918L17.7498 16.3918C8.1272 16.3918 0.326523 24.0702 0.326523 33.542V58.5281C0.326523 67.9999 8.1272 75.6783 17.7498 75.6783H65.2495C74.8722 75.6783 82.6729 67.9999 82.6729 58.5281Z" fill="white"/>
<path d="M72.7203 76H10.2797C4.61457 76 0 71.4655 0 65.8815V26.1887C0 20.6124 4.60679 16.0702 10.2797 16.0702H72.7281C78.3932 16.0702 83.0078 20.6048 83.0078 26.1887V65.8815C83.0078 71.4578 78.401 76 72.7281 76H72.7203ZM10.2797 16.7136C4.97253 16.7136 0.653666 20.9648 0.653666 26.1887V65.8815C0.653666 71.1055 4.97253 75.3566 10.2797 75.3566H72.7281C78.0352 75.3566 82.3541 71.1055 82.3541 65.8815V26.1887C82.3541 20.9648 78.0352 16.7136 72.7281 16.7136H10.2797Z" fill="black"/>
<path d="M79.5918 60.8108V31.2595C79.5918 24.7236 74.209 19.4252 67.569 19.4252L15.4314 19.4252C8.79138 19.4252 3.4086 24.7236 3.4086 31.2595V60.8108C3.4086 67.3467 8.79138 72.6451 15.4314 72.6451H67.569C74.209 72.6451 79.5918 67.3467 79.5918 60.8108Z" fill="#FD5F2F"/>
<path d="M3.4082 26.1887V26.7172H79.5914V26.1887C79.5914 22.4584 76.5176 19.4252 72.7201 19.4252H10.2795C6.48977 19.4252 3.4082 22.4508 3.4082 26.1887Z" fill="white"/>
<path d="M72.7208 72.9667H10.2801C6.31145 72.9667 3.08203 69.7879 3.08203 65.8815V26.1887C3.08203 22.2822 6.31145 19.1034 10.2801 19.1034H72.7286C76.6973 19.1034 79.9189 22.2822 79.9189 26.1887V65.8815C79.9189 69.7879 76.6895 72.9667 72.7286 72.9667H72.7208ZM10.2801 19.7468C6.66941 19.7468 3.7357 22.6345 3.7357 26.1887V65.8815C3.7357 69.4356 6.66941 72.3233 10.2801 72.3233H72.7286C76.3393 72.3233 79.273 69.4356 79.273 65.8815V26.1887C79.273 22.6345 76.3393 19.7468 72.7286 19.7468H10.2801Z" fill="black"/>
<path d="M29.75 40.9336C27.1665 40.9336 25.0654 38.8655 25.0654 36.3225C25.0654 33.7794 27.1665 31.7113 29.75 31.7113C32.3336 31.7113 34.4346 33.7794 34.4346 36.3225C34.4346 38.8655 32.3336 40.9336 29.75 40.9336ZM29.75 32.3624C27.5245 32.3624 25.7191 34.1394 25.7191 36.3301C25.7191 38.5208 27.5245 40.2979 29.75 40.2979C31.9756 40.2979 33.781 38.5208 33.781 36.3301C33.781 34.1394 31.9756 32.3624 29.75 32.3624Z" fill="white"/>
<path d="M60.6973 4.28946C60.6973 6.65632 62.6505 8.57891 65.055 8.57891C67.4596 8.57891 69.4128 6.65632 69.4128 4.28946C69.4128 1.9226 67.4596 0 65.055 0C62.6505 0 60.6973 1.9226 60.6973 4.28946Z" fill="black"/>
<path d="M50.7756 36.943H34.1071C33.9281 36.943 33.7803 36.7974 33.7803 36.6213C33.7803 36.4451 33.9281 36.2996 34.1071 36.2996H50.7756C50.9546 36.2996 51.1024 36.4451 51.1024 36.6213C51.1024 36.7974 50.9546 36.943 50.7756 36.943Z" fill="white"/>
<path d="M18.3644 61.8295C18.3177 61.8295 18.2788 61.8218 18.2321 61.7988C18.0687 61.7299 17.9909 61.5384 18.0609 61.3775L27.5547 40.0605C27.6247 39.8996 27.8192 39.823 27.9826 39.892C28.1461 39.9609 28.2239 40.1524 28.1538 40.3132L18.6601 61.6303C18.6057 61.7529 18.4889 61.8218 18.3644 61.8218V61.8295Z" fill="white"/>
<path d="M50.7756 36.6519C50.7289 36.6519 50.69 36.6442 50.6433 36.6213C50.4798 36.5523 50.402 36.3608 50.4721 36.2L54.752 26.5946C54.8221 26.4338 55.0166 26.3572 55.18 26.4261C55.3434 26.4951 55.4212 26.6866 55.3512 26.8474L51.0713 36.4527C51.0168 36.5753 50.9001 36.6442 50.7756 36.6442V36.6519Z" fill="white"/>
<path d="M55.048 27.0389C55.0013 27.0389 54.9624 27.0313 54.9157 27.0083C54.7523 26.9394 54.6745 26.7479 54.7445 26.587L62.9854 8.0734C63.0554 7.91255 63.25 7.83595 63.4134 7.90489C63.5768 7.97383 63.6546 8.16532 63.5846 8.32618L55.3437 26.8398C55.2893 26.9623 55.1725 27.0313 55.048 27.0313V27.0389Z" fill="black"/>
<path d="M16.5518 70.0177C13.9683 70.0177 11.8672 67.9496 11.8672 65.4066C11.8672 62.8635 13.9683 60.7954 16.5518 60.7954C19.1353 60.7954 21.2364 62.8635 21.2364 65.4066C21.2364 67.9496 19.1353 70.0177 16.5518 70.0177ZM16.5518 61.4388C14.3262 61.4388 12.5209 63.2159 12.5209 65.4066C12.5209 67.5973 14.3262 69.3743 16.5518 69.3743C18.7774 69.3743 20.5827 67.5973 20.5827 65.4066C20.5827 63.2159 18.7774 61.4388 16.5518 61.4388Z" fill="white"/>
<path d="M10.3111 22.7571C10.3111 23.3852 9.78977 23.8985 9.15167 23.8985C8.51356 23.8985 7.99219 23.3852 7.99219 22.7571C7.99219 22.129 8.51356 21.6158 9.15167 21.6158C9.78977 21.6158 10.3111 22.129 10.3111 22.7571Z" fill="black"/>
<path d="M18.8629 22.7571C18.8629 23.3852 18.3415 23.8985 17.7034 23.8985C17.0653 23.8985 16.5439 23.3852 16.5439 22.7571C16.5439 22.129 17.0653 21.6158 17.7034 21.6158C18.3415 21.6158 18.8629 22.129 18.8629 22.7571Z" fill="#FFB743"/>
<path d="M13.4319 23.8985C14.0723 23.8985 14.5914 23.3875 14.5914 22.7571C14.5914 22.1268 14.0723 21.6158 13.4319 21.6158C12.7916 21.6158 12.2725 22.1268 12.2725 22.7571C12.2725 23.3875 12.7916 23.8985 13.4319 23.8985Z" fill="#FD5F2F"/>
</g>
<defs>
<clipPath id="clip0_323_6436">
<rect width="83" height="76" fill="white"/>
</clipPath>
</defs>
</svg>
