<svg width="120" height="28" viewBox="0 0 120 28" fill="none" xmlns="http://www.w3.org/2000/svg">
<path d="M37.5796 4.92309C37.1391 3.28376 35.8424 1.98698 34.203 1.54656C31.2425 0.739136 19.3268 0.739136 19.3268 0.739136C19.3268 0.739136 7.41107 0.763603 4.4505 1.57103C2.81117 2.01145 1.51439 3.30823 1.07398 4.94755C0.291016 7.90813 0.291016 14.0984 0.291016 14.0984C0.291016 14.0984 0.291016 20.2887 1.09844 23.2737C1.53886 24.9131 2.83564 26.2099 4.47497 26.6503C7.43554 27.4577 19.3512 27.4577 19.3512 27.4577C19.3512 27.4577 31.2669 27.4577 34.2275 26.6503C35.8668 26.2099 37.1636 24.9131 37.604 23.2737C38.4115 20.3132 38.4115 14.0984 38.4115 14.0984C38.4115 14.0984 38.387 7.90813 37.5796 4.92309Z" fill="black"/>
<path d="M25.4191 14.0983L15.5342 8.37292V19.8237L25.4191 14.0983Z" fill="white"/>
<path d="M55.588 25.0354C54.8295 24.5216 54.2912 23.7386 53.9731 22.662C53.655 21.5855 53.5082 20.1663 53.5082 18.3802V15.9579C53.5082 14.1718 53.6795 12.7037 54.0465 11.6272C54.4135 10.5261 54.9763 9.74317 55.7592 9.25382C56.5422 8.76447 57.5454 8.49533 58.7932 8.49533C60.0166 8.49533 61.0198 8.74 61.7538 9.25382C62.4878 9.76764 63.0506 10.5506 63.3931 11.6272C63.7356 12.7037 63.9069 14.1473 63.9069 15.9335V18.3557C63.9069 20.1419 63.7356 21.561 63.3931 22.6376C63.0506 23.7141 62.5123 24.4971 61.7538 25.0109C60.9953 25.5003 59.9676 25.7694 58.6953 25.7694C57.3741 25.7939 56.3464 25.5247 55.588 25.0354ZM59.8208 22.4174C60.041 21.8791 60.1389 20.9738 60.1389 19.7504V14.5388C60.1389 13.3399 60.041 12.4591 59.8208 11.9208C59.6006 11.358 59.2336 11.0889 58.7198 11.0889C58.206 11.0889 57.8634 11.358 57.6432 11.9208C57.423 12.4835 57.3252 13.3399 57.3252 14.5388V19.7504C57.3252 20.9738 57.423 21.8791 57.6188 22.4174C57.8145 22.9556 58.1815 23.2248 58.7198 23.2248C59.2336 23.2248 59.6006 22.9556 59.8208 22.4174ZM113.454 18.4291V19.2855L113.552 21.7078C113.625 22.2461 113.747 22.6376 113.943 22.8822C114.139 23.1269 114.457 23.2493 114.873 23.2493C115.436 23.2493 115.827 23.029 116.023 22.5886C116.243 22.1482 116.341 21.4142 116.365 20.411L119.62 20.6068C119.644 20.7536 119.644 20.9493 119.644 21.194C119.644 22.7354 119.228 23.8854 118.372 24.6439C117.515 25.4024 116.341 25.7939 114.799 25.7939C112.94 25.7939 111.643 25.2067 110.909 24.0567C110.175 22.9067 109.784 21.0961 109.784 18.6738V15.7133C109.784 13.2176 110.175 11.3825 110.934 10.2325C111.717 9.08255 113.038 8.49533 114.897 8.49533C116.194 8.49533 117.173 8.74 117.858 9.20489C118.543 9.66977 119.032 10.4038 119.326 11.407C119.62 12.4101 119.742 13.7803 119.742 15.542V18.4047H113.454V18.4291ZM113.943 11.3825C113.747 11.6272 113.625 11.9942 113.552 12.5325C113.478 13.0708 113.454 13.8782 113.454 14.9792V16.1781H116.194V14.9792C116.194 13.9027 116.17 13.0952 116.096 12.5325C116.023 11.9697 115.9 11.5782 115.705 11.358C115.509 11.1378 115.215 11.0155 114.824 11.0155C114.408 11.04 114.114 11.1623 113.943 11.3825ZM46.4371 18.1111L42.1553 2.64758H45.8988L47.3913 9.6453C47.7828 11.3825 48.052 12.8505 48.2477 14.0495H48.3456C48.4679 13.1686 48.7615 11.725 49.2019 9.66977L50.7434 2.64758H54.4869L50.1562 18.0866V25.5003H46.4616V18.1111H46.4371Z" fill="black"/>
<path d="M76.0427 8.81348V25.5248H73.1066L72.7885 23.4695H72.7151C71.9077 25.011 70.7088 25.794 69.1184 25.794C68.0174 25.794 67.1855 25.4269 66.6716 24.6929C66.1334 23.9589 65.8887 22.8334 65.8887 21.2919V8.81348H69.6567V21.0717C69.6567 21.8057 69.7301 22.344 69.9013 22.6621C70.0726 22.9802 70.3418 23.127 70.7088 23.127C71.0269 23.127 71.3449 23.0291 71.6385 22.8334C71.9322 22.6376 72.1524 22.3685 72.2992 22.0749V8.81348H76.0427Z" fill="black"/>
<path d="M95.3474 8.81348V25.5248H92.4113L92.0932 23.4695H92.0198C91.2124 25.011 90.0135 25.794 88.4231 25.794C87.322 25.794 86.4901 25.4269 85.9763 24.6929C85.438 23.9589 85.1934 22.8334 85.1934 21.2919V8.81348H88.9614V21.0717C88.9614 21.8057 89.0348 22.344 89.206 22.6621C89.3773 22.9802 89.6465 23.127 90.0135 23.127C90.3315 23.127 90.6496 23.0291 90.9432 22.8334C91.2368 22.6376 91.4571 22.3685 91.6039 22.0749V8.81348H95.3474Z" fill="black"/>
<path d="M86.2705 5.6816H82.5269V25.5248H78.8568V5.6816H75.1133V2.64762H86.246V5.6816H86.2705ZM107.777 11.4804C107.557 10.4283 107.19 9.66981 106.676 9.18046C106.163 8.71558 105.478 8.4709 104.572 8.4709C103.887 8.4709 103.226 8.66664 102.639 9.05812C102.028 9.4496 101.587 9.96342 101.245 10.5996H101.22V1.79126H97.599V25.5003H100.706L101.098 23.9099H101.171C101.465 24.4727 101.905 24.9131 102.468 25.2556C103.06 25.5802 103.726 25.7486 104.401 25.745C105.673 25.745 106.603 25.1578 107.215 23.9833C107.802 22.8089 108.12 20.9738 108.12 18.5026V15.8601C108.12 14.0006 107.998 12.5325 107.777 11.4804ZM104.328 18.3069C104.328 19.5302 104.279 20.4845 104.181 21.1696C104.083 21.8547 103.912 22.344 103.667 22.6376C103.422 22.9312 103.104 23.078 102.713 23.078C102.395 23.078 102.125 23.0046 101.856 22.8578C101.587 22.711 101.391 22.4908 101.22 22.1972V12.7038C101.342 12.2389 101.563 11.8719 101.881 11.5783C102.199 11.2847 102.517 11.1379 102.884 11.1379C103.275 11.1379 103.569 11.2847 103.765 11.5783C103.985 11.8719 104.107 12.3857 104.205 13.0953C104.279 13.8048 104.328 14.808 104.328 16.1292V18.3069Z" fill="black"/>
</svg>
